<svg width="266" height="214" viewBox="0 0 266 214" fill="none" xmlns="http://www.w3.org/2000/svg">
    <path
        d="M168.489 53.5L137.164 30L144.495 24.5C144.806 24.2675 145.059 23.9656 145.233 23.6185C145.407 23.2713 145.498 22.8884 145.498 22.5C145.498 19.1848 144.181 16.0054 141.837 13.6612C139.493 11.317 136.314 10 132.998 10C129.683 10 126.504 11.317 124.16 13.6612C121.815 16.0054 120.498 19.1848 120.498 22.5C120.498 23.163 120.762 23.7989 121.231 24.2678C121.7 24.7366 122.335 25 122.998 25C123.661 25 124.297 24.7366 124.766 24.2678C125.235 23.7989 125.498 23.163 125.498 22.5C125.504 20.6169 126.217 18.8047 127.496 17.4233C128.776 16.0419 130.529 15.1924 132.406 15.0436C134.283 14.8948 136.147 15.4576 137.629 16.6202C139.11 17.7827 140.1 19.46 140.402 21.3188L131.542 27.9656L131.455 28.0312L97.5078 53.5C96.6689 54.1292 96.0491 55.0062 95.7359 56.0069C95.4228 57.0077 95.4322 58.0816 95.7629 59.0767C96.0936 60.0718 96.7287 60.9378 97.5786 61.5521C98.4284 62.1664 99.4498 62.498 100.498 62.5H165.498C166.548 62.5 167.571 62.1698 168.422 61.5562C169.273 60.9426 169.91 60.0767 170.242 59.0811C170.574 58.0856 170.584 57.0108 170.271 56.0092C169.958 55.0075 169.338 54.1296 168.498 53.5H168.489ZM165.498 57.5H100.498L132.998 33.125L165.498 57.5Z"
        fill="#1C1C1C" />
    <path
        d="M35.4007 134V133.362C35.9874 133.083 36.5887 132.907 37.2047 132.834V119.788C36.9114 119.729 36.6107 119.656 36.3027 119.568C35.9947 119.465 35.694 119.355 35.4007 119.238V118.6H37.7327C38.0114 118.6 38.2754 118.593 38.5247 118.578C38.7887 118.563 39.06 118.549 39.3387 118.534C39.6174 118.519 39.918 118.505 40.2407 118.49C40.5634 118.475 40.93 118.468 41.3407 118.468C41.9274 118.468 42.5214 118.519 43.1227 118.622C43.7387 118.71 44.2887 118.886 44.7727 119.15C45.2714 119.414 45.6747 119.788 45.9827 120.272C46.2907 120.741 46.4447 121.357 46.4447 122.12C46.4447 122.501 46.386 122.883 46.2687 123.264C46.1514 123.645 45.968 124.005 45.7187 124.342C45.484 124.665 45.1834 124.951 44.8167 125.2C44.45 125.449 44.0174 125.633 43.5187 125.75V125.838C43.9587 125.911 44.3914 126.036 44.8167 126.212C45.2567 126.388 45.6454 126.63 45.9827 126.938C46.32 127.231 46.5914 127.598 46.7967 128.038C47.0167 128.478 47.1267 129.006 47.1267 129.622C47.1267 130.414 46.9507 131.096 46.5987 131.668C46.2467 132.24 45.7847 132.709 45.2127 133.076C44.6554 133.443 44.0174 133.714 43.2987 133.89C42.58 134.051 41.854 134.132 41.1207 134.132C40.6074 134.132 40.028 134.11 39.3827 134.066C38.7374 134.022 38.114 134 37.5127 134H35.4007ZM41.2747 132.988C41.8027 132.988 42.294 132.907 42.7487 132.746C43.218 132.585 43.614 132.365 43.9367 132.086C44.274 131.793 44.538 131.448 44.7287 131.052C44.9194 130.641 45.0147 130.201 45.0147 129.732C45.0147 129.145 44.8974 128.661 44.6627 128.28C44.4427 127.884 44.1347 127.576 43.7387 127.356C43.3574 127.121 42.91 126.96 42.3967 126.872C41.898 126.784 41.3774 126.74 40.8347 126.74H39.1847V132.812C39.39 132.871 39.632 132.915 39.9107 132.944C40.204 132.973 40.6587 132.988 41.2747 132.988ZM40.2847 125.596C40.534 125.596 40.8274 125.589 41.1647 125.574C41.5167 125.545 41.8027 125.515 42.0227 125.486C42.6974 125.251 43.2474 124.877 43.6727 124.364C44.1127 123.836 44.3327 123.22 44.3327 122.516C44.3327 121.548 44.0394 120.822 43.4527 120.338C42.8807 119.854 42.1107 119.612 41.1427 119.612C40.688 119.612 40.2994 119.619 39.9767 119.634C39.654 119.649 39.39 119.671 39.1847 119.7V125.596H40.2847ZM58.1099 132.46C57.9925 132.709 57.8092 132.944 57.5599 133.164C57.3105 133.384 57.0245 133.575 56.7019 133.736C56.3792 133.897 56.0272 134.022 55.6459 134.11C55.2645 134.213 54.8759 134.264 54.4799 134.264C53.6145 134.264 52.8519 134.132 52.1919 133.868C51.5319 133.589 50.9819 133.201 50.5419 132.702C50.1019 132.189 49.7645 131.58 49.5299 130.876C49.3099 130.172 49.1999 129.38 49.1999 128.5C49.1999 126.623 49.6325 125.193 50.4979 124.21C51.3632 123.227 52.5879 122.736 54.1719 122.736C54.6852 122.736 55.1912 122.809 55.6899 122.956C56.1885 123.088 56.6285 123.315 57.0099 123.638C57.4059 123.961 57.7212 124.393 57.9559 124.936C58.2052 125.464 58.3299 126.124 58.3299 126.916C58.3299 127.165 58.3152 127.422 58.2859 127.686C58.2712 127.935 58.2345 128.207 58.1759 128.5H51.3119C51.3119 129.116 51.3852 129.695 51.5319 130.238C51.6932 130.766 51.9279 131.228 52.2359 131.624C52.5439 132.02 52.9325 132.335 53.4019 132.57C53.8712 132.79 54.4212 132.9 55.0519 132.9C55.5652 132.9 56.0859 132.827 56.6139 132.68C57.1419 132.533 57.5379 132.343 57.8019 132.108L58.1099 132.46ZM54.0839 123.704C53.2479 123.704 52.6099 123.99 52.1699 124.562C51.7299 125.119 51.4659 126.109 51.3779 127.532H56.2179C56.2325 127.4 56.2399 127.275 56.2399 127.158C56.2545 127.026 56.2619 126.901 56.2619 126.784C56.2619 125.845 56.0859 125.097 55.7339 124.54C55.3819 123.983 54.8319 123.704 54.0839 123.704ZM68.7563 132.46C68.4923 132.973 68.0596 133.406 67.4583 133.758C66.8716 134.095 66.1823 134.264 65.3903 134.264C64.525 134.264 63.7696 134.132 63.1243 133.868C62.4936 133.589 61.9656 133.201 61.5403 132.702C61.115 132.189 60.7923 131.58 60.5723 130.876C60.367 130.157 60.2643 129.365 60.2643 128.5C60.2643 126.637 60.719 125.215 61.6283 124.232C62.5376 123.235 63.777 122.736 65.3463 122.736C66.065 122.736 66.703 122.802 67.2603 122.934C67.8323 123.051 68.3163 123.213 68.7123 123.418C68.6683 123.902 68.5876 124.445 68.4703 125.046C68.353 125.647 68.2063 126.146 68.0303 126.542H67.4363L66.5123 123.924C66.4096 123.851 66.2923 123.799 66.1603 123.77C66.0283 123.726 65.8083 123.704 65.5003 123.704C64.503 123.704 63.733 124.071 63.1903 124.804C62.6476 125.523 62.3763 126.747 62.3763 128.478C62.3763 129.035 62.4496 129.578 62.5963 130.106C62.7576 130.634 62.9923 131.111 63.3003 131.536C63.623 131.947 64.019 132.277 64.4883 132.526C64.9723 132.775 65.5296 132.9 66.1603 132.9C66.6736 132.9 67.121 132.827 67.5023 132.68C67.8836 132.533 68.2063 132.357 68.4703 132.152L68.7563 132.46ZM70.1256 128.5C70.1256 127.576 70.243 126.762 70.4776 126.058C70.727 125.339 71.079 124.738 71.5336 124.254C71.9883 123.755 72.531 123.381 73.1616 123.132C73.807 122.868 74.5183 122.736 75.2956 122.736C76.205 122.736 76.9896 122.875 77.6496 123.154C78.3096 123.433 78.845 123.829 79.2556 124.342C79.681 124.841 79.989 125.442 80.1796 126.146C80.385 126.85 80.4876 127.635 80.4876 128.5C80.4876 130.348 80.0183 131.771 79.0796 132.768C78.141 133.765 76.8796 134.264 75.2956 134.264C74.4156 134.264 73.653 134.132 73.0076 133.868C72.3623 133.589 71.827 133.201 71.4016 132.702C70.9763 132.189 70.6536 131.58 70.4336 130.876C70.2283 130.157 70.1256 129.365 70.1256 128.5ZM72.2376 128.5C72.2376 129.16 72.2963 129.783 72.4136 130.37C72.5456 130.957 72.7436 131.47 73.0076 131.91C73.2863 132.335 73.6456 132.673 74.0856 132.922C74.5256 133.171 75.0536 133.296 75.6696 133.296C76.4616 133.296 77.107 132.907 77.6056 132.13C78.119 131.353 78.3756 130.143 78.3756 128.5C78.3756 127.825 78.3096 127.202 78.1776 126.63C78.0603 126.043 77.8696 125.537 77.6056 125.112C77.3416 124.672 77.0043 124.327 76.5936 124.078C76.183 123.829 75.6916 123.704 75.1196 123.704C74.2543 123.704 73.5576 124.093 73.0296 124.87C72.5016 125.647 72.2376 126.857 72.2376 128.5ZM93.4398 134H88.7318V133.45C88.8785 133.362 89.0545 133.274 89.2598 133.186C89.4798 133.083 89.7365 132.995 90.0298 132.922V127.84C90.0298 127.253 90.0005 126.725 89.9418 126.256C89.8978 125.787 89.8025 125.398 89.6558 125.09C89.5238 124.767 89.3258 124.525 89.0618 124.364C88.7978 124.188 88.4531 124.1 88.0278 124.1C87.7051 124.1 87.4045 124.166 87.1258 124.298C86.8618 124.43 86.6198 124.606 86.3998 124.826C86.1945 125.046 86.0111 125.295 85.8498 125.574C85.7031 125.853 85.5858 126.146 85.4978 126.454V132.922C85.7325 132.995 85.9525 133.076 86.1578 133.164C86.3778 133.237 86.5905 133.333 86.7958 133.45V134H82.0658V133.45C82.2711 133.347 82.4985 133.252 82.7478 133.164C82.9971 133.076 83.2538 132.995 83.5178 132.922V124.276L82.0658 124.1V123.528C82.5351 123.323 83.0118 123.161 83.4958 123.044C83.9945 122.912 84.4785 122.809 84.9478 122.736H85.4978V125.222H85.5198C85.7545 124.533 86.1505 123.946 86.7078 123.462C87.2798 122.978 87.9838 122.736 88.8198 122.736C89.1718 122.736 89.5091 122.773 89.8318 122.846C90.1545 122.919 90.4551 123.059 90.7338 123.264C91.0125 123.455 91.2471 123.726 91.4378 124.078C91.6285 124.43 91.7678 124.885 91.8558 125.442C92.1198 124.635 92.5451 123.983 93.1318 123.484C93.7185 122.985 94.4518 122.736 95.3318 122.736C95.8745 122.736 96.3438 122.809 96.7398 122.956C97.1505 123.088 97.4878 123.33 97.7518 123.682C98.0158 124.034 98.2065 124.511 98.3238 125.112C98.4558 125.713 98.5218 126.476 98.5218 127.4V132.922C99.0205 133.01 99.5045 133.186 99.9738 133.45V134H95.2438V133.45C95.6838 133.215 96.1165 133.039 96.5418 132.922V127.444C96.5418 126.916 96.5125 126.447 96.4538 126.036C96.4098 125.625 96.3145 125.281 96.1678 125.002C96.0211 124.709 95.8158 124.489 95.5518 124.342C95.2878 124.181 94.9358 124.1 94.4958 124.1C93.7918 124.1 93.2418 124.342 92.8458 124.826C92.4645 125.31 92.1858 125.926 92.0098 126.674V132.922C92.5231 133.069 92.9998 133.245 93.4398 133.45V134ZM110.188 132.46C110.071 132.709 109.887 132.944 109.638 133.164C109.389 133.384 109.103 133.575 108.78 133.736C108.457 133.897 108.105 134.022 107.724 134.11C107.343 134.213 106.954 134.264 106.558 134.264C105.693 134.264 104.93 134.132 104.27 133.868C103.61 133.589 103.06 133.201 102.62 132.702C102.18 132.189 101.843 131.58 101.608 130.876C101.388 130.172 101.278 129.38 101.278 128.5C101.278 126.623 101.711 125.193 102.576 124.21C103.441 123.227 104.666 122.736 106.25 122.736C106.763 122.736 107.269 122.809 107.768 122.956C108.267 123.088 108.707 123.315 109.088 123.638C109.484 123.961 109.799 124.393 110.034 124.936C110.283 125.464 110.408 126.124 110.408 126.916C110.408 127.165 110.393 127.422 110.364 127.686C110.349 127.935 110.313 128.207 110.254 128.5H103.39C103.39 129.116 103.463 129.695 103.61 130.238C103.771 130.766 104.006 131.228 104.314 131.624C104.622 132.02 105.011 132.335 105.48 132.57C105.949 132.79 106.499 132.9 107.13 132.9C107.643 132.9 108.164 132.827 108.692 132.68C109.22 132.533 109.616 132.343 109.88 132.108L110.188 132.46ZM106.162 123.704C105.326 123.704 104.688 123.99 104.248 124.562C103.808 125.119 103.544 126.109 103.456 127.532H108.296C108.311 127.4 108.318 127.275 108.318 127.158C108.333 127.026 108.34 126.901 108.34 126.784C108.34 125.845 108.164 125.097 107.812 124.54C107.46 123.983 106.91 123.704 106.162 123.704ZM125.81 131.118C125.81 131.441 125.817 131.719 125.832 131.954C125.847 132.189 125.861 132.438 125.876 132.702L127.394 132.922V133.384C127.027 133.575 126.617 133.743 126.162 133.89C125.722 134.037 125.297 134.147 124.886 134.22H124.336C124.189 133.883 124.101 133.516 124.072 133.12C124.043 132.709 124.021 132.262 124.006 131.778H123.896C123.837 132.071 123.72 132.372 123.544 132.68C123.383 132.973 123.163 133.237 122.884 133.472C122.62 133.707 122.305 133.897 121.938 134.044C121.571 134.191 121.153 134.264 120.684 134.264C119.789 134.264 119.056 133.993 118.484 133.45C117.927 132.907 117.648 132.196 117.648 131.316C117.648 130.641 117.78 130.091 118.044 129.666C118.323 129.226 118.726 128.881 119.254 128.632C119.782 128.383 120.435 128.207 121.212 128.104C121.989 127.987 122.891 127.899 123.918 127.84C123.977 127.209 123.991 126.645 123.962 126.146C123.947 125.633 123.867 125.2 123.72 124.848C123.588 124.481 123.383 124.203 123.104 124.012C122.84 123.807 122.488 123.704 122.048 123.704C121.843 123.704 121.608 123.719 121.344 123.748C121.095 123.763 120.845 123.821 120.596 123.924L119.562 126.564H118.99C118.843 126.124 118.711 125.669 118.594 125.2C118.491 124.731 118.425 124.269 118.396 123.814C118.953 123.477 119.569 123.213 120.244 123.022C120.933 122.831 121.696 122.736 122.532 122.736C123.28 122.736 123.874 122.846 124.314 123.066C124.769 123.271 125.113 123.543 125.348 123.88C125.583 124.217 125.737 124.591 125.81 125.002C125.883 125.413 125.92 125.823 125.92 126.234C125.92 127.114 125.898 127.965 125.854 128.786C125.825 129.593 125.81 130.37 125.81 131.118ZM121.564 132.9C121.931 132.9 122.253 132.827 122.532 132.68C122.811 132.533 123.045 132.357 123.236 132.152C123.427 131.947 123.581 131.741 123.698 131.536C123.815 131.316 123.896 131.133 123.94 130.986V128.676C123.089 128.676 122.393 128.72 121.85 128.808C121.307 128.896 120.882 129.035 120.574 129.226C120.266 129.417 120.053 129.659 119.936 129.952C119.819 130.231 119.76 130.553 119.76 130.92C119.76 131.551 119.921 132.042 120.244 132.394C120.567 132.731 121.007 132.9 121.564 132.9ZM139.737 131.492C139.737 131.081 139.605 130.737 139.341 130.458C139.092 130.165 138.769 129.893 138.373 129.644C137.977 129.395 137.552 129.153 137.097 128.918C136.657 128.683 136.239 128.412 135.843 128.104C135.447 127.781 135.117 127.415 134.853 127.004C134.604 126.593 134.479 126.087 134.479 125.486C134.479 125.09 134.567 124.723 134.743 124.386C134.934 124.049 135.183 123.763 135.491 123.528C135.799 123.279 136.158 123.088 136.569 122.956C136.98 122.809 137.42 122.736 137.889 122.736C138.681 122.736 139.326 122.78 139.825 122.868C140.338 122.956 140.83 123.081 141.299 123.242C141.24 123.711 141.167 124.188 141.079 124.672C141.006 125.141 140.896 125.625 140.749 126.124H140.199L139.363 123.88C139.187 123.807 138.989 123.763 138.769 123.748C138.549 123.719 138.322 123.704 138.087 123.704C137.823 123.704 137.588 123.755 137.383 123.858C137.192 123.946 137.024 124.063 136.877 124.21C136.745 124.357 136.642 124.525 136.569 124.716C136.496 124.907 136.459 125.097 136.459 125.288C136.459 125.684 136.584 126.029 136.833 126.322C137.097 126.601 137.427 126.865 137.823 127.114C138.219 127.349 138.637 127.583 139.077 127.818C139.532 128.053 139.957 128.317 140.353 128.61C140.749 128.903 141.072 129.248 141.321 129.644C141.585 130.025 141.717 130.487 141.717 131.03C141.717 131.529 141.607 131.976 141.387 132.372C141.182 132.768 140.888 133.105 140.507 133.384C140.14 133.663 139.708 133.875 139.209 134.022C138.725 134.183 138.204 134.264 137.647 134.264C137.016 134.264 136.437 134.205 135.909 134.088C135.381 133.985 134.831 133.831 134.259 133.626C134.288 133.098 134.354 132.592 134.457 132.108C134.56 131.609 134.692 131.133 134.853 130.678H135.403L136.371 133.076C136.532 133.193 136.723 133.259 136.943 133.274C137.178 133.289 137.39 133.296 137.581 133.296C138.226 133.296 138.747 133.12 139.143 132.768C139.539 132.416 139.737 131.991 139.737 131.492ZM152.577 132.46C152.459 132.709 152.276 132.944 152.027 133.164C151.777 133.384 151.491 133.575 151.169 133.736C150.846 133.897 150.494 134.022 150.113 134.11C149.731 134.213 149.343 134.264 148.947 134.264C148.081 134.264 147.319 134.132 146.659 133.868C145.999 133.589 145.449 133.201 145.009 132.702C144.569 132.189 144.231 131.58 143.997 130.876C143.777 130.172 143.667 129.38 143.667 128.5C143.667 126.623 144.099 125.193 144.965 124.21C145.83 123.227 147.055 122.736 148.639 122.736C149.152 122.736 149.658 122.809 150.157 122.956C150.655 123.088 151.095 123.315 151.477 123.638C151.873 123.961 152.188 124.393 152.423 124.936C152.672 125.464 152.797 126.124 152.797 126.916C152.797 127.165 152.782 127.422 152.753 127.686C152.738 127.935 152.701 128.207 152.643 128.5H145.779C145.779 129.116 145.852 129.695 145.999 130.238C146.16 130.766 146.395 131.228 146.703 131.624C147.011 132.02 147.399 132.335 147.869 132.57C148.338 132.79 148.888 132.9 149.519 132.9C150.032 132.9 150.553 132.827 151.081 132.68C151.609 132.533 152.005 132.343 152.269 132.108L152.577 132.46ZM148.551 123.704C147.715 123.704 147.077 123.99 146.637 124.562C146.197 125.119 145.933 126.109 145.845 127.532H150.685C150.699 127.4 150.707 127.275 150.707 127.158C150.721 127.026 150.729 126.901 150.729 126.784C150.729 125.845 150.553 125.097 150.201 124.54C149.849 123.983 149.299 123.704 148.551 123.704ZM159.615 134H154.731V133.45C155.215 133.215 155.699 133.039 156.183 132.922V118.996L154.511 118.82V118.248C154.892 118.072 155.369 117.918 155.941 117.786C156.513 117.654 157.07 117.544 157.613 117.456H158.163V132.922C158.647 133.039 159.131 133.215 159.615 133.45V134ZM166.232 134H161.348V133.45C161.832 133.215 162.316 133.039 162.8 132.922V118.996L161.128 118.82V118.248C161.51 118.072 161.986 117.918 162.558 117.786C163.13 117.654 163.688 117.544 164.23 117.456H164.78V132.922C165.264 133.039 165.748 133.215 166.232 133.45V134ZM176.875 132.46C176.758 132.709 176.575 132.944 176.325 133.164C176.076 133.384 175.79 133.575 175.467 133.736C175.145 133.897 174.793 134.022 174.411 134.11C174.03 134.213 173.641 134.264 173.245 134.264C172.38 134.264 171.617 134.132 170.957 133.868C170.297 133.589 169.747 133.201 169.307 132.702C168.867 132.189 168.53 131.58 168.295 130.876C168.075 130.172 167.965 129.38 167.965 128.5C167.965 126.623 168.398 125.193 169.263 124.21C170.129 123.227 171.353 122.736 172.937 122.736C173.451 122.736 173.957 122.809 174.455 122.956C174.954 123.088 175.394 123.315 175.775 123.638C176.171 123.961 176.487 124.393 176.721 124.936C176.971 125.464 177.095 126.124 177.095 126.916C177.095 127.165 177.081 127.422 177.051 127.686C177.037 127.935 177 128.207 176.941 128.5H170.077C170.077 129.116 170.151 129.695 170.297 130.238C170.459 130.766 170.693 131.228 171.001 131.624C171.309 132.02 171.698 132.335 172.167 132.57C172.637 132.79 173.187 132.9 173.817 132.9C174.331 132.9 174.851 132.827 175.379 132.68C175.907 132.533 176.303 132.343 176.567 132.108L176.875 132.46ZM172.849 123.704C172.013 123.704 171.375 123.99 170.935 124.562C170.495 125.119 170.231 126.109 170.143 127.532H174.983C174.998 127.4 175.005 127.275 175.005 127.158C175.02 127.026 175.027 126.901 175.027 126.784C175.027 125.845 174.851 125.097 174.499 124.54C174.147 123.983 173.597 123.704 172.849 123.704ZM183.496 124.65C183.335 124.738 183.129 124.921 182.88 125.2C182.645 125.464 182.433 125.86 182.242 126.388V132.922C182.535 132.951 182.829 133.01 183.122 133.098C183.415 133.171 183.709 133.289 184.002 133.45V134H178.81V133.45C179.074 133.303 179.323 133.193 179.558 133.12C179.793 133.047 180.027 132.981 180.262 132.922V124.276L178.81 124.1V123.528C179.279 123.323 179.763 123.161 180.262 123.044C180.761 122.912 181.237 122.809 181.692 122.736H182.242V125.068H182.33C182.462 124.775 182.645 124.481 182.88 124.188C183.129 123.895 183.408 123.631 183.716 123.396C184.039 123.161 184.383 122.985 184.75 122.868C185.131 122.736 185.52 122.692 185.916 122.736C186.019 122.927 186.107 123.139 186.18 123.374C186.268 123.594 186.349 123.829 186.422 124.078V124.65H183.496ZM204.285 134H199.401V133.45C199.856 133.201 200.34 133.025 200.853 132.922V124.1H196.255V132.922C196.636 132.951 196.996 133.017 197.333 133.12C197.685 133.208 198.015 133.318 198.323 133.45V134H192.823V133.45C193.278 133.186 193.762 133.01 194.275 132.922V124.1H192.603V123.528C193.116 123.205 193.674 122.963 194.275 122.802V122.032C194.275 121.123 194.422 120.375 194.715 119.788C195.008 119.187 195.39 118.717 195.859 118.38C196.328 118.028 196.864 117.786 197.465 117.654C198.081 117.522 198.697 117.456 199.313 117.456C199.606 117.456 199.929 117.478 200.281 117.522C200.648 117.551 201 117.603 201.337 117.676C201.689 117.735 202.004 117.808 202.283 117.896C202.576 117.984 202.796 118.079 202.943 118.182C202.899 118.666 202.833 119.047 202.745 119.326C202.657 119.605 202.562 119.905 202.459 120.228H201.799L199.973 118.336C199.548 118.336 199.115 118.38 198.675 118.468C198.25 118.556 197.854 118.725 197.487 118.974C197.12 119.223 196.82 119.583 196.585 120.052C196.365 120.521 196.255 121.137 196.255 121.9V123H198.565C198.873 123 199.188 123 199.511 123C199.848 122.985 200.178 122.971 200.501 122.956C200.838 122.927 201.154 122.897 201.447 122.868C201.755 122.824 202.034 122.78 202.283 122.736H202.833V132.922C203.126 132.995 203.39 133.076 203.625 133.164C203.86 133.237 204.08 133.333 204.285 133.45V134ZM210.48 124.65C210.319 124.738 210.114 124.921 209.864 125.2C209.63 125.464 209.417 125.86 209.226 126.388V132.922C209.52 132.951 209.813 133.01 210.106 133.098C210.4 133.171 210.693 133.289 210.986 133.45V134H205.794V133.45C206.058 133.303 206.308 133.193 206.542 133.12C206.777 133.047 207.012 132.981 207.246 132.922V124.276L205.794 124.1V123.528C206.264 123.323 206.748 123.161 207.246 123.044C207.745 122.912 208.222 122.809 208.676 122.736H209.226V125.068H209.314C209.446 124.775 209.63 124.481 209.864 124.188C210.114 123.895 210.392 123.631 210.7 123.396C211.023 123.161 211.368 122.985 211.734 122.868C212.116 122.736 212.504 122.692 212.9 122.736C213.003 122.927 213.091 123.139 213.164 123.374C213.252 123.594 213.333 123.829 213.406 124.078V124.65H210.48ZM220.046 131.492C220.046 131.081 219.914 130.737 219.65 130.458C219.4 130.165 219.078 129.893 218.682 129.644C218.286 129.395 217.86 129.153 217.406 128.918C216.966 128.683 216.548 128.412 216.152 128.104C215.756 127.781 215.426 127.415 215.162 127.004C214.912 126.593 214.788 126.087 214.788 125.486C214.788 125.09 214.876 124.723 215.052 124.386C215.242 124.049 215.492 123.763 215.8 123.528C216.108 123.279 216.467 123.088 216.878 122.956C217.288 122.809 217.728 122.736 218.198 122.736C218.99 122.736 219.635 122.78 220.134 122.868C220.647 122.956 221.138 123.081 221.608 123.242C221.549 123.711 221.476 124.188 221.388 124.672C221.314 125.141 221.204 125.625 221.058 126.124H220.508L219.672 123.88C219.496 123.807 219.298 123.763 219.078 123.748C218.858 123.719 218.63 123.704 218.396 123.704C218.132 123.704 217.897 123.755 217.692 123.858C217.501 123.946 217.332 124.063 217.186 124.21C217.054 124.357 216.951 124.525 216.878 124.716C216.804 124.907 216.768 125.097 216.768 125.288C216.768 125.684 216.892 126.029 217.142 126.322C217.406 126.601 217.736 126.865 218.132 127.114C218.528 127.349 218.946 127.583 219.386 127.818C219.84 128.053 220.266 128.317 220.662 128.61C221.058 128.903 221.38 129.248 221.63 129.644C221.894 130.025 222.026 130.487 222.026 131.03C222.026 131.529 221.916 131.976 221.696 132.372C221.49 132.768 221.197 133.105 220.816 133.384C220.449 133.663 220.016 133.875 219.518 134.022C219.034 134.183 218.513 134.264 217.956 134.264C217.325 134.264 216.746 134.205 216.218 134.088C215.69 133.985 215.14 133.831 214.568 133.626C214.597 133.098 214.663 132.592 214.766 132.108C214.868 131.609 215 131.133 215.162 130.678H215.712L216.68 133.076C216.841 133.193 217.032 133.259 217.252 133.274C217.486 133.289 217.699 133.296 217.89 133.296C218.535 133.296 219.056 133.12 219.452 132.768C219.848 132.416 220.046 131.991 220.046 131.492ZM223.403 123.528C223.961 123.176 224.547 122.927 225.163 122.78V120.91C225.354 120.749 225.574 120.609 225.823 120.492C226.087 120.36 226.344 120.235 226.593 120.118H227.143V123H230.443V124.1H227.143V130.48C227.143 131.36 227.283 131.983 227.561 132.35C227.84 132.717 228.258 132.9 228.815 132.9C229.079 132.9 229.409 132.885 229.805 132.856C230.201 132.812 230.539 132.739 230.817 132.636L230.971 132.966C230.854 133.098 230.685 133.237 230.465 133.384C230.26 133.531 230.018 133.67 229.739 133.802C229.475 133.934 229.182 134.044 228.859 134.132C228.537 134.22 228.207 134.264 227.869 134.264C226.989 134.264 226.315 134.015 225.845 133.516C225.391 133.017 225.163 132.211 225.163 131.096V124.1H223.403V123.528Z"
        fill="#1C1C1C" />
    <path
        d="M12.1668 165.282C11.2924 165.282 10.5288 165.141 9.87576 164.859C9.2283 164.571 8.71365 164.178 8.33182 163.68C7.95552 163.177 7.73693 162.601 7.67606 161.954L7.66776 161.862H9.1619L9.1702 161.954C9.20893 162.352 9.36111 162.698 9.62674 162.991C9.8979 163.279 10.2576 163.503 10.7058 163.664C11.1596 163.824 11.6743 163.904 12.2498 163.904C12.7921 163.904 13.2735 163.819 13.6941 163.647C14.1202 163.47 14.455 163.226 14.6985 162.917C14.942 162.607 15.0638 162.25 15.0638 161.846V161.837C15.0638 161.339 14.8811 160.922 14.5159 160.584C14.1507 160.241 13.5558 159.978 12.7312 159.795L11.4031 159.505C10.2023 159.239 9.32791 158.83 8.78006 158.276C8.23774 157.717 7.96658 157.004 7.96658 156.135V156.126C7.97212 155.462 8.15197 154.876 8.50613 154.367C8.86583 153.858 9.36111 153.459 9.99197 153.171C10.6284 152.884 11.3588 152.74 12.1834 152.74C12.9803 152.74 13.6858 152.884 14.3001 153.171C14.9143 153.454 15.4013 153.835 15.761 154.317C16.1263 154.798 16.3282 155.338 16.367 155.936L16.3753 156.052H14.8811L14.8645 155.944C14.8092 155.59 14.6653 155.277 14.4329 155.006C14.2005 154.729 13.8906 154.511 13.5032 154.35C13.1158 154.19 12.6621 154.112 12.1419 154.118C11.6438 154.118 11.1956 154.195 10.7971 154.35C10.3987 154.505 10.0805 154.729 9.84256 155.022C9.61014 155.31 9.49393 155.664 9.49393 156.085V156.093C9.49393 156.569 9.67101 156.97 10.0252 157.297C10.3793 157.623 10.9632 157.875 11.7766 158.052L13.1048 158.351C13.9404 158.534 14.6127 158.772 15.1219 159.065C15.631 159.358 16.0017 159.718 16.2342 160.144C16.4721 160.565 16.5911 161.063 16.5911 161.638V161.646C16.5911 162.394 16.4085 163.038 16.0432 163.581C15.678 164.123 15.1634 164.543 14.4993 164.842C13.8352 165.136 13.0577 165.282 12.1668 165.282ZM18.912 165V152.499H20.3564V157.396H20.4892C20.7161 156.921 21.0426 156.553 21.4687 156.292C21.8948 156.027 22.4371 155.894 23.0956 155.894C23.7652 155.894 24.3324 156.024 24.7973 156.284C25.2621 156.539 25.6163 156.912 25.8598 157.405C26.1033 157.897 26.225 158.498 26.225 159.206V165H24.7807V159.555C24.7807 158.747 24.6091 158.149 24.266 157.762C23.9285 157.369 23.4027 157.172 22.6889 157.172C22.213 157.172 21.8007 157.275 21.4521 157.479C21.1034 157.684 20.8323 157.975 20.6386 158.351C20.4504 158.727 20.3564 159.178 20.3564 159.704V165H18.912ZM32.4473 165.158C31.6006 165.158 30.8674 164.972 30.2476 164.602C29.6333 164.225 29.1574 163.691 28.8199 163C28.4878 162.308 28.3218 161.486 28.3218 160.534V160.518C28.3218 159.56 28.4878 158.736 28.8199 158.044C29.1574 157.352 29.6333 156.821 30.2476 156.45C30.8674 156.079 31.6006 155.894 32.4473 155.894C33.2995 155.894 34.0327 156.079 34.647 156.45C35.2613 156.821 35.7344 157.352 36.0664 158.044C36.404 158.736 36.5728 159.56 36.5728 160.518V160.534C36.5728 161.486 36.404 162.308 36.0664 163C35.7344 163.691 35.2613 164.225 34.647 164.602C34.0327 164.972 33.2995 165.158 32.4473 165.158ZM32.4473 163.879C33.0118 163.879 33.4904 163.747 33.8833 163.481C34.2762 163.215 34.5751 162.833 34.7798 162.335C34.9901 161.837 35.0952 161.237 35.0952 160.534V160.518C35.0952 159.809 34.9901 159.206 34.7798 158.708C34.5751 158.21 34.2762 157.831 33.8833 157.571C33.4904 157.305 33.0118 157.172 32.4473 157.172C31.8828 157.172 31.4042 157.305 31.0113 157.571C30.6184 157.831 30.3168 158.21 30.1065 158.708C29.9017 159.206 29.7994 159.809 29.7994 160.518V160.534C29.7994 161.237 29.9017 161.837 30.1065 162.335C30.3168 162.833 30.6184 163.215 31.0113 163.481C31.4042 163.747 31.8828 163.879 32.4473 163.879ZM40.1388 165L37.632 156.052H39.0763L40.8361 163.207H40.9689L42.9694 156.052H44.339L46.3395 163.207H46.4723L48.2321 156.052H49.6681L47.1613 165H45.7087L43.7082 158.077H43.5754L41.5832 165H40.1388ZM59.8964 165.158C59.0497 165.158 58.3165 164.972 57.6967 164.602C57.0824 164.225 56.6065 163.691 56.269 163C55.9369 162.308 55.7709 161.486 55.7709 160.534V160.518C55.7709 159.56 55.9369 158.736 56.269 158.044C56.6065 157.352 57.0824 156.821 57.6967 156.45C58.3165 156.079 59.0497 155.894 59.8964 155.894C60.7486 155.894 61.4819 156.079 62.0961 156.45C62.7104 156.821 63.1835 157.352 63.5155 158.044C63.8531 158.736 64.0219 159.56 64.0219 160.518V160.534C64.0219 161.486 63.8531 162.308 63.5155 163C63.1835 163.691 62.7104 164.225 62.0961 164.602C61.4819 164.972 60.7486 165.158 59.8964 165.158ZM59.8964 163.879C60.4609 163.879 60.9395 163.747 61.3324 163.481C61.7253 163.215 62.0242 162.833 62.2289 162.335C62.4392 161.837 62.5444 161.237 62.5444 160.534V160.518C62.5444 159.809 62.4392 159.206 62.2289 158.708C62.0242 158.21 61.7253 157.831 61.3324 157.571C60.9395 157.305 60.4609 157.172 59.8964 157.172C59.332 157.172 58.8533 157.305 58.4604 157.571C58.0675 157.831 57.7659 158.21 57.5556 158.708C57.3508 159.206 57.2485 159.809 57.2485 160.518V160.534C57.2485 161.237 57.3508 161.837 57.5556 162.335C57.7659 162.833 58.0675 163.215 58.4604 163.481C58.8533 163.747 59.332 163.879 59.8964 163.879ZM66.7911 165V157.247H65.3052V156.052H66.7911V155.056C66.7911 154.458 66.8879 153.965 67.0816 153.578C67.2808 153.185 67.5741 152.895 67.9615 152.707C68.3488 152.513 68.8248 152.416 69.3892 152.416C69.5663 152.416 69.7323 152.424 69.8873 152.441C70.0477 152.452 70.2027 152.471 70.3521 152.499V153.653C70.2636 153.636 70.1612 153.625 70.045 153.62C69.9288 153.614 69.807 153.611 69.6797 153.611C69.1651 153.611 68.7943 153.736 68.5674 153.985C68.3461 154.234 68.2354 154.605 68.2354 155.097V156.052H70.2691V157.247H68.2354V165H66.7911ZM72.8805 165V157.247H71.3947V156.052H72.8805V155.056C72.8805 154.458 72.9774 153.965 73.1711 153.578C73.3703 153.185 73.6636 152.895 74.0509 152.707C74.4383 152.513 74.9142 152.416 75.4787 152.416C75.6558 152.416 75.8218 152.424 75.9767 152.441C76.1372 152.452 76.2922 152.471 76.4416 152.499V153.653C76.353 153.636 76.2507 153.625 76.1344 153.62C76.0182 153.614 75.8965 153.611 75.7692 153.611C75.2546 153.611 74.8838 153.736 74.6569 153.985C74.4356 154.234 74.3249 154.605 74.3249 155.097V156.052H76.3586V157.247H74.3249V165H72.8805ZM83.8476 168.138C83.7535 168.138 83.6484 168.132 83.5322 168.121C83.4159 168.116 83.308 168.104 83.2084 168.088V166.901C83.297 166.917 83.3938 166.929 83.499 166.934C83.6041 166.94 83.7065 166.942 83.8061 166.942C84.2156 166.942 84.5504 166.837 84.8105 166.627C85.0761 166.417 85.2892 166.054 85.4496 165.54L85.6157 165.008L82.3036 156.052H83.8476L86.6034 164.319L86.0307 163.415H86.7114L86.1386 164.319L88.8862 156.052H90.4052L86.9106 165.548C86.6671 166.217 86.4098 166.74 86.1386 167.117C85.8674 167.493 85.5492 167.756 85.184 167.905C84.8243 168.06 84.3788 168.138 83.8476 168.138ZM95.5899 165.158C94.7432 165.158 94.01 164.972 93.3902 164.602C92.7759 164.225 92.3 163.691 91.9625 163C91.6304 162.308 91.4644 161.486 91.4644 160.534V160.518C91.4644 159.56 91.6304 158.736 91.9625 158.044C92.3 157.352 92.7759 156.821 93.3902 156.45C94.01 156.079 94.7432 155.894 95.5899 155.894C96.4421 155.894 97.1753 156.079 97.7896 156.45C98.4039 156.821 98.877 157.352 99.209 158.044C99.5466 158.736 99.7154 159.56 99.7154 160.518V160.534C99.7154 161.486 99.5466 162.308 99.209 163C98.877 163.691 98.4039 164.225 97.7896 164.602C97.1753 164.972 96.4421 165.158 95.5899 165.158ZM95.5899 163.879C96.1544 163.879 96.633 163.747 97.0259 163.481C97.4188 163.215 97.7177 162.833 97.9224 162.335C98.1327 161.837 98.2378 161.237 98.2378 160.534V160.518C98.2378 159.809 98.1327 159.206 97.9224 158.708C97.7177 158.21 97.4188 157.831 97.0259 157.571C96.633 157.305 96.1544 157.172 95.5899 157.172C95.0254 157.172 94.5468 157.305 94.1539 157.571C93.761 157.831 93.4594 158.21 93.2491 158.708C93.0443 159.206 92.9419 159.809 92.9419 160.518V160.534C92.9419 161.237 93.0443 161.837 93.2491 162.335C93.4594 162.833 93.761 163.215 94.1539 163.481C94.5468 163.747 95.0254 163.879 95.5899 163.879ZM104.883 165.158C104.208 165.158 103.641 165.03 103.182 164.776C102.723 164.516 102.377 164.139 102.144 163.647C101.917 163.149 101.804 162.549 101.804 161.846V156.052H103.248V161.497C103.248 162.299 103.403 162.897 103.713 163.29C104.028 163.683 104.543 163.879 105.257 163.879C105.65 163.879 105.996 163.821 106.295 163.705C106.599 163.589 106.854 163.423 107.058 163.207C107.263 162.986 107.415 162.72 107.515 162.41C107.62 162.095 107.673 161.741 107.673 161.348V156.052H109.117V165H107.673V163.664H107.54C107.396 163.979 107.199 164.25 106.95 164.477C106.701 164.698 106.403 164.867 106.054 164.983C105.711 165.1 105.321 165.158 104.883 165.158ZM111.745 165V156.052H113.189V157.38H113.322C113.494 156.91 113.784 156.544 114.194 156.284C114.603 156.024 115.11 155.894 115.713 155.894C115.851 155.894 115.987 155.902 116.119 155.919C116.258 155.93 116.363 155.941 116.435 155.952V157.355C116.285 157.327 116.139 157.308 115.995 157.297C115.857 157.28 115.707 157.272 115.547 157.272C115.087 157.272 114.681 157.363 114.326 157.546C113.972 157.729 113.693 157.983 113.488 158.31C113.289 158.636 113.189 159.018 113.189 159.455V165H111.745ZM122.895 165V156.052H124.339V165H122.895ZM123.625 154.325C123.354 154.325 123.119 154.228 122.919 154.035C122.726 153.835 122.629 153.6 122.629 153.329C122.629 153.052 122.726 152.817 122.919 152.624C123.119 152.43 123.354 152.333 123.625 152.333C123.902 152.333 124.137 152.43 124.331 152.624C124.524 152.817 124.621 153.052 124.621 153.329C124.621 153.6 124.524 153.835 124.331 154.035C124.137 154.228 123.902 154.325 123.625 154.325ZM130.171 165.066C129.252 165.066 128.586 164.881 128.171 164.51C127.761 164.139 127.556 163.528 127.556 162.676V157.247H126.145V156.052H127.556V153.736H129.05V156.052H131.009V157.247H129.05V162.311C129.05 162.836 129.15 163.215 129.349 163.448C129.549 163.675 129.881 163.788 130.345 163.788C130.473 163.788 130.581 163.785 130.669 163.78C130.763 163.774 130.877 163.766 131.009 163.755V164.983C130.871 165.006 130.733 165.025 130.594 165.042C130.456 165.058 130.315 165.066 130.171 165.066ZM136.634 165.158C135.782 165.158 135.049 164.97 134.434 164.593C133.826 164.217 133.355 163.686 133.023 163C132.697 162.308 132.534 161.494 132.534 160.559V160.551C132.534 159.627 132.697 158.816 133.023 158.119C133.355 157.421 133.823 156.876 134.426 156.483C135.029 156.09 135.735 155.894 136.543 155.894C137.356 155.894 138.054 156.082 138.635 156.458C139.221 156.835 139.669 157.361 139.979 158.036C140.295 158.705 140.452 159.486 140.452 160.376V160.941H133.281V159.787H139.714L139 160.841V160.269C139 159.566 138.895 158.987 138.684 158.534C138.474 158.08 138.184 157.742 137.813 157.521C137.442 157.294 137.016 157.181 136.534 157.181C136.053 157.181 135.621 157.3 135.24 157.538C134.863 157.77 134.564 158.116 134.343 158.575C134.122 159.035 134.011 159.599 134.011 160.269V160.841C134.011 161.478 134.119 162.023 134.335 162.477C134.551 162.925 134.858 163.271 135.256 163.514C135.655 163.752 136.125 163.871 136.667 163.871C137.071 163.871 137.423 163.816 137.721 163.705C138.02 163.594 138.267 163.453 138.46 163.282C138.654 163.11 138.79 162.936 138.867 162.759L138.9 162.684H140.345L140.328 162.75C140.25 163.055 140.112 163.351 139.913 163.639C139.719 163.921 139.467 164.178 139.158 164.411C138.848 164.638 138.48 164.82 138.054 164.958C137.633 165.091 137.16 165.158 136.634 165.158ZM142.624 165V156.052H144.068V157.413H144.201C144.4 156.932 144.705 156.558 145.114 156.292C145.529 156.027 146.03 155.894 146.617 155.894C147.021 155.894 147.383 155.96 147.704 156.093C148.025 156.226 148.302 156.411 148.534 156.649C148.767 156.882 148.952 157.153 149.09 157.463H149.223C149.384 157.147 149.599 156.874 149.871 156.641C150.142 156.403 150.454 156.221 150.809 156.093C151.168 155.96 151.553 155.894 151.962 155.894C152.571 155.894 153.086 156.007 153.506 156.234C153.932 156.461 154.256 156.793 154.477 157.23C154.699 157.662 154.81 158.191 154.81 158.816V165H153.365V159.148C153.365 158.705 153.296 158.34 153.158 158.052C153.025 157.759 152.82 157.54 152.543 157.396C152.267 157.247 151.918 157.172 151.497 157.172C151.082 157.172 150.72 157.266 150.41 157.455C150.1 157.643 149.859 157.895 149.688 158.21C149.516 158.52 149.431 158.866 149.431 159.248V165H147.986V158.924C147.986 158.57 147.909 158.263 147.754 158.002C147.604 157.737 147.389 157.532 147.106 157.388C146.83 157.244 146.503 157.172 146.127 157.172C145.74 157.172 145.388 157.275 145.073 157.479C144.763 157.684 144.517 157.961 144.334 158.31C144.157 158.653 144.068 159.035 144.068 159.455V165H142.624ZM160.418 165.158C159.753 165.158 159.167 165.058 158.658 164.859C158.149 164.654 157.739 164.369 157.429 164.004C157.125 163.639 156.945 163.21 156.89 162.717H158.367C158.489 163.088 158.727 163.387 159.081 163.614C159.435 163.841 159.897 163.954 160.467 163.954C160.871 163.954 161.225 163.896 161.53 163.78C161.84 163.658 162.083 163.495 162.26 163.29C162.437 163.08 162.526 162.839 162.526 162.568V162.551C162.526 162.247 162.404 161.99 162.161 161.779C161.917 161.563 161.519 161.389 160.965 161.256L159.579 160.924C159.02 160.792 158.561 160.62 158.201 160.41C157.842 160.194 157.576 159.931 157.404 159.621C157.233 159.306 157.147 158.935 157.147 158.509V158.5C157.147 158.002 157.291 157.557 157.579 157.164C157.872 156.771 158.27 156.461 158.774 156.234C159.278 156.007 159.845 155.894 160.476 155.894C161.101 155.894 161.654 155.994 162.136 156.193C162.623 156.387 163.013 156.663 163.306 157.023C163.605 157.383 163.788 157.806 163.854 158.293H162.435C162.341 157.939 162.125 157.651 161.787 157.43C161.45 157.208 161.01 157.098 160.467 157.098C160.113 157.098 159.798 157.156 159.521 157.272C159.244 157.383 159.026 157.538 158.865 157.737C158.705 157.936 158.625 158.168 158.625 158.434V158.451C158.625 158.65 158.677 158.827 158.782 158.982C158.887 159.137 159.051 159.272 159.272 159.389C159.493 159.505 159.778 159.607 160.127 159.696L161.505 160.028C162.346 160.233 162.971 160.526 163.381 160.908C163.796 161.29 164.003 161.801 164.003 162.443V162.46C164.003 162.991 163.846 163.462 163.53 163.871C163.215 164.275 162.786 164.59 162.244 164.817C161.707 165.044 161.098 165.158 160.418 165.158ZM165.81 168.046L166.532 163.323H168.184L166.881 168.046H165.81ZM178.321 165.158C177.756 165.158 177.247 165.05 176.793 164.834C176.345 164.618 175.988 164.311 175.723 163.913C175.463 163.514 175.332 163.044 175.332 162.501V162.485C175.332 161.954 175.46 161.5 175.714 161.124C175.969 160.742 176.34 160.443 176.827 160.227C177.314 160.011 177.903 159.884 178.595 159.845L181.882 159.646V160.8L178.769 160.999C178.088 161.038 177.59 161.179 177.275 161.422C176.965 161.666 176.81 162.009 176.81 162.452V162.468C176.81 162.922 176.982 163.276 177.325 163.531C177.668 163.78 178.099 163.904 178.62 163.904C179.112 163.904 179.549 163.807 179.931 163.614C180.313 163.415 180.612 163.146 180.828 162.809C181.049 162.471 181.16 162.089 181.16 161.663V158.874C181.16 158.321 180.991 157.9 180.653 157.612C180.321 157.319 179.82 157.172 179.151 157.172C178.614 157.172 178.174 157.269 177.831 157.463C177.488 157.651 177.258 157.919 177.142 158.268L177.134 158.293H175.689L175.698 158.243C175.775 157.773 175.969 157.363 176.279 157.015C176.594 156.66 177.001 156.387 177.499 156.193C177.997 155.994 178.564 155.894 179.201 155.894C179.931 155.894 180.548 156.013 181.052 156.251C181.561 156.489 181.945 156.832 182.206 157.28C182.471 157.723 182.604 158.254 182.604 158.874V165H181.16V163.68H181.027C180.839 163.996 180.609 164.264 180.338 164.485C180.072 164.707 179.771 164.875 179.433 164.992C179.095 165.102 178.725 165.158 178.321 165.158ZM185.174 165V156.052H186.618V157.396H186.751C186.978 156.921 187.304 156.553 187.731 156.292C188.157 156.027 188.699 155.894 189.357 155.894C190.365 155.894 191.137 156.182 191.673 156.757C192.216 157.327 192.487 158.144 192.487 159.206V165H191.043V159.555C191.043 158.747 190.871 158.149 190.528 157.762C190.19 157.369 189.665 157.172 188.951 157.172C188.475 157.172 188.063 157.275 187.714 157.479C187.365 157.684 187.094 157.975 186.9 158.351C186.712 158.727 186.618 159.178 186.618 159.704V165H185.174ZM198.211 165.066C197.293 165.066 196.626 164.881 196.211 164.51C195.801 164.139 195.596 163.528 195.596 162.676V157.247H194.185V156.052H195.596V153.736H197.091V156.052H199.05V157.247H197.091V162.311C197.091 162.836 197.19 163.215 197.389 163.448C197.589 163.675 197.921 163.788 198.385 163.788C198.513 163.788 198.621 163.785 198.709 163.78C198.803 163.774 198.917 163.766 199.05 163.755V164.983C198.911 165.006 198.773 165.025 198.634 165.042C198.496 165.058 198.355 165.066 198.211 165.066ZM201.171 165V156.052H202.616V165H201.171ZM201.902 154.325C201.631 154.325 201.395 154.228 201.196 154.035C201.002 153.835 200.906 153.6 200.906 153.329C200.906 153.052 201.002 152.817 201.196 152.624C201.395 152.43 201.631 152.333 201.902 152.333C202.178 152.333 202.414 152.43 202.607 152.624C202.801 152.817 202.898 153.052 202.898 153.329C202.898 153.6 202.801 153.835 202.607 154.035C202.414 154.228 202.178 154.325 201.902 154.325ZM211.511 167.988V163.655H211.378C211.217 163.971 210.999 164.242 210.722 164.469C210.445 164.69 210.124 164.862 209.759 164.983C209.4 165.1 209.007 165.158 208.581 165.158C207.822 165.158 207.161 164.967 206.597 164.585C206.032 164.203 205.595 163.666 205.285 162.975C204.975 162.277 204.82 161.464 204.82 160.534V160.518C204.82 159.582 204.975 158.769 205.285 158.077C205.595 157.385 206.032 156.849 206.597 156.467C207.161 156.085 207.822 155.894 208.581 155.894C208.985 155.894 209.364 155.96 209.718 156.093C210.077 156.226 210.401 156.417 210.689 156.666C210.982 156.91 211.223 157.203 211.411 157.546H211.511V156.052H212.955V167.988H211.511ZM208.921 163.879C209.458 163.879 209.922 163.744 210.315 163.473C210.708 163.196 211.013 162.809 211.228 162.311C211.444 161.807 211.552 161.215 211.552 160.534V160.518C211.552 159.831 211.444 159.239 211.228 158.741C211.013 158.238 210.708 157.85 210.315 157.579C209.922 157.308 209.455 157.172 208.913 157.172C208.37 157.172 207.903 157.308 207.51 157.579C207.117 157.845 206.815 158.227 206.605 158.725C206.4 159.223 206.298 159.82 206.298 160.518V160.534C206.298 161.226 206.403 161.824 206.613 162.327C206.824 162.825 207.122 163.21 207.51 163.481C207.903 163.747 208.373 163.879 208.921 163.879ZM218.555 165.158C217.88 165.158 217.312 165.03 216.853 164.776C216.394 164.516 216.048 164.139 215.816 163.647C215.589 163.149 215.475 162.549 215.475 161.846V156.052H216.92V161.497C216.92 162.299 217.074 162.897 217.384 163.29C217.7 163.683 218.214 163.879 218.928 163.879C219.321 163.879 219.667 163.821 219.966 163.705C220.27 163.589 220.525 163.423 220.73 163.207C220.934 162.986 221.087 162.72 221.186 162.41C221.291 162.095 221.344 161.741 221.344 161.348V156.052H222.788V165H221.344V163.664H221.211C221.067 163.979 220.871 164.25 220.622 164.477C220.373 164.698 220.074 164.867 219.725 164.983C219.382 165.1 218.992 165.158 218.555 165.158ZM229.069 165.158C228.216 165.158 227.483 164.97 226.869 164.593C226.26 164.217 225.79 163.686 225.458 163C225.131 162.308 224.968 161.494 224.968 160.559V160.551C224.968 159.627 225.131 158.816 225.458 158.119C225.79 157.421 226.257 156.876 226.861 156.483C227.464 156.09 228.169 155.894 228.977 155.894C229.791 155.894 230.488 156.082 231.069 156.458C231.656 156.835 232.104 157.361 232.414 158.036C232.729 158.705 232.887 159.486 232.887 160.376V160.941H225.715V159.787H232.148L231.434 160.841V160.269C231.434 159.566 231.329 158.987 231.119 158.534C230.909 158.08 230.618 157.742 230.247 157.521C229.877 157.294 229.45 157.181 228.969 157.181C228.488 157.181 228.056 157.3 227.674 157.538C227.298 157.77 226.999 158.116 226.778 158.575C226.556 159.035 226.446 159.599 226.446 160.269V160.841C226.446 161.478 226.553 162.023 226.769 162.477C226.985 162.925 227.292 163.271 227.691 163.514C228.089 163.752 228.559 163.871 229.102 163.871C229.506 163.871 229.857 163.816 230.156 163.705C230.455 163.594 230.701 163.453 230.895 163.282C231.088 163.11 231.224 162.936 231.301 162.759L231.335 162.684H232.779L232.762 162.75C232.685 163.055 232.547 163.351 232.347 163.639C232.154 163.921 231.902 164.178 231.592 164.411C231.282 164.638 230.914 164.82 230.488 164.958C230.067 165.091 229.594 165.158 229.069 165.158ZM238.13 165.158C237.466 165.158 236.879 165.058 236.37 164.859C235.861 164.654 235.451 164.369 235.141 164.004C234.837 163.639 234.657 163.21 234.602 162.717H236.079C236.201 163.088 236.439 163.387 236.793 163.614C237.147 163.841 237.61 163.954 238.18 163.954C238.584 163.954 238.938 163.896 239.242 163.78C239.552 163.658 239.795 163.495 239.973 163.29C240.15 163.08 240.238 162.839 240.238 162.568V162.551C240.238 162.247 240.116 161.99 239.873 161.779C239.629 161.563 239.231 161.389 238.678 161.256L237.291 160.924C236.732 160.792 236.273 160.62 235.913 160.41C235.554 160.194 235.288 159.931 235.117 159.621C234.945 159.306 234.859 158.935 234.859 158.509V158.5C234.859 158.002 235.003 157.557 235.291 157.164C235.584 156.771 235.983 156.461 236.486 156.234C236.99 156.007 237.557 155.894 238.188 155.894C238.813 155.894 239.367 155.994 239.848 156.193C240.335 156.387 240.725 156.663 241.018 157.023C241.317 157.383 241.5 157.806 241.566 158.293H240.147C240.053 157.939 239.837 157.651 239.499 157.43C239.162 157.208 238.722 157.098 238.18 157.098C237.825 157.098 237.51 157.156 237.233 157.272C236.957 157.383 236.738 157.538 236.577 157.737C236.417 157.936 236.337 158.168 236.337 158.434V158.451C236.337 158.65 236.389 158.827 236.494 158.982C236.6 159.137 236.763 159.272 236.984 159.389C237.206 159.505 237.491 159.607 237.839 159.696L239.217 160.028C240.058 160.233 240.684 160.526 241.093 160.908C241.508 161.29 241.716 161.801 241.716 162.443V162.46C241.716 162.991 241.558 163.462 241.243 163.871C240.927 164.275 240.498 164.59 239.956 164.817C239.419 165.044 238.81 165.158 238.13 165.158ZM257.24 165L251.222 158.409C250.807 157.955 250.475 157.56 250.226 157.222C249.982 156.879 249.808 156.566 249.703 156.284C249.598 156.002 249.545 155.717 249.545 155.429V155.413C249.545 154.903 249.678 154.447 249.943 154.043C250.209 153.639 250.572 153.321 251.031 153.088C251.496 152.856 252.019 152.74 252.6 152.74C253.192 152.74 253.718 152.856 254.177 153.088C254.636 153.321 254.996 153.639 255.256 154.043C255.522 154.447 255.654 154.909 255.654 155.429V155.446C255.654 155.85 255.563 156.229 255.38 156.583C255.203 156.937 254.907 157.283 254.492 157.621C254.083 157.953 253.532 158.296 252.84 158.65L252.035 157.803C252.6 157.521 253.042 157.258 253.363 157.015C253.684 156.771 253.911 156.528 254.044 156.284C254.182 156.041 254.252 155.778 254.252 155.496V155.479C254.252 155.169 254.182 154.898 254.044 154.666C253.906 154.433 253.712 154.253 253.463 154.126C253.219 153.993 252.934 153.927 252.608 153.927C252.293 153.927 252.01 153.993 251.761 154.126C251.518 154.259 251.324 154.444 251.18 154.682C251.042 154.915 250.973 155.186 250.973 155.496V155.512C250.973 155.728 251.02 155.944 251.114 156.16C251.208 156.37 251.36 156.611 251.57 156.882C251.786 157.147 252.074 157.474 252.434 157.861L259.116 164.992V165H257.24ZM252.259 165.224C251.468 165.224 250.765 165.08 250.151 164.792C249.542 164.499 249.066 164.095 248.723 163.581C248.38 163.066 248.209 162.477 248.209 161.812V161.796C248.209 161.071 248.408 160.432 248.806 159.878C249.205 159.319 249.808 158.841 250.616 158.442L251.272 158.119L252.102 159.023L251.479 159.322C250.909 159.593 250.469 159.934 250.159 160.343C249.855 160.753 249.703 161.204 249.703 161.696V161.713C249.703 162.156 249.816 162.549 250.043 162.892C250.27 163.229 250.585 163.492 250.989 163.68C251.393 163.868 251.861 163.962 252.392 163.962C252.885 163.962 253.333 163.896 253.737 163.763C254.141 163.63 254.501 163.442 254.816 163.199C255.131 162.95 255.405 162.656 255.638 162.319C255.97 161.832 256.216 161.265 256.377 160.617C256.543 159.964 256.626 159.27 256.626 158.534V158.326H258.02V158.542C258.02 159.505 257.907 160.396 257.68 161.215C257.453 162.034 257.101 162.742 256.626 163.34C256.155 163.932 255.558 164.394 254.833 164.726C254.113 165.058 253.255 165.224 252.259 165.224ZM19.684 187.158C19.1195 187.158 18.6104 187.05 18.1566 186.834C17.7084 186.618 17.3515 186.311 17.0858 185.913C16.8258 185.514 16.6957 185.044 16.6957 184.501V184.485C16.6957 183.954 16.823 183.5 17.0775 183.124C17.3321 182.742 17.7029 182.443 18.1898 182.227C18.6768 182.011 19.2662 181.884 19.9579 181.845L23.245 181.646V182.8L20.1322 182.999C19.4516 183.038 18.9535 183.179 18.6381 183.422C18.3282 183.666 18.1732 184.009 18.1732 184.452V184.468C18.1732 184.922 18.3448 185.276 18.6879 185.531C19.031 185.78 19.4626 185.904 19.9828 185.904C20.4753 185.904 20.9125 185.807 21.2943 185.614C21.6762 185.415 21.975 185.146 22.1908 184.809C22.4122 184.471 22.5229 184.089 22.5229 183.663V180.874C22.5229 180.321 22.3541 179.9 22.0165 179.612C21.6845 179.319 21.1837 179.172 20.5141 179.172C19.9773 179.172 19.5373 179.269 19.1942 179.463C18.8511 179.651 18.6215 179.919 18.5053 180.268L18.497 180.293H17.0526L17.0609 180.243C17.1384 179.773 17.3321 179.363 17.642 179.015C17.9574 178.66 18.3642 178.387 18.8622 178.193C19.3603 177.994 19.9275 177.894 20.5639 177.894C21.2943 177.894 21.9114 178.013 22.4149 178.251C22.9241 178.489 23.3087 178.832 23.5688 179.28C23.8344 179.723 23.9672 180.254 23.9672 180.874V187H22.5229V185.68H22.39C22.2019 185.996 21.9722 186.264 21.7011 186.485C21.4355 186.707 21.1339 186.875 20.7963 186.992C20.4587 187.102 20.088 187.158 19.684 187.158ZM26.5371 187V178.052H27.9815V179.38H28.1143C28.2858 178.91 28.5764 178.544 28.9859 178.284C29.3954 178.024 29.9017 177.894 30.5049 177.894C30.6433 177.894 30.7788 177.902 30.9117 177.919C31.05 177.93 31.1551 177.941 31.2271 177.952V179.355C31.0777 179.327 30.931 179.308 30.7871 179.297C30.6488 179.28 30.4994 179.272 30.3389 179.272C29.8796 179.272 29.4729 179.363 29.1187 179.546C28.7645 179.729 28.4851 179.983 28.2803 180.31C28.0811 180.636 27.9815 181.018 27.9815 181.455V187H26.5371ZM36.2873 187.066C35.3686 187.066 34.7018 186.881 34.2868 186.51C33.8773 186.139 33.6725 185.528 33.6725 184.676V179.247H32.2614V178.052H33.6725V175.736H35.1667V178.052H37.1256V179.247H35.1667V184.311C35.1667 184.836 35.2663 185.215 35.4655 185.448C35.6647 185.675 35.9967 185.788 36.4616 185.788C36.5889 185.788 36.6968 185.785 36.7853 185.78C36.8794 185.774 36.9928 185.766 37.1256 185.755V186.983C36.9873 187.006 36.849 187.025 36.7106 187.042C36.5723 187.058 36.4311 187.066 36.2873 187.066ZM40.9407 187L38.4339 178.052H39.8782L41.638 185.207H41.7708L43.7713 178.052H45.1409L47.1414 185.207H47.2742L49.034 178.052H50.47L47.9632 187H46.5105L44.51 180.077H44.3772L42.385 187H40.9407ZM55.6547 187.158C54.808 187.158 54.0748 186.972 53.455 186.602C52.8407 186.225 52.3648 185.691 52.0273 185C51.6952 184.308 51.5292 183.486 51.5292 182.534V182.518C51.5292 181.56 51.6952 180.736 52.0273 180.044C52.3648 179.352 52.8407 178.821 53.455 178.45C54.0748 178.079 54.808 177.894 55.6547 177.894C56.5069 177.894 57.2402 178.079 57.8544 178.45C58.4687 178.821 58.9418 179.352 59.2738 180.044C59.6114 180.736 59.7802 181.56 59.7802 182.518V182.534C59.7802 183.486 59.6114 184.308 59.2738 185C58.9418 185.691 58.4687 186.225 57.8544 186.602C57.2402 186.972 56.5069 187.158 55.6547 187.158ZM55.6547 185.879C56.2192 185.879 56.6978 185.747 57.0907 185.481C57.4836 185.215 57.7825 184.833 57.9872 184.335C58.1975 183.837 58.3027 183.237 58.3027 182.534V182.518C58.3027 181.809 58.1975 181.206 57.9872 180.708C57.7825 180.21 57.4836 179.831 57.0907 179.571C56.6978 179.305 56.2192 179.172 55.6547 179.172C55.0902 179.172 54.6116 179.305 54.2187 179.571C53.8258 179.831 53.5242 180.21 53.3139 180.708C53.1091 181.206 53.0068 181.809 53.0068 182.518V182.534C53.0068 183.237 53.1091 183.837 53.3139 184.335C53.5242 184.833 53.8258 185.215 54.2187 185.481C54.6116 185.747 55.0902 185.879 55.6547 185.879ZM61.9517 187V178.052H63.396V179.38H63.5289C63.7004 178.91 63.9909 178.544 64.4004 178.284C64.8099 178.024 65.3163 177.894 65.9195 177.894C66.0578 177.894 66.1934 177.902 66.3262 177.919C66.4646 177.93 66.5697 177.941 66.6416 177.952V179.355C66.4922 179.327 66.3456 179.308 66.2017 179.297C66.0634 179.28 65.9139 179.272 65.7535 179.272C65.2942 179.272 64.8874 179.363 64.5332 179.546C64.1791 179.729 63.8996 179.983 63.6949 180.31C63.4956 180.636 63.396 181.018 63.396 181.455V187H61.9517ZM68.4396 187V174.499H69.884V187H68.4396ZM74.0759 187L70.5812 182.617L71.6437 181.696L75.8937 187H74.0759ZM69.7013 183.779L69.6349 181.961H70.0168L73.8849 178.052H75.6364L71.3864 182.152L71.0378 182.493L69.7013 183.779ZM78.6961 187.083C78.4028 187.083 78.1482 186.978 77.9324 186.768C77.7221 186.552 77.617 186.297 77.617 186.004C77.617 185.705 77.7221 185.451 77.9324 185.24C78.1482 185.03 78.4028 184.925 78.6961 184.925C78.9949 184.925 79.2495 185.03 79.4598 185.24C79.67 185.451 79.7752 185.705 79.7752 186.004C79.7752 186.297 79.67 186.552 79.4598 186.768C79.2495 186.978 78.9949 187.083 78.6961 187.083ZM91.315 187.282C90.4406 187.282 89.677 187.141 89.024 186.859C88.3765 186.571 87.8619 186.178 87.48 185.68C87.1037 185.177 86.8851 184.601 86.8243 183.954L86.816 183.862H88.3101L88.3184 183.954C88.3571 184.352 88.5093 184.698 88.775 184.991C89.0461 185.279 89.4058 185.503 89.8541 185.664C90.3078 185.824 90.8225 185.904 91.398 185.904C91.9403 185.904 92.4218 185.819 92.8423 185.647C93.2684 185.47 93.6032 185.226 93.8467 184.917C94.0902 184.607 94.212 184.25 94.212 183.846V183.837C94.212 183.339 94.0294 182.922 93.6641 182.584C93.2989 182.241 92.704 181.978 91.8794 181.795L90.5513 181.505C89.3505 181.239 88.4761 180.83 87.9283 180.276C87.386 179.717 87.1148 179.004 87.1148 178.135V178.126C87.1203 177.462 87.3002 176.876 87.6544 176.367C88.0141 175.858 88.5093 175.459 89.1402 175.171C89.7766 174.884 90.5071 174.74 91.3316 174.74C92.1285 174.74 92.834 174.884 93.4483 175.171C94.0626 175.454 94.5495 175.835 94.9092 176.317C95.2745 176.798 95.4765 177.338 95.5152 177.936L95.5235 178.052H94.0294L94.0127 177.944C93.9574 177.59 93.8135 177.277 93.5811 177.006C93.3487 176.729 93.0388 176.511 92.6514 176.35C92.2641 176.19 91.8103 176.112 91.2901 176.118C90.792 176.118 90.3438 176.195 89.9454 176.35C89.5469 176.505 89.2287 176.729 88.9908 177.022C88.7584 177.31 88.6421 177.664 88.6421 178.085V178.093C88.6421 178.569 88.8192 178.97 89.1734 179.297C89.5276 179.623 90.1114 179.875 90.9249 180.052L92.253 180.351C93.0886 180.534 93.761 180.772 94.2701 181.065C94.7792 181.358 95.15 181.718 95.3824 182.144C95.6203 182.565 95.7393 183.063 95.7393 183.638V183.646C95.7393 184.394 95.5567 185.038 95.1915 185.581C94.8262 186.123 94.3116 186.543 93.6475 186.842C92.9835 187.136 92.2059 187.282 91.315 187.282ZM101.63 187.158C100.777 187.158 100.044 186.97 99.4299 186.593C98.8211 186.217 98.3508 185.686 98.0187 185C97.6922 184.308 97.529 183.494 97.529 182.559V182.551C97.529 181.627 97.6922 180.816 98.0187 180.119C98.3508 179.421 98.8184 178.876 99.4216 178.483C100.025 178.09 100.73 177.894 101.538 177.894C102.352 177.894 103.049 178.082 103.63 178.458C104.217 178.835 104.665 179.361 104.975 180.036C105.29 180.705 105.448 181.486 105.448 182.376V182.941H98.2761V181.787H104.709L103.995 182.841V182.269C103.995 181.566 103.89 180.987 103.68 180.534C103.47 180.08 103.179 179.742 102.808 179.521C102.438 179.294 102.011 179.181 101.53 179.181C101.049 179.181 100.617 179.3 100.235 179.538C99.8587 179.77 99.5599 180.116 99.3386 180.575C99.1172 181.035 99.0065 181.599 99.0065 182.269V182.841C99.0065 183.478 99.1144 184.023 99.3303 184.477C99.5461 184.925 99.8532 185.271 100.252 185.514C100.65 185.752 101.12 185.871 101.663 185.871C102.067 185.871 102.418 185.816 102.717 185.705C103.016 185.594 103.262 185.453 103.456 185.282C103.649 185.11 103.785 184.936 103.862 184.759L103.896 184.684H105.34L105.323 184.75C105.246 185.055 105.108 185.351 104.908 185.639C104.715 185.921 104.463 186.178 104.153 186.411C103.843 186.638 103.475 186.82 103.049 186.958C102.628 187.091 102.155 187.158 101.63 187.158ZM110.799 187.066C109.88 187.066 109.213 186.881 108.798 186.51C108.389 186.139 108.184 185.528 108.184 184.676V179.247H106.773V178.052H108.184V175.736H109.678V178.052H111.637V179.247H109.678V184.311C109.678 184.836 109.778 185.215 109.977 185.448C110.176 185.675 110.508 185.788 110.973 185.788C111.1 185.788 111.208 185.785 111.297 185.78C111.391 185.774 111.504 185.766 111.637 185.755V186.983C111.499 187.006 111.36 187.025 111.222 187.042C111.084 187.058 110.943 187.066 110.799 187.066ZM120.894 187.158C120.33 187.158 119.821 187.05 119.367 186.834C118.919 186.618 118.562 186.311 118.296 185.913C118.036 185.514 117.906 185.044 117.906 184.501V184.485C117.906 183.954 118.033 183.5 118.288 183.124C118.542 182.742 118.913 182.443 119.4 182.227C119.887 182.011 120.476 181.884 121.168 181.845L124.455 181.646V182.8L121.342 182.999C120.662 183.038 120.164 183.179 119.848 183.422C119.538 183.666 119.383 184.009 119.383 184.452V184.468C119.383 184.922 119.555 185.276 119.898 185.531C120.241 185.78 120.673 185.904 121.193 185.904C121.685 185.904 122.123 185.807 122.504 185.614C122.886 185.415 123.185 185.146 123.401 184.809C123.622 184.471 123.733 184.089 123.733 183.663V180.874C123.733 180.321 123.564 179.9 123.227 179.612C122.895 179.319 122.394 179.172 121.724 179.172C121.187 179.172 120.747 179.269 120.404 179.463C120.061 179.651 119.832 179.919 119.715 180.268L119.707 180.293H118.263L118.271 180.243C118.349 179.773 118.542 179.363 118.852 179.015C119.168 178.66 119.574 178.387 120.072 178.193C120.57 177.994 121.138 177.894 121.774 177.894C122.504 177.894 123.121 178.013 123.625 178.251C124.134 178.489 124.519 178.832 124.779 179.28C125.044 179.723 125.177 180.254 125.177 180.874V187H123.733V185.68H123.6C123.412 185.996 123.182 186.264 122.911 186.485C122.646 186.707 122.344 186.875 122.006 186.992C121.669 187.102 121.298 187.158 120.894 187.158ZM130.744 187.158C130.069 187.158 129.501 187.03 129.042 186.776C128.583 186.516 128.237 186.139 128.005 185.647C127.778 185.149 127.664 184.549 127.664 183.846V178.052H129.109V183.497C129.109 184.299 129.264 184.897 129.573 185.29C129.889 185.683 130.404 185.879 131.117 185.879C131.51 185.879 131.856 185.821 132.155 185.705C132.459 185.589 132.714 185.423 132.919 185.207C133.123 184.986 133.276 184.72 133.375 184.41C133.48 184.095 133.533 183.741 133.533 183.348V178.052H134.977V187H133.533V185.664H133.4C133.256 185.979 133.06 186.25 132.811 186.477C132.562 186.698 132.263 186.867 131.914 186.983C131.571 187.1 131.181 187.158 130.744 187.158ZM141.266 187.158C140.43 187.158 139.705 186.967 139.091 186.585C138.477 186.203 138.001 185.664 137.663 184.966C137.326 184.269 137.157 183.447 137.157 182.501V182.484C137.157 181.555 137.323 180.747 137.655 180.061C137.993 179.374 138.469 178.843 139.083 178.467C139.697 178.085 140.422 177.894 141.258 177.894C141.983 177.894 142.608 178.021 143.134 178.276C143.659 178.53 144.08 178.874 144.395 179.305C144.711 179.731 144.913 180.21 145.001 180.741L145.01 180.791H143.574L143.565 180.766C143.455 180.323 143.203 179.947 142.81 179.637C142.417 179.327 141.9 179.172 141.258 179.172C140.721 179.172 140.256 179.308 139.863 179.579C139.47 179.85 139.166 180.235 138.95 180.733C138.74 181.225 138.635 181.809 138.635 182.484V182.501C138.635 183.187 138.742 183.785 138.958 184.294C139.174 184.798 139.478 185.188 139.871 185.464C140.264 185.741 140.726 185.879 141.258 185.879C141.861 185.879 142.353 185.749 142.735 185.489C143.117 185.229 143.391 184.85 143.557 184.352L143.574 184.302L145.001 184.294L144.985 184.385C144.863 184.922 144.647 185.401 144.337 185.821C144.027 186.236 143.618 186.563 143.109 186.801C142.6 187.039 141.985 187.158 141.266 187.158ZM150.393 187.066C149.475 187.066 148.808 186.881 148.393 186.51C147.984 186.139 147.779 185.528 147.779 184.676V179.247H146.368V178.052H147.779V175.736H149.273V178.052H151.232V179.247H149.273V184.311C149.273 184.836 149.372 185.215 149.572 185.448C149.771 185.675 150.103 185.788 150.568 185.788C150.695 185.788 150.803 185.785 150.892 185.78C150.986 185.774 151.099 185.766 151.232 185.755V186.983C151.094 187.006 150.955 187.025 150.817 187.042C150.678 187.058 150.537 187.066 150.393 187.066ZM153.354 187V178.052H154.798V187H153.354ZM154.084 176.325C153.813 176.325 153.578 176.228 153.378 176.035C153.185 175.835 153.088 175.6 153.088 175.329C153.088 175.052 153.185 174.817 153.378 174.624C153.578 174.43 153.813 174.333 154.084 174.333C154.361 174.333 154.596 174.43 154.79 174.624C154.983 174.817 155.08 175.052 155.08 175.329C155.08 175.6 154.983 175.835 154.79 176.035C154.596 176.228 154.361 176.325 154.084 176.325ZM161.128 187.158C160.281 187.158 159.548 186.972 158.928 186.602C158.314 186.225 157.838 185.691 157.501 185C157.169 184.308 157.003 183.486 157.003 182.534V182.518C157.003 181.56 157.169 180.736 157.501 180.044C157.838 179.352 158.314 178.821 158.928 178.45C159.548 178.079 160.281 177.894 161.128 177.894C161.98 177.894 162.714 178.079 163.328 178.45C163.942 178.821 164.415 179.352 164.747 180.044C165.085 180.736 165.254 181.56 165.254 182.518V182.534C165.254 183.486 165.085 184.308 164.747 185C164.415 185.691 163.942 186.225 163.328 186.602C162.714 186.972 161.98 187.158 161.128 187.158ZM161.128 185.879C161.693 185.879 162.171 185.747 162.564 185.481C162.957 185.215 163.256 184.833 163.461 184.335C163.671 183.837 163.776 183.237 163.776 182.534V182.518C163.776 181.809 163.671 181.206 163.461 180.708C163.256 180.21 162.957 179.831 162.564 179.571C162.171 179.305 161.693 179.172 161.128 179.172C160.564 179.172 160.085 179.305 159.692 179.571C159.299 179.831 158.998 180.21 158.787 180.708C158.583 181.206 158.48 181.809 158.48 182.518V182.534C158.48 183.237 158.583 183.837 158.787 184.335C158.998 184.833 159.299 185.215 159.692 185.481C160.085 185.747 160.564 185.879 161.128 185.879ZM167.425 187V178.052H168.869V179.396H169.002C169.229 178.921 169.556 178.553 169.982 178.292C170.408 178.027 170.95 177.894 171.609 177.894C172.616 177.894 173.388 178.182 173.925 178.757C174.467 179.327 174.738 180.144 174.738 181.206V187H173.294V181.555C173.294 180.747 173.122 180.149 172.779 179.762C172.442 179.369 171.916 179.172 171.202 179.172C170.726 179.172 170.314 179.275 169.965 179.479C169.617 179.684 169.345 179.975 169.152 180.351C168.964 180.727 168.869 181.178 168.869 181.704V187H167.425ZM185.174 187.066C184.255 187.066 183.588 186.881 183.173 186.51C182.764 186.139 182.559 185.528 182.559 184.676V179.247H181.148V178.052H182.559V175.736H184.053V178.052H186.012V179.247H184.053V184.311C184.053 184.836 184.153 185.215 184.352 185.448C184.551 185.675 184.883 185.788 185.348 185.788C185.475 185.788 185.583 185.785 185.672 185.78C185.766 185.774 185.879 185.766 186.012 185.755V186.983C185.874 187.006 185.736 187.025 185.597 187.042C185.459 187.058 185.318 187.066 185.174 187.066ZM188.864 190.138C188.77 190.138 188.665 190.132 188.549 190.121C188.433 190.116 188.325 190.104 188.225 190.088V188.901C188.314 188.917 188.411 188.929 188.516 188.934C188.621 188.94 188.723 188.942 188.823 188.942C189.232 188.942 189.567 188.837 189.827 188.627C190.093 188.417 190.306 188.054 190.467 187.54L190.633 187.008L187.321 178.052H188.864L191.62 186.319L191.048 185.415H191.728L191.155 186.319L193.903 178.052H195.422L191.927 187.548C191.684 188.217 191.427 188.74 191.155 189.117C190.884 189.493 190.566 189.756 190.201 189.905C189.841 190.06 189.396 190.138 188.864 190.138ZM197.262 189.988V178.052H198.706V179.479H198.839C199.021 179.147 199.251 178.865 199.528 178.633C199.804 178.395 200.12 178.212 200.474 178.085C200.828 177.958 201.213 177.894 201.628 177.894C202.386 177.894 203.044 178.088 203.603 178.475C204.168 178.857 204.605 179.394 204.915 180.085C205.225 180.777 205.38 181.588 205.38 182.518V182.534C205.38 183.469 205.225 184.283 204.915 184.975C204.605 185.666 204.168 186.203 203.603 186.585C203.044 186.967 202.386 187.158 201.628 187.158C201.218 187.158 200.831 187.094 200.466 186.967C200.106 186.834 199.785 186.651 199.503 186.419C199.226 186.187 199.005 185.91 198.839 185.589H198.706V189.988H197.262ZM201.296 185.879C201.844 185.879 202.311 185.747 202.699 185.481C203.086 185.21 203.382 184.825 203.587 184.327C203.797 183.824 203.902 183.226 203.902 182.534V182.518C203.902 181.82 203.797 181.223 203.587 180.725C203.382 180.227 203.086 179.845 202.699 179.579C202.311 179.308 201.844 179.172 201.296 179.172C200.753 179.172 200.286 179.308 199.893 179.579C199.5 179.85 199.198 180.235 198.988 180.733C198.778 181.231 198.673 181.826 198.673 182.518V182.534C198.673 183.22 198.778 183.815 198.988 184.319C199.198 184.817 199.5 185.201 199.893 185.473C200.286 185.744 200.753 185.879 201.296 185.879ZM211.22 187.158C210.368 187.158 209.635 186.97 209.02 186.593C208.412 186.217 207.941 185.686 207.609 185C207.283 184.308 207.12 183.494 207.12 182.559V182.551C207.12 181.627 207.283 180.816 207.609 180.119C207.941 179.421 208.409 178.876 209.012 178.483C209.615 178.09 210.321 177.894 211.129 177.894C211.942 177.894 212.64 178.082 213.221 178.458C213.807 178.835 214.255 179.361 214.565 180.036C214.881 180.705 215.039 181.486 215.039 182.376V182.941H207.867V181.787H214.3L213.586 182.841V182.269C213.586 181.566 213.481 180.987 213.27 180.534C213.06 180.08 212.77 179.742 212.399 179.521C212.028 179.294 211.602 179.181 211.121 179.181C210.639 179.181 210.207 179.3 209.826 179.538C209.449 179.77 209.151 180.116 208.929 180.575C208.708 181.035 208.597 181.599 208.597 182.269V182.841C208.597 183.478 208.705 184.023 208.921 184.477C209.137 184.925 209.444 185.271 209.842 185.514C210.241 185.752 210.711 185.871 211.253 185.871C211.657 185.871 212.009 185.816 212.308 185.705C212.606 185.594 212.853 185.453 213.046 185.282C213.24 185.11 213.376 184.936 213.453 184.759L213.486 184.684H214.931L214.914 184.75C214.837 185.055 214.698 185.351 214.499 185.639C214.305 185.921 214.054 186.178 213.744 186.411C213.434 186.638 213.066 186.82 212.64 186.958C212.219 187.091 211.746 187.158 211.22 187.158ZM224.379 187.158C223.814 187.158 223.305 187.05 222.851 186.834C222.403 186.618 222.046 186.311 221.78 185.913C221.52 185.514 221.39 185.044 221.39 184.501V184.485C221.39 183.954 221.518 183.5 221.772 183.124C222.027 182.742 222.398 182.443 222.884 182.227C223.371 182.011 223.961 181.884 224.653 181.845L227.94 181.646V182.8L224.827 182.999C224.146 183.038 223.648 183.179 223.333 183.422C223.023 183.666 222.868 184.009 222.868 184.452V184.468C222.868 184.922 223.039 185.276 223.383 185.531C223.726 185.78 224.157 185.904 224.677 185.904C225.17 185.904 225.607 185.807 225.989 185.614C226.371 185.415 226.67 185.146 226.885 184.809C227.107 184.471 227.217 184.089 227.217 183.663V180.874C227.217 180.321 227.049 179.9 226.711 179.612C226.379 179.319 225.878 179.172 225.209 179.172C224.672 179.172 224.232 179.269 223.889 179.463C223.546 179.651 223.316 179.919 223.2 180.268L223.192 180.293H221.747L221.756 180.243C221.833 179.773 222.027 179.363 222.337 179.015C222.652 178.66 223.059 178.387 223.557 178.193C224.055 177.994 224.622 177.894 225.259 177.894C225.989 177.894 226.606 178.013 227.11 178.251C227.619 178.489 228.003 178.832 228.263 179.28C228.529 179.723 228.662 180.254 228.662 180.874V187H227.217V185.68H227.085C226.897 185.996 226.667 186.264 226.396 186.485C226.13 186.707 225.829 186.875 225.491 186.992C225.153 187.102 224.783 187.158 224.379 187.158ZM231.232 187V178.052H232.676V179.396H232.809C233.036 178.921 233.362 178.553 233.788 178.292C234.215 178.027 234.757 177.894 235.415 177.894C236.423 177.894 237.195 178.182 237.731 178.757C238.274 179.327 238.545 180.144 238.545 181.206V187H237.1V181.555C237.1 180.747 236.929 180.149 236.586 179.762C236.248 179.369 235.723 179.172 235.009 179.172C234.533 179.172 234.12 179.275 233.772 179.479C233.423 179.684 233.152 179.975 232.958 180.351C232.77 180.727 232.676 181.178 232.676 181.704V187H231.232ZM244.394 187.158C243.641 187.158 242.982 186.967 242.418 186.585C241.853 186.203 241.416 185.666 241.106 184.975C240.797 184.277 240.642 183.464 240.642 182.534V182.518C240.642 181.582 240.797 180.769 241.106 180.077C241.416 179.385 241.851 178.849 242.41 178.467C242.974 178.085 243.635 177.894 244.394 177.894C244.803 177.894 245.188 177.96 245.547 178.093C245.913 178.221 246.236 178.4 246.519 178.633C246.801 178.865 247.022 179.142 247.183 179.463H247.315V174.499H248.76V187H247.315V185.572H247.183C247 185.904 246.77 186.189 246.494 186.427C246.217 186.66 245.901 186.84 245.547 186.967C245.193 187.094 244.809 187.158 244.394 187.158ZM244.726 185.879C245.268 185.879 245.735 185.744 246.128 185.473C246.521 185.201 246.823 184.817 247.033 184.319C247.243 183.815 247.349 183.22 247.349 182.534V182.518C247.349 181.826 247.243 181.231 247.033 180.733C246.823 180.235 246.521 179.85 246.128 179.579C245.735 179.308 245.268 179.172 244.726 179.172C244.183 179.172 243.716 179.308 243.323 179.579C242.935 179.845 242.637 180.227 242.426 180.725C242.221 181.223 242.119 181.82 242.119 182.518V182.534C242.119 183.226 242.221 183.824 242.426 184.327C242.637 184.825 242.935 185.21 243.323 185.481C243.716 185.747 244.183 185.879 244.726 185.879ZM95.9551 212.154C95.2357 212.154 94.6076 212.052 94.0708 211.847C93.5341 211.648 93.1052 211.363 92.7842 210.992C92.4688 210.627 92.2723 210.201 92.1949 209.714L92.2115 209.706H93.7056L93.7139 209.714C93.7914 210.051 94.0238 210.328 94.4112 210.544C94.7985 210.765 95.3132 210.876 95.9551 210.876C96.7575 210.876 97.3829 210.693 97.8311 210.328C98.2849 209.968 98.5118 209.459 98.5118 208.801V206.991H98.379C98.1908 207.318 97.9556 207.597 97.6734 207.83C97.3912 208.062 97.073 208.239 96.7188 208.361C96.3646 208.477 95.9828 208.535 95.5733 208.535C94.8041 208.535 94.1373 208.353 93.5728 207.987C93.0139 207.617 92.5822 207.107 92.2779 206.46C91.9735 205.812 91.8213 205.071 91.8213 204.235V204.219C91.8213 203.383 91.9735 202.642 92.2779 201.994C92.5878 201.341 93.0249 200.829 93.5894 200.458C94.1539 200.082 94.8262 199.894 95.6065 199.894C96.0271 199.894 96.4144 199.96 96.7686 200.093C97.1228 200.226 97.4354 200.414 97.7066 200.658C97.9833 200.901 98.2129 201.192 98.3956 201.529H98.4952V200.052H99.9395V208.875C99.9395 209.54 99.7763 210.118 99.4498 210.61C99.1288 211.103 98.6695 211.482 98.0718 211.748C97.4742 212.019 96.7686 212.154 95.9551 212.154ZM95.8887 207.257C96.4421 207.257 96.9152 207.13 97.3082 206.875C97.7066 206.615 98.011 206.258 98.2212 205.804C98.4371 205.35 98.545 204.827 98.545 204.235V204.219C98.545 203.627 98.4371 203.101 98.2212 202.642C98.011 202.182 97.7066 201.823 97.3082 201.562C96.9152 201.302 96.4421 201.172 95.8887 201.172C95.3353 201.172 94.865 201.302 94.4776 201.562C94.0957 201.823 93.8025 202.182 93.5977 202.642C93.3985 203.101 93.2989 203.627 93.2989 204.219V204.235C93.2989 204.827 93.3985 205.35 93.5977 205.804C93.8025 206.258 94.0957 206.615 94.4776 206.875C94.865 207.13 95.3353 207.257 95.8887 207.257ZM106.212 209.158C105.359 209.158 104.626 208.97 104.012 208.593C103.403 208.217 102.933 207.686 102.601 207C102.274 206.308 102.111 205.494 102.111 204.559V204.551C102.111 203.627 102.274 202.816 102.601 202.119C102.933 201.421 103.4 200.876 104.004 200.483C104.607 200.09 105.312 199.894 106.12 199.894C106.934 199.894 107.631 200.082 108.212 200.458C108.799 200.835 109.247 201.361 109.557 202.036C109.872 202.705 110.03 203.486 110.03 204.376V204.941H102.858V203.787H109.291L108.577 204.841V204.269C108.577 203.566 108.472 202.987 108.262 202.534C108.052 202.08 107.761 201.742 107.39 201.521C107.02 201.294 106.593 201.181 106.112 201.181C105.631 201.181 105.199 201.3 104.817 201.538C104.441 201.77 104.142 202.116 103.921 202.575C103.699 203.035 103.589 203.599 103.589 204.269V204.841C103.589 205.478 103.696 206.023 103.912 206.477C104.128 206.925 104.435 207.271 104.834 207.514C105.232 207.752 105.702 207.871 106.245 207.871C106.649 207.871 107 207.816 107.299 207.705C107.598 207.594 107.844 207.453 108.038 207.282C108.231 207.11 108.367 206.936 108.445 206.759L108.478 206.684H109.922L109.905 206.75C109.828 207.055 109.69 207.351 109.49 207.639C109.297 207.921 109.045 208.178 108.735 208.411C108.425 208.638 108.057 208.82 107.631 208.958C107.21 209.091 106.737 209.158 106.212 209.158ZM115.381 209.066C114.462 209.066 113.795 208.881 113.38 208.51C112.971 208.139 112.766 207.528 112.766 206.676V201.247H111.355V200.052H112.766V197.736H114.26V200.052H116.219V201.247H114.26V206.311C114.26 206.836 114.36 207.215 114.559 207.448C114.758 207.675 115.09 207.788 115.555 207.788C115.682 207.788 115.79 207.785 115.879 207.78C115.973 207.774 116.086 207.766 116.219 207.755V208.983C116.081 209.006 115.942 209.025 115.804 209.042C115.666 209.058 115.525 209.066 115.381 209.066ZM123.052 209V200.052H124.497V209H123.052ZM123.783 198.325C123.512 198.325 123.276 198.228 123.077 198.035C122.884 197.835 122.787 197.6 122.787 197.329C122.787 197.052 122.884 196.817 123.077 196.624C123.276 196.43 123.512 196.333 123.783 196.333C124.059 196.333 124.295 196.43 124.488 196.624C124.682 196.817 124.779 197.052 124.779 197.329C124.779 197.6 124.682 197.835 124.488 198.035C124.295 198.228 124.059 198.325 123.783 198.325ZM130.329 209.066C129.41 209.066 128.743 208.881 128.328 208.51C127.919 208.139 127.714 207.528 127.714 206.676V201.247H126.303V200.052H127.714V197.736H129.208V200.052H131.167V201.247H129.208V206.311C129.208 206.836 129.308 207.215 129.507 207.448C129.706 207.675 130.038 207.788 130.503 207.788C130.63 207.788 130.738 207.785 130.827 207.78C130.921 207.774 131.034 207.766 131.167 207.755V208.983C131.029 209.006 130.89 209.025 130.752 209.042C130.614 209.058 130.473 209.066 130.329 209.066ZM141.039 209.158C140.374 209.158 139.788 209.058 139.279 208.859C138.77 208.654 138.36 208.369 138.05 208.004C137.746 207.639 137.566 207.21 137.511 206.717H138.988C139.11 207.088 139.348 207.387 139.702 207.614C140.056 207.841 140.518 207.954 141.088 207.954C141.492 207.954 141.846 207.896 142.151 207.78C142.461 207.658 142.704 207.495 142.881 207.29C143.058 207.08 143.147 206.839 143.147 206.568V206.551C143.147 206.247 143.025 205.99 142.782 205.779C142.538 205.563 142.14 205.389 141.586 205.256L140.2 204.924C139.641 204.792 139.182 204.62 138.822 204.41C138.463 204.194 138.197 203.931 138.025 203.621C137.854 203.306 137.768 202.935 137.768 202.509V202.5C137.768 202.002 137.912 201.557 138.2 201.164C138.493 200.771 138.891 200.461 139.395 200.234C139.899 200.007 140.466 199.894 141.097 199.894C141.722 199.894 142.275 199.994 142.757 200.193C143.244 200.387 143.634 200.663 143.927 201.023C144.226 201.383 144.409 201.806 144.475 202.293H143.056C142.962 201.939 142.746 201.651 142.408 201.43C142.071 201.208 141.631 201.098 141.088 201.098C140.734 201.098 140.419 201.156 140.142 201.272C139.865 201.383 139.647 201.538 139.486 201.737C139.326 201.936 139.246 202.168 139.246 202.434V202.451C139.246 202.65 139.298 202.827 139.403 202.982C139.508 203.137 139.672 203.272 139.893 203.389C140.114 203.505 140.399 203.607 140.748 203.696L142.126 204.028C142.967 204.233 143.592 204.526 144.002 204.908C144.417 205.29 144.624 205.801 144.624 206.443V206.46C144.624 206.991 144.467 207.462 144.151 207.871C143.836 208.275 143.407 208.59 142.865 208.817C142.328 209.044 141.719 209.158 141.039 209.158ZM150.473 209.158C149.627 209.158 148.893 208.972 148.273 208.602C147.659 208.225 147.183 207.691 146.846 207C146.514 206.308 146.348 205.486 146.348 204.534V204.518C146.348 203.56 146.514 202.736 146.846 202.044C147.183 201.352 147.659 200.821 148.273 200.45C148.893 200.079 149.627 199.894 150.473 199.894C151.325 199.894 152.059 200.079 152.673 200.45C153.287 200.821 153.76 201.352 154.092 202.044C154.43 202.736 154.599 203.56 154.599 204.518V204.534C154.599 205.486 154.43 206.308 154.092 207C153.76 207.691 153.287 208.225 152.673 208.602C152.059 208.972 151.325 209.158 150.473 209.158ZM150.473 207.879C151.038 207.879 151.516 207.747 151.909 207.481C152.302 207.215 152.601 206.833 152.806 206.335C153.016 205.837 153.121 205.237 153.121 204.534V204.518C153.121 203.809 153.016 203.206 152.806 202.708C152.601 202.21 152.302 201.831 151.909 201.571C151.516 201.305 151.038 201.172 150.473 201.172C149.909 201.172 149.43 201.305 149.037 201.571C148.644 201.831 148.343 202.21 148.132 202.708C147.928 203.206 147.825 203.809 147.825 204.518V204.534C147.825 205.237 147.928 205.837 148.132 206.335C148.343 206.833 148.644 207.215 149.037 207.481C149.43 207.747 149.909 207.879 150.473 207.879ZM156.853 209V196.499H158.298V209H156.853ZM164.304 209.158C163.551 209.158 162.893 208.967 162.328 208.585C161.764 208.203 161.327 207.666 161.017 206.975C160.707 206.277 160.552 205.464 160.552 204.534V204.518C160.552 203.582 160.707 202.769 161.017 202.077C161.327 201.385 161.761 200.849 162.32 200.467C162.885 200.085 163.546 199.894 164.304 199.894C164.714 199.894 165.098 199.96 165.458 200.093C165.823 200.221 166.147 200.4 166.429 200.633C166.711 200.865 166.933 201.142 167.093 201.463H167.226V196.499H168.67V209H167.226V207.572H167.093C166.91 207.904 166.681 208.189 166.404 208.427C166.127 208.66 165.812 208.84 165.458 208.967C165.104 209.094 164.719 209.158 164.304 209.158ZM164.636 207.879C165.178 207.879 165.646 207.744 166.039 207.473C166.432 207.201 166.733 206.817 166.944 206.319C167.154 205.815 167.259 205.22 167.259 204.534V204.518C167.259 203.826 167.154 203.231 166.944 202.733C166.733 202.235 166.432 201.85 166.039 201.579C165.646 201.308 165.178 201.172 164.636 201.172C164.094 201.172 163.626 201.308 163.233 201.579C162.846 201.845 162.547 202.227 162.337 202.725C162.132 203.223 162.03 203.82 162.03 204.518V204.534C162.03 205.226 162.132 205.824 162.337 206.327C162.547 206.825 162.846 207.21 163.233 207.481C163.626 207.747 164.094 207.879 164.636 207.879ZM172.552 209.083C172.258 209.083 172.004 208.978 171.788 208.768C171.578 208.552 171.473 208.297 171.473 208.004C171.473 207.705 171.578 207.451 171.788 207.24C172.004 207.03 172.258 206.925 172.552 206.925C172.851 206.925 173.105 207.03 173.315 207.24C173.526 207.451 173.631 207.705 173.631 208.004C173.631 208.297 173.526 208.552 173.315 208.768C173.105 208.978 172.851 209.083 172.552 209.083Z"
        fill="#1C1C1C" fill-opacity="0.6" />
</svg>
