<svg width="108" height="16" viewBox="0 0 108 16" fill="none" xmlns="http://www.w3.org/2000/svg">
    <g clip-path="url(#clip0_323_11171)">
        <path
            d="M21.75 0.25H2.25C1.14543 0.25 0.25 1.14543 0.25 2.25V13.75C0.25 14.8546 1.14543 15.75 2.25 15.75H21.75C22.8546 15.75 23.75 14.8546 23.75 13.75V2.25C23.75 1.14543 22.8546 0.25 21.75 0.25Z"
            fill="white" stroke="black" stroke-opacity="0.2" stroke-width="0.5" />
        <path
            d="M2.78773 5.91444C2.26459 5.62751 1.66754 5.39674 1 5.23659L1.028 5.11188H3.76498C4.13596 5.12489 4.43699 5.23651 4.53495 5.63071L5.12977 8.46659L5.31198 9.32073L6.97797 5.11188H8.77679L6.10288 11.2775H4.30397L2.78773 5.91444ZM10.1 11.2841H8.39883L9.46285 5.11188H11.1639L10.1 11.2841ZM16.2668 5.26277L16.0354 6.59559L15.8816 6.53004C15.5737 6.40525 15.1674 6.28054 14.6144 6.29371C13.9427 6.29371 13.6415 6.56277 13.6345 6.82546C13.6345 7.11441 13.9989 7.30484 14.5939 7.58725C15.574 8.02719 16.0286 8.56557 16.0218 9.26819C16.0081 10.5486 14.846 11.3761 13.0611 11.3761C12.2979 11.3694 11.5628 11.2181 11.1638 11.0476L11.4019 9.66205L11.6259 9.76066C12.1789 9.99071 12.5428 10.089 13.222 10.089C13.7118 10.089 14.2369 9.89838 14.2436 9.48488C14.2436 9.21565 14.0199 9.01851 13.3617 8.71646C12.7178 8.42087 11.8568 7.92848 11.8708 7.04198C11.8781 5.84042 13.0611 5 14.741 5C15.399 5 15.9312 5.13789 16.2668 5.26277ZM18.5278 9.09749H19.9417C19.8718 8.78889 19.5496 7.31147 19.5496 7.31147L19.4307 6.77964C19.3467 7.00943 19.1999 7.38373 19.2069 7.37056C19.2069 7.37056 18.6678 8.7429 18.5278 9.09749ZM20.6276 5.11188L22 11.284H20.4249C20.4249 11.284 20.2708 10.5748 20.2219 10.3581H18.0378C17.9746 10.5222 17.6808 11.284 17.6808 11.284H15.8958L18.4226 5.62399C18.5977 5.22342 18.906 5.11188 19.3118 5.11188H20.6276Z"
            fill="#171E6C" />
    </g>
    <g clip-path="url(#clip1_323_11171)">
        <path
            d="M50 0H30C28.8954 0 28 0.89543 28 2V14C28 15.1046 28.8954 16 30 16H50C51.1046 16 52 15.1046 52 14V2C52 0.89543 51.1046 0 50 0Z"
            fill="#252525" />
        <path
            d="M37 13C39.7614 13 42 10.7614 42 8C42 5.23858 39.7614 3 37 3C34.2386 3 32 5.23858 32 8C32 10.7614 34.2386 13 37 13Z"
            fill="#EB001B" />
        <path
            d="M43 13C45.7614 13 48 10.7614 48 8C48 5.23858 45.7614 3 43 3C40.2386 3 38 5.23858 38 8C38 10.7614 40.2386 13 43 13Z"
            fill="#F79E1B" />
        <path fill-rule="evenodd" clip-rule="evenodd"
            d="M40 4C41.2144 4.91221 42 6.36455 42 8.00037C42 9.63618 41.2144 11.0885 40 12.0007C38.7856 11.0885 38 9.63618 38 8.00037C38 6.36455 38.7856 4.91221 40 4Z"
            fill="#FF5F00" />
    </g>
    <g clip-path="url(#clip2_323_11171)">
        <path
            d="M78 0H58C56.8954 0 56 0.89543 56 2V14C56 15.1046 56.8954 16 58 16H78C79.1046 16 80 15.1046 80 14V2C80 0.89543 79.1046 0 78 0Z"
            fill="#016FD0" />
        <path fill-rule="evenodd" clip-rule="evenodd"
            d="M69.7656 13.3938V7.69238L79.9132 7.70149V9.27638L78.7403 10.5298L79.9132 11.7947V13.403H78.0405L77.0454 12.3048L76.0572 13.4071L69.7656 13.3938Z"
            fill="#FFFFFE" />
        <path fill-rule="evenodd" clip-rule="evenodd"
            d="M70.4414 12.7692V8.32031H74.2137V9.3452H71.6628V10.0409H74.1529V11.0487H71.6628V11.732H74.2137V12.7692H70.4414Z"
            fill="#016FD0" />
        <path fill-rule="evenodd" clip-rule="evenodd"
            d="M74.1954 12.7691L76.2827 10.5421L74.1953 8.32031H75.811L77.0865 9.73035L78.3656 8.32031H79.9117V8.35532L77.8689 10.5421L79.9117 12.706V12.7691H78.35L77.0519 11.3449L75.7671 12.7691H74.1954Z"
            fill="#016FD0" />
        <path fill-rule="evenodd" clip-rule="evenodd"
            d="M70.2388 2.63184H72.6849L73.544 4.58269V2.63184H76.5639L77.0846 4.09341L77.6071 2.63184H79.9131V8.33323H67.7266L70.2388 2.63184Z"
            fill="#FFFFFE" />
        <path fill-rule="evenodd" clip-rule="evenodd"
            d="M70.7006 3.25195L68.7266 7.69712H70.0805L70.4529 6.80696H72.4708L72.843 7.69712H74.2306L72.2648 3.25195H70.7006ZM70.8702 5.80939L71.4622 4.39432L72.0538 5.80939H70.8702Z"
            fill="#016FD0" />
        <path fill-rule="evenodd" clip-rule="evenodd"
            d="M74.2109 7.69606V3.25098L76.1141 3.25752L77.0933 5.99025L78.079 3.25098H79.9106V7.69606L78.732 7.70649V4.65314L77.6194 7.69606H76.5436L75.4079 4.64271V7.69606H74.2109Z"
            fill="#016FD0" />
    </g>
    <g clip-path="url(#clip3_323_11171)">
        <path
            d="M105.997 15.7499L105.999 15.7499C106.954 15.7581 107.738 14.9773 107.75 14.0042L107.75 2.0063C107.746 1.53569 107.559 1.08617 107.23 0.756802C106.901 0.428269 106.459 0.246149 105.997 0.250071L86.0006 0.250062C85.5411 0.246149 85.0986 0.428269 84.7703 0.756802C84.4411 1.08617 84.2538 1.53569 84.25 2.00426L84.25 13.9937C84.2538 14.4643 84.4411 14.9138 84.7703 15.2432C85.0986 15.5717 85.5411 15.7538 86.0028 15.7499H105.997ZM105.996 16.2499C105.996 16.2499 105.995 16.2499 105.995 16.2499L105.997 16.2499H105.996Z"
            fill="white" stroke="black" stroke-opacity="0.2" stroke-width="0.5" />
        <path
            d="M96.6133 16.0002H105.998C106.525 16.0046 107.032 15.7995 107.407 15.4301C107.783 15.0607 107.996 14.5573 108.001 14.0305V11.6719C104.457 13.7062 100.614 15.167 96.6133 16.0002Z"
            fill="#F27712" />
        <path
            d="M107.173 9.29692H106.321L105.361 8.03072H105.27V9.29692H104.574V6.15209H105.601C106.403 6.15209 106.867 6.48313 106.867 7.07899C106.867 7.56727 106.577 7.88175 106.056 7.98106L107.173 9.29692ZM106.147 7.10382C106.147 6.79761 105.915 6.64037 105.485 6.64037H105.27V7.59209H105.468C105.915 7.59209 106.147 7.42658 106.147 7.10382ZM102.141 6.15209H104.111V6.68175H102.836V7.3852H104.061V7.92313H102.836V8.77554H104.111V9.3052H102.141V6.15209ZM99.9067 9.37968L98.4005 6.14382H99.1619L100.114 8.26244L101.074 6.14382H101.818L100.296 9.37968H99.9233H99.9067ZM93.6088 9.37141C92.5495 9.37141 91.7219 8.6514 91.7219 7.71623C91.7219 6.80589 92.5661 6.06934 93.6254 6.06934C93.9233 6.06934 94.1716 6.12727 94.4778 6.25968V6.98796C94.2459 6.76013 93.9339 6.63236 93.6088 6.63209C92.9467 6.63209 92.4419 7.11209 92.4419 7.71623C92.4419 8.35347 92.9385 8.80865 93.6419 8.80865C93.9564 8.80865 94.1964 8.70934 94.4778 8.46106V9.18934C94.1633 9.32175 93.8985 9.37141 93.6088 9.37141ZM91.5067 8.33692C91.5067 8.94934 91.0019 9.37141 90.2736 9.37141C89.744 9.37141 89.3633 9.18934 89.0405 8.77554L89.4957 8.38658C89.653 8.66796 89.9178 8.80865 90.2488 8.80865C90.5633 8.80865 90.7867 8.6183 90.7867 8.37003C90.7867 8.22934 90.7205 8.12175 90.5798 8.03899C90.4256 7.96413 90.265 7.9032 90.0998 7.85692C89.4461 7.65003 89.2226 7.42658 89.2226 6.98796C89.2226 6.47485 89.7026 6.08589 90.3316 6.08589C90.7288 6.08589 91.0847 6.21003 91.3826 6.44175L91.0185 6.85554C90.8741 6.69732 90.6699 6.6072 90.4557 6.60727C90.1578 6.60727 89.9426 6.75623 89.9426 6.95485C89.9426 7.12037 90.0667 7.21141 90.4805 7.35209C91.275 7.60037 91.5067 7.83209 91.5067 8.3452V8.33692ZM88.0888 6.15209H88.784V9.3052H88.0888V6.15209ZM85.8543 9.3052H84.8281V6.15209H85.8543C86.9798 6.15209 87.7578 6.79761 87.7578 7.72451C87.7578 8.19623 87.5261 8.64313 87.1205 8.94106C86.773 9.18934 86.384 9.3052 85.8461 9.3052H85.8543ZM86.6654 6.9383C86.4336 6.75623 86.1688 6.69003 85.7136 6.69003H85.5233V8.77554H85.7136C86.1605 8.77554 86.4419 8.69278 86.6654 8.52727C86.9054 8.32865 87.0461 8.03072 87.0461 7.72451C87.0461 7.4183 86.9054 7.12865 86.6654 6.9383Z"
            fill="black" />
        <path
            d="M96.413 6.06934C95.5026 6.06934 94.7578 6.79761 94.7578 7.69968C94.7578 8.65968 95.4695 9.37968 96.413 9.37968C97.3399 9.37968 98.0682 8.6514 98.0682 7.72451C98.0682 6.79761 97.3482 6.06934 96.413 6.06934Z"
            fill="#F27712" />
    </g>
    <defs>
        <clipPath id="clip0_323_11171">
            <rect width="24" height="16" fill="white" />
        </clipPath>
        <clipPath id="clip1_323_11171">
            <rect width="24" height="16" fill="white" transform="translate(28)" />
        </clipPath>
        <clipPath id="clip2_323_11171">
            <rect width="24" height="16" fill="white" transform="translate(56)" />
        </clipPath>
        <clipPath id="clip3_323_11171">
            <rect width="24" height="16" fill="white" transform="translate(84)" />
        </clipPath>
    </defs>
</svg>
