<svg width="349" height="98" viewBox="0 0 349 98" fill="none" xmlns="http://www.w3.org/2000/svg">
    <rect x="0.5" y="0.5" width="348" height="97" rx="1.5" stroke="#1C1C1C" stroke-opacity="0.1" />
    <path
        d="M22.5576 37.2905C21.6999 37.2905 20.9307 37.1466 20.25 36.8589C19.5693 36.5656 18.9883 36.145 18.5068 35.5972C18.0254 35.0493 17.6546 34.3908 17.3945 33.6216C17.14 32.8468 17.0127 31.978 17.0127 31.0151V30.9985C17.0127 29.7257 17.2396 28.6217 17.6934 27.6865C18.1471 26.7458 18.7891 26.0181 19.6191 25.5034C20.4492 24.9888 21.4204 24.7314 22.5327 24.7314C23.4403 24.7314 24.251 24.8919 24.9648 25.2129C25.6787 25.5339 26.2653 25.9849 26.7246 26.5659C27.1839 27.1414 27.4855 27.8166 27.6294 28.5913L27.6377 28.6743H25.77L25.7451 28.5913C25.5348 27.883 25.1502 27.3379 24.5913 26.9561C24.0379 26.5742 23.3517 26.3833 22.5327 26.3833C21.7967 26.3833 21.1576 26.5715 20.6152 26.9478C20.0729 27.3241 19.6523 27.8581 19.3535 28.5498C19.0602 29.236 18.9136 30.0495 18.9136 30.9902V31.0068C18.9136 31.7207 18.9966 32.3626 19.1626 32.9326C19.3341 33.5026 19.5804 33.9896 19.9014 34.3936C20.2223 34.792 20.6069 35.0991 21.0552 35.3149C21.5034 35.5308 22.0098 35.6387 22.5742 35.6387C23.2272 35.6387 23.8 35.5114 24.2925 35.2568C24.7905 34.9967 25.1779 34.637 25.4546 34.1777C25.7313 33.7184 25.8724 33.1816 25.8779 32.5674L25.8862 32.3018H22.8066V30.7993H27.729V32.2852C27.729 33.0433 27.6073 33.7295 27.3638 34.3438C27.1203 34.958 26.7716 35.4865 26.3179 35.9292C25.8641 36.3664 25.319 36.7039 24.6826 36.9419C24.0462 37.1743 23.3379 37.2905 22.5576 37.2905ZM33.7936 37.1743C32.9137 37.1743 32.1583 36.9862 31.5275 36.6099C30.8966 36.228 30.4096 35.6885 30.0665 34.9912C29.729 34.2939 29.5602 33.4694 29.5602 32.5176V32.5093C29.5602 31.5685 29.729 30.7467 30.0665 30.0439C30.4096 29.3411 30.8911 28.7933 31.5109 28.4004C32.1362 28.0075 32.8667 27.811 33.7023 27.811C34.5434 27.811 35.2656 27.9992 35.8688 28.3755C36.4775 28.7518 36.9451 29.2803 37.2716 29.9609C37.5981 30.6361 37.7614 31.4274 37.7614 32.335V32.9658H30.4733V31.6792H36.8649L36.0016 32.8745V32.1523C36.0016 31.5104 35.902 30.9792 35.7028 30.5586C35.5091 30.1325 35.2407 29.8143 34.8976 29.604C34.5545 29.3937 34.1588 29.2886 33.7106 29.2886C33.2623 29.2886 32.8611 29.3993 32.507 29.6206C32.1583 29.8364 31.8816 30.1574 31.6769 30.5835C31.4777 31.0096 31.3781 31.5326 31.3781 32.1523V32.8745C31.3781 33.4666 31.4777 33.973 31.6769 34.3936C31.8761 34.8141 32.1583 35.1351 32.5236 35.3564C32.8943 35.5778 33.3315 35.6885 33.8351 35.6885C34.2225 35.6885 34.5545 35.6359 34.8312 35.5308C35.1134 35.4201 35.3431 35.2845 35.5201 35.124C35.7028 34.9635 35.8273 34.8058 35.8937 34.6509L35.9269 34.5845H37.67L37.6534 34.6592C37.576 34.958 37.4404 35.2568 37.2467 35.5557C37.053 35.849 36.7957 36.1174 36.4747 36.3608C36.1593 36.6043 35.7775 36.8008 35.3292 36.9502C34.8865 37.0996 34.3746 37.1743 33.7936 37.1743ZM43.2366 37.0581C42.2516 37.0581 41.5377 36.87 41.095 36.4937C40.6578 36.1118 40.4392 35.4893 40.4392 34.626V29.4048H39.0281V27.9854H40.4392V25.7109H42.282V27.9854H44.2161V29.4048H42.282V34.186C42.282 34.673 42.3788 35.0244 42.5725 35.2402C42.7662 35.4505 43.0872 35.5557 43.5354 35.5557C43.6682 35.5557 43.7817 35.5529 43.8757 35.5474C43.9753 35.5418 44.0888 35.5335 44.2161 35.5225V36.9668C44.0722 36.9889 43.9172 37.0083 43.7512 37.0249C43.5852 37.047 43.4137 37.0581 43.2366 37.0581ZM53.2905 37.1494C52.7205 37.1494 52.2087 37.0415 51.7549 36.8257C51.3066 36.6043 50.9525 36.2917 50.6924 35.8877C50.4323 35.4837 50.3023 35.0106 50.3023 34.4683V34.4517C50.3023 33.9093 50.4323 33.4473 50.6924 33.0654C50.958 32.6836 51.3399 32.3848 51.8379 32.1689C52.3415 31.9476 52.9502 31.8148 53.6641 31.7705L56.9927 31.5713V32.8413L53.9131 33.0405C53.2933 33.0793 52.8368 33.2121 52.5435 33.439C52.2502 33.6603 52.1035 33.973 52.1035 34.377V34.3936C52.1035 34.8031 52.2612 35.1268 52.5767 35.3647C52.8921 35.5972 53.2905 35.7134 53.772 35.7134C54.2202 35.7134 54.6187 35.6248 54.9673 35.4478C55.3215 35.2651 55.5982 35.0216 55.7974 34.7173C55.9966 34.4074 56.0962 34.0588 56.0962 33.6714V30.8325C56.0962 30.3345 55.9413 29.9554 55.6314 29.6953C55.327 29.4297 54.8732 29.2969 54.27 29.2969C53.7664 29.2969 53.3542 29.3854 53.0332 29.5625C52.7178 29.7396 52.5075 29.9886 52.4024 30.3096L52.3857 30.3345H50.6509L50.6592 30.2764C50.7311 29.7783 50.9276 29.3467 51.2485 28.9814C51.575 28.6107 52.0011 28.3229 52.5269 28.1182C53.0581 27.9134 53.6641 27.811 54.3447 27.811C55.1029 27.811 55.7448 27.9328 56.2705 28.1763C56.8018 28.4142 57.203 28.7601 57.4741 29.2139C57.7508 29.6621 57.8892 30.2017 57.8892 30.8325V37H56.0962V35.7217H55.9634C55.7863 36.026 55.5649 36.2861 55.2993 36.502C55.0337 36.7122 54.7321 36.8727 54.3945 36.9834C54.057 37.0941 53.689 37.1494 53.2905 37.1494ZM64.5979 36.751V35.2651C65.3505 35.1047 65.9482 34.7892 66.3909 34.3188C66.8391 33.8429 67.0632 33.284 67.0632 32.6421C67.0632 32.3433 67.0273 32.0638 66.9553 31.8037C66.8889 31.5381 66.8032 31.2835 66.698 31.04C66.5984 30.791 66.4988 30.5448 66.3992 30.3013C66.2996 30.0522 66.2138 29.7977 66.1419 29.5376C66.0755 29.272 66.0422 28.9897 66.0422 28.6909C66.0422 27.966 66.2193 27.3434 66.5735 26.8232C66.9277 26.3031 67.4312 25.9019 68.0842 25.6196C68.7428 25.3374 69.5258 25.1963 70.4334 25.1963C70.9259 25.1963 71.4018 25.2378 71.8611 25.3208C72.3204 25.3983 72.6967 25.5034 72.99 25.6362V27.1802C72.752 27.0584 72.4089 26.9561 71.9607 26.873C71.5125 26.79 71.0615 26.7485 70.6077 26.7485C69.761 26.7485 69.0997 26.9284 68.6238 27.2881C68.1479 27.6423 67.9099 28.1375 67.9099 28.7739C67.9099 29.0617 67.9404 29.3301 68.0012 29.5791C68.0676 29.8281 68.1479 30.0688 68.242 30.3013C68.336 30.5337 68.4301 30.7689 68.5242 31.0068C68.6183 31.2393 68.6957 31.4827 68.7566 31.7373C68.823 31.9919 68.8562 32.2658 68.8562 32.5591C68.8562 33.1125 68.7206 33.605 68.4495 34.0366C68.1783 34.4627 67.7826 34.8169 67.2625 35.0991V35.207H73.5628V36.751H64.5979ZM64.5979 31.563V30.4009H72.1599V31.563H64.5979ZM80.0424 37.2241C79.1902 37.2241 78.4459 37.0802 77.8095 36.7925C77.1731 36.4992 76.6695 36.098 76.2987 35.5889C75.928 35.0798 75.7121 34.4959 75.6513 33.8374L75.643 33.7295H77.4359L77.4442 33.8208C77.483 34.1805 77.613 34.4987 77.8344 34.7754C78.0557 35.0521 78.3545 35.2707 78.7309 35.4312C79.1127 35.5861 79.5499 35.6636 80.0424 35.6636C80.5349 35.6636 80.9638 35.5806 81.329 35.4146C81.6942 35.243 81.9792 35.0078 82.184 34.709C82.3887 34.4046 82.4911 34.0588 82.4911 33.6714V33.6548C82.4911 32.9797 82.2614 32.4622 81.8021 32.1025C81.3428 31.7373 80.7147 31.5547 79.9179 31.5547H78.4652V30.0938H79.8598C80.3191 30.0938 80.7203 30.0135 81.0634 29.853C81.4065 29.687 81.6749 29.4601 81.8685 29.1724C82.0622 28.8846 82.1591 28.5553 82.1591 28.1846V28.168C82.1591 27.7806 82.0761 27.4513 81.91 27.1802C81.744 26.9035 81.5005 26.6932 81.1796 26.5493C80.8642 26.3999 80.4795 26.3252 80.0258 26.3252C79.5831 26.3252 79.1902 26.3999 78.8471 26.5493C78.504 26.6987 78.23 26.9118 78.0253 27.1885C77.8205 27.4596 77.6988 27.7861 77.66 28.168L77.6517 28.2427H75.892L75.9003 28.1597C75.9667 27.479 76.177 26.8896 76.5311 26.3916C76.8908 25.888 77.3668 25.4979 77.9589 25.2212C78.5565 24.939 79.2455 24.7979 80.0258 24.7979C80.8226 24.7979 81.5171 24.9307 82.1093 25.1963C82.7014 25.4619 83.1607 25.8299 83.4872 26.3003C83.8137 26.7651 83.9769 27.3075 83.9769 27.9272V27.9438C83.9769 28.4419 83.8663 28.8818 83.6449 29.2637C83.4291 29.64 83.1303 29.9554 82.7484 30.21C82.3721 30.459 81.9405 30.6333 81.4535 30.7329V30.7744C82.3334 30.8464 83.0417 31.1369 83.5785 31.646C84.1153 32.1551 84.3837 32.8302 84.3837 33.6714V33.688C84.3837 34.3742 84.1983 34.9857 83.8275 35.5225C83.4568 36.0537 82.9449 36.4715 82.2919 36.7759C81.6444 37.0747 80.8946 37.2241 80.0424 37.2241ZM90.8716 37.2905C89.9474 37.2905 89.1561 37.036 88.4976 36.5269C87.839 36.0177 87.3327 35.2956 86.9785 34.3604C86.6244 33.4196 86.4473 32.3045 86.4473 31.0151V30.9985C86.4473 29.7091 86.6244 28.5968 86.9785 27.6616C87.3327 26.7264 87.839 26.0042 88.4976 25.4951C89.1561 24.986 89.9474 24.7314 90.8716 24.7314C91.7958 24.7314 92.5871 24.986 93.2456 25.4951C93.9041 26.0042 94.4105 26.7264 94.7647 27.6616C95.1244 28.5968 95.3042 29.7091 95.3042 30.9985V31.0151C95.3042 32.3045 95.1244 33.4196 94.7647 34.3604C94.4105 35.2956 93.9041 36.0177 93.2456 36.5269C92.5871 37.036 91.7958 37.2905 90.8716 37.2905ZM90.8716 35.7383C91.4084 35.7383 91.8649 35.5474 92.2412 35.1655C92.6231 34.7837 92.9136 34.2414 93.1128 33.5386C93.3176 32.8302 93.4199 31.9891 93.4199 31.0151V30.9985C93.4199 30.0246 93.3176 29.1862 93.1128 28.4834C92.9136 27.7806 92.6231 27.241 92.2412 26.8647C91.8649 26.4829 91.4084 26.292 90.8716 26.292C90.3403 26.292 89.8838 26.4829 89.502 26.8647C89.1257 27.241 88.8351 27.7806 88.6304 28.4834C88.4312 29.1862 88.3316 30.0246 88.3316 30.9985V31.0151C88.3316 31.9891 88.4312 32.8302 88.6304 33.5386C88.8351 34.2414 89.1257 34.7837 89.502 35.1655C89.8838 35.5474 90.3403 35.7383 90.8716 35.7383ZM107.317 37.2905C106.21 37.2905 105.25 37.036 104.437 36.5269C103.629 36.0177 103.006 35.2956 102.569 34.3604C102.132 33.4251 101.913 32.3128 101.913 31.0234V31.0068C101.913 29.7119 102.132 28.5968 102.569 27.6616C103.006 26.7264 103.629 26.0042 104.437 25.4951C105.245 24.986 106.205 24.7314 107.317 24.7314C108.197 24.7314 108.991 24.9058 109.699 25.2544C110.413 25.5975 110.997 26.0734 111.451 26.6821C111.91 27.2909 112.19 27.9909 112.289 28.7822V28.832H110.438L110.43 28.7988C110.319 28.3063 110.117 27.8802 109.824 27.5205C109.531 27.1608 109.171 26.8813 108.745 26.6821C108.319 26.4829 107.843 26.3833 107.317 26.3833C106.603 26.3833 105.984 26.5715 105.458 26.9478C104.938 27.3241 104.534 27.8581 104.246 28.5498C103.964 29.236 103.823 30.055 103.823 31.0068V31.0234C103.823 31.9642 103.964 32.7804 104.246 33.4722C104.534 34.1639 104.938 34.6979 105.458 35.0742C105.984 35.4505 106.606 35.6387 107.325 35.6387C107.851 35.6387 108.327 35.5501 108.753 35.373C109.185 35.196 109.545 34.9442 109.832 34.6177C110.12 34.2856 110.317 33.8955 110.422 33.4473L110.438 33.4141H112.298L112.289 33.4556C112.173 34.2248 111.891 34.8971 111.443 35.4727C110.994 36.0482 110.419 36.4964 109.716 36.8174C109.013 37.1328 108.214 37.2905 107.317 37.2905ZM114.461 37V27.9854H116.262V29.3467H116.403C116.564 28.8652 116.846 28.4917 117.25 28.2261C117.659 27.9604 118.163 27.8276 118.761 27.8276C118.91 27.8276 119.057 27.8359 119.201 27.8525C119.344 27.8691 119.461 27.8885 119.549 27.9106V29.5708C119.389 29.5376 119.228 29.5127 119.068 29.4961C118.913 29.4795 118.75 29.4712 118.578 29.4712C118.119 29.4712 117.715 29.5597 117.366 29.7368C117.023 29.9139 116.752 30.1629 116.553 30.4839C116.359 30.7993 116.262 31.1756 116.262 31.6128V37H114.461ZM124.767 37.1743C123.887 37.1743 123.132 36.9862 122.501 36.6099C121.87 36.228 121.383 35.6885 121.04 34.9912C120.702 34.2939 120.534 33.4694 120.534 32.5176V32.5093C120.534 31.5685 120.702 30.7467 121.04 30.0439C121.383 29.3411 121.865 28.7933 122.484 28.4004C123.11 28.0075 123.84 27.811 124.676 27.811C125.517 27.811 126.239 27.9992 126.842 28.3755C127.451 28.7518 127.919 29.2803 128.245 29.9609C128.572 30.6361 128.735 31.4274 128.735 32.335V32.9658H121.447V31.6792H127.838L126.975 32.8745V32.1523C126.975 31.5104 126.876 30.9792 126.676 30.5586C126.483 30.1325 126.214 29.8143 125.871 29.604C125.528 29.3937 125.132 29.2886 124.684 29.2886C124.236 29.2886 123.835 29.3993 123.48 29.6206C123.132 29.8364 122.855 30.1574 122.65 30.5835C122.451 31.0096 122.352 31.5326 122.352 32.1523V32.8745C122.352 33.4666 122.451 33.973 122.65 34.3936C122.85 34.8141 123.132 35.1351 123.497 35.3564C123.868 35.5778 124.305 35.6885 124.809 35.6885C125.196 35.6885 125.528 35.6359 125.805 35.5308C126.087 35.4201 126.317 35.2845 126.494 35.124C126.676 34.9635 126.801 34.8058 126.867 34.6509L126.9 34.5845H128.644L128.627 34.6592C128.55 34.958 128.414 35.2568 128.22 35.5557C128.027 35.849 127.769 36.1174 127.448 36.3608C127.133 36.6043 126.751 36.8008 126.303 36.9502C125.86 37.0996 125.348 37.1743 124.767 37.1743ZM134.094 37.1494C133.341 37.1494 132.683 36.9613 132.118 36.585C131.559 36.2031 131.125 35.6636 130.815 34.9663C130.511 34.269 130.359 33.4473 130.359 32.501V32.4844C130.359 31.5326 130.511 30.708 130.815 30.0107C131.119 29.3135 131.551 28.7767 132.11 28.4004C132.669 28.0186 133.33 27.8276 134.094 27.8276C134.509 27.8276 134.896 27.894 135.256 28.0269C135.616 28.1541 135.934 28.3368 136.211 28.5747C136.487 28.8071 136.706 29.0866 136.866 29.4131H136.999V24.4492H138.809V37H136.999V35.5806H136.866C136.689 35.9071 136.465 36.1893 136.194 36.4272C135.923 36.6597 135.61 36.8395 135.256 36.9668C134.902 37.0885 134.514 37.1494 134.094 37.1494ZM134.609 35.6055C135.107 35.6055 135.538 35.481 135.903 35.2319C136.269 34.9829 136.548 34.626 136.742 34.1611C136.936 33.6908 137.032 33.1374 137.032 32.501V32.4844C137.032 31.8424 136.933 31.2891 136.734 30.8242C136.54 30.3594 136.26 30.0024 135.895 29.7534C135.535 29.4989 135.107 29.3716 134.609 29.3716C134.111 29.3716 133.679 29.4989 133.314 29.7534C132.954 30.0024 132.677 30.3594 132.484 30.8242C132.295 31.2835 132.201 31.8369 132.201 32.4844V32.501C132.201 33.1429 132.295 33.6963 132.484 34.1611C132.677 34.626 132.954 34.9829 133.314 35.2319C133.679 35.481 134.111 35.6055 134.609 35.6055ZM141.437 37V27.9854H143.246V37H141.437ZM142.35 26.375C142.04 26.375 141.774 26.2643 141.553 26.043C141.332 25.8216 141.221 25.556 141.221 25.2461C141.221 24.9362 141.332 24.6733 141.553 24.4575C141.774 24.2362 142.04 24.1255 142.35 24.1255C142.66 24.1255 142.925 24.2362 143.147 24.4575C143.368 24.6733 143.479 24.9362 143.479 25.2461C143.479 25.556 143.368 25.8216 143.147 26.043C142.925 26.2643 142.66 26.375 142.35 26.375ZM149.195 37.0581C148.21 37.0581 147.496 36.87 147.053 36.4937C146.616 36.1118 146.397 35.4893 146.397 34.626V29.4048H144.986V27.9854H146.397V25.7109H148.24V27.9854H150.174V29.4048H148.24V34.186C148.24 34.673 148.337 35.0244 148.531 35.2402C148.724 35.4505 149.045 35.5557 149.494 35.5557C149.626 35.5557 149.74 35.5529 149.834 35.5474C149.934 35.5418 150.047 35.5335 150.174 35.5225V36.9668C150.03 36.9889 149.875 37.0083 149.709 37.0249C149.543 37.047 149.372 37.0581 149.195 37.0581ZM157.414 37V29.4048H155.928V27.9854H157.414V27.0391C157.414 26.4359 157.514 25.9378 157.713 25.5449C157.918 25.1465 158.228 24.8504 158.643 24.6567C159.058 24.4631 159.581 24.3662 160.212 24.3662C160.411 24.3662 160.596 24.3745 160.768 24.3911C160.945 24.4022 161.114 24.4215 161.274 24.4492V25.7773C161.191 25.7607 161.089 25.7497 160.967 25.7441C160.851 25.7331 160.723 25.7275 160.585 25.7275C160.087 25.7275 159.73 25.8465 159.514 26.0845C159.304 26.3224 159.199 26.6683 159.199 27.1221V27.9854H161.191V29.4048H159.215V37H157.414ZM166.617 37.1743C165.737 37.1743 164.976 36.9862 164.334 36.6099C163.697 36.2336 163.208 35.6968 162.865 34.9995C162.521 34.2967 162.35 33.4639 162.35 32.501V32.4844C162.35 31.516 162.521 30.6831 162.865 29.9858C163.213 29.2886 163.706 28.7518 164.342 28.3755C164.984 27.9992 165.742 27.811 166.617 27.811C167.496 27.811 168.255 27.9992 168.891 28.3755C169.527 28.7463 170.017 29.283 170.36 29.9858C170.709 30.6831 170.883 31.516 170.883 32.4844V32.501C170.883 33.4639 170.709 34.2967 170.36 34.9995C170.017 35.6968 169.527 36.2336 168.891 36.6099C168.26 36.9862 167.502 37.1743 166.617 37.1743ZM166.617 35.6636C167.131 35.6636 167.568 35.5391 167.928 35.29C168.288 35.0355 168.562 34.673 168.75 34.2026C168.938 33.7323 169.032 33.165 169.032 32.501V32.4844C169.032 31.8148 168.938 31.2448 168.75 30.7744C168.562 30.304 168.288 29.9443 167.928 29.6953C167.568 29.4408 167.131 29.3135 166.617 29.3135C166.102 29.3135 165.665 29.4408 165.305 29.6953C164.945 29.9443 164.669 30.304 164.475 30.7744C164.287 31.2448 164.193 31.8148 164.193 32.4844V32.501C164.193 33.165 164.287 33.7323 164.475 34.2026C164.669 34.673 164.945 35.0355 165.305 35.29C165.665 35.5391 166.102 35.6636 166.617 35.6636ZM172.955 37V27.9854H174.756V29.3467H174.897C175.058 28.8652 175.34 28.4917 175.744 28.2261C176.154 27.9604 176.657 27.8276 177.255 27.8276C177.404 27.8276 177.551 27.8359 177.695 27.8525C177.839 27.8691 177.955 27.8885 178.043 27.9106V29.5708C177.883 29.5376 177.722 29.5127 177.562 29.4961C177.407 29.4795 177.244 29.4712 177.072 29.4712C176.613 29.4712 176.209 29.5597 175.86 29.7368C175.517 29.9139 175.246 30.1629 175.047 30.4839C174.853 30.7993 174.756 31.1756 174.756 31.6128V37H172.955ZM187.774 37V32.0942L183.557 25.022H185.632L188.645 30.2432H188.778L191.791 25.022H193.866L189.641 32.0942V37H187.774ZM197.997 37.1743C197.117 37.1743 196.356 36.9862 195.714 36.6099C195.078 36.2336 194.588 35.6968 194.245 34.9995C193.902 34.2967 193.73 33.4639 193.73 32.501V32.4844C193.73 31.516 193.902 30.6831 194.245 29.9858C194.594 29.2886 195.086 28.7518 195.722 28.3755C196.364 27.9992 197.123 27.811 197.997 27.811C198.877 27.811 199.635 27.9992 200.271 28.3755C200.908 28.7463 201.397 29.283 201.741 29.9858C202.089 30.6831 202.263 31.516 202.263 32.4844V32.501C202.263 33.4639 202.089 34.2967 201.741 34.9995C201.397 35.6968 200.908 36.2336 200.271 36.6099C199.64 36.9862 198.882 37.1743 197.997 37.1743ZM197.997 35.6636C198.512 35.6636 198.949 35.5391 199.308 35.29C199.668 35.0355 199.942 34.673 200.13 34.2026C200.318 33.7323 200.412 33.165 200.412 32.501V32.4844C200.412 31.8148 200.318 31.2448 200.13 30.7744C199.942 30.304 199.668 29.9443 199.308 29.6953C198.949 29.4408 198.512 29.3135 197.997 29.3135C197.482 29.3135 197.045 29.4408 196.685 29.6953C196.326 29.9443 196.049 30.304 195.855 30.7744C195.667 31.2448 195.573 31.8148 195.573 32.4844V32.501C195.573 33.165 195.667 33.7323 195.855 34.2026C196.049 34.673 196.326 35.0355 196.685 35.29C197.045 35.5391 197.482 35.6636 197.997 35.6636ZM207.34 37.1743C206.665 37.1743 206.095 37.0443 205.63 36.7842C205.171 36.5186 204.825 36.1367 204.593 35.6387C204.366 35.1351 204.252 34.5291 204.252 33.8208V27.9854H206.054V33.3975C206.054 34.139 206.2 34.6951 206.494 35.0659C206.787 35.4367 207.266 35.6221 207.93 35.6221C208.284 35.6221 208.599 35.5695 208.876 35.4644C209.153 35.3537 209.385 35.196 209.573 34.9912C209.761 34.7865 209.9 34.5402 209.988 34.2524C210.082 33.9647 210.129 33.6382 210.129 33.2729V27.9854H211.939V37H210.129V35.6387H209.997C209.853 35.9596 209.656 36.2363 209.407 36.4688C209.158 36.6956 208.859 36.87 208.511 36.9917C208.168 37.1134 207.777 37.1743 207.34 37.1743ZM214.459 37V27.9854H216.26V29.3467H216.401C216.562 28.8652 216.844 28.4917 217.248 28.2261C217.658 27.9604 218.161 27.8276 218.759 27.8276C218.908 27.8276 219.055 27.8359 219.199 27.8525C219.343 27.8691 219.459 27.8885 219.547 27.9106V29.5708C219.387 29.5376 219.226 29.5127 219.066 29.4961C218.911 29.4795 218.748 29.4712 218.576 29.4712C218.117 29.4712 217.713 29.5597 217.364 29.7368C217.021 29.9139 216.75 30.1629 216.551 30.4839C216.357 30.7993 216.26 31.1756 216.26 31.6128V37H214.459ZM225.982 37V25.022H233.461V26.6323H227.842V30.4175H232.988V31.9863H227.842V37H225.982ZM235.624 37V27.9854H237.434V37H235.624ZM236.538 26.375C236.228 26.375 235.962 26.2643 235.741 26.043C235.519 25.8216 235.409 25.556 235.409 25.2461C235.409 24.9362 235.519 24.6733 235.741 24.4575C235.962 24.2362 236.228 24.1255 236.538 24.1255C236.847 24.1255 237.113 24.2362 237.334 24.4575C237.556 24.6733 237.666 24.9362 237.666 25.2461C237.666 25.556 237.556 25.8216 237.334 26.043C237.113 26.2643 236.847 26.375 236.538 26.375ZM239.979 37V27.9854H241.78V29.3467H241.921C242.082 28.8652 242.364 28.4917 242.768 28.2261C243.178 27.9604 243.681 27.8276 244.279 27.8276C244.428 27.8276 244.575 27.8359 244.719 27.8525C244.863 27.8691 244.979 27.8885 245.067 27.9106V29.5708C244.907 29.5376 244.746 29.5127 244.586 29.4961C244.431 29.4795 244.268 29.4712 244.096 29.4712C243.637 29.4712 243.233 29.5597 242.884 29.7368C242.541 29.9139 242.27 30.1629 242.071 30.4839C241.877 30.7993 241.78 31.1756 241.78 31.6128V37H239.979ZM249.829 37.1743C249.104 37.1743 248.473 37.0692 247.936 36.8589C247.399 36.6431 246.973 36.347 246.658 35.9707C246.342 35.5889 246.157 35.1462 246.102 34.6426V34.626H247.911V34.6426C248.028 34.9801 248.249 35.2541 248.575 35.4644C248.902 35.6746 249.334 35.7798 249.87 35.7798C250.241 35.7798 250.565 35.7272 250.841 35.6221C251.124 35.5169 251.345 35.3703 251.506 35.1821C251.666 34.994 251.746 34.7782 251.746 34.5347V34.5181C251.746 34.2358 251.633 33.9979 251.406 33.8042C251.179 33.6105 250.806 33.4528 250.285 33.3311L248.841 32.999C248.277 32.8717 247.809 32.6974 247.438 32.4761C247.067 32.2547 246.793 31.9836 246.616 31.6626C246.439 31.3361 246.351 30.9543 246.351 30.5171V30.5088C246.351 29.9831 246.5 29.5182 246.799 29.1143C247.098 28.7048 247.51 28.3866 248.036 28.1597C248.567 27.9272 249.173 27.811 249.854 27.811C250.54 27.811 251.138 27.9189 251.647 28.1348C252.161 28.3451 252.568 28.6383 252.867 29.0146C253.166 29.3854 253.343 29.8171 253.398 30.3096V30.3179H251.672V30.3013C251.589 29.9858 251.389 29.723 251.074 29.5127C250.764 29.3024 250.355 29.1973 249.845 29.1973C249.519 29.1973 249.228 29.2498 248.974 29.355C248.719 29.4546 248.517 29.5957 248.368 29.7783C248.224 29.9554 248.152 30.1657 248.152 30.4092V30.4258C248.152 30.6139 248.199 30.7799 248.293 30.9238C248.393 31.0622 248.548 31.1867 248.758 31.2974C248.968 31.4025 249.239 31.4966 249.571 31.5796L251.008 31.9033C251.871 32.1081 252.513 32.4041 252.933 32.7915C253.359 33.1789 253.572 33.6991 253.572 34.3521V34.3687C253.572 34.922 253.409 35.4118 253.083 35.8379C252.756 36.2585 252.311 36.5877 251.746 36.8257C251.187 37.0581 250.548 37.1743 249.829 37.1743ZM258.981 37.0581C257.996 37.0581 257.282 36.87 256.84 36.4937C256.402 36.1118 256.184 35.4893 256.184 34.626V29.4048H254.773V27.9854H256.184V25.7109H258.027V27.9854H259.961V29.4048H258.027V34.186C258.027 34.673 258.124 35.0244 258.317 35.2402C258.511 35.4505 258.832 35.5557 259.28 35.5557C259.413 35.5557 259.526 35.5529 259.62 35.5474C259.72 35.5418 259.833 35.5335 259.961 35.5225V36.9668C259.817 36.9889 259.662 37.0083 259.496 37.0249C259.33 37.047 259.158 37.0581 258.981 37.0581ZM267.699 37V35.481H271.318C272.159 35.481 272.795 35.3122 273.227 34.9746C273.659 34.637 273.875 34.1473 273.875 33.5054V33.4888C273.875 33.0571 273.775 32.6974 273.576 32.4097C273.377 32.1219 273.078 31.9061 272.679 31.7622C272.286 31.6128 271.797 31.5381 271.21 31.5381H267.699V30.1187H270.836C271.661 30.1187 272.284 29.9692 272.704 29.6704C273.125 29.366 273.335 28.9233 273.335 28.3423V28.3257C273.335 27.7612 273.144 27.3241 272.762 27.0142C272.38 26.6987 271.844 26.541 271.152 26.541H267.699V25.022H271.592C272.339 25.022 272.981 25.1437 273.518 25.3872C274.06 25.6307 274.475 25.9766 274.763 26.4248C275.051 26.8675 275.194 27.3932 275.194 28.002V28.0186C275.194 28.4391 275.1 28.832 274.912 29.1973C274.724 29.557 274.472 29.8613 274.157 30.1104C273.841 30.3594 273.484 30.5171 273.086 30.5835V30.7246C273.628 30.7799 274.101 30.9377 274.505 31.1978C274.909 31.4578 275.225 31.7954 275.452 32.2104C275.679 32.62 275.792 33.0848 275.792 33.605V33.6216C275.792 34.3188 275.626 34.922 275.294 35.4312C274.968 35.9347 274.5 36.3221 273.891 36.5933C273.282 36.8644 272.552 37 271.7 37H267.699ZM266.769 37V25.022H268.628V37H266.769ZM277.922 37V27.9854H279.732V37H277.922ZM278.835 26.375C278.525 26.375 278.26 26.2643 278.038 26.043C277.817 25.8216 277.706 25.556 277.706 25.2461C277.706 24.9362 277.817 24.6733 278.038 24.4575C278.26 24.2362 278.525 24.1255 278.835 24.1255C279.145 24.1255 279.411 24.2362 279.632 24.4575C279.853 24.6733 279.964 24.9362 279.964 25.2461C279.964 25.556 279.853 25.8216 279.632 26.043C279.411 26.2643 279.145 26.375 278.835 26.375ZM285.564 37.1494C284.811 37.1494 284.153 36.9613 283.588 36.585C283.029 36.2031 282.595 35.6636 282.285 34.9663C281.981 34.269 281.828 33.4473 281.828 32.501V32.4844C281.828 31.5326 281.981 30.708 282.285 30.0107C282.589 29.3135 283.021 28.7767 283.58 28.4004C284.139 28.0186 284.8 27.8276 285.564 27.8276C285.979 27.8276 286.366 27.894 286.726 28.0269C287.086 28.1541 287.404 28.3368 287.68 28.5747C287.957 28.8071 288.176 29.0866 288.336 29.4131H288.469V24.4492H290.279V37H288.469V35.5806H288.336C288.159 35.9071 287.935 36.1893 287.664 36.4272C287.393 36.6597 287.08 36.8395 286.726 36.9668C286.372 37.0885 285.984 37.1494 285.564 37.1494ZM286.078 35.6055C286.576 35.6055 287.008 35.481 287.373 35.2319C287.739 34.9829 288.018 34.626 288.212 34.1611C288.405 33.6908 288.502 33.1374 288.502 32.501V32.4844C288.502 31.8424 288.403 31.2891 288.203 30.8242C288.01 30.3594 287.73 30.0024 287.365 29.7534C287.005 29.4989 286.576 29.3716 286.078 29.3716C285.58 29.3716 285.149 29.4989 284.784 29.7534C284.424 30.0024 284.147 30.3594 283.953 30.8242C283.765 31.2835 283.671 31.8369 283.671 32.4844V32.501C283.671 33.1429 283.765 33.6963 283.953 34.1611C284.147 34.626 284.424 34.9829 284.784 35.2319C285.149 35.481 285.58 35.6055 286.078 35.6055Z"
        fill="#1C1C1C" />
    <path
        d="M21.5371 73.249C20.6631 73.249 19.9111 73.0854 19.2812 72.7583C18.6562 72.4312 18.1753 71.9771 17.8384 71.396C17.5015 70.8101 17.333 70.1338 17.333 69.3672V62.4312H18.6514V69.2793C18.6514 69.8213 18.7637 70.2998 18.9883 70.7148C19.2178 71.125 19.5474 71.4473 19.9771 71.6816C20.4067 71.916 20.9268 72.0332 21.5371 72.0332C22.1475 72.0332 22.665 71.916 23.0898 71.6816C23.5195 71.4473 23.8467 71.125 24.0713 70.7148C24.2959 70.2998 24.4082 69.8213 24.4082 69.2793V62.4312H25.7266V69.3672C25.7266 70.1338 25.5581 70.8101 25.2212 71.396C24.8892 71.9771 24.4106 72.4312 23.7856 72.7583C23.1606 73.0854 22.4111 73.249 21.5371 73.249ZM30.9201 73.1392C30.3341 73.1392 29.8165 73.0513 29.3673 72.8755C28.9181 72.6948 28.5568 72.4434 28.2833 72.1211C28.0148 71.7988 27.8561 71.4204 27.8073 70.9858H29.111C29.2184 71.313 29.4284 71.5767 29.7409 71.7769C30.0534 71.9771 30.4611 72.0771 30.964 72.0771C31.3204 72.0771 31.6329 72.0259 31.9015 71.9233C32.1749 71.8159 32.3898 71.6719 32.546 71.4912C32.7023 71.3057 32.7804 71.0933 32.7804 70.854V70.8394C32.7804 70.5708 32.673 70.3438 32.4581 70.1582C32.2433 69.9678 31.8917 69.814 31.4035 69.6968L30.1803 69.4038C29.6871 69.2866 29.2819 69.1353 28.9645 68.9497C28.6471 68.7593 28.4127 68.5273 28.2614 68.2539C28.11 67.9756 28.0343 67.6484 28.0343 67.2725V67.2651C28.0343 66.8257 28.1613 66.4326 28.4152 66.0859C28.674 65.7393 29.0255 65.4658 29.4699 65.2656C29.9142 65.0654 30.4147 64.9653 30.9713 64.9653C31.5231 64.9653 32.0114 65.0532 32.4362 65.229C32.8659 65.3999 33.2101 65.644 33.4689 65.9614C33.7326 66.2788 33.8937 66.6523 33.9523 67.082H32.6998C32.6168 66.7695 32.4264 66.5156 32.1286 66.3203C31.8307 66.125 31.4425 66.0273 30.964 66.0273C30.6515 66.0273 30.3732 66.0786 30.129 66.1812C29.8849 66.2788 29.692 66.4155 29.5504 66.5913C29.4088 66.7671 29.338 66.9722 29.338 67.2065V67.2212C29.338 67.397 29.3844 67.5532 29.4772 67.6899C29.57 67.8267 29.714 67.9463 29.9093 68.0488C30.1046 68.1514 30.3561 68.2417 30.6637 68.3198L31.8795 68.6128C32.6217 68.7935 33.1735 69.0522 33.5348 69.3892C33.901 69.7261 34.0841 70.1777 34.0841 70.7441V70.7588C34.0841 71.2275 33.945 71.6426 33.6666 72.0039C33.3883 72.3604 33.0099 72.6387 32.5314 72.8389C32.0577 73.0391 31.5206 73.1392 30.9201 73.1392ZM39.2483 73.1392C38.4964 73.1392 37.8494 72.9731 37.3074 72.6411C36.7703 72.3091 36.3552 71.8403 36.0623 71.2349C35.7742 70.6245 35.6301 69.9067 35.6301 69.0815V69.0742C35.6301 68.2588 35.7742 67.5435 36.0623 66.9282C36.3552 66.313 36.7678 65.832 37.3001 65.4854C37.8323 65.1387 38.4549 64.9653 39.1677 64.9653C39.8855 64.9653 40.5008 65.1313 41.0134 65.4634C41.531 65.7954 41.9265 66.2593 42.2 66.855C42.4783 67.4458 42.6175 68.1343 42.6175 68.9204V69.4185H36.2893V68.4004H41.9656L41.3357 69.3306V68.8252C41.3357 68.2051 41.2429 67.6948 41.0574 67.2944C40.8718 66.894 40.6155 66.5962 40.2884 66.4009C39.9612 66.2007 39.5852 66.1006 39.1604 66.1006C38.7356 66.1006 38.3548 66.2056 38.0178 66.4155C37.6858 66.6206 37.4221 66.9258 37.2268 67.3311C37.0315 67.7363 36.9339 68.2344 36.9339 68.8252V69.3306C36.9339 69.8921 37.0291 70.373 37.2195 70.7734C37.4099 71.1689 37.6809 71.4741 38.0325 71.689C38.3841 71.8989 38.7991 72.0039 39.2776 72.0039C39.6341 72.0039 39.9441 71.9551 40.2078 71.8574C40.4715 71.7598 40.6887 71.6353 40.8596 71.4839C41.0305 71.3325 41.1502 71.1787 41.2185 71.0225L41.2478 70.9565H42.5222L42.5076 71.0151C42.4392 71.2837 42.3172 71.5449 42.1414 71.7988C41.9705 72.0479 41.7483 72.2749 41.4749 72.48C41.2014 72.6802 40.8767 72.8413 40.5008 72.9634C40.1297 73.0806 39.7122 73.1392 39.2483 73.1392ZM51.9717 73.1392C51.2344 73.1392 50.5948 72.9707 50.0528 72.6338C49.5108 72.2969 49.0909 71.8208 48.793 71.2056C48.4952 70.5903 48.3462 69.8652 48.3462 69.0303V69.0156C48.3462 68.1953 48.4927 67.4824 48.7857 66.877C49.0835 66.2715 49.5035 65.8027 50.0455 65.4707C50.5874 65.1338 51.2271 64.9653 51.9644 64.9653C52.604 64.9653 53.1558 65.0776 53.6197 65.3022C54.0835 65.5269 54.4546 65.8296 54.733 66.2104C55.0113 66.5864 55.1895 67.0088 55.2676 67.4775L55.2749 67.5215H54.0079L54.0005 67.4995C53.9029 67.1089 53.6807 66.7769 53.334 66.5034C52.9873 66.23 52.5308 66.0933 51.9644 66.0933C51.4908 66.0933 51.0806 66.2129 50.7339 66.4521C50.3873 66.6914 50.1187 67.0308 49.9283 67.4702C49.7427 67.9048 49.6499 68.4199 49.6499 69.0156V69.0303C49.6499 69.6357 49.7452 70.1631 49.9356 70.6123C50.126 71.0566 50.3946 71.4009 50.7413 71.645C51.0879 71.8892 51.4956 72.0112 51.9644 72.0112C52.4966 72.0112 52.9312 71.8965 53.2681 71.667C53.605 71.4375 53.8467 71.103 53.9932 70.6636L54.0079 70.6196L55.2676 70.6123L55.253 70.6929C55.1456 71.1665 54.9551 71.5889 54.6817 71.96C54.4082 72.3262 54.0469 72.6143 53.5977 72.8242C53.1485 73.0342 52.6065 73.1392 51.9717 73.1392ZM60.3439 73.1392C59.5969 73.1392 58.9499 72.9756 58.403 72.6484C57.861 72.3164 57.4411 71.8452 57.1432 71.2349C56.8503 70.6245 56.7038 69.8994 56.7038 69.0596V69.0449C56.7038 68.2002 56.8503 67.4727 57.1432 66.8623C57.4411 66.252 57.861 65.7832 58.403 65.4561C58.9499 65.1289 59.5969 64.9653 60.3439 64.9653C61.0959 64.9653 61.7429 65.1289 62.2848 65.4561C62.8268 65.7832 63.2443 66.252 63.5373 66.8623C63.8351 67.4727 63.9841 68.2002 63.9841 69.0449V69.0596C63.9841 69.8994 63.8351 70.6245 63.5373 71.2349C63.2443 71.8452 62.8268 72.3164 62.2848 72.6484C61.7429 72.9756 61.0959 73.1392 60.3439 73.1392ZM60.3439 72.0112C60.842 72.0112 61.2643 71.894 61.611 71.6597C61.9577 71.4253 62.2214 71.0884 62.402 70.6489C62.5876 70.2095 62.6804 69.6797 62.6804 69.0596V69.0449C62.6804 68.4199 62.5876 67.8877 62.402 67.4482C62.2214 67.0088 61.9577 66.6743 61.611 66.4448C61.2643 66.2104 60.842 66.0933 60.3439 66.0933C59.8459 66.0933 59.4235 66.2104 59.0768 66.4448C58.7302 66.6743 58.464 67.0088 58.2785 67.4482C58.0978 67.8877 58.0075 68.4199 58.0075 69.0449V69.0596C58.0075 69.6797 58.0978 70.2095 58.2785 70.6489C58.464 71.0884 58.7302 71.4253 59.0768 71.6597C59.4235 71.894 59.8459 72.0112 60.3439 72.0112ZM68.8406 73.1392C68.1766 73.1392 67.5955 72.9707 67.0975 72.6338C66.5994 72.2969 66.2137 71.8232 65.9403 71.2129C65.6668 70.5977 65.5301 69.8799 65.5301 69.0596V69.0449C65.5301 68.2197 65.6668 67.502 65.9403 66.8916C66.2137 66.2812 66.597 65.8076 67.0902 65.4707C67.5882 65.1338 68.1717 64.9653 68.8406 64.9653C69.202 64.9653 69.5413 65.0239 69.8587 65.1411C70.181 65.2534 70.4666 65.4121 70.7156 65.6172C70.9647 65.8223 71.16 66.0664 71.3016 66.3496H71.4188V61.9697H72.6932V73H71.4188V71.7402H71.3016C71.1404 72.0332 70.9378 72.2847 70.6937 72.4946C70.4495 72.6997 70.1712 72.8584 69.8587 72.9707C69.5462 73.083 69.2069 73.1392 68.8406 73.1392ZM69.1336 72.0112C69.6121 72.0112 70.0247 71.8916 70.3714 71.6523C70.7181 71.4131 70.9842 71.0737 71.1697 70.6343C71.3553 70.1899 71.4481 69.665 71.4481 69.0596V69.0449C71.4481 68.4346 71.3553 67.9097 71.1697 67.4702C70.9842 67.0308 70.7181 66.6914 70.3714 66.4521C70.0247 66.2129 69.6121 66.0933 69.1336 66.0933C68.6551 66.0933 68.2425 66.2129 67.8958 66.4521C67.554 66.6865 67.2903 67.0234 67.1048 67.4629C66.9241 67.9023 66.8338 68.4297 66.8338 69.0449V69.0596C66.8338 69.6699 66.9241 70.1973 67.1048 70.6416C67.2903 71.0811 67.554 71.4204 67.8958 71.6597C68.2425 71.894 68.6551 72.0112 69.1336 72.0112ZM78.3261 73.1392C77.5742 73.1392 76.9272 72.9731 76.3852 72.6411C75.8481 72.3091 75.4331 71.8403 75.1401 71.2349C74.852 70.6245 74.708 69.9067 74.708 69.0815V69.0742C74.708 68.2588 74.852 67.5435 75.1401 66.9282C75.4331 66.313 75.8457 65.832 76.3779 65.4854C76.9101 65.1387 77.5327 64.9653 78.2456 64.9653C78.9633 64.9653 79.5786 65.1313 80.0913 65.4634C80.6088 65.7954 81.0043 66.2593 81.2778 66.855C81.5561 67.4458 81.6953 68.1343 81.6953 68.9204V69.4185H75.3671V68.4004H81.0434L80.4135 69.3306V68.8252C80.4135 68.2051 80.3208 67.6948 80.1352 67.2944C79.9497 66.894 79.6933 66.5962 79.3662 66.4009C79.039 66.2007 78.663 66.1006 78.2382 66.1006C77.8134 66.1006 77.4326 66.2056 77.0957 66.4155C76.7636 66.6206 76.5 66.9258 76.3046 67.3311C76.1093 67.7363 76.0117 68.2344 76.0117 68.8252V69.3306C76.0117 69.8921 76.1069 70.373 76.2973 70.7734C76.4877 71.1689 76.7587 71.4741 77.1103 71.689C77.4619 71.8989 77.8769 72.0039 78.3554 72.0039C78.7119 72.0039 79.0219 71.9551 79.2856 71.8574C79.5493 71.7598 79.7666 71.6353 79.9375 71.4839C80.1084 71.3325 80.228 71.1787 80.2963 71.0225L80.3256 70.9565H81.6001L81.5854 71.0151C81.517 71.2837 81.395 71.5449 81.2192 71.7988C81.0483 72.0479 80.8261 72.2749 80.5527 72.48C80.2793 72.6802 79.9545 72.8413 79.5786 72.9634C79.2075 73.0806 78.79 73.1392 78.3261 73.1392ZM140.609 73.1392C139.862 73.1392 139.215 72.9756 138.668 72.6484C138.126 72.3164 137.706 71.8452 137.408 71.2349C137.115 70.6245 136.969 69.8994 136.969 69.0596V69.0449C136.969 68.2002 137.115 67.4727 137.408 66.8623C137.706 66.252 138.126 65.7832 138.668 65.4561C139.215 65.1289 139.862 64.9653 140.609 64.9653C141.361 64.9653 142.008 65.1289 142.55 65.4561C143.092 65.7832 143.509 66.252 143.802 66.8623C144.1 67.4727 144.249 68.2002 144.249 69.0449V69.0596C144.249 69.8994 144.1 70.6245 143.802 71.2349C143.509 71.8452 143.092 72.3164 142.55 72.6484C142.008 72.9756 141.361 73.1392 140.609 73.1392ZM140.609 72.0112C141.107 72.0112 141.529 71.894 141.876 71.6597C142.223 71.4253 142.486 71.0884 142.667 70.6489C142.853 70.2095 142.945 69.6797 142.945 69.0596V69.0449C142.945 68.4199 142.853 67.8877 142.667 67.4482C142.486 67.0088 142.223 66.6743 141.876 66.4448C141.529 66.2104 141.107 66.0933 140.609 66.0933C140.111 66.0933 139.689 66.2104 139.342 66.4448C138.995 66.6743 138.729 67.0088 138.543 67.4482C138.363 67.8877 138.272 68.4199 138.272 69.0449V69.0596C138.272 69.6797 138.363 70.2095 138.543 70.6489C138.729 71.0884 138.995 71.4253 139.342 71.6597C139.689 71.894 140.111 72.0112 140.609 72.0112ZM146.191 73V65.1045H147.465V66.291H147.582C147.782 65.8711 148.07 65.5464 148.446 65.3169C148.822 65.0825 149.301 64.9653 149.882 64.9653C150.771 64.9653 151.452 65.2192 151.925 65.7271C152.404 66.23 152.643 66.9502 152.643 67.8877V73H151.369V68.1953C151.369 67.4824 151.217 66.9551 150.915 66.6133C150.617 66.2666 150.153 66.0933 149.523 66.0933C149.103 66.0933 148.739 66.1836 148.432 66.3643C148.124 66.5449 147.885 66.8013 147.714 67.1333C147.548 67.4653 147.465 67.8633 147.465 68.3271V73H146.191ZM161.265 73.1392C160.767 73.1392 160.318 73.0439 159.917 72.8535C159.522 72.6631 159.207 72.3921 158.973 72.0405C158.743 71.689 158.628 71.2739 158.628 70.7954V70.7808C158.628 70.312 158.741 69.9116 158.965 69.5796C159.19 69.2427 159.517 68.979 159.947 68.7886C160.376 68.5981 160.896 68.4858 161.507 68.4517L164.407 68.2759V69.2939L161.661 69.4697C161.06 69.5039 160.621 69.6284 160.342 69.8433C160.069 70.0581 159.932 70.3608 159.932 70.7515V70.7661C159.932 71.1665 160.083 71.479 160.386 71.7036C160.689 71.9233 161.07 72.0332 161.529 72.0332C161.963 72.0332 162.349 71.9478 162.686 71.7769C163.023 71.6011 163.287 71.3643 163.477 71.0664C163.672 70.7686 163.77 70.4316 163.77 70.0557V67.5947C163.77 67.1064 163.621 66.7354 163.323 66.4814C163.03 66.2227 162.588 66.0933 161.998 66.0933C161.524 66.0933 161.136 66.1787 160.833 66.3496C160.53 66.5156 160.328 66.7524 160.225 67.0601L160.218 67.082H158.943L158.951 67.0381C159.019 66.623 159.19 66.2617 159.463 65.9541C159.742 65.6416 160.101 65.3999 160.54 65.229C160.979 65.0532 161.48 64.9653 162.041 64.9653C162.686 64.9653 163.23 65.0703 163.675 65.2803C164.124 65.4902 164.463 65.793 164.693 66.1885C164.927 66.5791 165.044 67.0479 165.044 67.5947V73H163.77V71.8354H163.653C163.487 72.1138 163.284 72.3506 163.045 72.5459C162.811 72.7412 162.544 72.8901 162.247 72.9927C161.949 73.0903 161.622 73.1392 161.265 73.1392ZM167.337 73V65.1045H168.612V66.291H168.729C168.929 65.8711 169.217 65.5464 169.593 65.3169C169.969 65.0825 170.448 64.9653 171.029 64.9653C171.918 64.9653 172.599 65.2192 173.072 65.7271C173.551 66.23 173.79 66.9502 173.79 67.8877V73H172.516V68.1953C172.516 67.4824 172.364 66.9551 172.062 66.6133C171.764 66.2666 171.3 66.0933 170.67 66.0933C170.25 66.0933 169.886 66.1836 169.579 66.3643C169.271 66.5449 169.032 66.8013 168.861 67.1333C168.695 67.4653 168.612 67.8633 168.612 68.3271V73H167.337ZM176.442 75.7686C176.359 75.7686 176.266 75.7637 176.164 75.7539C176.061 75.749 175.966 75.7393 175.878 75.7246V74.6772C175.956 74.6919 176.042 74.7017 176.134 74.7065C176.227 74.7114 176.318 74.7139 176.405 74.7139C176.767 74.7139 177.062 74.6211 177.292 74.4355C177.526 74.25 177.714 73.9302 177.856 73.4761L178.002 73.0073L175.08 65.1045H176.442L178.874 72.3994L178.368 71.6011H178.969L178.464 72.3994L180.888 65.1045H182.228L179.145 73.4834C178.93 74.0742 178.703 74.5356 178.464 74.8677C178.224 75.1997 177.944 75.4316 177.621 75.5635C177.304 75.7002 176.911 75.7686 176.442 75.7686ZM188.133 73V61.9697H189.407V73H188.133ZM195.062 73.1392C194.315 73.1392 193.668 72.9756 193.121 72.6484C192.579 72.3164 192.159 71.8452 191.861 71.2349C191.568 70.6245 191.422 69.8994 191.422 69.0596V69.0449C191.422 68.2002 191.568 67.4727 191.861 66.8623C192.159 66.252 192.579 65.7832 193.121 65.4561C193.668 65.1289 194.315 64.9653 195.062 64.9653C195.814 64.9653 196.461 65.1289 197.003 65.4561C197.545 65.7832 197.963 66.252 198.255 66.8623C198.553 67.4727 198.702 68.2002 198.702 69.0449V69.0596C198.702 69.8994 198.553 70.6245 198.255 71.2349C197.963 71.8452 197.545 72.3164 197.003 72.6484C196.461 72.9756 195.814 73.1392 195.062 73.1392ZM195.062 72.0112C195.56 72.0112 195.983 71.894 196.329 71.6597C196.676 71.4253 196.94 71.0884 197.12 70.6489C197.306 70.2095 197.399 69.6797 197.399 69.0596V69.0449C197.399 68.4199 197.306 67.8877 197.12 67.4482C196.94 67.0088 196.676 66.6743 196.329 66.4448C195.983 66.2104 195.56 66.0933 195.062 66.0933C194.564 66.0933 194.142 66.2104 193.795 66.4448C193.448 66.6743 193.182 67.0088 192.997 67.4482C192.816 67.8877 192.726 68.4199 192.726 69.0449V69.0596C192.726 69.6797 192.816 70.2095 192.997 70.6489C193.182 71.0884 193.448 71.4253 193.795 71.6597C194.142 71.894 194.564 72.0112 195.062 72.0112ZM203.449 73.0586C202.638 73.0586 202.05 72.895 201.684 72.5679C201.323 72.2407 201.142 71.7012 201.142 70.9492V66.1592H199.897V65.1045H201.142V63.061H202.46V65.1045H204.189V66.1592H202.46V70.627C202.46 71.0908 202.548 71.4253 202.724 71.6304C202.9 71.8306 203.193 71.9307 203.603 71.9307C203.715 71.9307 203.81 71.9282 203.888 71.9233C203.971 71.9185 204.072 71.9111 204.189 71.9014V72.9854C204.067 73.0049 203.945 73.022 203.823 73.0366C203.7 73.0513 203.576 73.0586 203.449 73.0586ZM213.484 73.1392C212.737 73.1392 212.09 72.9756 211.543 72.6484C211.001 72.3164 210.582 71.8452 210.284 71.2349C209.991 70.6245 209.844 69.8994 209.844 69.0596V69.0449C209.844 68.2002 209.991 67.4727 210.284 66.8623C210.582 66.252 211.001 65.7832 211.543 65.4561C212.09 65.1289 212.737 64.9653 213.484 64.9653C214.236 64.9653 214.883 65.1289 215.425 65.4561C215.967 65.7832 216.385 66.252 216.678 66.8623C216.976 67.4727 217.125 68.2002 217.125 69.0449V69.0596C217.125 69.8994 216.976 70.6245 216.678 71.2349C216.385 71.8452 215.967 72.3164 215.425 72.6484C214.883 72.9756 214.236 73.1392 213.484 73.1392ZM213.484 72.0112C213.982 72.0112 214.405 71.894 214.751 71.6597C215.098 71.4253 215.362 71.0884 215.543 70.6489C215.728 70.2095 215.821 69.6797 215.821 69.0596V69.0449C215.821 68.4199 215.728 67.8877 215.543 67.4482C215.362 67.0088 215.098 66.6743 214.751 66.4448C214.405 66.2104 213.982 66.0933 213.484 66.0933C212.986 66.0933 212.564 66.2104 212.217 66.4448C211.871 66.6743 211.605 67.0088 211.419 67.4482C211.238 67.8877 211.148 68.4199 211.148 69.0449V69.0596C211.148 69.6797 211.238 70.2095 211.419 70.6489C211.605 71.0884 211.871 71.4253 212.217 71.6597C212.564 71.894 212.986 72.0112 213.484 72.0112ZM221.007 73L218.085 65.1045H219.432L221.593 71.6084H221.71L223.871 65.1045H225.218L222.296 73H221.007ZM229.797 73.1392C229.045 73.1392 228.398 72.9731 227.856 72.6411C227.319 72.3091 226.904 71.8403 226.611 71.2349C226.323 70.6245 226.179 69.9067 226.179 69.0815V69.0742C226.179 68.2588 226.323 67.5435 226.611 66.9282C226.904 66.313 227.316 65.832 227.848 65.4854C228.381 65.1387 229.003 64.9653 229.716 64.9653C230.434 64.9653 231.049 65.1313 231.562 65.4634C232.079 65.7954 232.475 66.2593 232.748 66.855C233.027 67.4458 233.166 68.1343 233.166 68.9204V69.4185H226.838V68.4004H232.514L231.884 69.3306V68.8252C231.884 68.2051 231.791 67.6948 231.606 67.2944C231.42 66.894 231.164 66.5962 230.837 66.4009C230.51 66.2007 230.134 66.1006 229.709 66.1006C229.284 66.1006 228.903 66.2056 228.566 66.4155C228.234 66.6206 227.971 66.9258 227.775 67.3311C227.58 67.7363 227.482 68.2344 227.482 68.8252V69.3306C227.482 69.8921 227.577 70.373 227.768 70.7734C227.958 71.1689 228.229 71.4741 228.581 71.689C228.932 71.8989 229.347 72.0039 229.826 72.0039C230.182 72.0039 230.492 71.9551 230.756 71.8574C231.02 71.7598 231.237 71.6353 231.408 71.4839C231.579 71.3325 231.699 71.1787 231.767 71.0225L231.796 70.9565H233.071L233.056 71.0151C232.988 71.2837 232.866 71.5449 232.69 71.7988C232.519 72.0479 232.297 72.2749 232.023 72.48C231.75 72.6802 231.425 72.8413 231.049 72.9634C230.678 73.0806 230.261 73.1392 229.797 73.1392ZM235.107 73V65.1045H236.382V66.2764H236.499C236.65 65.8613 236.907 65.5391 237.268 65.3096C237.629 65.0801 238.076 64.9653 238.608 64.9653C238.73 64.9653 238.85 64.9727 238.967 64.9873C239.089 64.9971 239.182 65.0068 239.246 65.0166V66.2544C239.114 66.23 238.984 66.2129 238.857 66.2031C238.735 66.1885 238.603 66.1812 238.462 66.1812C238.057 66.1812 237.698 66.2617 237.385 66.4229C237.073 66.584 236.826 66.8086 236.645 67.0967C236.47 67.3848 236.382 67.7217 236.382 68.1074V73H235.107ZM244.579 72.7803V71.667C245.248 71.5156 245.79 71.2178 246.205 70.7734C246.625 70.3291 246.835 69.8237 246.835 69.2573C246.835 68.979 246.801 68.7202 246.732 68.481C246.669 68.2417 246.586 68.0146 246.483 67.7998C246.385 67.5801 246.288 67.3604 246.19 67.1406C246.092 66.9209 246.009 66.6914 245.941 66.4521C245.878 66.2129 245.846 65.9541 245.846 65.6758C245.846 65.0361 245.997 64.4868 246.3 64.0278C246.608 63.564 247.045 63.2075 247.611 62.9585C248.177 62.7095 248.851 62.585 249.633 62.585C250.057 62.585 250.465 62.6191 250.856 62.6875C251.251 62.7559 251.576 62.8511 251.83 62.9731V64.145C251.634 64.0327 251.332 63.9399 250.922 63.8667C250.511 63.7886 250.104 63.7495 249.698 63.7495C248.922 63.7495 248.309 63.918 247.86 64.2549C247.416 64.5918 247.194 65.0557 247.194 65.6465C247.194 65.9248 247.225 66.1836 247.289 66.4229C247.352 66.6572 247.43 66.8843 247.523 67.104C247.616 67.3188 247.709 67.5361 247.801 67.7559C247.894 67.9707 247.972 68.1978 248.036 68.437C248.099 68.6714 248.131 68.9277 248.131 69.2061C248.131 69.7139 248.002 70.168 247.743 70.5684C247.484 70.9639 247.103 71.291 246.6 71.5498V71.6523H252.357V72.7803H244.579ZM244.579 68.188V67.1919H251.083V68.188H244.579ZM256.957 73V63.896H256.84L254.152 65.8442V64.4526L256.965 62.4312H258.276V73H256.957ZM264.766 73.249C264.111 73.249 263.528 73.1196 263.015 72.8608C262.502 72.6021 262.09 72.2505 261.777 71.8062C261.47 71.3569 261.289 70.8516 261.235 70.29L261.228 70.2095H262.495L262.502 70.2681C262.546 70.605 262.668 70.9126 262.869 71.1909C263.074 71.4644 263.34 71.6816 263.667 71.8428C263.999 72.0039 264.37 72.0845 264.78 72.0845C265.249 72.0845 265.662 71.9819 266.018 71.7769C266.374 71.5669 266.653 71.2788 266.853 70.9126C267.053 70.5464 267.153 70.1265 267.153 69.6528V69.6382C267.153 69.1694 267.051 68.7544 266.846 68.3931C266.645 68.0269 266.37 67.7412 266.018 67.5361C265.666 67.3311 265.261 67.2285 264.802 67.2285C264.451 67.2285 264.126 67.2822 263.828 67.3896C263.535 67.4971 263.274 67.6582 263.044 67.873C262.952 67.9609 262.864 68.0562 262.781 68.1587C262.703 68.2612 262.629 68.376 262.561 68.5029H261.418L261.975 62.4312H267.856V63.6104H263.015L262.656 67.1846H262.773C262.93 66.9453 263.123 66.7451 263.352 66.584C263.582 66.4229 263.838 66.3008 264.121 66.2178C264.409 66.1299 264.712 66.0859 265.029 66.0859C265.693 66.0859 266.282 66.2397 266.794 66.5474C267.307 66.8501 267.71 67.2676 268.003 67.7998C268.296 68.3271 268.442 68.9326 268.442 69.6162V69.6309C268.442 70.3389 268.284 70.9663 267.966 71.5132C267.654 72.0552 267.222 72.48 266.67 72.7876C266.118 73.0952 265.483 73.249 264.766 73.249ZM274.068 73.249C273.287 73.249 272.618 73.0244 272.061 72.5752C271.509 72.126 271.085 71.4888 270.787 70.6636C270.489 69.8335 270.34 68.8521 270.34 67.7192V67.7046C270.34 66.5718 270.489 65.5928 270.787 64.7676C271.085 63.9424 271.509 63.3052 272.061 62.856C272.618 62.4067 273.287 62.1821 274.068 62.1821C274.849 62.1821 275.518 62.4067 276.075 62.856C276.631 63.3052 277.059 63.9424 277.357 64.7676C277.659 65.5928 277.811 66.5718 277.811 67.7046V67.7192C277.811 68.8521 277.659 69.8335 277.357 70.6636C277.059 71.4888 276.631 72.126 276.075 72.5752C275.518 73.0244 274.849 73.249 274.068 73.249ZM274.068 72.0991C274.576 72.0991 275.008 71.9209 275.364 71.5645C275.726 71.208 276.002 70.7026 276.192 70.0483C276.387 69.394 276.485 68.6177 276.485 67.7192V67.7046C276.485 66.8062 276.387 66.0322 276.192 65.3828C276.002 64.7285 275.726 64.2256 275.364 63.874C275.008 63.5176 274.576 63.3394 274.068 63.3394C273.565 63.3394 273.133 63.5176 272.772 63.874C272.415 64.2256 272.142 64.7285 271.951 65.3828C271.761 66.0322 271.666 66.8062 271.666 67.7046V67.7192C271.666 68.6177 271.761 69.394 271.951 70.0483C272.142 70.7026 272.415 71.208 272.772 71.5645C273.133 71.9209 273.565 72.0991 274.068 72.0991Z"
        fill="#1C1C1C" fill-opacity="0.8" />
    <path
        d="M88.8816 73V71.5352H92.0237C92.7219 71.5352 93.2517 71.3936 93.613 71.1104C93.9743 70.8223 94.155 70.4097 94.155 69.8726V69.8579C94.155 69.5015 94.072 69.2012 93.906 68.957C93.74 68.7129 93.4909 68.5298 93.1589 68.4077C92.8318 68.2856 92.4265 68.2246 91.9431 68.2246H88.8816V66.8843H91.6501C92.3191 66.8843 92.8269 66.7573 93.1736 66.5034C93.5251 66.2495 93.7009 65.8833 93.7009 65.4048V65.3901C93.7009 64.9214 93.5422 64.5552 93.2248 64.2915C92.9074 64.0278 92.4631 63.896 91.8918 63.896H88.8816V62.4312H92.3459C93.0198 62.4312 93.5959 62.5386 94.0744 62.7534C94.553 62.9634 94.9216 63.2661 95.1804 63.6616C95.4392 64.0522 95.5686 64.5186 95.5686 65.0605V65.0752C95.5686 65.4463 95.4831 65.793 95.3122 66.1152C95.1462 66.4375 94.9216 66.7061 94.6384 66.9209C94.3601 67.1357 94.0427 67.2725 93.6863 67.3311V67.4629C94.1599 67.5068 94.5749 67.6436 94.9314 67.873C95.2927 68.0977 95.5735 68.3931 95.7737 68.7593C95.9787 69.1255 96.0813 69.5356 96.0813 69.9897V70.0044C96.0813 70.6196 95.9348 71.1519 95.6418 71.6011C95.3537 72.0503 94.9387 72.397 94.3967 72.6411C93.8547 72.8804 93.2077 73 92.4558 73H88.8816ZM87.9367 73V62.4312H89.8264V73H87.9367ZM98.1107 73V62.4312H100V73H98.1107ZM102.572 73V62.4312H106.534C107.584 62.4312 108.478 62.6362 109.215 63.0464C109.957 63.4565 110.523 64.0522 110.914 64.8335C111.31 65.6147 111.507 66.5571 111.507 67.6606V67.6753C111.507 68.8032 111.312 69.7651 110.921 70.561C110.531 71.3521 109.964 71.9575 109.222 72.3774C108.485 72.7925 107.589 73 106.534 73H102.572ZM104.461 71.4106H106.285C106.983 71.4106 107.579 71.2666 108.072 70.9785C108.565 70.6904 108.939 70.2705 109.193 69.7188C109.452 69.167 109.581 68.4956 109.581 67.7046V67.6899C109.581 66.9185 109.449 66.2593 109.186 65.7124C108.927 65.1606 108.551 64.7407 108.058 64.4526C107.564 64.1646 106.974 64.0205 106.285 64.0205H104.461V71.4106ZM117.265 73.2124C116.493 73.2124 115.817 73.083 115.236 72.8242C114.66 72.5654 114.203 72.2065 113.866 71.7476C113.534 71.2837 113.344 70.749 113.295 70.1436L113.288 70.0557H115.089L115.097 70.1362C115.131 70.4341 115.241 70.7002 115.426 70.9346C115.612 71.1641 115.861 71.3447 116.173 71.4766C116.486 71.6035 116.85 71.667 117.265 71.667C117.67 71.667 118.024 71.5962 118.327 71.4546C118.634 71.313 118.874 71.1177 119.045 70.8687C119.215 70.6196 119.301 70.3315 119.301 70.0044V69.9897C119.301 69.4331 119.108 69.0059 118.722 68.708C118.337 68.4102 117.804 68.2612 117.126 68.2612H115.873V66.855H117.089C117.475 66.855 117.814 66.7866 118.107 66.6499C118.4 66.5132 118.627 66.3276 118.788 66.0933C118.949 65.854 119.03 65.5806 119.03 65.2729V65.2583C119.03 64.9312 118.959 64.6528 118.818 64.4233C118.681 64.1938 118.478 64.0181 118.21 63.896C117.946 63.7739 117.626 63.7129 117.25 63.7129C116.879 63.7129 116.549 63.7764 116.261 63.9033C115.978 64.0303 115.751 64.2109 115.58 64.4453C115.409 64.6748 115.307 64.9458 115.273 65.2583L115.265 65.3315H113.515L113.522 65.2437C113.576 64.6333 113.761 64.1035 114.079 63.6543C114.401 63.2002 114.831 62.8486 115.368 62.5996C115.91 62.3457 116.537 62.2188 117.25 62.2188C117.978 62.2188 118.61 62.3384 119.147 62.5776C119.684 62.812 120.099 63.1367 120.392 63.5518C120.69 63.9668 120.839 64.4526 120.839 65.0093V65.0239C120.839 65.4585 120.741 65.8442 120.546 66.1812C120.356 66.5132 120.092 66.7891 119.755 67.0088C119.423 67.2285 119.045 67.3823 118.62 67.4702V67.5068C119.401 67.5801 120.028 67.8389 120.502 68.2832C120.976 68.7227 121.213 69.3086 121.213 70.041V70.0557C121.213 70.6709 121.047 71.2178 120.714 71.6963C120.382 72.1699 119.919 72.541 119.323 72.8096C118.732 73.0781 118.046 73.2124 117.265 73.2124ZM127.036 73.2637C126.196 73.2637 125.476 73.0391 124.875 72.5898C124.28 72.1406 123.821 71.501 123.498 70.6709C123.176 69.8408 123.015 68.8569 123.015 67.7192V67.7046C123.015 66.5669 123.176 65.5854 123.498 64.7603C123.821 63.9302 124.28 63.2905 124.875 62.8413C125.476 62.3921 126.196 62.1675 127.036 62.1675C127.876 62.1675 128.596 62.3921 129.197 62.8413C129.797 63.2905 130.259 63.9302 130.581 64.7603C130.903 65.5854 131.064 66.5669 131.064 67.7046V67.7192C131.064 68.8569 130.903 69.8408 130.581 70.6709C130.259 71.501 129.797 72.1406 129.197 72.5898C128.596 73.0391 127.876 73.2637 127.036 73.2637ZM127.036 71.7329C127.485 71.7329 127.868 71.5718 128.186 71.2495C128.503 70.9272 128.745 70.4683 128.911 69.8726C129.082 69.272 129.167 68.5542 129.167 67.7192V67.7046C129.167 66.8696 129.082 66.1543 128.911 65.5586C128.745 64.958 128.503 64.499 128.186 64.1816C127.868 63.8594 127.485 63.6982 127.036 63.6982C126.587 63.6982 126.203 63.8594 125.886 64.1816C125.574 64.499 125.332 64.958 125.161 65.5586C124.995 66.1543 124.912 66.8696 124.912 67.7046V67.7192C124.912 68.5542 124.995 69.272 125.161 69.8726C125.332 70.4683 125.574 70.9272 125.886 71.2495C126.203 71.5718 126.587 71.7329 127.036 71.7329Z"
        fill="#6C63FF" />
</svg>
