<svg width="349" height="118" viewBox="0 0 349 118" fill="none" xmlns="http://www.w3.org/2000/svg">
    <rect x="0.5" y="0.5" width="348" height="117" rx="1.5" stroke="#1C1C1C" stroke-opacity="0.1" />
    <path
        d="M22.0646 37V25.022H23.924V35.3896H29.5436V37H22.0646ZM31.6404 37V27.9854H33.45V37H31.6404ZM32.5535 26.375C32.2436 26.375 31.9779 26.2643 31.7566 26.043C31.5352 25.8216 31.4246 25.556 31.4246 25.2461C31.4246 24.9362 31.5352 24.6733 31.7566 24.4575C31.9779 24.2362 32.2436 24.1255 32.5535 24.1255C32.8634 24.1255 33.129 24.2362 33.3503 24.4575C33.5717 24.6733 33.6824 24.9362 33.6824 25.2461C33.6824 25.556 33.5717 25.8216 33.3503 26.043C33.129 26.2643 32.8634 26.375 32.5535 26.375ZM39.2738 37.1743C38.5489 37.1743 37.918 37.0692 37.3812 36.8589C36.8444 36.6431 36.4183 36.347 36.1029 35.9707C35.7875 35.5889 35.6021 35.1462 35.5468 34.6426V34.626H37.3563V34.6426C37.4725 34.9801 37.6939 35.2541 38.0204 35.4644C38.3469 35.6746 38.7785 35.7798 39.3153 35.7798C39.6861 35.7798 40.0098 35.7272 40.2865 35.6221C40.5687 35.5169 40.7901 35.3703 40.9506 35.1821C41.111 34.994 41.1913 34.7782 41.1913 34.5347V34.5181C41.1913 34.2358 41.0778 33.9979 40.851 33.8042C40.6241 33.6105 40.2505 33.4528 39.7304 33.3311L38.286 32.999C37.7216 32.8717 37.254 32.6974 36.8832 32.4761C36.5124 32.2547 36.2385 31.9836 36.0614 31.6626C35.8843 31.3361 35.7958 30.9543 35.7958 30.5171V30.5088C35.7958 29.9831 35.9452 29.5182 36.244 29.1143C36.5429 28.7048 36.9551 28.3866 37.4808 28.1597C38.0121 27.9272 38.618 27.811 39.2987 27.811C39.9849 27.811 40.5826 27.9189 41.0917 28.1348C41.6063 28.3451 42.0131 28.6383 42.3119 29.0146C42.6107 29.3854 42.7878 29.8171 42.8431 30.3096V30.3179H41.1166V30.3013C41.0336 29.9858 40.8344 29.723 40.5189 29.5127C40.209 29.3024 39.7995 29.1973 39.2904 29.1973C38.9639 29.1973 38.6734 29.2498 38.4188 29.355C38.1643 29.4546 37.9623 29.5957 37.8129 29.7783C37.669 29.9554 37.5971 30.1657 37.5971 30.4092V30.4258C37.5971 30.6139 37.6441 30.7799 37.7382 30.9238C37.8378 31.0622 37.9927 31.1867 38.203 31.2974C38.4133 31.4025 38.6845 31.4966 39.0165 31.5796L40.4525 31.9033C41.3158 32.1081 41.9577 32.4041 42.3783 32.7915C42.8044 33.1789 43.0175 33.6991 43.0175 34.3521V34.3687C43.0175 34.922 42.8542 35.4118 42.5277 35.8379C42.2012 36.2585 41.7557 36.5877 41.1913 36.8257C40.6324 37.0581 39.9932 37.1743 39.2738 37.1743ZM48.4263 37.0581C47.4413 37.0581 46.7274 36.87 46.2847 36.4937C45.8475 36.1118 45.6289 35.4893 45.6289 34.626V29.4048H44.2178V27.9854H45.6289V25.7109H47.4717V27.9854H49.4058V29.4048H47.4717V34.186C47.4717 34.673 47.5685 35.0244 47.7622 35.2402C47.9559 35.4505 48.2769 35.5557 48.7251 35.5557C48.8579 35.5557 48.9714 35.5529 49.0654 35.5474C49.165 35.5418 49.2785 35.5335 49.4058 35.5225V36.9668C49.2619 36.9889 49.1069 37.0083 48.9409 37.0249C48.7749 37.047 48.6034 37.0581 48.4263 37.0581ZM59.5095 37V32.0942L55.2927 25.022H57.3679L60.3811 30.2432H60.5139L63.5271 25.022H65.6023L61.3772 32.0942V37H59.5095ZM69.7328 37.1743C68.8529 37.1743 68.092 36.9862 67.4501 36.6099C66.8137 36.2336 66.3239 35.6968 65.9809 34.9995C65.6378 34.2967 65.4662 33.4639 65.4662 32.501V32.4844C65.4662 31.516 65.6378 30.6831 65.9809 29.9858C66.3295 29.2886 66.822 28.7518 67.4584 28.3755C68.1003 27.9992 68.8585 27.811 69.7328 27.811C70.6127 27.811 71.3708 27.9992 72.0072 28.3755C72.6436 28.7463 73.1334 29.283 73.4765 29.9858C73.8251 30.6831 73.9994 31.516 73.9994 32.4844V32.501C73.9994 33.4639 73.8251 34.2967 73.4765 34.9995C73.1334 35.6968 72.6436 36.2336 72.0072 36.6099C71.3764 36.9862 70.6182 37.1743 69.7328 37.1743ZM69.7328 35.6636C70.2475 35.6636 70.6846 35.5391 71.0443 35.29C71.404 35.0355 71.678 34.673 71.8661 34.2026C72.0543 33.7323 72.1483 33.165 72.1483 32.501V32.4844C72.1483 31.8148 72.0543 31.2448 71.8661 30.7744C71.678 30.304 71.404 29.9443 71.0443 29.6953C70.6846 29.4408 70.2475 29.3135 69.7328 29.3135C69.2182 29.3135 68.781 29.4408 68.4213 29.6953C68.0616 29.9443 67.7849 30.304 67.5912 30.7744C67.4031 31.2448 67.309 31.8148 67.309 32.4844V32.501C67.309 33.165 67.4031 33.7323 67.5912 34.2026C67.7849 34.673 68.0616 35.0355 68.4213 35.29C68.781 35.5391 69.2182 35.6636 69.7328 35.6636ZM79.0762 37.1743C78.4011 37.1743 77.8311 37.0443 77.3662 36.7842C76.9069 36.5186 76.5611 36.1367 76.3286 35.6387C76.1017 35.1351 75.9883 34.5291 75.9883 33.8208V27.9854H77.7896V33.3975C77.7896 34.139 77.9362 34.6951 78.2295 35.0659C78.5228 35.4367 79.0015 35.6221 79.6655 35.6221C80.0197 35.6221 80.3351 35.5695 80.6118 35.4644C80.8885 35.3537 81.1209 35.196 81.3091 34.9912C81.4972 34.7865 81.6356 34.5402 81.7241 34.2524C81.8182 33.9647 81.8652 33.6382 81.8652 33.2729V27.9854H83.6748V37H81.8652V35.6387H81.7324C81.5886 35.9596 81.3921 36.2363 81.1431 36.4688C80.8941 36.6956 80.5952 36.87 80.2466 36.9917C79.9035 37.1134 79.5134 37.1743 79.0762 37.1743ZM86.195 37V27.9854H87.9962V29.3467H88.1374C88.2978 28.8652 88.5801 28.4917 88.984 28.2261C89.3935 27.9604 89.8971 27.8276 90.4948 27.8276C90.6442 27.8276 90.7908 27.8359 90.9347 27.8525C91.0786 27.8691 91.1948 27.8885 91.2833 27.9106V29.5708C91.1229 29.5376 90.9624 29.5127 90.8019 29.4961C90.647 29.4795 90.4837 29.4712 90.3122 29.4712C89.8528 29.4712 89.4489 29.5597 89.1002 29.7368C88.7571 29.9139 88.486 30.1629 88.2868 30.4839C88.0931 30.7993 87.9962 31.1756 87.9962 31.6128V37H86.195ZM97.7182 37V25.022H105.197V26.6323H99.5775V30.4175H104.724V31.9863H99.5775V37H97.7182ZM107.36 37V27.9854H109.17V37H107.36ZM108.273 26.375C107.964 26.375 107.698 26.2643 107.477 26.043C107.255 25.8216 107.145 25.556 107.145 25.2461C107.145 24.9362 107.255 24.6733 107.477 24.4575C107.698 24.2362 107.964 24.1255 108.273 24.1255C108.583 24.1255 108.849 24.2362 109.07 24.4575C109.292 24.6733 109.402 24.9362 109.402 25.2461C109.402 25.556 109.292 25.8216 109.07 26.043C108.849 26.2643 108.583 26.375 108.273 26.375ZM111.715 37V27.9854H113.516V29.3467H113.657C113.818 28.8652 114.1 28.4917 114.504 28.2261C114.914 27.9604 115.417 27.8276 116.015 27.8276C116.164 27.8276 116.311 27.8359 116.455 27.8525C116.599 27.8691 116.715 27.8885 116.803 27.9106V29.5708C116.643 29.5376 116.482 29.5127 116.322 29.4961C116.167 29.4795 116.004 29.4712 115.832 29.4712C115.373 29.4712 114.969 29.5597 114.62 29.7368C114.277 29.9139 114.006 30.1629 113.807 30.4839C113.613 30.7993 113.516 31.1756 113.516 31.6128V37H111.715ZM121.565 37.1743C120.84 37.1743 120.209 37.0692 119.672 36.8589C119.135 36.6431 118.709 36.347 118.394 35.9707C118.078 35.5889 117.893 35.1462 117.838 34.6426V34.626H119.647V34.6426C119.763 34.9801 119.985 35.2541 120.311 35.4644C120.638 35.6746 121.069 35.7798 121.606 35.7798C121.977 35.7798 122.301 35.7272 122.577 35.6221C122.86 35.5169 123.081 35.3703 123.241 35.1821C123.402 34.994 123.482 34.7782 123.482 34.5347V34.5181C123.482 34.2358 123.369 33.9979 123.142 33.8042C122.915 33.6105 122.541 33.4528 122.021 33.3311L120.577 32.999C120.012 32.8717 119.545 32.6974 119.174 32.4761C118.803 32.2547 118.529 31.9836 118.352 31.6626C118.175 31.3361 118.087 30.9543 118.087 30.5171V30.5088C118.087 29.9831 118.236 29.5182 118.535 29.1143C118.834 28.7048 119.246 28.3866 119.772 28.1597C120.303 27.9272 120.909 27.811 121.59 27.811C122.276 27.811 122.873 27.9189 123.383 28.1348C123.897 28.3451 124.304 28.6383 124.603 29.0146C124.902 29.3854 125.079 29.8171 125.134 30.3096V30.3179H123.408V30.3013C123.324 29.9858 123.125 29.723 122.81 29.5127C122.5 29.3024 122.09 29.1973 121.581 29.1973C121.255 29.1973 120.964 29.2498 120.71 29.355C120.455 29.4546 120.253 29.5957 120.104 29.7783C119.96 29.9554 119.888 30.1657 119.888 30.4092V30.4258C119.888 30.6139 119.935 30.7799 120.029 30.9238C120.129 31.0622 120.284 31.1867 120.494 31.2974C120.704 31.4025 120.975 31.4966 121.307 31.5796L122.743 31.9033C123.607 32.1081 124.249 32.4041 124.669 32.7915C125.095 33.1789 125.308 33.6991 125.308 34.3521V34.3687C125.308 34.922 125.145 35.4118 124.819 35.8379C124.492 36.2585 124.047 36.5877 123.482 36.8257C122.923 37.0581 122.284 37.1743 121.565 37.1743ZM130.717 37.0581C129.732 37.0581 129.018 36.87 128.576 36.4937C128.138 36.1118 127.92 35.4893 127.92 34.626V29.4048H126.509V27.9854H127.92V25.7109H129.763V27.9854H131.697V29.4048H129.763V34.186C129.763 34.673 129.859 35.0244 130.053 35.2402C130.247 35.4505 130.568 35.5557 131.016 35.5557C131.149 35.5557 131.262 35.5529 131.356 35.5474C131.456 35.5418 131.569 35.5335 131.697 35.5225V36.9668C131.553 36.9889 131.398 37.0083 131.232 37.0249C131.066 37.047 130.894 37.0581 130.717 37.0581ZM138.505 37V25.022H140.364V37H138.505ZM146.495 37.0581C145.51 37.0581 144.797 36.87 144.354 36.4937C143.917 36.1118 143.698 35.4893 143.698 34.626V29.4048H142.287V27.9854H143.698V25.7109H145.541V27.9854H147.475V29.4048H145.541V34.186C145.541 34.673 145.638 35.0244 145.831 35.2402C146.025 35.4505 146.346 35.5557 146.794 35.5557C146.927 35.5557 147.04 35.5529 147.135 35.5474C147.234 35.5418 147.348 35.5335 147.475 35.5225V36.9668C147.331 36.9889 147.176 37.0083 147.01 37.0249C146.844 37.047 146.672 37.0581 146.495 37.0581ZM153.199 37.1743C152.319 37.1743 151.564 36.9862 150.933 36.6099C150.302 36.228 149.815 35.6885 149.472 34.9912C149.135 34.2939 148.966 33.4694 148.966 32.5176V32.5093C148.966 31.5685 149.135 30.7467 149.472 30.0439C149.815 29.3411 150.297 28.7933 150.916 28.4004C151.542 28.0075 152.272 27.811 153.108 27.811C153.949 27.811 154.671 27.9992 155.274 28.3755C155.883 28.7518 156.351 29.2803 156.677 29.9609C157.004 30.6361 157.167 31.4274 157.167 32.335V32.9658H149.879V31.6792H156.27L155.407 32.8745V32.1523C155.407 31.5104 155.308 30.9792 155.108 30.5586C154.915 30.1325 154.646 29.8143 154.303 29.604C153.96 29.3937 153.564 29.2886 153.116 29.2886C152.668 29.2886 152.267 29.3993 151.913 29.6206C151.564 29.8364 151.287 30.1574 151.082 30.5835C150.883 31.0096 150.784 31.5326 150.784 32.1523V32.8745C150.784 33.4666 150.883 33.973 151.082 34.3936C151.282 34.8141 151.564 35.1351 151.929 35.3564C152.3 35.5778 152.737 35.6885 153.241 35.6885C153.628 35.6885 153.96 35.6359 154.237 35.5308C154.519 35.4201 154.749 35.2845 154.926 35.124C155.108 34.9635 155.233 34.8058 155.299 34.6509L155.332 34.5845H157.076L157.059 34.6592C156.982 34.958 156.846 35.2568 156.652 35.5557C156.459 35.849 156.201 36.1174 155.88 36.3608C155.565 36.6043 155.183 36.8008 154.735 36.9502C154.292 37.0996 153.78 37.1743 153.199 37.1743ZM159.239 37V27.9854H161.04V29.3716H161.181C161.38 28.8735 161.69 28.4889 162.111 28.2178C162.537 27.9466 163.046 27.811 163.638 27.811C164.048 27.811 164.416 27.8774 164.742 28.0103C165.069 28.1431 165.348 28.3312 165.581 28.5747C165.819 28.8127 166.004 29.0949 166.137 29.4214H166.278C166.427 29.0949 166.638 28.8127 166.909 28.5747C167.18 28.3312 167.495 28.1431 167.855 28.0103C168.22 27.8774 168.608 27.811 169.017 27.811C169.626 27.811 170.146 27.93 170.578 28.168C171.009 28.4004 171.339 28.738 171.565 29.1807C171.792 29.6234 171.906 30.1574 171.906 30.7827V37H170.105V31.2144C170.105 30.7993 170.041 30.4562 169.914 30.1851C169.786 29.9084 169.593 29.7008 169.333 29.5625C169.078 29.4242 168.757 29.355 168.37 29.355C167.988 29.355 167.653 29.4435 167.365 29.6206C167.083 29.7922 166.862 30.0246 166.701 30.3179C166.546 30.6056 166.469 30.9321 166.469 31.2974V37H164.668V31.0317C164.668 30.6886 164.596 30.3926 164.452 30.1436C164.313 29.889 164.114 29.6953 163.854 29.5625C163.594 29.4242 163.287 29.355 162.933 29.355C162.573 29.355 162.249 29.4491 161.961 29.6372C161.679 29.8254 161.455 30.0799 161.289 30.4009C161.123 30.7163 161.04 31.0705 161.04 31.4634V37H159.239ZM174.044 40.1128L174.775 35.2319H176.7L175.314 40.1128H174.044ZM186.123 33.1899L186.032 30.6831H186.422L191.37 25.022H193.578L188.78 30.4092L187.792 31.2974L186.123 33.1899ZM184.422 37V25.022H186.281V37H184.422ZM191.643 37L187.485 31.2808L188.796 30.019L193.968 37H191.643ZM198.771 37.1743C197.891 37.1743 197.135 36.9862 196.504 36.6099C195.874 36.228 195.387 35.6885 195.044 34.9912C194.706 34.2939 194.537 33.4694 194.537 32.5176V32.5093C194.537 31.5685 194.706 30.7467 195.044 30.0439C195.387 29.3411 195.868 28.7933 196.488 28.4004C197.113 28.0075 197.844 27.811 198.679 27.811C199.52 27.811 200.243 27.9992 200.846 28.3755C201.454 28.7518 201.922 29.2803 202.249 29.9609C202.575 30.6361 202.738 31.4274 202.738 32.335V32.9658H195.45V31.6792H201.842L200.979 32.8745V32.1523C200.979 31.5104 200.879 30.9792 200.68 30.5586C200.486 30.1325 200.218 29.8143 199.875 29.604C199.531 29.3937 199.136 29.2886 198.688 29.2886C198.239 29.2886 197.838 29.3993 197.484 29.6206C197.135 29.8364 196.859 30.1574 196.654 30.5835C196.455 31.0096 196.355 31.5326 196.355 32.1523V32.8745C196.355 33.4666 196.455 33.973 196.654 34.3936C196.853 34.8141 197.135 35.1351 197.501 35.3564C197.871 35.5778 198.308 35.6885 198.812 35.6885C199.199 35.6885 199.531 35.6359 199.808 35.5308C200.09 35.4201 200.32 35.2845 200.497 35.124C200.68 34.9635 200.804 34.8058 200.871 34.6509L200.904 34.5845H202.647L202.63 34.6592C202.553 34.958 202.417 35.2568 202.224 35.5557C202.03 35.849 201.773 36.1174 201.452 36.3608C201.136 36.6043 200.754 36.8008 200.306 36.9502C199.863 37.0996 199.352 37.1743 198.771 37.1743ZM208.595 37.1743C207.716 37.1743 206.96 36.9862 206.329 36.6099C205.698 36.228 205.211 35.6885 204.868 34.9912C204.531 34.2939 204.362 33.4694 204.362 32.5176V32.5093C204.362 31.5685 204.531 30.7467 204.868 30.0439C205.211 29.3411 205.693 28.7933 206.313 28.4004C206.938 28.0075 207.668 27.811 208.504 27.811C209.345 27.811 210.067 27.9992 210.671 28.3755C211.279 28.7518 211.747 29.2803 212.073 29.9609C212.4 30.6361 212.563 31.4274 212.563 32.335V32.9658H205.275V31.6792H211.667L210.803 32.8745V32.1523C210.803 31.5104 210.704 30.9792 210.505 30.5586C210.311 30.1325 210.043 29.8143 209.699 29.604C209.356 29.3937 208.961 29.2886 208.512 29.2886C208.064 29.2886 207.663 29.3993 207.309 29.6206C206.96 29.8364 206.683 30.1574 206.479 30.5835C206.279 31.0096 206.18 31.5326 206.18 32.1523V32.8745C206.18 33.4666 206.279 33.973 206.479 34.3936C206.678 34.8141 206.96 35.1351 207.325 35.3564C207.696 35.5778 208.133 35.6885 208.637 35.6885C209.024 35.6885 209.356 35.6359 209.633 35.5308C209.915 35.4201 210.145 35.2845 210.322 35.124C210.505 34.9635 210.629 34.8058 210.695 34.6509L210.729 34.5845H212.472L212.455 34.6592C212.378 34.958 212.242 35.2568 212.049 35.5557C211.855 35.849 211.598 36.1174 211.277 36.3608C210.961 36.6043 210.579 36.8008 210.131 36.9502C209.688 37.0996 209.176 37.1743 208.595 37.1743ZM214.635 40.0049V27.9854H216.436V29.4048H216.577C216.749 29.0728 216.97 28.7905 217.242 28.5581C217.518 28.3257 217.834 28.1458 218.188 28.0186C218.542 27.8913 218.929 27.8276 219.35 27.8276C220.108 27.8276 220.767 28.0213 221.326 28.4087C221.884 28.7905 222.316 29.3301 222.62 30.0273C222.93 30.7191 223.085 31.5381 223.085 32.4844V32.501C223.085 33.4528 222.933 34.2773 222.629 34.9746C222.324 35.6663 221.893 36.2031 221.334 36.585C220.775 36.9613 220.114 37.1494 219.35 37.1494C218.935 37.1494 218.548 37.0858 218.188 36.9585C217.828 36.8257 217.51 36.6431 217.233 36.4106C216.957 36.1782 216.738 35.8988 216.577 35.5723H216.436V40.0049H214.635ZM218.835 35.6055C219.339 35.6055 219.77 35.481 220.13 35.2319C220.49 34.9829 220.764 34.626 220.952 34.1611C221.146 33.6963 221.242 33.1429 221.242 32.501V32.4844C221.242 31.8369 221.146 31.2808 220.952 30.8159C220.764 30.3511 220.49 29.9941 220.13 29.7451C219.77 29.4961 219.339 29.3716 218.835 29.3716C218.337 29.3716 217.906 29.4989 217.54 29.7534C217.175 30.0024 216.896 30.3594 216.702 30.8242C216.508 31.2835 216.411 31.8369 216.411 32.4844V32.501C216.411 33.1374 216.508 33.688 216.702 34.1528C216.896 34.6177 217.175 34.9774 217.54 35.2319C217.906 35.481 218.337 35.6055 218.835 35.6055ZM232.658 37V26.9395H232.525L229.512 29.0894V27.2632L232.666 25.022H234.525V37H232.658ZM242.076 37.2905C241.152 37.2905 240.36 37.036 239.702 36.5269C239.043 36.0177 238.537 35.2956 238.183 34.3604C237.829 33.4196 237.652 32.3045 237.652 31.0151V30.9985C237.652 29.7091 237.829 28.5968 238.183 27.6616C238.537 26.7264 239.043 26.0042 239.702 25.4951C240.36 24.986 241.152 24.7314 242.076 24.7314C243 24.7314 243.791 24.986 244.45 25.4951C245.108 26.0042 245.615 26.7264 245.969 27.6616C246.329 28.5968 246.508 29.7091 246.508 30.9985V31.0151C246.508 32.3045 246.329 33.4196 245.969 34.3604C245.615 35.2956 245.108 36.0177 244.45 36.5269C243.791 37.036 243 37.2905 242.076 37.2905ZM242.076 35.7383C242.613 35.7383 243.069 35.5474 243.445 35.1655C243.827 34.7837 244.118 34.2414 244.317 33.5386C244.522 32.8302 244.624 31.9891 244.624 31.0151V30.9985C244.624 30.0246 244.522 29.1862 244.317 28.4834C244.118 27.7806 243.827 27.241 243.445 26.8647C243.069 26.4829 242.613 26.292 242.076 26.292C241.545 26.292 241.088 26.4829 240.706 26.8647C240.33 27.241 240.039 27.7806 239.835 28.4834C239.635 29.1862 239.536 30.0246 239.536 30.9985V31.0151C239.536 31.9891 239.635 32.8302 239.835 33.5386C240.039 34.2414 240.33 34.7837 240.706 35.1655C241.088 35.5474 241.545 35.7383 242.076 35.7383ZM253.063 37.2905C252.139 37.2905 251.347 37.036 250.689 36.5269C250.03 36.0177 249.524 35.2956 249.17 34.3604C248.816 33.4196 248.638 32.3045 248.638 31.0151V30.9985C248.638 29.7091 248.816 28.5968 249.17 27.6616C249.524 26.7264 250.03 26.0042 250.689 25.4951C251.347 24.986 252.139 24.7314 253.063 24.7314C253.987 24.7314 254.778 24.986 255.437 25.4951C256.095 26.0042 256.602 26.7264 256.956 27.6616C257.316 28.5968 257.495 29.7091 257.495 30.9985V31.0151C257.495 32.3045 257.316 33.4196 256.956 34.3604C256.602 35.2956 256.095 36.0177 255.437 36.5269C254.778 37.036 253.987 37.2905 253.063 37.2905ZM253.063 35.7383C253.6 35.7383 254.056 35.5474 254.432 35.1655C254.814 34.7837 255.105 34.2414 255.304 33.5386C255.509 32.8302 255.611 31.9891 255.611 31.0151V30.9985C255.611 30.0246 255.509 29.1862 255.304 28.4834C255.105 27.7806 254.814 27.241 254.432 26.8647C254.056 26.4829 253.6 26.292 253.063 26.292C252.532 26.292 252.075 26.4829 251.693 26.8647C251.317 27.241 251.026 27.7806 250.822 28.4834C250.622 29.1862 250.523 30.0246 250.523 30.9985V31.0151C250.523 31.9891 250.622 32.8302 250.822 33.5386C251.026 34.2414 251.317 34.7837 251.693 35.1655C252.075 35.5474 252.532 35.7383 253.063 35.7383ZM262.215 31.4219C261.678 31.4219 261.216 31.2891 260.829 31.0234C260.447 30.7523 260.151 30.3732 259.941 29.8862C259.731 29.3937 259.625 28.8127 259.625 28.1431V28.1348C259.625 27.4541 259.731 26.8703 259.941 26.3833C260.151 25.8963 260.447 25.52 260.829 25.2544C261.216 24.9888 261.678 24.856 262.215 24.856C262.752 24.856 263.214 24.9888 263.602 25.2544C263.994 25.52 264.293 25.8963 264.498 26.3833C264.708 26.8703 264.813 27.4541 264.813 28.1348V28.1431C264.813 28.8127 264.708 29.3937 264.498 29.8862C264.293 30.3732 263.994 30.7523 263.602 31.0234C263.214 31.2891 262.752 31.4219 262.215 31.4219ZM262.215 30.3096C262.608 30.3096 262.913 30.1187 263.128 29.7368C263.35 29.355 263.46 28.8237 263.46 28.1431V28.1348C263.46 27.4486 263.35 26.9173 263.128 26.541C262.913 26.1592 262.608 25.9683 262.215 25.9683C261.828 25.9683 261.526 26.1592 261.31 26.541C261.095 26.9173 260.987 27.4486 260.987 28.1348V28.1431C260.987 28.8237 261.095 29.355 261.31 29.7368C261.526 30.1187 261.828 30.3096 262.215 30.3096ZM263.46 37H261.908L270.026 25.022H271.579L263.46 37ZM271.255 37.166C270.718 37.166 270.256 37.0332 269.869 36.7676C269.481 36.4964 269.182 36.1174 268.972 35.6304C268.767 35.1379 268.665 34.554 268.665 33.8789V33.8706C268.665 33.1955 268.767 32.6144 268.972 32.1274C269.182 31.6405 269.481 31.2642 269.869 30.9985C270.256 30.7329 270.718 30.6001 271.255 30.6001C271.792 30.6001 272.254 30.7329 272.641 30.9985C273.028 31.2642 273.324 31.6405 273.529 32.1274C273.74 32.6144 273.845 33.1955 273.845 33.8706V33.8789C273.845 34.554 273.74 35.1379 273.529 35.6304C273.324 36.1174 273.028 36.4964 272.641 36.7676C272.254 37.0332 271.792 37.166 271.255 37.166ZM271.255 36.0537C271.648 36.0537 271.952 35.8628 272.168 35.481C272.384 35.0991 272.492 34.5651 272.492 33.8789V33.8706C272.492 33.1899 272.384 32.6615 272.168 32.2852C271.952 31.9033 271.648 31.7124 271.255 31.7124C270.862 31.7124 270.558 31.9033 270.342 32.2852C270.126 32.6615 270.018 33.1899 270.018 33.8706V33.8789C270.018 34.5651 270.126 35.0991 270.342 35.481C270.558 35.8628 270.862 36.0537 271.255 36.0537Z"
        fill="#1C1C1C" />
    <path
        d="M17.0547 73V72.0625L23.0386 63.7349V63.6177H17.2598V62.4312H24.7451V63.3687L18.7905 71.6963V71.8135H24.8696V73H17.0547ZM30.0851 73.1392C29.3331 73.1392 28.6862 72.9731 28.1442 72.6411C27.6071 72.3091 27.192 71.8403 26.8991 71.2349C26.611 70.6245 26.4669 69.9067 26.4669 69.0815V69.0742C26.4669 68.2588 26.611 67.5435 26.8991 66.9282C27.192 66.313 27.6046 65.832 28.1369 65.4854C28.6691 65.1387 29.2916 64.9653 30.0045 64.9653C30.7223 64.9653 31.3375 65.1313 31.8502 65.4634C32.3678 65.7954 32.7633 66.2593 33.0368 66.855C33.3151 67.4458 33.4542 68.1343 33.4542 68.9204V69.4185H27.1261V68.4004H32.8024L32.1725 69.3306V68.8252C32.1725 68.2051 32.0797 67.6948 31.8942 67.2944C31.7086 66.894 31.4523 66.5962 31.1251 66.4009C30.798 66.2007 30.422 66.1006 29.9972 66.1006C29.5724 66.1006 29.1915 66.2056 28.8546 66.4155C28.5226 66.6206 28.2589 66.9258 28.0636 67.3311C27.8683 67.7363 27.7706 68.2344 27.7706 68.8252V69.3306C27.7706 69.8921 27.8659 70.373 28.0563 70.7734C28.2467 71.1689 28.5177 71.4741 28.8693 71.689C29.2208 71.8989 29.6359 72.0039 30.1144 72.0039C30.4708 72.0039 30.7809 71.9551 31.0446 71.8574C31.3082 71.7598 31.5255 71.6353 31.6964 71.4839C31.8673 71.3325 31.9869 71.1787 32.0553 71.0225L32.0846 70.9565H33.359L33.3444 71.0151C33.276 71.2837 33.1539 71.5449 32.9782 71.7988C32.8073 72.0479 32.5851 72.2749 32.3117 72.48C32.0382 72.6802 31.7135 72.8413 31.3375 72.9634C30.9664 73.0806 30.549 73.1392 30.0851 73.1392ZM35.3958 73V65.1045H36.6702V66.2764H36.7874C36.9387 65.8613 37.1951 65.5391 37.5564 65.3096C37.9177 65.0801 38.3645 64.9653 38.8967 64.9653C39.0188 64.9653 39.1384 64.9727 39.2556 64.9873C39.3777 64.9971 39.4705 65.0068 39.534 65.0166V66.2544C39.4021 66.23 39.2727 66.2129 39.1458 66.2031C39.0237 66.1885 38.8919 66.1812 38.7503 66.1812C38.345 66.1812 37.9861 66.2617 37.6736 66.4229C37.3611 66.584 37.1145 66.8086 36.9339 67.0967C36.7581 67.3848 36.6702 67.7217 36.6702 68.1074V73H35.3958ZM44.0976 73.1392C43.3505 73.1392 42.7035 72.9756 42.1566 72.6484C41.6147 72.3164 41.1947 71.8452 40.8969 71.2349C40.6039 70.6245 40.4574 69.8994 40.4574 69.0596V69.0449C40.4574 68.2002 40.6039 67.4727 40.8969 66.8623C41.1947 66.252 41.6147 65.7832 42.1566 65.4561C42.7035 65.1289 43.3505 64.9653 44.0976 64.9653C44.8495 64.9653 45.4965 65.1289 46.0385 65.4561C46.5805 65.7832 46.998 66.252 47.2909 66.8623C47.5888 67.4727 47.7377 68.2002 47.7377 69.0449V69.0596C47.7377 69.8994 47.5888 70.6245 47.2909 71.2349C46.998 71.8452 46.5805 72.3164 46.0385 72.6484C45.4965 72.9756 44.8495 73.1392 44.0976 73.1392ZM44.0976 72.0112C44.5956 72.0112 45.018 71.894 45.3647 71.6597C45.7113 71.4253 45.975 71.0884 46.1557 70.6489C46.3412 70.2095 46.434 69.6797 46.434 69.0596V69.0449C46.434 68.4199 46.3412 67.8877 46.1557 67.4482C45.975 67.0088 45.7113 66.6743 45.3647 66.4448C45.018 66.2104 44.5956 66.0933 44.0976 66.0933C43.5995 66.0933 43.1772 66.2104 42.8305 66.4448C42.4838 66.6743 42.2177 67.0088 42.0321 67.4482C41.8515 67.8877 41.7611 68.4199 41.7611 69.0449V69.0596C41.7611 69.6797 41.8515 70.2095 42.0321 70.6489C42.2177 71.0884 42.4838 71.4253 42.8305 71.6597C43.1772 71.894 43.5995 72.0112 44.0976 72.0112ZM56.572 73.1392C55.986 73.1392 55.4684 73.0513 55.0192 72.8755C54.57 72.6948 54.2087 72.4434 53.9352 72.1211C53.6667 71.7988 53.508 71.4204 53.4592 70.9858H54.7629C54.8703 71.313 55.0803 71.5767 55.3928 71.7769C55.7053 71.9771 56.113 72.0771 56.6159 72.0771C56.9723 72.0771 57.2848 72.0259 57.5534 71.9233C57.8268 71.8159 58.0417 71.6719 58.1979 71.4912C58.3542 71.3057 58.4323 71.0933 58.4323 70.854V70.8394C58.4323 70.5708 58.3249 70.3438 58.11 70.1582C57.8952 69.9678 57.5436 69.814 57.0554 69.6968L55.8322 69.4038C55.339 69.2866 54.9338 69.1353 54.6164 68.9497C54.299 68.7593 54.0646 68.5273 53.9133 68.2539C53.7619 67.9756 53.6862 67.6484 53.6862 67.2725V67.2651C53.6862 66.8257 53.8132 66.4326 54.0671 66.0859C54.3259 65.7393 54.6774 65.4658 55.1218 65.2656C55.5661 65.0654 56.0666 64.9653 56.6232 64.9653C57.175 64.9653 57.6633 65.0532 58.0881 65.229C58.5178 65.3999 58.862 65.644 59.1208 65.9614C59.3845 66.2788 59.5456 66.6523 59.6042 67.082H58.3517C58.2687 66.7695 58.0783 66.5156 57.7804 66.3203C57.4826 66.125 57.0944 66.0273 56.6159 66.0273C56.3034 66.0273 56.0251 66.0786 55.7809 66.1812C55.5368 66.2788 55.3439 66.4155 55.2023 66.5913C55.0607 66.7671 54.9899 66.9722 54.9899 67.2065V67.2212C54.9899 67.397 55.0363 67.5532 55.1291 67.6899C55.2219 67.8267 55.3659 67.9463 55.5612 68.0488C55.7565 68.1514 56.008 68.2417 56.3156 68.3198L57.5314 68.6128C58.2736 68.7935 58.8254 69.0522 59.1867 69.3892C59.5529 69.7261 59.736 70.1777 59.736 70.7441V70.7588C59.736 71.2275 59.5969 71.6426 59.3185 72.0039C59.0402 72.3604 58.6618 72.6387 58.1833 72.8389C57.7096 73.0391 57.1725 73.1392 56.572 73.1392ZM64.9002 73.1392C64.1483 73.1392 63.5013 72.9731 62.9593 72.6411C62.4222 72.3091 62.0071 71.8403 61.7142 71.2349C61.4261 70.6245 61.282 69.9067 61.282 69.0815V69.0742C61.282 68.2588 61.4261 67.5435 61.7142 66.9282C62.0071 66.313 62.4197 65.832 62.952 65.4854C63.4842 65.1387 64.1068 64.9653 64.8196 64.9653C65.5374 64.9653 66.1527 65.1313 66.6653 65.4634C67.1829 65.7954 67.5784 66.2593 67.8519 66.855C68.1302 67.4458 68.2694 68.1343 68.2694 68.9204V69.4185H61.9412V68.4004H67.6175L66.9876 69.3306V68.8252C66.9876 68.2051 66.8948 67.6948 66.7093 67.2944C66.5237 66.894 66.2674 66.5962 65.9403 66.4009C65.6131 66.2007 65.2371 66.1006 64.8123 66.1006C64.3875 66.1006 64.0067 66.2056 63.6697 66.4155C63.3377 66.6206 63.074 66.9258 62.8787 67.3311C62.6834 67.7363 62.5858 68.2344 62.5858 68.8252V69.3306C62.5858 69.8921 62.681 70.373 62.8714 70.7734C63.0618 71.1689 63.3328 71.4741 63.6844 71.689C64.036 71.8989 64.451 72.0039 64.9295 72.0039C65.286 72.0039 65.596 71.9551 65.8597 71.8574C66.1234 71.7598 66.3406 71.6353 66.5115 71.4839C66.6824 71.3325 66.8021 71.1787 66.8704 71.0225L66.8997 70.9565H68.1741L68.1595 71.0151C68.0911 71.2837 67.9691 71.5449 67.7933 71.7988C67.6224 72.0479 67.4002 72.2749 67.1268 72.48C66.8533 72.6802 66.5286 72.8413 66.1527 72.9634C65.7816 73.0806 65.3641 73.1392 64.9002 73.1392ZM70.2841 73V61.9697H71.5585V73H70.2841ZM74.0421 73V61.9697H75.3165V73H74.0421ZM80.9494 73.1392C80.1975 73.1392 79.5505 72.9731 79.0085 72.6411C78.4714 72.3091 78.0564 71.8403 77.7634 71.2349C77.4753 70.6245 77.3313 69.9067 77.3313 69.0815V69.0742C77.3313 68.2588 77.4753 67.5435 77.7634 66.9282C78.0564 66.313 78.469 65.832 79.0012 65.4854C79.5334 65.1387 80.156 64.9653 80.8689 64.9653C81.5866 64.9653 82.2019 65.1313 82.7146 65.4634C83.2322 65.7954 83.6277 66.2593 83.9011 66.855C84.1794 67.4458 84.3186 68.1343 84.3186 68.9204V69.4185H77.9905V68.4004H83.6667L83.0368 69.3306V68.8252C83.0368 68.2051 82.9441 67.6948 82.7585 67.2944C82.573 66.894 82.3166 66.5962 81.9895 66.4009C81.6623 66.2007 81.2864 66.1006 80.8615 66.1006C80.4367 66.1006 80.0559 66.2056 79.719 66.4155C79.3869 66.6206 79.1233 66.9258 78.928 67.3311C78.7326 67.7363 78.635 68.2344 78.635 68.8252V69.3306C78.635 69.8921 78.7302 70.373 78.9206 70.7734C79.1111 71.1689 79.3821 71.4741 79.7336 71.689C80.0852 71.8989 80.5002 72.0039 80.9787 72.0039C81.3352 72.0039 81.6452 71.9551 81.9089 71.8574C82.1726 71.7598 82.3899 71.6353 82.5608 71.4839C82.7317 71.3325 82.8513 71.1787 82.9197 71.0225L82.9489 70.9565H84.2234L84.2087 71.0151C84.1404 71.2837 84.0183 71.5449 83.8425 71.7988C83.6716 72.0479 83.4494 72.2749 83.176 72.48C82.9026 72.6802 82.5779 72.8413 82.2019 72.9634C81.8308 73.0806 81.4133 73.1392 80.9494 73.1392ZM86.2601 73V65.1045H87.5345V66.2764H87.6517C87.8031 65.8613 88.0594 65.5391 88.4208 65.3096C88.7821 65.0801 89.2289 64.9653 89.7611 64.9653C89.8832 64.9653 90.0028 64.9727 90.12 64.9873C90.2421 64.9971 90.3348 65.0068 90.3983 65.0166V66.2544C90.2665 66.23 90.1371 66.2129 90.0101 66.2031C89.888 66.1885 89.7562 66.1812 89.6146 66.1812C89.2093 66.1812 88.8504 66.2617 88.5379 66.4229C88.2254 66.584 87.9789 66.8086 87.7982 67.0967C87.6224 67.3848 87.5345 67.7217 87.5345 68.1074V73H86.2601ZM96.6471 73V66.1592H95.3361V65.1045H96.6471V64.2256C96.6471 63.6982 96.7326 63.2637 96.9035 62.9219C97.0792 62.5752 97.338 62.3188 97.6798 62.1528C98.0216 61.9819 98.4415 61.8965 98.9396 61.8965C99.0958 61.8965 99.2423 61.9038 99.379 61.9185C99.5206 61.9282 99.6574 61.9453 99.7892 61.9697V62.9878C99.7111 62.9731 99.6207 62.9634 99.5182 62.9585C99.4157 62.9536 99.3082 62.9512 99.1959 62.9512C98.7418 62.9512 98.4147 63.061 98.2145 63.2808C98.0192 63.5005 97.9215 63.8276 97.9215 64.2622V65.1045H99.716V66.1592H97.9215V73H96.6471ZM104.419 73.1392C103.667 73.1392 103.02 72.9731 102.478 72.6411C101.941 72.3091 101.526 71.8403 101.233 71.2349C100.945 70.6245 100.801 69.9067 100.801 69.0815V69.0742C100.801 68.2588 100.945 67.5435 101.233 66.9282C101.526 66.313 101.938 65.832 102.47 65.4854C103.003 65.1387 103.625 64.9653 104.338 64.9653C105.056 64.9653 105.671 65.1313 106.184 65.4634C106.701 65.7954 107.097 66.2593 107.37 66.855C107.649 67.4458 107.788 68.1343 107.788 68.9204V69.4185H101.46V68.4004H107.136L106.506 69.3306V68.8252C106.506 68.2051 106.413 67.6948 106.228 67.2944C106.042 66.894 105.786 66.5962 105.459 66.4009C105.132 66.2007 104.756 66.1006 104.331 66.1006C103.906 66.1006 103.525 66.2056 103.188 66.4155C102.856 66.6206 102.593 66.9258 102.397 67.3311C102.202 67.7363 102.104 68.2344 102.104 68.8252V69.3306C102.104 69.8921 102.199 70.373 102.39 70.7734C102.58 71.1689 102.851 71.4741 103.203 71.689C103.554 71.8989 103.969 72.0039 104.448 72.0039C104.804 72.0039 105.115 71.9551 105.378 71.8574C105.642 71.7598 105.859 71.6353 106.03 71.4839C106.201 71.3325 106.321 71.1787 106.389 71.0225L106.418 70.9565H107.693L107.678 71.0151C107.61 71.2837 107.488 71.5449 107.312 71.7988C107.141 72.0479 106.919 72.2749 106.645 72.48C106.372 72.6802 106.047 72.8413 105.671 72.9634C105.3 73.0806 104.883 73.1392 104.419 73.1392ZM112.952 73.1392C112.2 73.1392 111.553 72.9731 111.011 72.6411C110.474 72.3091 110.059 71.8403 109.766 71.2349C109.478 70.6245 109.334 69.9067 109.334 69.0815V69.0742C109.334 68.2588 109.478 67.5435 109.766 66.9282C110.059 66.313 110.472 65.832 111.004 65.4854C111.536 65.1387 112.159 64.9653 112.871 64.9653C113.589 64.9653 114.204 65.1313 114.717 65.4634C115.235 65.7954 115.63 66.2593 115.904 66.855C116.182 67.4458 116.321 68.1343 116.321 68.9204V69.4185H109.993V68.4004H115.669L115.039 69.3306V68.8252C115.039 68.2051 114.947 67.6948 114.761 67.2944C114.576 66.894 114.319 66.5962 113.992 66.4009C113.665 66.2007 113.289 66.1006 112.864 66.1006C112.439 66.1006 112.059 66.2056 111.722 66.4155C111.39 66.6206 111.126 66.9258 110.931 67.3311C110.735 67.7363 110.638 68.2344 110.638 68.8252V69.3306C110.638 69.8921 110.733 70.373 110.923 70.7734C111.114 71.1689 111.385 71.4741 111.736 71.689C112.088 71.8989 112.503 72.0039 112.981 72.0039C113.338 72.0039 113.648 71.9551 113.912 71.8574C114.175 71.7598 114.392 71.6353 114.563 71.4839C114.734 71.3325 114.854 71.1787 114.922 71.0225L114.952 70.9565H116.226L116.211 71.0151C116.143 71.2837 116.021 71.5449 115.845 71.7988C115.674 72.0479 115.452 72.2749 115.179 72.48C114.905 72.6802 114.58 72.8413 114.204 72.9634C113.833 73.0806 113.416 73.1392 112.952 73.1392ZM120.973 73.1392C120.387 73.1392 119.869 73.0513 119.42 72.8755C118.971 72.6948 118.609 72.4434 118.336 72.1211C118.067 71.7988 117.909 71.4204 117.86 70.9858H119.164C119.271 71.313 119.481 71.5767 119.793 71.7769C120.106 71.9771 120.514 72.0771 121.017 72.0771C121.373 72.0771 121.686 72.0259 121.954 71.9233C122.228 71.8159 122.442 71.6719 122.599 71.4912C122.755 71.3057 122.833 71.0933 122.833 70.854V70.8394C122.833 70.5708 122.726 70.3438 122.511 70.1582C122.296 69.9678 121.944 69.814 121.456 69.6968L120.233 69.4038C119.74 69.2866 119.335 69.1353 119.017 68.9497C118.7 68.7593 118.465 68.5273 118.314 68.2539C118.163 67.9756 118.087 67.6484 118.087 67.2725V67.2651C118.087 66.8257 118.214 66.4326 118.468 66.0859C118.727 65.7393 119.078 65.4658 119.522 65.2656C119.967 65.0654 120.467 64.9653 121.024 64.9653C121.576 64.9653 122.064 65.0532 122.489 65.229C122.918 65.3999 123.263 65.644 123.522 65.9614C123.785 66.2788 123.946 66.6523 124.005 67.082H122.752C122.669 66.7695 122.479 66.5156 122.181 66.3203C121.883 66.125 121.495 66.0273 121.017 66.0273C120.704 66.0273 120.426 66.0786 120.182 66.1812C119.938 66.2788 119.745 66.4155 119.603 66.5913C119.461 66.7671 119.391 66.9722 119.391 67.2065V67.2212C119.391 67.397 119.437 67.5532 119.53 67.6899C119.623 67.8267 119.767 67.9463 119.962 68.0488C120.157 68.1514 120.409 68.2417 120.716 68.3198L121.932 68.6128C122.674 68.7935 123.226 69.0522 123.587 69.3892C123.954 69.7261 124.137 70.1777 124.137 70.7441V70.7588C124.137 71.2275 123.998 71.6426 123.719 72.0039C123.441 72.3604 123.063 72.6387 122.584 72.8389C122.11 73.0391 121.573 73.1392 120.973 73.1392ZM133.506 73.1392C132.759 73.1392 132.112 72.9756 131.565 72.6484C131.023 72.3164 130.603 71.8452 130.305 71.2349C130.012 70.6245 129.866 69.8994 129.866 69.0596V69.0449C129.866 68.2002 130.012 67.4727 130.305 66.8623C130.603 66.252 131.023 65.7832 131.565 65.4561C132.112 65.1289 132.759 64.9653 133.506 64.9653C134.258 64.9653 134.905 65.1289 135.447 65.4561C135.989 65.7832 136.406 66.252 136.699 66.8623C136.997 67.4727 137.146 68.2002 137.146 69.0449V69.0596C137.146 69.8994 136.997 70.6245 136.699 71.2349C136.406 71.8452 135.989 72.3164 135.447 72.6484C134.905 72.9756 134.258 73.1392 133.506 73.1392ZM133.506 72.0112C134.004 72.0112 134.426 71.894 134.773 71.6597C135.119 71.4253 135.383 71.0884 135.564 70.6489C135.749 70.2095 135.842 69.6797 135.842 69.0596V69.0449C135.842 68.4199 135.749 67.8877 135.564 67.4482C135.383 67.0088 135.119 66.6743 134.773 66.4448C134.426 66.2104 134.004 66.0933 133.506 66.0933C133.008 66.0933 132.585 66.2104 132.239 66.4448C131.892 66.6743 131.626 67.0088 131.44 67.4482C131.26 67.8877 131.169 68.4199 131.169 69.0449V69.0596C131.169 69.6797 131.26 70.2095 131.44 70.6489C131.626 71.0884 131.892 71.4253 132.239 71.6597C132.585 71.894 133.008 72.0112 133.506 72.0112ZM139.087 73V65.1045H140.362V66.291H140.479C140.679 65.8711 140.967 65.5464 141.343 65.3169C141.719 65.0825 142.198 64.9653 142.779 64.9653C143.667 64.9653 144.349 65.2192 144.822 65.7271C145.301 66.23 145.54 66.9502 145.54 67.8877V73H144.266V68.1953C144.266 67.4824 144.114 66.9551 143.811 66.6133C143.514 66.2666 143.05 66.0933 142.42 66.0933C142 66.0933 141.636 66.1836 141.329 66.3643C141.021 66.5449 140.782 66.8013 140.611 67.1333C140.445 67.4653 140.362 67.8633 140.362 68.3271V73H139.087ZM152.668 75.7686C152.585 75.7686 152.492 75.7637 152.389 75.7539C152.287 75.749 152.192 75.7393 152.104 75.7246V74.6772C152.182 74.6919 152.267 74.7017 152.36 74.7065C152.453 74.7114 152.543 74.7139 152.631 74.7139C152.992 74.7139 153.288 74.6211 153.517 74.4355C153.752 74.25 153.94 73.9302 154.081 73.4761L154.228 73.0073L151.305 65.1045H152.668L155.099 72.3994L154.594 71.6011H155.195L154.689 72.3994L157.113 65.1045H158.454L155.37 73.4834C155.155 74.0742 154.928 74.5356 154.689 74.8677C154.45 75.1997 154.169 75.4316 153.847 75.5635C153.53 75.7002 153.136 75.7686 152.668 75.7686ZM163.054 73.1392C162.307 73.1392 161.66 72.9756 161.113 72.6484C160.571 72.3164 160.151 71.8452 159.853 71.2349C159.56 70.6245 159.414 69.8994 159.414 69.0596V69.0449C159.414 68.2002 159.56 67.4727 159.853 66.8623C160.151 66.252 160.571 65.7832 161.113 65.4561C161.66 65.1289 162.307 64.9653 163.054 64.9653C163.806 64.9653 164.453 65.1289 164.995 65.4561C165.537 65.7832 165.954 66.252 166.247 66.8623C166.545 67.4727 166.694 68.2002 166.694 69.0449V69.0596C166.694 69.8994 166.545 70.6245 166.247 71.2349C165.954 71.8452 165.537 72.3164 164.995 72.6484C164.453 72.9756 163.806 73.1392 163.054 73.1392ZM163.054 72.0112C163.552 72.0112 163.974 71.894 164.321 71.6597C164.668 71.4253 164.932 71.0884 165.112 70.6489C165.298 70.2095 165.39 69.6797 165.39 69.0596V69.0449C165.39 68.4199 165.298 67.8877 165.112 67.4482C164.932 67.0088 164.668 66.6743 164.321 66.4448C163.974 66.2104 163.552 66.0933 163.054 66.0933C162.556 66.0933 162.134 66.2104 161.787 66.4448C161.44 66.6743 161.174 67.0088 160.989 67.4482C160.808 67.8877 160.718 68.4199 160.718 69.0449V69.0596C160.718 69.6797 160.808 70.2095 160.989 70.6489C161.174 71.0884 161.44 71.4253 161.787 71.6597C162.134 71.894 162.556 72.0112 163.054 72.0112ZM171.28 73.1392C170.684 73.1392 170.184 73.0269 169.778 72.8022C169.373 72.5728 169.068 72.2407 168.863 71.8062C168.663 71.3667 168.562 70.8369 168.562 70.2168V65.1045H169.837V69.9092C169.837 70.6172 169.974 71.1445 170.247 71.4912C170.525 71.8379 170.979 72.0112 171.609 72.0112C171.956 72.0112 172.261 71.96 172.525 71.8574C172.793 71.7549 173.018 71.6084 173.199 71.418C173.379 71.2227 173.514 70.9883 173.602 70.7148C173.694 70.4365 173.741 70.124 173.741 69.7773V65.1045H175.015V73H173.741V71.8208H173.624C173.497 72.0991 173.323 72.3384 173.104 72.5386C172.884 72.7339 172.62 72.8828 172.312 72.9854C172.01 73.0879 171.666 73.1392 171.28 73.1392ZM177.359 73V65.1045H178.634V66.2764H178.751C178.902 65.8613 179.159 65.5391 179.52 65.3096C179.881 65.0801 180.328 64.9653 180.86 64.9653C180.983 64.9653 181.102 64.9727 181.219 64.9873C181.341 64.9971 181.434 65.0068 181.498 65.0166V66.2544C181.366 66.23 181.236 66.2129 181.109 66.2031C180.987 66.1885 180.856 66.1812 180.714 66.1812C180.309 66.1812 179.95 66.2617 179.637 66.4229C179.325 66.584 179.078 66.8086 178.898 67.0967C178.722 67.3848 178.634 67.7217 178.634 68.1074V73H177.359ZM187.746 73V66.1592H186.435V65.1045H187.746V64.2256C187.746 63.6982 187.832 63.2637 188.003 62.9219C188.179 62.5752 188.437 62.3188 188.779 62.1528C189.121 61.9819 189.541 61.8965 190.039 61.8965C190.195 61.8965 190.342 61.9038 190.478 61.9185C190.62 61.9282 190.757 61.9453 190.889 61.9697V62.9878C190.81 62.9731 190.72 62.9634 190.618 62.9585C190.515 62.9536 190.408 62.9512 190.295 62.9512C189.841 62.9512 189.514 63.061 189.314 63.2808C189.119 63.5005 189.021 63.8276 189.021 64.2622V65.1045H190.815V66.1592H189.021V73H187.746ZM192.647 73V65.1045H193.921V73H192.647ZM193.292 63.5811C193.052 63.5811 192.845 63.4956 192.669 63.3247C192.498 63.1489 192.413 62.9414 192.413 62.7021C192.413 62.458 192.498 62.2505 192.669 62.0796C192.845 61.9087 193.052 61.8232 193.292 61.8232C193.536 61.8232 193.743 61.9087 193.914 62.0796C194.085 62.2505 194.17 62.458 194.17 62.7021C194.17 62.9414 194.085 63.1489 193.914 63.3247C193.743 63.4956 193.536 63.5811 193.292 63.5811ZM196.288 73V65.1045H197.562V66.2764H197.679C197.831 65.8613 198.087 65.5391 198.448 65.3096C198.81 65.0801 199.257 64.9653 199.789 64.9653C199.911 64.9653 200.03 64.9727 200.148 64.9873C200.27 64.9971 200.362 65.0068 200.426 65.0166V66.2544C200.294 66.23 200.165 66.2129 200.038 66.2031C199.916 66.1885 199.784 66.1812 199.642 66.1812C199.237 66.1812 198.878 66.2617 198.566 66.4229C198.253 66.584 198.007 66.8086 197.826 67.0967C197.65 67.3848 197.562 67.7217 197.562 68.1074V73H196.288ZM204.528 73.1392C203.942 73.1392 203.425 73.0513 202.975 72.8755C202.526 72.6948 202.165 72.4434 201.891 72.1211C201.623 71.7988 201.464 71.4204 201.415 70.9858H202.719C202.826 71.313 203.036 71.5767 203.349 71.7769C203.661 71.9771 204.069 72.0771 204.572 72.0771C204.929 72.0771 205.241 72.0259 205.51 71.9233C205.783 71.8159 205.998 71.6719 206.154 71.4912C206.31 71.3057 206.388 71.0933 206.388 70.854V70.8394C206.388 70.5708 206.281 70.3438 206.066 70.1582C205.851 69.9678 205.5 69.814 205.012 69.6968L203.788 69.4038C203.295 69.2866 202.89 69.1353 202.573 68.9497C202.255 68.7593 202.021 68.5273 201.869 68.2539C201.718 67.9756 201.642 67.6484 201.642 67.2725V67.2651C201.642 66.8257 201.769 66.4326 202.023 66.0859C202.282 65.7393 202.634 65.4658 203.078 65.2656C203.522 65.0654 204.023 64.9653 204.579 64.9653C205.131 64.9653 205.619 65.0532 206.044 65.229C206.474 65.3999 206.818 65.644 207.077 65.9614C207.341 66.2788 207.502 66.6523 207.56 67.082H206.308C206.225 66.7695 206.034 66.5156 205.737 66.3203C205.439 66.125 205.051 66.0273 204.572 66.0273C204.26 66.0273 203.981 66.0786 203.737 66.1812C203.493 66.2788 203.3 66.4155 203.159 66.5913C203.017 66.7671 202.946 66.9722 202.946 67.2065V67.2212C202.946 67.397 202.992 67.5532 203.085 67.6899C203.178 67.8267 203.322 67.9463 203.517 68.0488C203.713 68.1514 203.964 68.2417 204.272 68.3198L205.488 68.6128C206.23 68.7935 206.782 69.0522 207.143 69.3892C207.509 69.7261 207.692 70.1777 207.692 70.7441V70.7588C207.692 71.2275 207.553 71.6426 207.275 72.0039C206.996 72.3604 206.618 72.6387 206.139 72.8389C205.666 73.0391 205.129 73.1392 204.528 73.1392ZM212.366 73.0586C211.555 73.0586 210.967 72.895 210.601 72.5679C210.239 72.2407 210.059 71.7012 210.059 70.9492V66.1592H208.813V65.1045H210.059V63.061H211.377V65.1045H213.105V66.1592H211.377V70.627C211.377 71.0908 211.465 71.4253 211.641 71.6304C211.816 71.8306 212.109 71.9307 212.519 71.9307C212.632 71.9307 212.727 71.9282 212.805 71.9233C212.888 71.9185 212.988 71.9111 213.105 71.9014V72.9854C212.983 73.0049 212.861 73.022 212.739 73.0366C212.617 73.0513 212.493 73.0586 212.366 73.0586ZM221.866 73.1392C221.28 73.1392 220.763 73.0513 220.314 72.8755C219.864 72.6948 219.503 72.4434 219.23 72.1211C218.961 71.7988 218.802 71.4204 218.754 70.9858H220.057C220.165 71.313 220.375 71.5767 220.687 71.7769C221 71.9771 221.407 72.0771 221.91 72.0771C222.267 72.0771 222.579 72.0259 222.848 71.9233C223.121 71.8159 223.336 71.6719 223.492 71.4912C223.649 71.3057 223.727 71.0933 223.727 70.854V70.8394C223.727 70.5708 223.619 70.3438 223.405 70.1582C223.19 69.9678 222.838 69.814 222.35 69.6968L221.127 69.4038C220.634 69.2866 220.228 69.1353 219.911 68.9497C219.593 68.7593 219.359 68.5273 219.208 68.2539C219.056 67.9756 218.981 67.6484 218.981 67.2725V67.2651C218.981 66.8257 219.108 66.4326 219.362 66.0859C219.62 65.7393 219.972 65.4658 220.416 65.2656C220.861 65.0654 221.361 64.9653 221.918 64.9653C222.469 64.9653 222.958 65.0532 223.383 65.229C223.812 65.3999 224.156 65.644 224.415 65.9614C224.679 66.2788 224.84 66.6523 224.899 67.082H223.646C223.563 66.7695 223.373 66.5156 223.075 66.3203C222.777 66.125 222.389 66.0273 221.91 66.0273C221.598 66.0273 221.32 66.0786 221.075 66.1812C220.831 66.2788 220.638 66.4155 220.497 66.5913C220.355 66.7671 220.284 66.9722 220.284 67.2065V67.2212C220.284 67.397 220.331 67.5532 220.424 67.6899C220.516 67.8267 220.66 67.9463 220.856 68.0488C221.051 68.1514 221.302 68.2417 221.61 68.3198L222.826 68.6128C223.568 68.7935 224.12 69.0522 224.481 69.3892C224.847 69.7261 225.03 70.1777 225.03 70.7441V70.7588C225.03 71.2275 224.891 71.6426 224.613 72.0039C224.335 72.3604 223.956 72.6387 223.478 72.8389C223.004 73.0391 222.467 73.1392 221.866 73.1392ZM229.616 73.1392C229.02 73.1392 228.52 73.0269 228.115 72.8022C227.709 72.5728 227.404 72.2407 227.199 71.8062C226.999 71.3667 226.899 70.8369 226.899 70.2168V65.1045H228.173V69.9092C228.173 70.6172 228.31 71.1445 228.583 71.4912C228.862 71.8379 229.316 72.0112 229.946 72.0112C230.292 72.0112 230.598 71.96 230.861 71.8574C231.13 71.7549 231.354 71.6084 231.535 71.418C231.716 71.2227 231.85 70.9883 231.938 70.7148C232.031 70.4365 232.077 70.124 232.077 69.7773V65.1045H233.351V73H232.077V71.8208H231.96C231.833 72.0991 231.66 72.3384 231.44 72.5386C231.22 72.7339 230.956 72.8828 230.649 72.9854C230.346 73.0879 230.002 73.1392 229.616 73.1392ZM238.926 73.1392C238.188 73.1392 237.549 72.9707 237.007 72.6338C236.465 72.2969 236.045 71.8208 235.747 71.2056C235.449 70.5903 235.3 69.8652 235.3 69.0303V69.0156C235.3 68.1953 235.447 67.4824 235.74 66.877C236.038 66.2715 236.458 65.8027 236.999 65.4707C237.541 65.1338 238.181 64.9653 238.918 64.9653C239.558 64.9653 240.11 65.0776 240.574 65.3022C241.038 65.5269 241.409 65.8296 241.687 66.2104C241.965 66.5864 242.144 67.0088 242.222 67.4775L242.229 67.5215H240.962L240.955 67.4995C240.857 67.1089 240.635 66.7769 240.288 66.5034C239.941 66.23 239.485 66.0933 238.918 66.0933C238.445 66.0933 238.035 66.2129 237.688 66.4521C237.341 66.6914 237.073 67.0308 236.882 67.4702C236.697 67.9048 236.604 68.4199 236.604 69.0156V69.0303C236.604 69.6357 236.699 70.1631 236.89 70.6123C237.08 71.0566 237.349 71.4009 237.695 71.645C238.042 71.8892 238.45 72.0112 238.918 72.0112C239.451 72.0112 239.885 71.8965 240.222 71.667C240.559 71.4375 240.801 71.103 240.947 70.6636L240.962 70.6196L242.222 70.6123L242.207 70.6929C242.1 71.1665 241.909 71.5889 241.636 71.96C241.362 72.3262 241.001 72.6143 240.552 72.8242C240.103 73.0342 239.561 73.1392 238.926 73.1392ZM247.283 73.1392C246.546 73.1392 245.906 72.9707 245.364 72.6338C244.822 72.2969 244.402 71.8208 244.105 71.2056C243.807 70.5903 243.658 69.8652 243.658 69.0303V69.0156C243.658 68.1953 243.804 67.4824 244.097 66.877C244.395 66.2715 244.815 65.8027 245.357 65.4707C245.899 65.1338 246.539 64.9653 247.276 64.9653C247.916 64.9653 248.467 65.0776 248.931 65.3022C249.395 65.5269 249.766 65.8296 250.045 66.2104C250.323 66.5864 250.501 67.0088 250.579 67.4775L250.587 67.5215H249.319L249.312 67.4995C249.214 67.1089 248.992 66.7769 248.646 66.5034C248.299 66.23 247.842 66.0933 247.276 66.0933C246.802 66.0933 246.392 66.2129 246.046 66.4521C245.699 66.6914 245.43 67.0308 245.24 67.4702C245.054 67.9048 244.962 68.4199 244.962 69.0156V69.0303C244.962 69.6357 245.057 70.1631 245.247 70.6123C245.438 71.0566 245.706 71.4009 246.053 71.645C246.4 71.8892 246.807 72.0112 247.276 72.0112C247.808 72.0112 248.243 71.8965 248.58 71.667C248.917 71.4375 249.158 71.103 249.305 70.6636L249.319 70.6196L250.579 70.6123L250.565 70.6929C250.457 71.1665 250.267 71.5889 249.993 71.96C249.72 72.3262 249.359 72.6143 248.909 72.8242C248.46 73.0342 247.918 73.1392 247.283 73.1392ZM255.634 73.1392C254.882 73.1392 254.235 72.9731 253.693 72.6411C253.156 72.3091 252.74 71.8403 252.448 71.2349C252.159 70.6245 252.015 69.9067 252.015 69.0815V69.0742C252.015 68.2588 252.159 67.5435 252.448 66.9282C252.74 66.313 253.153 65.832 253.685 65.4854C254.218 65.1387 254.84 64.9653 255.553 64.9653C256.271 64.9653 256.886 65.1313 257.399 65.4634C257.916 65.7954 258.312 66.2593 258.585 66.855C258.864 67.4458 259.003 68.1343 259.003 68.9204V69.4185H252.675V68.4004H258.351L257.721 69.3306V68.8252C257.721 68.2051 257.628 67.6948 257.443 67.2944C257.257 66.894 257.001 66.5962 256.674 66.4009C256.346 66.2007 255.97 66.1006 255.546 66.1006C255.121 66.1006 254.74 66.2056 254.403 66.4155C254.071 66.6206 253.807 66.9258 253.612 67.3311C253.417 67.7363 253.319 68.2344 253.319 68.8252V69.3306C253.319 69.8921 253.414 70.373 253.605 70.7734C253.795 71.1689 254.066 71.4741 254.418 71.689C254.769 71.8989 255.184 72.0039 255.663 72.0039C256.019 72.0039 256.329 71.9551 256.593 71.8574C256.857 71.7598 257.074 71.6353 257.245 71.4839C257.416 71.3325 257.535 71.1787 257.604 71.0225L257.633 70.9565H258.907L258.893 71.0151C258.824 71.2837 258.702 71.5449 258.527 71.7988C258.356 72.0479 258.134 72.2749 257.86 72.48C257.587 72.6802 257.262 72.8413 256.886 72.9634C256.515 73.0806 256.097 73.1392 255.634 73.1392ZM263.654 73.1392C263.068 73.1392 262.551 73.0513 262.101 72.8755C261.652 72.6948 261.291 72.4434 261.017 72.1211C260.749 71.7988 260.59 71.4204 260.541 70.9858H261.845C261.953 71.313 262.162 71.5767 262.475 71.7769C262.787 71.9771 263.195 72.0771 263.698 72.0771C264.055 72.0771 264.367 72.0259 264.636 71.9233C264.909 71.8159 265.124 71.6719 265.28 71.4912C265.436 71.3057 265.515 71.0933 265.515 70.854V70.8394C265.515 70.5708 265.407 70.3438 265.192 70.1582C264.977 69.9678 264.626 69.814 264.138 69.6968L262.914 69.4038C262.421 69.2866 262.016 69.1353 261.699 68.9497C261.381 68.7593 261.147 68.5273 260.995 68.2539C260.844 67.9756 260.768 67.6484 260.768 67.2725V67.2651C260.768 66.8257 260.895 66.4326 261.149 66.0859C261.408 65.7393 261.76 65.4658 262.204 65.2656C262.648 65.0654 263.149 64.9653 263.705 64.9653C264.257 64.9653 264.745 65.0532 265.17 65.229C265.6 65.3999 265.944 65.644 266.203 65.9614C266.467 66.2788 266.628 66.6523 266.686 67.082H265.434C265.351 66.7695 265.161 66.5156 264.863 66.3203C264.565 66.125 264.177 66.0273 263.698 66.0273C263.386 66.0273 263.107 66.0786 262.863 66.1812C262.619 66.2788 262.426 66.4155 262.285 66.5913C262.143 66.7671 262.072 66.9722 262.072 67.2065V67.2212C262.072 67.397 262.119 67.5532 262.211 67.6899C262.304 67.8267 262.448 67.9463 262.643 68.0488C262.839 68.1514 263.09 68.2417 263.398 68.3198L264.614 68.6128C265.356 68.7935 265.908 69.0522 266.269 69.3892C266.635 69.7261 266.818 70.1777 266.818 70.7441V70.7588C266.818 71.2275 266.679 71.6426 266.401 72.0039C266.122 72.3604 265.744 72.6387 265.266 72.8389C264.792 73.0391 264.255 73.1392 263.654 73.1392ZM271.323 73.1392C270.737 73.1392 270.22 73.0513 269.771 72.8755C269.321 72.6948 268.96 72.4434 268.687 72.1211C268.418 71.7988 268.259 71.4204 268.21 70.9858H269.514C269.622 71.313 269.832 71.5767 270.144 71.7769C270.457 71.9771 270.864 72.0771 271.367 72.0771C271.724 72.0771 272.036 72.0259 272.305 71.9233C272.578 71.8159 272.793 71.6719 272.949 71.4912C273.105 71.3057 273.184 71.0933 273.184 70.854V70.8394C273.184 70.5708 273.076 70.3438 272.861 70.1582C272.647 69.9678 272.295 69.814 271.807 69.6968L270.584 69.4038C270.09 69.2866 269.685 69.1353 269.368 68.9497C269.05 68.7593 268.816 68.5273 268.665 68.2539C268.513 67.9756 268.438 67.6484 268.438 67.2725V67.2651C268.438 66.8257 268.564 66.4326 268.818 66.0859C269.077 65.7393 269.429 65.4658 269.873 65.2656C270.317 65.0654 270.818 64.9653 271.375 64.9653C271.926 64.9653 272.415 65.0532 272.839 65.229C273.269 65.3999 273.613 65.644 273.872 65.9614C274.136 66.2788 274.297 66.6523 274.355 67.082H273.103C273.02 66.7695 272.83 66.5156 272.532 66.3203C272.234 66.125 271.846 66.0273 271.367 66.0273C271.055 66.0273 270.776 66.0786 270.532 66.1812C270.288 66.2788 270.095 66.4155 269.954 66.5913C269.812 66.7671 269.741 66.9722 269.741 67.2065V67.2212C269.741 67.397 269.788 67.5532 269.88 67.6899C269.973 67.8267 270.117 67.9463 270.313 68.0488C270.508 68.1514 270.759 68.2417 271.067 68.3198L272.283 68.6128C273.025 68.7935 273.577 69.0522 273.938 69.3892C274.304 69.7261 274.487 70.1777 274.487 70.7441V70.7588C274.487 71.2275 274.348 71.6426 274.07 72.0039C273.792 72.3604 273.413 72.6387 272.935 72.8389C272.461 73.0391 271.924 73.1392 271.323 73.1392ZM276.956 73V66.1592H275.645V65.1045H276.956V64.2256C276.956 63.6982 277.042 63.2637 277.213 62.9219C277.388 62.5752 277.647 62.3188 277.989 62.1528C278.331 61.9819 278.751 61.8965 279.249 61.8965C279.405 61.8965 279.551 61.9038 279.688 61.9185C279.83 61.9282 279.966 61.9453 280.098 61.9697V62.9878C280.02 62.9731 279.93 62.9634 279.827 62.9585C279.725 62.9536 279.617 62.9512 279.505 62.9512C279.051 62.9512 278.724 63.061 278.524 63.2808C278.328 63.5005 278.231 63.8276 278.231 64.2622V65.1045H280.025V66.1592H278.231V73H276.956ZM284.471 73.1392C283.876 73.1392 283.375 73.0269 282.97 72.8022C282.565 72.5728 282.26 72.2407 282.055 71.8062C281.854 71.3667 281.754 70.8369 281.754 70.2168V65.1045H283.029V69.9092C283.029 70.6172 283.165 71.1445 283.439 71.4912C283.717 71.8379 284.171 72.0112 284.801 72.0112C285.148 72.0112 285.453 71.96 285.717 71.8574C285.985 71.7549 286.21 71.6084 286.39 71.418C286.571 71.2227 286.705 70.9883 286.793 70.7148C286.886 70.4365 286.932 70.124 286.932 69.7773V65.1045H288.207V73H286.932V71.8208H286.815C286.688 72.0991 286.515 72.3384 286.295 72.5386C286.076 72.7339 285.812 72.8828 285.504 72.9854C285.201 73.0879 284.857 73.1392 284.471 73.1392ZM290.624 73V61.9697H291.899V73H290.624ZM301.202 73.1392C300.616 73.1392 300.098 73.0513 299.649 72.8755C299.2 72.6948 298.839 72.4434 298.565 72.1211C298.297 71.7988 298.138 71.4204 298.089 70.9858H299.393C299.5 71.313 299.71 71.5767 300.023 71.7769C300.335 71.9771 300.743 72.0771 301.246 72.0771C301.602 72.0771 301.915 72.0259 302.183 71.9233C302.457 71.8159 302.672 71.6719 302.828 71.4912C302.984 71.3057 303.062 71.0933 303.062 70.854V70.8394C303.062 70.5708 302.955 70.3438 302.74 70.1582C302.525 69.9678 302.174 69.814 301.685 69.6968L300.462 69.4038C299.969 69.2866 299.564 69.1353 299.246 68.9497C298.929 68.7593 298.695 68.5273 298.543 68.2539C298.392 67.9756 298.316 67.6484 298.316 67.2725V67.2651C298.316 66.8257 298.443 66.4326 298.697 66.0859C298.956 65.7393 299.307 65.4658 299.752 65.2656C300.196 65.0654 300.697 64.9653 301.253 64.9653C301.805 64.9653 302.293 65.0532 302.718 65.229C303.148 65.3999 303.492 65.644 303.751 65.9614C304.014 66.2788 304.176 66.6523 304.234 67.082H302.982C302.899 66.7695 302.708 66.5156 302.41 66.3203C302.113 66.125 301.724 66.0273 301.246 66.0273C300.933 66.0273 300.655 66.0786 300.411 66.1812C300.167 66.2788 299.974 66.4155 299.832 66.5913C299.691 66.7671 299.62 66.9722 299.62 67.2065V67.2212C299.62 67.397 299.666 67.5532 299.759 67.6899C299.852 67.8267 299.996 67.9463 300.191 68.0488C300.386 68.1514 300.638 68.2417 300.946 68.3198L302.161 68.6128C302.904 68.7935 303.455 69.0522 303.817 69.3892C304.183 69.7261 304.366 70.1777 304.366 70.7441V70.7588C304.366 71.2275 304.227 71.6426 303.948 72.0039C303.67 72.3604 303.292 72.6387 302.813 72.8389C302.34 73.0391 301.802 73.1392 301.202 73.1392ZM308.475 73.1392C307.977 73.1392 307.528 73.0439 307.128 72.8535C306.732 72.6631 306.417 72.3921 306.183 72.0405C305.953 71.689 305.839 71.2739 305.839 70.7954V70.7808C305.839 70.312 305.951 69.9116 306.176 69.5796C306.4 69.2427 306.727 68.979 307.157 68.7886C307.587 68.5981 308.107 68.4858 308.717 68.4517L311.618 68.2759V69.2939L308.871 69.4697C308.27 69.5039 307.831 69.6284 307.553 69.8433C307.279 70.0581 307.142 70.3608 307.142 70.7515V70.7661C307.142 71.1665 307.294 71.479 307.597 71.7036C307.899 71.9233 308.28 72.0332 308.739 72.0332C309.174 72.0332 309.559 71.9478 309.896 71.7769C310.233 71.6011 310.497 71.3643 310.687 71.0664C310.883 70.7686 310.98 70.4316 310.98 70.0557V67.5947C310.98 67.1064 310.831 66.7354 310.534 66.4814C310.241 66.2227 309.799 66.0933 309.208 66.0933C308.734 66.0933 308.346 66.1787 308.043 66.3496C307.741 66.5156 307.538 66.7524 307.435 67.0601L307.428 67.082H306.154L306.161 67.0381C306.229 66.623 306.4 66.2617 306.674 65.9541C306.952 65.6416 307.311 65.3999 307.75 65.229C308.19 65.0532 308.69 64.9653 309.252 64.9653C309.896 64.9653 310.441 65.0703 310.885 65.2803C311.334 65.4902 311.674 65.793 311.903 66.1885C312.138 66.5791 312.255 67.0479 312.255 67.5947V73H310.98V71.8354H310.863C310.697 72.1138 310.494 72.3506 310.255 72.5459C310.021 72.7412 309.755 72.8901 309.457 72.9927C309.159 73.0903 308.832 73.1392 308.475 73.1392ZM314.621 73V61.9697H315.895V73H314.621ZM321.528 73.1392C320.776 73.1392 320.13 72.9731 319.588 72.6411C319.05 72.3091 318.635 71.8403 318.342 71.2349C318.054 70.6245 317.91 69.9067 317.91 69.0815V69.0742C317.91 68.2588 318.054 67.5435 318.342 66.9282C318.635 66.313 319.048 65.832 319.58 65.4854C320.112 65.1387 320.735 64.9653 321.448 64.9653C322.166 64.9653 322.781 65.1313 323.294 65.4634C323.811 65.7954 324.207 66.2593 324.48 66.855C324.758 67.4458 324.898 68.1343 324.898 68.9204V69.4185H318.569V68.4004H324.246L323.616 69.3306V68.8252C323.616 68.2051 323.523 67.6948 323.338 67.2944C323.152 66.894 322.896 66.5962 322.568 66.4009C322.241 66.2007 321.865 66.1006 321.441 66.1006C321.016 66.1006 320.635 66.2056 320.298 66.4155C319.966 66.6206 319.702 66.9258 319.507 67.3311C319.312 67.7363 319.214 68.2344 319.214 68.8252V69.3306C319.214 69.8921 319.309 70.373 319.5 70.7734C319.69 71.1689 319.961 71.4741 320.313 71.689C320.664 71.8989 321.079 72.0039 321.558 72.0039C321.914 72.0039 322.224 71.9551 322.488 71.8574C322.752 71.7598 322.969 71.6353 323.14 71.4839C323.311 71.3325 323.43 71.1787 323.499 71.0225L323.528 70.9565H324.802L324.788 71.0151C324.719 71.2837 324.597 71.5449 324.422 71.7988C324.251 72.0479 324.028 72.2749 323.755 72.48C323.482 72.6802 323.157 72.8413 322.781 72.9634C322.41 73.0806 321.992 73.1392 321.528 73.1392ZM19.8306 93.1392C19.2349 93.1392 18.7344 93.0269 18.3291 92.8022C17.9238 92.5728 17.6187 92.2407 17.4136 91.8062C17.2134 91.3667 17.1133 90.8369 17.1133 90.2168V85.1045H18.3877V89.9092C18.3877 90.6172 18.5244 91.1445 18.7979 91.4912C19.0762 91.8379 19.5303 92.0112 20.1602 92.0112C20.5068 92.0112 20.812 91.96 21.0757 91.8574C21.3442 91.7549 21.5688 91.6084 21.7495 91.418C21.9302 91.2227 22.0645 90.9883 22.1523 90.7148C22.2451 90.4365 22.2915 90.124 22.2915 89.7773V85.1045H23.5659V93H22.2915V91.8208H22.1743C22.0474 92.0991 21.874 92.3384 21.6543 92.5386C21.4346 92.7339 21.1709 92.8828 20.8633 92.9854C20.5605 93.0879 20.2163 93.1392 19.8306 93.1392ZM25.9103 93V85.1045H27.1847V86.291H27.3019C27.5021 85.8711 27.7902 85.5464 28.1661 85.3169C28.5421 85.0825 29.0206 84.9653 29.6017 84.9653C30.4904 84.9653 31.1715 85.2192 31.6452 85.7271C32.1237 86.23 32.3629 86.9502 32.3629 87.8877V93H31.0885V88.1953C31.0885 87.4824 30.9371 86.9551 30.6344 86.6133C30.3366 86.2666 29.8727 86.0933 29.2428 86.0933C28.8229 86.0933 28.4591 86.1836 28.1515 86.3643C27.8439 86.5449 27.6046 86.8013 27.4337 87.1333C27.2677 87.4653 27.1847 87.8633 27.1847 88.3271V93H25.9103ZM37.5491 93.1392C36.885 93.1392 36.304 92.9707 35.8059 92.6338C35.3079 92.2969 34.9221 91.8232 34.6487 91.2129C34.3753 90.5977 34.2385 89.8799 34.2385 89.0596V89.0449C34.2385 88.2197 34.3753 87.502 34.6487 86.8916C34.9221 86.2812 35.3054 85.8076 35.7986 85.4707C36.2967 85.1338 36.8801 84.9653 37.5491 84.9653C37.9104 84.9653 38.2498 85.0239 38.5672 85.1411C38.8894 85.2534 39.1751 85.4121 39.4241 85.6172C39.6731 85.8223 39.8684 86.0664 40.01 86.3496H40.1272V81.9697H41.4016V93H40.1272V91.7402H40.01C39.8489 92.0332 39.6463 92.2847 39.4021 92.4946C39.158 92.6997 38.8797 92.8584 38.5672 92.9707C38.2547 93.083 37.9153 93.1392 37.5491 93.1392ZM37.8421 92.0112C38.3206 92.0112 38.7332 91.8916 39.0799 91.6523C39.4265 91.4131 39.6926 91.0737 39.8782 90.6343C40.0637 90.1899 40.1565 89.665 40.1565 89.0596V89.0449C40.1565 88.4346 40.0637 87.9097 39.8782 87.4702C39.6926 87.0308 39.4265 86.6914 39.0799 86.4521C38.7332 86.2129 38.3206 86.0933 37.8421 86.0933C37.3635 86.0933 36.9509 86.2129 36.6043 86.4521C36.2625 86.6865 35.9988 87.0234 35.8133 87.4629C35.6326 87.9023 35.5423 88.4297 35.5423 89.0449V89.0596C35.5423 89.6699 35.6326 90.1973 35.8133 90.6416C35.9988 91.0811 36.2625 91.4204 36.6043 91.6597C36.9509 91.894 37.3635 92.0112 37.8421 92.0112ZM47.0346 93.1392C46.2826 93.1392 45.6357 92.9731 45.0937 92.6411C44.5566 92.3091 44.1415 91.8403 43.8485 91.2349C43.5605 90.6245 43.4164 89.9067 43.4164 89.0815V89.0742C43.4164 88.2588 43.5605 87.5435 43.8485 86.9282C44.1415 86.313 44.5541 85.832 45.0863 85.4854C45.6186 85.1387 46.2411 84.9653 46.954 84.9653C47.6718 84.9653 48.287 85.1313 48.7997 85.4634C49.3173 85.7954 49.7128 86.2593 49.9862 86.855C50.2646 87.4458 50.4037 88.1343 50.4037 88.9204V89.4185H44.0756V88.4004H49.7519L49.122 89.3306V88.8252C49.122 88.2051 49.0292 87.6948 48.8437 87.2944C48.6581 86.894 48.4018 86.5962 48.0746 86.4009C47.7475 86.2007 47.3715 86.1006 46.9467 86.1006C46.5219 86.1006 46.141 86.2056 45.8041 86.4155C45.4721 86.6206 45.2084 86.9258 45.0131 87.3311C44.8178 87.7363 44.7201 88.2344 44.7201 88.8252V89.3306C44.7201 89.8921 44.8153 90.373 45.0058 90.7734C45.1962 91.1689 45.4672 91.4741 45.8188 91.689C46.1703 91.8989 46.5854 92.0039 47.0639 92.0039C47.4203 92.0039 47.7304 91.9551 47.9941 91.8574C48.2577 91.7598 48.475 91.6353 48.6459 91.4839C48.8168 91.3325 48.9364 91.1787 49.0048 91.0225L49.0341 90.9565H50.3085L50.2939 91.0151C50.2255 91.2837 50.1034 91.5449 49.9276 91.7988C49.7567 92.0479 49.5346 92.2749 49.2611 92.48C48.9877 92.6802 48.663 92.8413 48.287 92.9634C47.9159 93.0806 47.4984 93.1392 47.0346 93.1392ZM52.3453 93V85.1045H53.6197V86.2764H53.7369C53.8882 85.8613 54.1446 85.5391 54.5059 85.3096C54.8672 85.0801 55.314 84.9653 55.8462 84.9653C55.9683 84.9653 56.0879 84.9727 56.2051 84.9873C56.3272 84.9971 56.42 85.0068 56.4834 85.0166V86.2544C56.3516 86.23 56.2222 86.2129 56.0953 86.2031C55.9732 86.1885 55.8414 86.1812 55.6997 86.1812C55.2945 86.1812 54.9356 86.2617 54.6231 86.4229C54.3106 86.584 54.064 86.8086 53.8833 87.0967C53.7076 87.3848 53.6197 87.7217 53.6197 88.1074V93H52.3453ZM65.7864 92.8462C65.137 92.8462 64.534 92.729 63.9774 92.4946C63.4207 92.2603 62.9691 91.9233 62.6224 91.4839C62.2806 91.0444 62.0975 90.5171 62.0731 89.9019V89.8945L63.3475 89.8872V89.9019C63.3963 90.2388 63.5111 90.5439 63.6917 90.8174C63.8724 91.0908 64.1336 91.3081 64.4754 91.4692C64.8221 91.6255 65.264 91.7036 65.8011 91.7036C66.3528 91.7036 66.7947 91.6304 67.1268 91.4839C67.4637 91.3325 67.7078 91.1323 67.8592 90.8833C68.0106 90.6294 68.0862 90.3511 68.0862 90.0483V90.0337C68.0862 89.6333 67.9593 89.3013 67.7054 89.0376C67.4564 88.769 66.9681 88.5469 66.2405 88.3711L65.1492 88.1074C64.5438 87.9609 64.0311 87.7705 63.6111 87.5361C63.1961 87.2969 62.8812 87.0039 62.6663 86.6572C62.4515 86.3105 62.3441 85.8979 62.3441 85.4194V85.4048C62.3441 84.8335 62.493 84.3379 62.7908 83.918C63.0936 83.4932 63.5037 83.166 64.0213 82.9365C64.5389 82.7021 65.1273 82.585 65.7864 82.585C66.4163 82.585 66.9876 82.7046 67.5003 82.9438C68.0179 83.1831 68.4354 83.52 68.7528 83.9546C69.0701 84.3843 69.2386 84.8896 69.2581 85.4707V85.478L67.9837 85.4854V85.4707C67.9495 85.0996 67.8323 84.7847 67.6321 84.5259C67.4368 84.2671 67.1805 84.0693 66.8631 83.9326C66.5457 83.7959 66.1868 83.7275 65.7864 83.7275C65.3128 83.7275 64.9149 83.8057 64.5926 83.9619C64.2703 84.1133 64.0262 84.311 63.8602 84.5552C63.699 84.7944 63.6185 85.0483 63.6185 85.3169V85.3315C63.6185 85.5659 63.6722 85.7832 63.7796 85.9834C63.8919 86.1836 64.0726 86.3618 64.3216 86.5181C64.5706 86.6743 64.9075 86.8037 65.3323 86.9062L66.4236 87.1699C67.366 87.3945 68.0911 87.7192 68.5989 88.144C69.1068 88.5688 69.3607 89.1646 69.3607 89.9312V89.9458C69.3607 90.5757 69.1946 91.1079 68.8626 91.5425C68.5306 91.9722 68.0936 92.2969 67.5516 92.5166C67.0096 92.7363 66.4212 92.8462 65.7864 92.8462ZM65.3177 94.062V81.3691H66.1966V94.062H65.3177ZM75.0815 93.249C74.4272 93.249 73.8437 93.1196 73.331 92.8608C72.8183 92.6021 72.4057 92.2505 72.0932 91.8062C71.7856 91.3569 71.6049 90.8516 71.5512 90.29L71.5439 90.2095H72.811L72.8183 90.2681C72.8623 90.605 72.9843 90.9126 73.1845 91.1909C73.3896 91.4644 73.6557 91.6816 73.9829 91.8428C74.3149 92.0039 74.686 92.0845 75.0961 92.0845C75.5649 92.0845 75.9775 91.9819 76.3339 91.7769C76.6904 91.5669 76.9687 91.2788 77.1689 90.9126C77.3691 90.5464 77.4692 90.1265 77.4692 89.6528V89.6382C77.4692 89.1694 77.3667 88.7544 77.1616 88.3931C76.9614 88.0269 76.6855 87.7412 76.3339 87.5361C75.9824 87.3311 75.5771 87.2285 75.1181 87.2285C74.7666 87.2285 74.4418 87.2822 74.144 87.3896C73.851 87.4971 73.5898 87.6582 73.3603 87.873C73.2675 87.9609 73.1796 88.0562 73.0966 88.1587C73.0185 88.2612 72.9453 88.376 72.8769 88.5029H71.7343L72.291 82.4312H78.1723V83.6104H73.331L72.9721 87.1846H73.0893C73.2456 86.9453 73.4384 86.7451 73.6679 86.584C73.8974 86.4229 74.1538 86.3008 74.437 86.2178C74.7251 86.1299 75.0278 86.0859 75.3452 86.0859C76.0092 86.0859 76.5976 86.2397 77.1103 86.5474C77.623 86.8501 78.0258 87.2676 78.3188 87.7998C78.6118 88.3271 78.7583 88.9326 78.7583 89.6162V89.6309C78.7583 90.3389 78.5996 90.9663 78.2822 91.5132C77.9697 92.0552 77.5376 92.48 76.9858 92.7876C76.434 93.0952 75.7993 93.249 75.0815 93.249ZM84.3839 93.249C83.6026 93.249 82.9337 93.0244 82.377 92.5752C81.8253 92.126 81.4005 91.4888 81.1026 90.6636C80.8048 89.8335 80.6558 88.8521 80.6558 87.7192V87.7046C80.6558 86.5718 80.8048 85.5928 81.1026 84.7676C81.4005 83.9424 81.8253 83.3052 82.377 82.856C82.9337 82.4067 83.6026 82.1821 84.3839 82.1821C85.1651 82.1821 85.8341 82.4067 86.3907 82.856C86.9474 83.3052 87.3746 83.9424 87.6725 84.7676C87.9752 85.5928 88.1266 86.5718 88.1266 87.7046V87.7192C88.1266 88.8521 87.9752 89.8335 87.6725 90.6636C87.3746 91.4888 86.9474 92.126 86.3907 92.5752C85.8341 93.0244 85.1651 93.249 84.3839 93.249ZM84.3839 92.0991C84.8917 92.0991 85.3238 91.9209 85.6803 91.5645C86.0416 91.208 86.3175 90.7026 86.5079 90.0483C86.7032 89.394 86.8009 88.6177 86.8009 87.7192V87.7046C86.8009 86.8062 86.7032 86.0322 86.5079 85.3828C86.3175 84.7285 86.0416 84.2256 85.6803 83.874C85.3238 83.5176 84.8917 83.3394 84.3839 83.3394C83.8809 83.3394 83.4488 83.5176 83.0875 83.874C82.731 84.2256 82.4576 84.7285 82.2672 85.3828C82.0767 86.0322 81.9815 86.8062 81.9815 87.7046V87.7192C81.9815 88.6177 82.0767 89.394 82.2672 90.0483C82.4576 90.7026 82.731 91.208 83.0875 91.5645C83.4488 91.9209 83.8809 92.0991 84.3839 92.0991ZM93.7961 93.249C93.0149 93.249 92.3459 93.0244 91.7893 92.5752C91.2375 92.126 90.8127 91.4888 90.5149 90.6636C90.217 89.8335 90.0681 88.8521 90.0681 87.7192V87.7046C90.0681 86.5718 90.217 85.5928 90.5149 84.7676C90.8127 83.9424 91.2375 83.3052 91.7893 82.856C92.3459 82.4067 93.0149 82.1821 93.7961 82.1821C94.5774 82.1821 95.2463 82.4067 95.803 82.856C96.3596 83.3052 96.7868 83.9424 97.0847 84.7676C97.3874 85.5928 97.5388 86.5718 97.5388 87.7046V87.7192C97.5388 88.8521 97.3874 89.8335 97.0847 90.6636C96.7868 91.4888 96.3596 92.126 95.803 92.5752C95.2463 93.0244 94.5774 93.249 93.7961 93.249ZM93.7961 92.0991C94.3039 92.0991 94.7361 91.9209 95.0925 91.5645C95.4538 91.208 95.7297 90.7026 95.9201 90.0483C96.1155 89.394 96.2131 88.6177 96.2131 87.7192V87.7046C96.2131 86.8062 96.1155 86.0322 95.9201 85.3828C95.7297 84.7285 95.4538 84.2256 95.0925 83.874C94.7361 83.5176 94.3039 83.3394 93.7961 83.3394C93.2932 83.3394 92.8611 83.5176 92.4997 83.874C92.1433 84.2256 91.8699 84.7285 91.6794 85.3828C91.489 86.0322 91.3938 86.8062 91.3938 87.7046V87.7192C91.3938 88.6177 91.489 89.394 91.6794 90.0483C91.8699 90.7026 92.1433 91.208 92.4997 91.5645C92.8611 91.9209 93.2932 92.0991 93.7961 92.0991Z"
        fill="#1C1C1C" fill-opacity="0.8" />
</svg>
