<svg width="402" height="164" viewBox="0 0 402 164" fill="none" xmlns="http://www.w3.org/2000/svg">
    <g clip-path="url(#clip0_303_6873)">
        <path
            d="M142.639 99.1589H142.176V86.5003C142.176 85.5382 141.986 84.5855 141.618 83.6966C141.249 82.8077 140.709 82 140.028 81.3197C139.347 80.6394 138.538 80.0997 137.648 79.7315C136.758 79.3633 135.804 79.1738 134.841 79.1738H107.991C106.046 79.1738 104.18 79.9457 102.805 81.3197C101.429 82.6937 100.656 84.5572 100.656 86.5003V155.946C100.656 156.908 100.846 157.861 101.215 158.75C101.583 159.639 102.123 160.447 102.805 161.127C103.486 161.807 104.294 162.347 105.184 162.715C106.074 163.083 107.028 163.273 107.991 163.273H134.841C136.786 163.273 138.652 162.501 140.028 161.127C141.403 159.753 142.176 157.889 142.176 155.946V108.17H142.639L142.639 99.1589Z"
            fill="#E5E5E5" />
        <path
            d="M135.137 81.0801H131.632C131.793 81.4748 131.854 81.903 131.811 82.3271C131.767 82.7511 131.62 83.1579 131.382 83.5117C131.144 83.8655 130.823 84.1554 130.446 84.3559C130.069 84.5563 129.649 84.6612 129.222 84.6612H113.84C113.414 84.6612 112.993 84.5563 112.617 84.3559C112.24 84.1554 111.919 83.8655 111.681 83.5117C111.443 83.1579 111.295 82.7511 111.252 82.3271C111.208 81.903 111.27 81.4748 111.431 81.0801H108.157C106.705 81.0801 105.311 81.6565 104.284 82.6826C103.257 83.7086 102.68 85.1003 102.68 86.5514V155.896C102.68 156.614 102.821 157.326 103.097 157.989C103.372 158.653 103.775 159.256 104.284 159.764C104.793 160.272 105.397 160.675 106.061 160.95C106.726 161.225 107.438 161.367 108.157 161.367H135.137C135.856 161.367 136.568 161.225 137.233 160.95C137.897 160.675 138.501 160.272 139.01 159.764C139.518 159.256 139.922 158.653 140.197 157.989C140.473 157.326 140.614 156.614 140.614 155.896V86.5514C140.614 85.8329 140.473 85.1214 140.197 84.4576C139.922 83.7938 139.518 83.1906 139.01 82.6826C138.501 82.1745 137.897 81.7715 137.233 81.4966C136.568 81.2216 135.856 81.0801 135.137 81.0801Z"
            fill="white" />
        <path d="M134.384 110.248H110.102V126.611H134.384V110.248Z" fill="white" />
        <path
            d="M134.47 126.695H110.02V110.164H134.47V126.695ZM110.187 126.527H134.302V110.331H110.187V126.527Z"
            fill="#1C1C1C" />
        <path d="M112.156 123.024H132.335V111.546H112.156V123.024Z" fill="#1C1C1C"
            fill-opacity="0.06" />
        <path
            d="M118.089 118.683C119.206 118.683 120.111 117.778 120.111 116.663C120.111 115.547 119.206 114.643 118.089 114.643C116.972 114.643 116.066 115.547 116.066 116.663C116.066 117.778 116.972 118.683 118.089 118.683Z"
            fill="#6C63FF" />
        <path
            d="M124.431 122.888H114.51C114.497 122.888 114.485 122.887 114.473 122.885L119.165 114.766C119.194 114.716 119.235 114.674 119.285 114.644C119.336 114.615 119.393 114.6 119.451 114.6C119.509 114.6 119.566 114.615 119.616 114.644C119.667 114.674 119.708 114.716 119.737 114.766L122.886 120.214L123.037 120.475L124.431 122.888Z"
            fill="#1C1C1C" />
        <path opacity="0.2"
            d="M124.434 122.887H121.047L122.71 120.475L122.829 120.301L122.889 120.214L123.04 120.475L124.434 122.887Z"
            fill="black" />
        <path
            d="M129.956 122.888H121.375L123.038 120.475L123.158 120.301L125.324 117.157C125.363 117.109 125.411 117.07 125.465 117.041C125.52 117.013 125.58 116.997 125.641 116.993C125.702 116.989 125.764 116.999 125.821 117.02C125.879 117.042 125.931 117.075 125.975 117.118C125.986 117.131 125.997 117.144 126.006 117.157L129.956 122.888Z"
            fill="#1C1C1C" />
        <path
            d="M193.284 163.335H128.201C126.659 163.334 125.18 162.721 124.089 161.631C122.998 160.542 122.385 159.064 122.383 157.524V63.2472C122.385 61.7064 122.998 60.2292 124.089 59.1397C125.18 58.0501 126.659 57.4373 128.201 57.4355H193.284C194.827 57.4373 196.306 58.0501 197.397 59.1397C198.487 60.2292 199.101 61.7064 199.103 63.2472V157.524C199.101 159.064 198.487 160.542 197.397 161.631C196.306 162.721 194.827 163.334 193.284 163.335Z"
            fill="#E5E5E5" />
        <path
            d="M193.399 159.627H128.087C127.611 159.627 127.155 159.438 126.819 159.102C126.483 158.766 126.294 158.311 126.293 157.836V62.9351C126.294 62.4601 126.483 62.0047 126.819 61.6689C127.155 61.333 127.611 61.1441 128.087 61.1436H193.399C193.874 61.1441 194.33 61.333 194.667 61.6689C195.003 62.0047 195.192 62.4601 195.192 62.9351V157.836C195.192 158.311 195.003 158.766 194.667 159.102C194.33 159.438 193.874 159.627 193.399 159.627Z"
            fill="white" />
        <path
            d="M160.495 59.7105C160.768 59.7105 160.99 59.4891 160.99 59.2161C160.99 58.943 160.768 58.7217 160.495 58.7217C160.222 58.7217 160 58.943 160 59.2161C160 59.4891 160.222 59.7105 160.495 59.7105Z"
            fill="white" />
        <path d="M187.963 88.2363H136.574V122.865H187.963V88.2363Z" fill="white" />
        <path
            d="M188.141 123.042H136.398V88.0586H188.141V123.042ZM136.753 122.688H187.787V88.4126H136.753V122.688Z"
            fill="#1C1C1C" />
        <path d="M140.918 115.274H183.621V90.9834H140.918V115.274Z" fill="#1C1C1C"
            fill-opacity="0.06" />
        <path
            d="M153.479 106.086C155.843 106.086 157.759 104.172 157.759 101.811C157.759 99.4501 155.843 97.5361 153.479 97.5361C151.115 97.5361 149.199 99.4501 149.199 101.811C149.199 104.172 151.115 106.086 153.479 106.086Z"
            fill="#6C63FF" />
        <path
            d="M166.903 114.985H145.907C145.88 114.985 145.854 114.983 145.828 114.979L155.758 97.7978C155.819 97.6908 155.907 97.6018 156.013 97.5399C156.12 97.4779 156.24 97.4453 156.363 97.4453C156.487 97.4453 156.607 97.4779 156.714 97.5399C156.82 97.6018 156.908 97.6908 156.969 97.7978L163.633 109.327L163.952 109.879L166.903 114.985Z"
            fill="#1C1C1C" />
        <path opacity="0.2"
            d="M166.903 114.985H159.734L163.253 109.88L163.507 109.512L163.633 109.328L163.952 109.88L166.903 114.985Z"
            fill="black" />
        <path
            d="M178.59 114.985H160.43L163.949 109.879L164.202 109.512L168.788 102.858C168.869 102.756 168.97 102.673 169.086 102.613C169.201 102.553 169.328 102.518 169.458 102.51C169.588 102.503 169.718 102.522 169.84 102.568C169.961 102.614 170.072 102.685 170.165 102.776C170.189 102.802 170.211 102.829 170.231 102.858L178.59 114.985Z"
            fill="#1C1C1C" />
        <path
            d="M257.902 162.216L254.608 160.831L252.348 144.335H222.253L219.803 160.763L216.856 162.235C216.715 162.306 216.602 162.422 216.535 162.564C216.468 162.707 216.451 162.868 216.487 163.021C216.524 163.174 216.611 163.311 216.734 163.409C216.858 163.506 217.011 163.56 217.169 163.56H257.631C257.792 163.56 257.949 163.504 258.074 163.402C258.199 163.299 258.285 163.157 258.317 162.999C258.349 162.841 258.325 162.676 258.249 162.534C258.174 162.391 258.051 162.279 257.902 162.216Z"
            fill="#1C1C1C" fill-opacity="0.06" />
        <path
            d="M311.383 146.529H163.547C162.772 146.528 162.028 146.219 161.481 145.67C160.933 145.122 160.625 144.379 160.625 143.604V122.781H314.305V143.604C314.305 144.379 313.998 145.122 313.45 145.67C312.902 146.219 312.159 146.528 311.383 146.529Z"
            fill="#CCCCCC" />
        <path
            d="M314.458 132.623H160.488V43.5266C160.489 42.5916 160.862 41.6952 161.524 41.0341C162.186 40.3729 163.083 40.001 164.019 40H310.927C311.863 40.001 312.761 40.3729 313.423 41.0341C314.085 41.6952 314.457 42.5916 314.458 43.5266V132.623Z"
            fill="#E5E5E5" />
        <path
            d="M305.265 126.156H169.687C168.965 126.156 168.273 125.869 167.763 125.359C167.253 124.85 166.966 124.158 166.965 123.438V49.1858C166.966 48.4649 167.253 47.7738 167.763 47.2641C168.273 46.7544 168.965 46.4676 169.687 46.4668H305.265C305.986 46.4676 306.678 46.7544 307.189 47.2641C307.699 47.7738 307.986 48.4649 307.987 49.1858V123.438C307.986 124.158 307.699 124.85 307.189 125.359C306.678 125.869 305.986 126.156 305.265 126.156Z"
            fill="white" />
        <path
            d="M324.656 164H77.3589C77.2808 164.002 77.2044 163.978 77.1416 163.931C77.0787 163.885 77.033 163.819 77.0114 163.744C76.9979 163.693 76.9964 163.64 77.0068 163.588C77.0173 163.537 77.0395 163.488 77.0717 163.446C77.1039 163.404 77.1453 163.371 77.1926 163.347C77.24 163.324 77.2921 163.312 77.3449 163.312H324.628C324.71 163.309 324.791 163.334 324.857 163.383C324.923 163.432 324.971 163.501 324.992 163.581C325.004 163.631 325.003 163.683 324.992 163.734C324.98 163.784 324.957 163.831 324.925 163.871C324.892 163.911 324.851 163.944 324.805 163.966C324.758 163.988 324.707 164 324.656 164Z"
            fill="#CCCCCC" />
        <path
            d="M269.68 72.7615C270.376 70.546 271.959 68.5141 274.148 67.7652C276.336 67.0162 280.155 67.7163 281.187 69.7952C282.675 72.7913 282.006 76.4605 281.218 79.7136C280.806 79.6918 280.391 79.6747 279.975 79.6592L279.386 77.6986V79.6398C276.136 79.5395 272.753 79.6023 269.369 79.6673C269.065 77.3642 268.984 74.9769 269.68 72.7615Z"
            fill="#2F2E41" />
        <path d="M299.539 157.181L296.805 158.325L291.086 148.338L295.12 146.649L299.539 157.181Z"
            fill="#9F616A" />
        <path
            d="M301.349 159.535L292.535 163.225L292.488 163.113C292.107 162.205 292.103 161.182 292.476 160.27C292.85 159.358 293.571 158.632 294.481 158.251L299.864 155.997L301.349 159.535Z"
            fill="#2F2E41" />
        <path
            d="M259.455 110.005C259.284 109.759 259.17 109.479 259.119 109.184C259.069 108.888 259.084 108.586 259.163 108.297C259.242 108.008 259.384 107.74 259.578 107.512C259.772 107.284 260.014 107.101 260.287 106.977L266.162 89.2686L270.097 91.3647L263.084 108.112C263.264 108.583 263.264 109.104 263.084 109.575C262.905 110.046 262.559 110.435 262.111 110.669C261.664 110.902 261.147 110.964 260.657 110.841C260.167 110.719 259.74 110.422 259.455 110.005Z"
            fill="#9F616A" />
        <path d="M266.698 160.355H263.734L262.324 148.937H266.699L266.698 160.355Z"
            fill="#9F616A" />
        <path
            d="M267.455 163.225L257.898 163.225V163.104C257.899 162.119 258.29 161.174 258.988 160.477C259.686 159.78 260.632 159.389 261.618 159.389L267.455 159.389L267.455 163.225Z"
            fill="#2F2E41" />
        <path
            d="M278.579 95.408L279.251 97.152L279.117 98.8961L266.223 97.2862L266.626 95.8105L268.103 94.0664L278.579 95.408Z"
            fill="#9F616A" />
        <path
            d="M274.425 79.7136C277.017 79.7136 279.119 77.6143 279.119 75.0248C279.119 72.4352 277.017 70.3359 274.425 70.3359C271.832 70.3359 269.73 72.4352 269.73 75.0248C269.73 77.6143 271.832 79.7136 274.425 79.7136Z"
            fill="#9F616A" />
        <path
            d="M269.447 83.0655L272.133 81.4556L277.505 80.9189L282.254 81.9922L282.206 90.7124L279.251 97.152L266.626 95.8104L266.089 94.0558C266.089 94.0558 262.597 89.3709 266.357 86.6877L269.447 83.0655Z"
            fill="#6C63FF" />
        <path
            d="M270.118 83.4679L269.446 83.0654C269.446 83.0654 265.82 83.7362 265.014 85.8827C264.208 88.0293 263.402 97.6886 263.402 97.6886L266.76 98.0868L267.969 90.1758L270.118 83.4679Z"
            fill="#6C63FF" />
        <path
            d="M279.254 98.2251V101.205C279.254 101.205 282.746 105.738 280.866 109.226C280.866 109.226 284.895 116.739 285.164 119.422L288.925 131.764C288.925 131.764 298.326 141.155 297.521 147.863L298.058 150.01L291.879 152.693L290.536 150.815L280.06 132.838L271.195 116.471L269.584 135.789C269.584 135.789 270.658 150.815 267.703 152.425L267.435 154.84H261.164V152.544C261.164 152.544 258.839 144.375 260.182 138.204L259.645 112.177C259.645 112.177 262.062 101.177 265.017 99.2984L266.092 96.6152L279.254 98.2251Z"
            fill="#2F2E41" />
        <path
            d="M271.199 68.9184C272.101 68.3691 273.134 68.072 274.191 68.0581C275.247 68.0442 276.288 68.314 277.204 68.8393C278.12 69.3646 278.878 70.1261 279.399 71.0442C279.919 71.9623 280.183 73.0032 280.163 74.0582C277.539 74.1787 274.783 74.2101 271.988 74.2155L271.328 72.6008L270.938 74.2167C270.086 74.2166 269.233 74.2155 268.378 74.2134C268.343 73.1614 268.586 72.1187 269.081 71.1895C269.576 70.2603 270.306 69.4772 271.199 68.9184Z"
            fill="#2F2E41" />
        <path d="M263.584 69.4903L200.387 85.543L211.229 128.129L274.426 112.077L263.584 69.4903Z"
            fill="white" />
        <path
            d="M274.699 112.239L211.067 128.402L200.113 85.3802L263.746 69.2168L274.699 112.239ZM211.392 127.856L274.153 111.914L263.421 69.7629L200.66 85.7048L211.392 127.856Z"
            fill="#1C1C1C" />
        <path d="M214.191 117.438L266.707 104.098L259.102 74.2256L206.586 87.5652L214.191 117.438Z"
            fill="#1C1C1C" fill-opacity="0.06" />
        <path
            d="M225.427 102.382C228.427 102.382 230.858 99.9529 230.858 96.9569C230.858 93.961 228.427 91.5322 225.427 91.5322C222.428 91.5322 219.996 93.961 219.996 96.9569C219.996 99.9529 222.428 102.382 225.427 102.382Z"
            fill="#6C63FF" />
        <path
            d="M246.056 108.965L220.235 115.524C220.203 115.532 220.17 115.538 220.137 115.541L226.969 91.3099C227.011 91.1594 227.091 91.0224 227.202 90.9131C227.314 90.8037 227.452 90.7258 227.603 90.6873C227.755 90.6489 227.914 90.6513 228.064 90.6942C228.214 90.7372 228.35 90.8192 228.458 90.9318L240.264 103.029L240.829 103.608L246.056 108.965Z"
            fill="#1C1C1C" />
        <path opacity="0.2"
            d="M246.058 108.965L237.242 111.205L239.971 103.826L240.168 103.295L240.266 103.029L240.831 103.608L246.058 108.965Z"
            fill="black" />
        <path
            d="M260.435 105.314L238.102 110.987L240.831 103.608L241.027 103.077L244.583 93.462C244.651 93.3117 244.75 93.1773 244.873 93.0676C244.996 92.9578 245.141 92.8752 245.299 92.8251C245.456 92.775 245.622 92.7585 245.786 92.7767C245.95 92.7949 246.109 92.8473 246.251 92.9306C246.288 92.9552 246.324 92.9821 246.358 93.0111L260.435 105.314Z"
            fill="#1C1C1C" />
        <path
            d="M274.788 104.386C274.896 104.41 275.003 104.443 275.106 104.484L283.301 98.8498L283.113 96.443L286.713 95.6855L287.459 99.9142C287.52 100.256 287.467 100.608 287.31 100.917C287.153 101.227 286.9 101.477 286.589 101.63L276.437 106.631C276.399 107.056 276.232 107.46 275.958 107.788C275.684 108.116 275.317 108.353 274.905 108.468C274.493 108.582 274.056 108.569 273.652 108.429C273.248 108.29 272.896 108.03 272.643 107.686C272.39 107.342 272.247 106.929 272.235 106.502C272.223 106.075 272.341 105.654 272.574 105.296C272.807 104.938 273.144 104.659 273.539 104.496C273.935 104.334 274.37 104.295 274.788 104.386Z"
            fill="#9F616A" />
        <path
            d="M280.328 82.3949L282.256 81.9925C282.256 81.9925 286.506 80.5167 286.775 85.883L287.312 98.4938L283.322 99.0304L281.671 88.0295L280.328 82.3949Z"
            fill="#6C63FF" />
    </g>
    <defs>
        <clipPath id="clip0_303_6873">
            <rect width="248" height="124" fill="white" transform="translate(77 40)" />
        </clipPath>
    </defs>
</svg>
