<svg width="372" height="371" viewBox="0 0 372 371" fill="none" xmlns="http://www.w3.org/2000/svg">
    <rect x="0.5" width="371" height="371" rx="2" fill="white" />
    <rect x="0.5" width="371" height="371" rx="6" fill="#6C63FF" fill-opacity="0.07" />
    <path
        d="M198 157.5V165.5C198 165.765 197.895 166.019 197.707 166.207C197.52 166.394 197.265 166.5 197 166.5H175C174.735 166.5 174.48 166.394 174.293 166.207C174.105 166.019 174 165.765 174 165.5V157.5C174 157.235 174.105 156.98 174.293 156.793C174.48 156.605 174.735 156.5 175 156.5C175.265 156.5 175.52 156.605 175.707 156.793C175.895 156.98 176 157.235 176 157.5V164.5H196V157.5C196 157.235 196.105 156.98 196.293 156.793C196.48 156.605 196.735 156.5 197 156.5C197.265 156.5 197.52 156.605 197.707 156.793C197.895 156.98 198 157.235 198 157.5ZM181.708 149.207L185 145.914V157.5C185 157.765 185.105 158.019 185.293 158.207C185.48 158.394 185.735 158.5 186 158.5C186.265 158.5 186.52 158.394 186.707 158.207C186.895 158.019 187 157.765 187 157.5V145.914L190.292 149.207C190.48 149.395 190.735 149.5 191 149.5C191.265 149.5 191.52 149.395 191.708 149.207C191.895 149.02 192.001 148.765 192.001 148.5C192.001 148.234 191.895 147.98 191.708 147.792L186.708 142.792C186.615 142.699 186.504 142.626 186.383 142.575C186.262 142.525 186.131 142.499 186 142.499C185.869 142.499 185.738 142.525 185.617 142.575C185.496 142.626 185.385 142.699 185.292 142.792L180.292 147.792C180.105 147.98 179.999 148.234 179.999 148.5C179.999 148.765 180.105 149.02 180.292 149.207C180.48 149.395 180.735 149.5 181 149.5C181.265 149.5 181.52 149.395 181.708 149.207Z"
        fill="#6C63FF" />
    <path
        d="M126.027 204.5V192.522H127.521V204.5H126.027ZM133.828 204.566C132.909 204.566 132.242 204.381 131.827 204.01C131.418 203.639 131.213 203.028 131.213 202.176V196.747H129.802V195.552H131.213V193.236H132.707V195.552H134.666V196.747H132.707V201.811C132.707 202.336 132.807 202.715 133.006 202.948C133.205 203.175 133.537 203.288 134.002 203.288C134.129 203.288 134.237 203.285 134.326 203.28C134.42 203.274 134.533 203.266 134.666 203.255V204.483C134.528 204.506 134.389 204.525 134.251 204.542C134.113 204.558 133.972 204.566 133.828 204.566ZM140.615 204.658C139.763 204.658 139.03 204.47 138.416 204.093C137.807 203.717 137.337 203.186 137.005 202.5C136.678 201.808 136.515 200.994 136.515 200.059V200.051C136.515 199.127 136.678 198.316 137.005 197.619C137.337 196.921 137.804 196.376 138.407 195.983C139.011 195.59 139.716 195.394 140.524 195.394C141.338 195.394 142.035 195.582 142.616 195.958C143.203 196.335 143.651 196.861 143.961 197.536C144.276 198.205 144.434 198.986 144.434 199.876V200.441H137.262V199.287H143.695L142.981 200.341V199.769C142.981 199.066 142.876 198.487 142.666 198.034C142.455 197.58 142.165 197.242 141.794 197.021C141.423 196.794 140.997 196.681 140.516 196.681C140.034 196.681 139.603 196.8 139.221 197.038C138.845 197.27 138.546 197.616 138.324 198.075C138.103 198.535 137.992 199.099 137.992 199.769V200.341C137.992 200.978 138.1 201.523 138.316 201.977C138.532 202.425 138.839 202.771 139.238 203.014C139.636 203.252 140.106 203.371 140.649 203.371C141.053 203.371 141.404 203.316 141.703 203.205C142.002 203.094 142.248 202.953 142.442 202.782C142.635 202.61 142.771 202.436 142.848 202.259L142.882 202.184H144.326L144.309 202.25C144.232 202.555 144.093 202.851 143.894 203.139C143.701 203.421 143.449 203.678 143.139 203.911C142.829 204.138 142.461 204.32 142.035 204.458C141.614 204.591 141.141 204.658 140.615 204.658ZM146.93 204.5V195.552H148.374V196.913H148.507C148.706 196.432 149.011 196.058 149.42 195.792C149.835 195.527 150.336 195.394 150.923 195.394C151.327 195.394 151.689 195.46 152.01 195.593C152.331 195.726 152.608 195.911 152.84 196.149C153.073 196.382 153.258 196.653 153.396 196.963H153.529C153.69 196.647 153.905 196.374 154.177 196.141C154.448 195.903 154.76 195.721 155.115 195.593C155.474 195.46 155.859 195.394 156.268 195.394C156.877 195.394 157.392 195.507 157.812 195.734C158.238 195.961 158.562 196.293 158.784 196.73C159.005 197.162 159.116 197.691 159.116 198.316V204.5H157.671V198.648C157.671 198.205 157.602 197.84 157.464 197.552C157.331 197.259 157.126 197.04 156.849 196.896C156.573 196.747 156.224 196.672 155.804 196.672C155.389 196.672 155.026 196.766 154.716 196.955C154.406 197.143 154.166 197.395 153.994 197.71C153.822 198.02 153.737 198.366 153.737 198.748V204.5H152.292V198.424C152.292 198.07 152.215 197.763 152.06 197.502C151.911 197.237 151.695 197.032 151.412 196.888C151.136 196.744 150.809 196.672 150.433 196.672C150.046 196.672 149.694 196.775 149.379 196.979C149.069 197.184 148.823 197.461 148.64 197.81C148.463 198.153 148.374 198.535 148.374 198.955V204.5H146.93ZM170.192 204.566C169.274 204.566 168.607 204.381 168.192 204.01C167.782 203.639 167.578 203.028 167.578 202.176V196.747H166.167V195.552H167.578V193.236H169.072V195.552H171.031V196.747H169.072V201.811C169.072 202.336 169.171 202.715 169.371 202.948C169.57 203.175 169.902 203.288 170.367 203.288C170.494 203.288 170.602 203.285 170.691 203.28C170.785 203.274 170.898 203.266 171.031 203.255V204.483C170.893 204.506 170.754 204.525 170.616 204.542C170.477 204.558 170.336 204.566 170.192 204.566ZM173.527 204.5V191.999H174.971V196.896H175.104C175.331 196.421 175.658 196.053 176.084 195.792C176.51 195.527 177.052 195.394 177.711 195.394C178.38 195.394 178.947 195.524 179.412 195.784C179.877 196.039 180.231 196.412 180.475 196.905C180.718 197.397 180.84 197.998 180.84 198.706V204.5H179.396V199.055C179.396 198.247 179.224 197.649 178.881 197.262C178.544 196.869 178.018 196.672 177.304 196.672C176.828 196.672 176.416 196.775 176.067 196.979C175.718 197.184 175.447 197.475 175.254 197.851C175.065 198.227 174.971 198.678 174.971 199.204V204.5H173.527ZM186.706 204.658C186.031 204.658 185.464 204.53 185.005 204.276C184.545 204.016 184.2 203.639 183.967 203.147C183.74 202.649 183.627 202.049 183.627 201.346V195.552H185.071V200.997C185.071 201.799 185.226 202.397 185.536 202.79C185.851 203.183 186.366 203.379 187.08 203.379C187.473 203.379 187.819 203.321 188.118 203.205C188.422 203.089 188.676 202.923 188.881 202.707C189.086 202.486 189.238 202.22 189.338 201.91C189.443 201.595 189.495 201.241 189.495 200.848V195.552H190.94V204.5H189.495V203.164H189.363C189.219 203.479 189.022 203.75 188.773 203.977C188.524 204.198 188.225 204.367 187.877 204.483C187.534 204.6 187.144 204.658 186.706 204.658ZM193.893 204.5V195.552H195.337V196.913H195.47C195.669 196.432 195.973 196.058 196.383 195.792C196.798 195.527 197.299 195.394 197.885 195.394C198.289 195.394 198.652 195.46 198.973 195.593C199.294 195.726 199.57 195.911 199.803 196.149C200.035 196.382 200.221 196.653 200.359 196.963H200.492C200.652 196.647 200.868 196.374 201.139 196.141C201.41 195.903 201.723 195.721 202.077 195.593C202.437 195.46 202.821 195.394 203.231 195.394C203.84 195.394 204.354 195.507 204.775 195.734C205.201 195.961 205.525 196.293 205.746 196.73C205.967 197.162 206.078 197.691 206.078 198.316V204.5H204.634V198.648C204.634 198.205 204.565 197.84 204.426 197.552C204.293 197.259 204.089 197.04 203.812 196.896C203.535 196.747 203.187 196.672 202.766 196.672C202.351 196.672 201.989 196.766 201.679 196.955C201.369 197.143 201.128 197.395 200.957 197.71C200.785 198.02 200.699 198.366 200.699 198.748V204.5H199.255V198.424C199.255 198.07 199.177 197.763 199.022 197.502C198.873 197.237 198.657 197.032 198.375 196.888C198.098 196.744 197.772 196.672 197.395 196.672C197.008 196.672 196.657 196.775 196.341 196.979C196.031 197.184 195.785 197.461 195.603 197.81C195.425 198.153 195.337 198.535 195.337 198.955V204.5H193.893ZM213.389 204.658C212.974 204.658 212.589 204.594 212.235 204.467C211.881 204.34 211.565 204.16 211.289 203.927C211.012 203.689 210.782 203.404 210.6 203.072H210.467V204.5H209.023V191.999H210.467V196.963H210.6C210.766 196.642 210.987 196.365 211.264 196.133C211.546 195.9 211.867 195.721 212.227 195.593C212.592 195.46 212.979 195.394 213.389 195.394C214.147 195.394 214.805 195.585 215.364 195.967C215.929 196.349 216.366 196.885 216.676 197.577C216.986 198.269 217.141 199.082 217.141 200.018V200.034C217.141 200.964 216.986 201.777 216.676 202.475C216.366 203.166 215.929 203.703 215.364 204.085C214.805 204.467 214.147 204.658 213.389 204.658ZM213.057 203.379C213.605 203.379 214.072 203.247 214.46 202.981C214.847 202.71 215.143 202.325 215.348 201.827C215.558 201.324 215.663 200.726 215.663 200.034V200.018C215.663 199.32 215.558 198.723 215.348 198.225C215.143 197.727 214.847 197.345 214.46 197.079C214.072 196.808 213.605 196.672 213.057 196.672C212.514 196.672 212.047 196.808 211.654 197.079C211.261 197.35 210.959 197.735 210.749 198.233C210.539 198.731 210.434 199.326 210.434 200.018V200.034C210.434 200.72 210.539 201.315 210.749 201.819C210.959 202.317 211.261 202.701 211.654 202.973C212.047 203.244 212.514 203.379 213.057 203.379ZM219.637 204.5V195.552H221.081V196.896H221.214C221.441 196.421 221.767 196.053 222.194 195.792C222.62 195.527 223.162 195.394 223.821 195.394C224.828 195.394 225.6 195.682 226.136 196.257C226.679 196.827 226.95 197.644 226.95 198.706V204.5H225.506V199.055C225.506 198.247 225.334 197.649 224.991 197.262C224.653 196.869 224.128 196.672 223.414 196.672C222.938 196.672 222.526 196.775 222.177 196.979C221.828 197.184 221.557 197.475 221.363 197.851C221.175 198.227 221.081 198.678 221.081 199.204V204.5H219.637ZM232.277 204.658C231.712 204.658 231.203 204.55 230.749 204.334C230.301 204.118 229.944 203.811 229.679 203.413C229.418 203.014 229.288 202.544 229.288 202.001V201.985C229.288 201.454 229.416 201 229.67 200.624C229.925 200.242 230.296 199.943 230.783 199.727C231.27 199.511 231.859 199.384 232.551 199.345L235.838 199.146V200.3L232.725 200.499C232.044 200.538 231.546 200.679 231.231 200.922C230.921 201.166 230.766 201.509 230.766 201.952V201.968C230.766 202.422 230.937 202.776 231.281 203.031C231.624 203.28 232.055 203.404 232.576 203.404C233.068 203.404 233.505 203.307 233.887 203.114C234.269 202.915 234.568 202.646 234.784 202.309C235.005 201.971 235.116 201.589 235.116 201.163V198.374C235.116 197.821 234.947 197.4 234.609 197.112C234.277 196.819 233.776 196.672 233.107 196.672C232.57 196.672 232.13 196.769 231.787 196.963C231.444 197.151 231.214 197.419 231.098 197.768L231.09 197.793H229.645L229.654 197.743C229.731 197.273 229.925 196.863 230.235 196.515C230.55 196.16 230.957 195.887 231.455 195.693C231.953 195.494 232.52 195.394 233.157 195.394C233.887 195.394 234.504 195.513 235.008 195.751C235.517 195.989 235.901 196.332 236.161 196.78C236.427 197.223 236.56 197.754 236.56 198.374V204.5H235.116V203.18H234.983C234.795 203.496 234.565 203.764 234.294 203.985C234.028 204.207 233.727 204.375 233.389 204.492C233.051 204.602 232.681 204.658 232.277 204.658ZM239.488 204.5V195.552H240.932V204.5H239.488ZM240.218 193.825C239.947 193.825 239.712 193.728 239.513 193.535C239.319 193.335 239.222 193.1 239.222 192.829C239.222 192.552 239.319 192.317 239.513 192.124C239.712 191.93 239.947 191.833 240.218 191.833C240.495 191.833 240.73 191.93 240.924 192.124C241.117 192.317 241.214 192.552 241.214 192.829C241.214 193.1 241.117 193.335 240.924 193.535C240.73 193.728 240.495 193.825 240.218 193.825ZM243.993 204.5V191.999H245.437V204.5H243.993Z"
        fill="#6C63FF" />
    <path
        d="M124.66 233.785C124.25 233.239 123.911 232.66 123.645 232.046C123.378 231.432 123.179 230.778 123.048 230.084C122.921 229.39 122.858 228.65 122.858 227.863C122.858 227.076 122.921 226.337 123.048 225.647C123.175 224.953 123.372 224.3 123.638 223.686C123.905 223.068 124.246 222.486 124.66 221.94H125.587C125.359 222.232 125.145 222.601 124.946 223.045C124.751 223.489 124.582 223.98 124.438 224.518C124.294 225.051 124.182 225.605 124.102 226.181C124.021 226.752 123.981 227.313 123.981 227.863C123.981 228.417 124.021 228.982 124.102 229.558C124.182 230.129 124.294 230.683 124.438 231.221C124.582 231.754 124.751 232.241 124.946 232.681C125.145 233.125 125.359 233.493 125.587 233.785H124.66ZM127.544 231.5V222.34H128.871L132.007 229.983H132.108L135.244 222.34H136.571V231.5H135.504V224.505H134.946L136.228 222.594L132.54 231.5H131.575L127.893 222.594L129.169 224.505H128.611V231.5H127.544ZM140.737 231.621C140.305 231.621 139.916 231.538 139.569 231.373C139.226 231.208 138.953 230.973 138.75 230.668C138.551 230.364 138.452 230.004 138.452 229.589V229.577C138.452 229.17 138.549 228.823 138.744 228.536C138.938 228.244 139.222 228.015 139.594 227.85C139.967 227.685 140.417 227.588 140.946 227.558L143.46 227.406V228.288L141.08 228.44C140.559 228.47 140.178 228.578 139.937 228.764C139.7 228.95 139.582 229.213 139.582 229.551V229.564C139.582 229.911 139.713 230.182 139.975 230.376C140.237 230.567 140.568 230.662 140.965 230.662C141.342 230.662 141.676 230.588 141.968 230.44C142.26 230.288 142.489 230.082 142.654 229.824C142.823 229.566 142.908 229.274 142.908 228.948V226.815C142.908 226.392 142.779 226.071 142.521 225.851C142.267 225.626 141.884 225.514 141.372 225.514C140.961 225.514 140.625 225.588 140.362 225.736C140.1 225.88 139.924 226.085 139.835 226.352L139.829 226.371H138.725L138.731 226.333C138.79 225.973 138.938 225.66 139.175 225.394C139.417 225.123 139.728 224.913 140.108 224.765C140.489 224.613 140.923 224.537 141.41 224.537C141.968 224.537 142.44 224.628 142.825 224.81C143.215 224.992 143.509 225.254 143.708 225.597C143.911 225.935 144.012 226.341 144.012 226.815V231.5H142.908V230.491H142.806C142.662 230.732 142.487 230.937 142.279 231.106C142.076 231.276 141.846 231.405 141.587 231.494C141.329 231.578 141.046 231.621 140.737 231.621ZM145.576 231.5L147.918 228.079L145.551 224.657H146.852L148.477 227.203H148.578L150.184 224.657H151.422L149.099 228.034L151.454 231.5H150.159L148.54 228.917H148.439L146.814 231.5H145.576ZM153.932 231.563C153.707 231.563 153.513 231.483 153.348 231.322C153.187 231.157 153.106 230.963 153.106 230.738C153.106 230.51 153.187 230.315 153.348 230.154C153.513 229.993 153.707 229.913 153.932 229.913C154.16 229.913 154.355 229.993 154.516 230.154C154.676 230.315 154.757 230.51 154.757 230.738C154.757 230.963 154.676 231.157 154.516 231.322C154.355 231.483 154.16 231.563 153.932 231.563ZM160.867 231.5V222.34H166.428V223.369H162.01V226.517H166.066V227.533H162.01V231.5H160.867ZM168.284 231.5V224.657H169.388V231.5H168.284ZM168.842 223.337C168.635 223.337 168.455 223.263 168.303 223.115C168.155 222.962 168.081 222.783 168.081 222.575C168.081 222.364 168.155 222.184 168.303 222.036C168.455 221.888 168.635 221.813 168.842 221.813C169.054 221.813 169.234 221.888 169.382 222.036C169.53 222.184 169.604 222.364 169.604 222.575C169.604 222.783 169.53 222.962 169.382 223.115C169.234 223.263 169.054 223.337 168.842 223.337ZM171.625 231.5V221.94H172.729V231.5H171.625ZM177.733 231.621C177.082 231.621 176.521 231.477 176.051 231.189C175.586 230.901 175.226 230.495 174.972 229.97C174.722 229.441 174.597 228.819 174.597 228.104V228.098C174.597 227.391 174.722 226.771 174.972 226.238C175.226 225.705 175.583 225.288 176.045 224.987C176.506 224.687 177.046 224.537 177.663 224.537C178.285 224.537 178.819 224.681 179.263 224.968C179.712 225.256 180.054 225.658 180.291 226.174C180.533 226.686 180.653 227.283 180.653 227.964V228.396H175.169V227.514H180.088L179.542 228.32V227.882C179.542 227.344 179.462 226.902 179.301 226.555C179.14 226.208 178.918 225.95 178.635 225.781C178.351 225.607 178.025 225.521 177.657 225.521C177.289 225.521 176.959 225.611 176.667 225.793C176.379 225.971 176.151 226.236 175.981 226.587C175.812 226.938 175.727 227.37 175.727 227.882V228.32C175.727 228.806 175.81 229.223 175.975 229.57C176.14 229.913 176.375 230.178 176.68 230.364C176.984 230.546 177.344 230.637 177.759 230.637C178.068 230.637 178.336 230.594 178.565 230.51C178.793 230.425 178.982 230.317 179.13 230.186C179.278 230.055 179.381 229.922 179.441 229.786L179.466 229.729H180.571L180.558 229.78C180.499 230.013 180.393 230.239 180.241 230.459C180.092 230.675 179.9 230.872 179.663 231.049C179.426 231.223 179.145 231.362 178.819 231.468C178.497 231.57 178.135 231.621 177.733 231.621ZM188.554 231.621C188.046 231.621 187.598 231.544 187.208 231.392C186.819 231.236 186.506 231.018 186.269 230.738C186.036 230.459 185.898 230.131 185.856 229.754H186.986C187.079 230.038 187.261 230.266 187.532 230.44C187.803 230.613 188.156 230.7 188.592 230.7C188.901 230.7 189.172 230.656 189.404 230.567C189.641 230.474 189.828 230.349 189.963 230.192C190.098 230.032 190.166 229.847 190.166 229.64V229.627C190.166 229.395 190.073 229.198 189.887 229.037C189.701 228.872 189.396 228.739 188.973 228.637L187.913 228.383C187.485 228.282 187.134 228.151 186.859 227.99C186.584 227.825 186.381 227.624 186.25 227.387C186.119 227.146 186.053 226.862 186.053 226.536V226.53C186.053 226.149 186.163 225.808 186.383 225.508C186.607 225.207 186.912 224.97 187.297 224.797C187.682 224.623 188.116 224.537 188.598 224.537C189.077 224.537 189.5 224.613 189.868 224.765C190.24 224.913 190.539 225.125 190.763 225.4C190.991 225.675 191.131 225.999 191.182 226.371H190.096C190.024 226.1 189.859 225.88 189.601 225.711C189.343 225.542 189.007 225.457 188.592 225.457C188.321 225.457 188.08 225.501 187.868 225.59C187.657 225.675 187.49 225.793 187.367 225.946C187.244 226.098 187.183 226.276 187.183 226.479V226.492C187.183 226.644 187.223 226.779 187.303 226.898C187.384 227.016 187.509 227.12 187.678 227.209C187.847 227.298 188.065 227.376 188.332 227.444L189.385 227.698C190.029 227.854 190.507 228.079 190.82 228.371C191.137 228.663 191.296 229.054 191.296 229.545V229.558C191.296 229.964 191.175 230.324 190.934 230.637C190.693 230.946 190.365 231.187 189.95 231.36C189.54 231.534 189.074 231.621 188.554 231.621ZM193.126 231.5V224.657H194.231V231.5H193.126ZM193.685 223.337C193.478 223.337 193.298 223.263 193.145 223.115C192.997 222.962 192.923 222.783 192.923 222.575C192.923 222.364 192.997 222.184 193.145 222.036C193.298 221.888 193.478 221.813 193.685 221.813C193.897 221.813 194.076 221.888 194.224 222.036C194.373 222.184 194.447 222.364 194.447 222.575C194.447 222.783 194.373 222.962 194.224 223.115C194.076 223.263 193.897 223.337 193.685 223.337ZM196.245 231.5V230.7L200.193 225.673V225.571H196.252V224.657H201.495V225.476L197.565 230.484V230.586H201.514V231.5H196.245ZM206.105 231.621C205.454 231.621 204.893 231.477 204.423 231.189C203.958 230.901 203.598 230.495 203.344 229.97C203.094 229.441 202.969 228.819 202.969 228.104V228.098C202.969 227.391 203.094 226.771 203.344 226.238C203.598 225.705 203.955 225.288 204.417 224.987C204.878 224.687 205.418 224.537 206.035 224.537C206.657 224.537 207.191 224.681 207.635 224.968C208.084 225.256 208.426 225.658 208.663 226.174C208.905 226.686 209.025 227.283 209.025 227.964V228.396H203.541V227.514H208.46L207.914 228.32V227.882C207.914 227.344 207.834 226.902 207.673 226.555C207.512 226.208 207.29 225.95 207.007 225.781C206.723 225.607 206.397 225.521 206.029 225.521C205.661 225.521 205.331 225.611 205.039 225.793C204.751 225.971 204.523 226.236 204.353 226.587C204.184 226.938 204.099 227.37 204.099 227.882V228.32C204.099 228.806 204.182 229.223 204.347 229.57C204.512 229.913 204.747 230.178 205.051 230.364C205.356 230.546 205.716 230.637 206.131 230.637C206.44 230.637 206.708 230.594 206.937 230.51C207.165 230.425 207.354 230.317 207.502 230.186C207.65 230.055 207.753 229.922 207.813 229.786L207.838 229.729H208.943L208.93 229.78C208.871 230.013 208.765 230.239 208.613 230.459C208.464 230.675 208.272 230.872 208.035 231.049C207.798 231.223 207.517 231.362 207.191 231.468C206.869 231.57 206.507 231.621 206.105 231.621ZM211.731 231.563C211.507 231.563 211.312 231.483 211.147 231.322C210.987 231.157 210.906 230.963 210.906 230.738C210.906 230.51 210.987 230.315 211.147 230.154C211.312 229.993 211.507 229.913 211.731 229.913C211.96 229.913 212.155 229.993 212.315 230.154C212.476 230.315 212.557 230.51 212.557 230.738C212.557 230.963 212.476 231.157 212.315 231.322C212.155 231.483 211.96 231.563 211.731 231.563ZM211.731 226.65C211.507 226.65 211.312 226.57 211.147 226.409C210.987 226.244 210.906 226.049 210.906 225.825C210.906 225.597 210.987 225.402 211.147 225.241C211.312 225.08 211.507 225 211.731 225C211.96 225 212.155 225.08 212.315 225.241C212.476 225.402 212.557 225.597 212.557 225.825C212.557 226.049 212.476 226.244 212.315 226.409C212.155 226.57 211.96 226.65 211.731 226.65ZM221.53 231.716C220.963 231.716 220.457 231.604 220.013 231.379C219.569 231.155 219.211 230.85 218.94 230.465C218.674 230.076 218.517 229.638 218.47 229.151L218.464 229.082H219.562L219.569 229.132C219.607 229.424 219.713 229.691 219.886 229.932C220.064 230.169 220.294 230.357 220.578 230.497C220.866 230.637 221.187 230.707 221.543 230.707C221.949 230.707 222.307 230.618 222.616 230.44C222.924 230.258 223.166 230.008 223.339 229.691C223.513 229.374 223.599 229.01 223.599 228.599V228.586C223.599 228.18 223.511 227.82 223.333 227.507C223.159 227.19 222.92 226.942 222.616 226.765C222.311 226.587 221.96 226.498 221.562 226.498C221.257 226.498 220.976 226.545 220.718 226.638C220.464 226.731 220.237 226.87 220.038 227.057C219.958 227.133 219.882 227.215 219.81 227.304C219.742 227.393 219.679 227.493 219.619 227.603H218.629L219.112 222.34H224.209V223.362H220.013L219.702 226.46H219.803C219.939 226.253 220.106 226.079 220.305 225.939C220.504 225.8 220.726 225.694 220.971 225.622C221.221 225.546 221.484 225.508 221.759 225.508C222.334 225.508 222.844 225.641 223.288 225.908C223.733 226.17 224.082 226.532 224.336 226.993C224.59 227.45 224.717 227.975 224.717 228.567V228.58C224.717 229.194 224.579 229.737 224.304 230.211C224.033 230.681 223.659 231.049 223.18 231.316C222.702 231.583 222.152 231.716 221.53 231.716ZM230.542 231.5V222.34H231.868L235.004 229.983H235.106L238.241 222.34H239.568V231.5H238.502V224.505H237.943L239.225 222.594L235.537 231.5H234.572L230.891 222.594L232.167 224.505H231.608V231.5H230.542ZM242.566 231.5V230.491H245.397C246.087 230.491 246.61 230.353 246.965 230.078C247.321 229.803 247.498 229.403 247.498 228.878V228.866C247.498 228.514 247.416 228.22 247.251 227.983C247.086 227.746 246.838 227.569 246.508 227.45C246.182 227.332 245.776 227.272 245.289 227.272H242.566V226.289H244.966C245.66 226.289 246.18 226.166 246.527 225.92C246.878 225.675 247.054 225.311 247.054 224.829V224.816C247.054 224.35 246.895 223.991 246.578 223.737C246.265 223.479 245.825 223.35 245.258 223.35H242.566V222.34H245.499C246.062 222.34 246.544 222.433 246.946 222.62C247.352 222.806 247.663 223.07 247.879 223.413C248.099 223.752 248.209 224.154 248.209 224.619V224.632C248.209 224.949 248.137 225.248 247.993 225.527C247.854 225.806 247.666 226.041 247.429 226.231C247.192 226.422 246.925 226.545 246.629 226.6V226.701C247.048 226.752 247.41 226.877 247.714 227.076C248.019 227.275 248.254 227.533 248.419 227.85C248.588 228.163 248.673 228.521 248.673 228.923V228.936C248.673 229.469 248.548 229.928 248.298 230.313C248.053 230.694 247.699 230.988 247.238 231.195C246.777 231.398 246.22 231.5 245.569 231.5H242.566ZM241.995 231.5V222.34H243.138V231.5H241.995ZM251.087 233.785H250.16C250.389 233.493 250.6 233.125 250.795 232.681C250.994 232.241 251.165 231.754 251.309 231.221C251.453 230.683 251.565 230.129 251.646 229.558C251.726 228.982 251.766 228.417 251.766 227.863C251.766 227.313 251.726 226.752 251.646 226.181C251.565 225.605 251.453 225.051 251.309 224.518C251.165 223.98 250.994 223.489 250.795 223.045C250.6 222.601 250.389 222.232 250.16 221.94H251.087C251.502 222.486 251.842 223.068 252.109 223.686C252.376 224.3 252.572 224.953 252.699 225.647C252.826 226.337 252.89 227.076 252.89 227.863C252.89 228.65 252.824 229.39 252.693 230.084C252.566 230.778 252.369 231.432 252.103 232.046C251.84 232.66 251.502 233.239 251.087 233.785Z"
        fill="#1C1C1C" fill-opacity="0.6" />
</svg>
