<svg width="370" height="128" viewBox="0 0 370 128" fill="none" xmlns="http://www.w3.org/2000/svg">
    <rect x="0.5" y="0.5" width="369" height="127" fill="#1C1C1C" fill-opacity="0.06" />
    <rect x="0.5" y="0.5" width="369" height="127" stroke="#6C63FF" stroke-dasharray="6 6" />
    <path
        d="M197 33.9998V41.9998C197 42.265 196.895 42.5194 196.707 42.7069C196.52 42.8945 196.265 42.9998 196 42.9998H174C173.735 42.9998 173.48 42.8945 173.293 42.7069C173.105 42.5194 173 42.265 173 41.9998V33.9998C173 33.7346 173.105 33.4802 173.293 33.2927C173.48 33.1052 173.735 32.9998 174 32.9998C174.265 32.9998 174.52 33.1052 174.707 33.2927C174.895 33.4802 175 33.7346 175 33.9998V40.9998H195V33.9998C195 33.7346 195.105 33.4802 195.293 33.2927C195.48 33.1052 195.735 32.9998 196 32.9998C196.265 32.9998 196.52 33.1052 196.707 33.2927C196.895 33.4802 197 33.7346 197 33.9998ZM180.708 25.7073L184 22.4136V33.9998C184 34.265 184.105 34.5194 184.293 34.7069C184.48 34.8945 184.735 34.9998 185 34.9998C185.265 34.9998 185.52 34.8945 185.707 34.7069C185.895 34.5194 186 34.265 186 33.9998V22.4136L189.292 25.7073C189.48 25.895 189.735 26.0004 190 26.0004C190.265 26.0004 190.52 25.895 190.708 25.7073C190.895 25.5197 191.001 25.2652 191.001 24.9998C191.001 24.7344 190.895 24.48 190.708 24.2923L185.708 19.2923C185.615 19.1993 185.504 19.1256 185.383 19.0753C185.262 19.0249 185.131 18.999 185 18.999C184.869 18.999 184.738 19.0249 184.617 19.0753C184.496 19.1256 184.385 19.1993 184.292 19.2923L179.292 24.2923C179.105 24.48 178.999 24.7344 178.999 24.9998C178.999 25.2652 179.105 25.5197 179.292 25.7073C179.48 25.895 179.735 26.0004 180 26.0004C180.265 26.0004 180.52 25.895 180.708 25.7073Z"
        fill="#6C63FF" />
    <path
        d="M61.3501 81.2822C60.2655 81.2822 59.3275 81.0277 58.5361 80.5186C57.7448 80.0094 57.1333 79.2873 56.7017 78.3521C56.2756 77.4168 56.0625 76.3073 56.0625 75.0234V75.0068C56.0625 73.7174 56.2756 72.6051 56.7017 71.6699C57.1333 70.7347 57.742 70.0125 58.5278 69.5034C59.3192 68.9943 60.2572 68.7397 61.3418 68.7397C62.1829 68.7397 62.9466 68.9058 63.6328 69.2378C64.3245 69.5643 64.8945 70.0208 65.3428 70.6074C65.791 71.1885 66.0732 71.8608 66.1895 72.6245L66.1812 72.6411H64.6787L64.6704 72.6245C64.5376 72.1099 64.3135 71.6672 63.998 71.2964C63.6826 70.9201 63.298 70.6296 62.8442 70.4248C62.396 70.2201 61.8952 70.1177 61.3418 70.1177C60.5781 70.1177 59.9141 70.3169 59.3496 70.7153C58.7907 71.1138 58.359 71.6782 58.0547 72.4087C57.7503 73.1392 57.5981 74.0052 57.5981 75.0068V75.0234C57.5981 76.0195 57.7503 76.8828 58.0547 77.6133C58.359 78.3438 58.7907 78.9082 59.3496 79.3066C59.9141 79.7051 60.5809 79.9043 61.3501 79.9043C61.909 79.9043 62.4154 79.8158 62.8691 79.6387C63.3229 79.4561 63.7048 79.1987 64.0146 78.8667C64.3245 78.5291 64.5404 78.1307 64.6621 77.6714L64.6787 77.6548H66.1895V77.6714C66.0566 78.4019 65.7689 79.0382 65.3262 79.5806C64.8835 80.1174 64.3218 80.5352 63.6411 80.834C62.966 81.1328 62.2023 81.2822 61.3501 81.2822ZM68.527 81V68.499H69.9713V81H68.527ZM72.7073 81V72.0518H74.1516V81H72.7073ZM73.4377 70.3252C73.1666 70.3252 72.9314 70.2284 72.7322 70.0347C72.5385 69.8354 72.4417 69.6003 72.4417 69.3291C72.4417 69.0524 72.5385 68.8172 72.7322 68.6235C72.9314 68.4299 73.1666 68.333 73.4377 68.333C73.7144 68.333 73.9496 68.4299 74.1433 68.6235C74.337 68.8172 74.4338 69.0524 74.4338 69.3291C74.4338 69.6003 74.337 69.8354 74.1433 70.0347C73.9496 70.2284 73.7144 70.3252 73.4377 70.3252ZM80.4652 81.1577C79.6296 81.1577 78.9047 80.9668 78.2904 80.585C77.6762 80.2031 77.2002 79.6636 76.8627 78.9663C76.5251 78.269 76.3563 77.4473 76.3563 76.501V76.4844C76.3563 75.5547 76.5223 74.7467 76.8544 74.0605C77.1919 73.3743 77.6679 72.8431 78.2821 72.4668C78.8964 72.085 79.6213 71.894 80.4569 71.894C81.1818 71.894 81.8072 72.0213 82.3329 72.2759C82.8586 72.5304 83.2792 72.8735 83.5946 73.3052C83.91 73.7313 84.112 74.21 84.2006 74.7412L84.2089 74.791H82.7728L82.7645 74.7661C82.6539 74.3234 82.4021 73.9471 82.0092 73.6372C81.6163 73.3273 81.0988 73.1724 80.4569 73.1724C79.9201 73.1724 79.4553 73.3079 79.0624 73.5791C78.6695 73.8503 78.3651 74.2349 78.1493 74.7329C77.939 75.2254 77.8339 75.8092 77.8339 76.4844V76.501C77.8339 77.1872 77.9418 77.7848 78.1576 78.2939C78.3734 78.7975 78.6778 79.1877 79.0707 79.4644C79.4636 79.741 79.9257 79.8794 80.4569 79.8794C81.0601 79.8794 81.5526 79.7493 81.9345 79.4893C82.3163 79.2292 82.5902 78.8501 82.7562 78.3521L82.7728 78.3022L84.2006 78.2939L84.184 78.3853C84.0622 78.922 83.8464 79.4007 83.5365 79.8213C83.2266 80.2363 82.8171 80.5628 82.308 80.8008C81.7989 81.0387 81.1846 81.1577 80.4652 81.1577ZM86.3306 81V68.499H87.7749V81H86.3306ZM91.9668 81L88.4722 76.6172L89.5347 75.6958L93.7847 81H91.9668ZM87.5923 77.7793L87.5259 75.9614H87.9077L91.7759 72.0518H93.5274L89.2774 76.1523L88.9287 76.4927L87.5923 77.7793ZM103.299 81.0664C102.38 81.0664 101.714 80.881 101.299 80.5103C100.889 80.1395 100.684 79.528 100.684 78.6758V73.2471H99.2732V72.0518H100.684V69.7358H102.178V72.0518H104.137V73.2471H102.178V78.3105C102.178 78.8363 102.278 79.2153 102.477 79.4478C102.677 79.6746 103.009 79.7881 103.473 79.7881C103.601 79.7881 103.709 79.7853 103.797 79.7798C103.891 79.7743 104.005 79.766 104.137 79.7549V80.9834C103.999 81.0055 103.861 81.0249 103.722 81.0415C103.584 81.0581 103.443 81.0664 103.299 81.0664ZM109.787 81.1577C108.94 81.1577 108.207 80.9723 107.587 80.6016C106.973 80.2253 106.497 79.6912 106.16 78.9995C105.828 78.3078 105.662 77.486 105.662 76.5342V76.5176C105.662 75.5602 105.828 74.7357 106.16 74.0439C106.497 73.3522 106.973 72.821 107.587 72.4502C108.207 72.0794 108.94 71.894 109.787 71.894C110.639 71.894 111.372 72.0794 111.987 72.4502C112.601 72.821 113.074 73.3522 113.406 74.0439C113.744 74.7357 113.912 75.5602 113.912 76.5176V76.5342C113.912 77.486 113.744 78.3078 113.406 78.9995C113.074 79.6912 112.601 80.2253 111.987 80.6016C111.372 80.9723 110.639 81.1577 109.787 81.1577ZM109.787 79.8794C110.351 79.8794 110.83 79.7466 111.223 79.481C111.616 79.2153 111.915 78.8335 112.12 78.3354C112.33 77.8374 112.435 77.237 112.435 76.5342V76.5176C112.435 75.8092 112.33 75.2061 112.12 74.708C111.915 74.21 111.616 73.8309 111.223 73.5708C110.83 73.3052 110.351 73.1724 109.787 73.1724C109.223 73.1724 108.744 73.3052 108.351 73.5708C107.958 73.8309 107.656 74.21 107.446 74.708C107.241 75.2061 107.139 75.8092 107.139 76.5176V76.5342C107.139 77.237 107.241 77.8374 107.446 78.3354C107.656 78.8335 107.958 79.2153 108.351 79.481C108.744 79.7466 109.223 79.8794 109.787 79.8794ZM125.726 81.2822C124.736 81.2822 123.883 81.0968 123.17 80.7261C122.461 80.3553 121.916 79.8407 121.534 79.1821C121.152 78.5181 120.962 77.7516 120.962 76.8828V69.022H122.456V76.7832C122.456 77.3975 122.583 77.9398 122.838 78.4102C123.098 78.875 123.471 79.2402 123.958 79.5059C124.445 79.7715 125.034 79.9043 125.726 79.9043C126.418 79.9043 127.005 79.7715 127.486 79.5059C127.973 79.2402 128.344 78.875 128.598 78.4102C128.853 77.9398 128.98 77.3975 128.98 76.7832V69.022H130.474V76.8828C130.474 77.7516 130.283 78.5181 129.902 79.1821C129.525 79.8407 128.983 80.3553 128.275 80.7261C127.566 81.0968 126.717 81.2822 125.726 81.2822ZM133.26 83.9883V72.0518H134.704V73.4795H134.837C135.02 73.1475 135.249 72.8652 135.526 72.6328C135.803 72.3949 136.118 72.2122 136.472 72.085C136.827 71.9577 137.211 71.894 137.626 71.894C138.384 71.894 139.043 72.0877 139.602 72.4751C140.166 72.8569 140.603 73.3937 140.913 74.0854C141.223 74.7772 141.378 75.5879 141.378 76.5176V76.5342C141.378 77.4694 141.223 78.2829 140.913 78.9746C140.603 79.6663 140.166 80.2031 139.602 80.585C139.043 80.9668 138.384 81.1577 137.626 81.1577C137.217 81.1577 136.829 81.0941 136.464 80.9668C136.104 80.834 135.783 80.6514 135.501 80.4189C135.225 80.1865 135.003 79.9098 134.837 79.5889H134.704V83.9883H133.26ZM137.294 79.8794C137.842 79.8794 138.31 79.7466 138.697 79.481C139.084 79.2098 139.38 78.8252 139.585 78.3271C139.796 77.8236 139.901 77.2259 139.901 76.5342V76.5176C139.901 75.8203 139.796 75.2227 139.585 74.7246C139.38 74.2266 139.084 73.8447 138.697 73.5791C138.31 73.3079 137.842 73.1724 137.294 73.1724C136.752 73.1724 136.284 73.3079 135.891 73.5791C135.498 73.8503 135.197 74.2349 134.987 74.7329C134.776 75.231 134.671 75.8258 134.671 76.5176V76.5342C134.671 77.2204 134.776 77.8153 134.987 78.3188C135.197 78.8169 135.498 79.2015 135.891 79.4727C136.284 79.7438 136.752 79.8794 137.294 79.8794ZM143.649 81V68.499H145.094V81H143.649ZM151.474 81.1577C150.627 81.1577 149.894 80.9723 149.274 80.6016C148.66 80.2253 148.184 79.6912 147.846 78.9995C147.514 78.3078 147.348 77.486 147.348 76.5342V76.5176C147.348 75.5602 147.514 74.7357 147.846 74.0439C148.184 73.3522 148.66 72.821 149.274 72.4502C149.894 72.0794 150.627 71.894 151.474 71.894C152.326 71.894 153.059 72.0794 153.673 72.4502C154.288 72.821 154.761 73.3522 155.093 74.0439C155.43 74.7357 155.599 75.5602 155.599 76.5176V76.5342C155.599 77.486 155.43 78.3078 155.093 78.9995C154.761 79.6912 154.288 80.2253 153.673 80.6016C153.059 80.9723 152.326 81.1577 151.474 81.1577ZM151.474 79.8794C152.038 79.8794 152.517 79.7466 152.91 79.481C153.303 79.2153 153.601 78.8335 153.806 78.3354C154.016 77.8374 154.122 77.237 154.122 76.5342V76.5176C154.122 75.8092 154.016 75.2061 153.806 74.708C153.601 74.21 153.303 73.8309 152.91 73.5708C152.517 73.3052 152.038 73.1724 151.474 73.1724C150.909 73.1724 150.431 73.3052 150.038 73.5708C149.645 73.8309 149.343 74.21 149.133 74.708C148.928 75.2061 148.826 75.8092 148.826 76.5176V76.5342C148.826 77.237 148.928 77.8374 149.133 78.3354C149.343 78.8335 149.645 79.2153 150.038 79.481C150.431 79.7466 150.909 79.8794 151.474 79.8794ZM160.228 81.1577C159.663 81.1577 159.154 81.0498 158.7 80.834C158.252 80.6182 157.895 80.311 157.63 79.9126C157.369 79.5142 157.239 79.0438 157.239 78.5015V78.4849C157.239 77.9536 157.367 77.4998 157.621 77.1235C157.876 76.7417 158.247 76.4429 158.734 76.2271C159.221 76.0112 159.81 75.884 160.502 75.8452L163.789 75.646V76.7998L160.676 76.999C159.995 77.0378 159.497 77.1789 159.182 77.4224C158.872 77.6659 158.717 78.009 158.717 78.4517V78.4683C158.717 78.922 158.888 79.2762 159.232 79.5308C159.575 79.7798 160.006 79.9043 160.527 79.9043C161.019 79.9043 161.456 79.8075 161.838 79.6138C162.22 79.4146 162.519 79.1462 162.735 78.8086C162.956 78.471 163.067 78.0892 163.067 77.6631V74.874C163.067 74.3206 162.898 73.9001 162.56 73.6123C162.228 73.319 161.727 73.1724 161.058 73.1724C160.521 73.1724 160.081 73.2692 159.738 73.4629C159.395 73.651 159.165 73.9194 159.049 74.2681L159.041 74.293H157.596L157.605 74.2432C157.682 73.7728 157.876 73.3633 158.186 73.0146C158.501 72.6605 158.908 72.3866 159.406 72.1929C159.904 71.9937 160.471 71.894 161.108 71.894C161.838 71.894 162.455 72.013 162.959 72.251C163.468 72.4889 163.852 72.832 164.112 73.2803C164.378 73.723 164.511 74.2542 164.511 74.874V81H163.067V79.6802H162.934C162.746 79.9956 162.516 80.264 162.245 80.4854C161.979 80.7067 161.678 80.8755 161.34 80.9917C161.002 81.1024 160.632 81.1577 160.228 81.1577ZM170.385 81.1577C169.632 81.1577 168.973 80.9668 168.409 80.585C167.845 80.2031 167.407 79.6663 167.097 78.9746C166.788 78.2773 166.633 77.4639 166.633 76.5342V76.5176C166.633 75.5824 166.788 74.7689 167.097 74.0771C167.407 73.3854 167.842 72.8486 168.401 72.4668C168.965 72.085 169.626 71.894 170.385 71.894C170.794 71.894 171.179 71.9604 171.538 72.0933C171.904 72.2205 172.227 72.4004 172.51 72.6328C172.792 72.8652 173.013 73.1419 173.174 73.4629H173.306V68.499H174.751V81H173.306V79.5723H173.174C172.991 79.9043 172.761 80.1893 172.485 80.4272C172.208 80.6597 171.893 80.8395 171.538 80.9668C171.184 81.0941 170.8 81.1577 170.385 81.1577ZM170.717 79.8794C171.259 79.8794 171.727 79.7438 172.119 79.4727C172.512 79.2015 172.814 78.8169 173.024 78.3188C173.234 77.8153 173.34 77.2204 173.34 76.5342V76.5176C173.34 75.8258 173.234 75.231 173.024 74.7329C172.814 74.2349 172.512 73.8503 172.119 73.5791C171.727 73.3079 171.259 73.1724 170.717 73.1724C170.174 73.1724 169.707 73.3079 169.314 73.5791C168.926 73.8447 168.628 74.2266 168.417 74.7246C168.213 75.2227 168.11 75.8203 168.11 76.5176V76.5342C168.11 77.2259 168.213 77.8236 168.417 78.3271C168.628 78.8252 168.926 79.2098 169.314 79.481C169.707 79.7466 170.174 79.8794 170.717 79.8794Z"
        fill="#6C63FF" />
    <path
        d="M186.022 81.1577C185.175 81.1577 184.442 80.9723 183.822 80.6016C183.208 80.2253 182.732 79.6912 182.395 78.9995C182.062 78.3078 181.896 77.486 181.896 76.5342V76.5176C181.896 75.5602 182.062 74.7357 182.395 74.0439C182.732 73.3522 183.208 72.821 183.822 72.4502C184.442 72.0794 185.175 71.894 186.022 71.894C186.874 71.894 187.607 72.0794 188.222 72.4502C188.836 72.821 189.309 73.3522 189.641 74.0439C189.979 74.7357 190.147 75.5602 190.147 76.5176V76.5342C190.147 77.486 189.979 78.3078 189.641 78.9995C189.309 79.6912 188.836 80.2253 188.222 80.6016C187.607 80.9723 186.874 81.1577 186.022 81.1577ZM186.022 79.8794C186.586 79.8794 187.065 79.7466 187.458 79.481C187.851 79.2153 188.15 78.8335 188.354 78.3354C188.565 77.8374 188.67 77.237 188.67 76.5342V76.5176C188.67 75.8092 188.565 75.2061 188.354 74.708C188.15 74.21 187.851 73.8309 187.458 73.5708C187.065 73.3052 186.586 73.1724 186.022 73.1724C185.458 73.1724 184.979 73.3052 184.586 73.5708C184.193 73.8309 183.891 74.21 183.681 74.708C183.476 75.2061 183.374 75.8092 183.374 76.5176V76.5342C183.374 77.237 183.476 77.8374 183.681 78.3354C183.891 78.8335 184.193 79.2153 184.586 79.481C184.979 79.7466 185.458 79.8794 186.022 79.8794ZM192.319 81V72.0518H193.763V73.3799H193.896C194.068 72.9095 194.358 72.5443 194.768 72.2842C195.177 72.0241 195.684 71.894 196.287 71.894C196.425 71.894 196.561 71.9023 196.693 71.9189C196.832 71.93 196.937 71.9411 197.009 71.9521V73.355C196.859 73.3273 196.713 73.3079 196.569 73.2969C196.431 73.2803 196.281 73.272 196.121 73.272C195.661 73.272 195.255 73.3633 194.901 73.5459C194.546 73.7285 194.267 73.9831 194.062 74.3096C193.863 74.6361 193.763 75.0179 193.763 75.4551V81H192.319ZM206.739 81.1577C205.987 81.1577 205.328 80.9668 204.764 80.585C204.199 80.2031 203.762 79.6663 203.452 78.9746C203.142 78.2773 202.987 77.4639 202.987 76.5342V76.5176C202.987 75.5824 203.142 74.7689 203.452 74.0771C203.762 73.3854 204.196 72.8486 204.755 72.4668C205.32 72.085 205.981 71.894 206.739 71.894C207.149 71.894 207.533 71.9604 207.893 72.0933C208.258 72.2205 208.582 72.4004 208.864 72.6328C209.146 72.8652 209.368 73.1419 209.528 73.4629H209.661V68.499H211.105V81H209.661V79.5723H209.528C209.346 79.9043 209.116 80.1893 208.839 80.4272C208.563 80.6597 208.247 80.8395 207.893 80.9668C207.539 81.0941 207.154 81.1577 206.739 81.1577ZM207.071 79.8794C207.613 79.8794 208.081 79.7438 208.474 79.4727C208.867 79.2015 209.169 78.8169 209.379 78.3188C209.589 77.8153 209.694 77.2204 209.694 76.5342V76.5176C209.694 75.8258 209.589 75.231 209.379 74.7329C209.169 74.2349 208.867 73.8503 208.474 73.5791C208.081 73.3079 207.613 73.1724 207.071 73.1724C206.529 73.1724 206.061 73.3079 205.668 73.5791C205.281 73.8447 204.982 74.2266 204.772 74.7246C204.567 75.2227 204.465 75.8203 204.465 76.5176V76.5342C204.465 77.2259 204.567 77.8236 204.772 78.3271C204.982 78.8252 205.281 79.2098 205.668 79.481C206.061 79.7466 206.529 79.8794 207.071 79.8794ZM213.808 81V72.0518H215.252V73.3799H215.385C215.557 72.9095 215.847 72.5443 216.257 72.2842C216.666 72.0241 217.173 71.894 217.776 71.894C217.914 71.894 218.05 71.9023 218.183 71.9189C218.321 71.93 218.426 71.9411 218.498 71.9521V73.355C218.349 73.3273 218.202 73.3079 218.058 73.2969C217.92 73.2803 217.77 73.272 217.61 73.272C217.151 73.272 216.744 73.3633 216.39 73.5459C216.035 73.7285 215.756 73.9831 215.551 74.3096C215.352 74.6361 215.252 75.0179 215.252 75.4551V81H213.808ZM222.67 81.1577C222.106 81.1577 221.596 81.0498 221.143 80.834C220.694 80.6182 220.338 80.311 220.072 79.9126C219.812 79.5142 219.682 79.0438 219.682 78.5015V78.4849C219.682 77.9536 219.809 77.4998 220.064 77.1235C220.318 76.7417 220.689 76.4429 221.176 76.2271C221.663 76.0112 222.252 75.884 222.944 75.8452L226.231 75.646V76.7998L223.118 76.999C222.438 77.0378 221.94 77.1789 221.624 77.4224C221.314 77.6659 221.159 78.009 221.159 78.4517V78.4683C221.159 78.922 221.331 79.2762 221.674 79.5308C222.017 79.7798 222.449 79.9043 222.969 79.9043C223.461 79.9043 223.899 79.8075 224.28 79.6138C224.662 79.4146 224.961 79.1462 225.177 78.8086C225.398 78.471 225.509 78.0892 225.509 77.6631V74.874C225.509 74.3206 225.34 73.9001 225.003 73.6123C224.671 73.319 224.17 73.1724 223.5 73.1724C222.963 73.1724 222.523 73.2692 222.18 73.4629C221.837 73.651 221.608 73.9194 221.491 74.2681L221.483 74.293H220.039L220.047 74.2432C220.124 73.7728 220.318 73.3633 220.628 73.0146C220.943 72.6605 221.35 72.3866 221.848 72.1929C222.346 71.9937 222.914 71.894 223.55 71.894C224.28 71.894 224.897 72.013 225.401 72.251C225.91 72.4889 226.295 72.832 226.555 73.2803C226.82 73.723 226.953 74.2542 226.953 74.874V81H225.509V79.6802H225.376C225.188 79.9956 224.958 80.264 224.687 80.4854C224.422 80.7067 224.12 80.8755 223.782 80.9917C223.445 81.1024 223.074 81.1577 222.67 81.1577ZM233.209 84.1543C232.489 84.1543 231.861 84.0519 231.324 83.8472C230.788 83.6479 230.359 83.363 230.038 82.9922C229.722 82.627 229.526 82.2008 229.448 81.7139L229.465 81.7056H230.959L230.968 81.7139C231.045 82.0514 231.277 82.3281 231.665 82.5439C232.052 82.7653 232.567 82.876 233.209 82.876C234.011 82.876 234.636 82.6934 235.085 82.3281C235.539 81.9684 235.765 81.4593 235.765 80.8008V78.9912H235.633C235.444 79.3177 235.209 79.5972 234.927 79.8296C234.645 80.062 234.327 80.2391 233.972 80.3608C233.618 80.4771 233.236 80.5352 232.827 80.5352C232.058 80.5352 231.391 80.3525 230.826 79.9873C230.268 79.6165 229.836 79.1074 229.532 78.46C229.227 77.8125 229.075 77.071 229.075 76.2354V76.2188C229.075 75.3831 229.227 74.6416 229.532 73.9941C229.841 73.3411 230.279 72.8293 230.843 72.4585C231.407 72.0822 232.08 71.894 232.86 71.894C233.281 71.894 233.668 71.9604 234.022 72.0933C234.376 72.2261 234.689 72.4142 234.96 72.6577C235.237 72.9012 235.467 73.1917 235.649 73.5293H235.749V72.0518H237.193V80.8755C237.193 81.5396 237.03 82.1178 236.703 82.6104C236.382 83.1029 235.923 83.4819 235.325 83.7476C234.728 84.0187 234.022 84.1543 233.209 84.1543ZM233.142 79.2568C233.696 79.2568 234.169 79.1296 234.562 78.875C234.96 78.6149 235.265 78.258 235.475 77.8042C235.691 77.3504 235.799 76.8275 235.799 76.2354V76.2188C235.799 75.6266 235.691 75.1009 235.475 74.6416C235.265 74.1823 234.96 73.8226 234.562 73.5625C234.169 73.3024 233.696 73.1724 233.142 73.1724C232.589 73.1724 232.119 73.3024 231.731 73.5625C231.349 73.8226 231.056 74.1823 230.851 74.6416C230.652 75.1009 230.553 75.6266 230.553 76.2188V76.2354C230.553 76.8275 230.652 77.3504 230.851 77.8042C231.056 78.258 231.349 78.6149 231.731 78.875C232.119 79.1296 232.589 79.2568 233.142 79.2568ZM246.981 81.1577C246.417 81.1577 245.908 81.0498 245.454 80.834C245.006 80.6182 244.649 80.311 244.383 79.9126C244.123 79.5142 243.993 79.0438 243.993 78.5015V78.4849C243.993 77.9536 244.12 77.4998 244.375 77.1235C244.63 76.7417 245 76.4429 245.487 76.2271C245.974 76.0112 246.564 75.884 247.255 75.8452L250.542 75.646V76.7998L247.43 76.999C246.749 77.0378 246.251 77.1789 245.936 77.4224C245.626 77.6659 245.471 78.009 245.471 78.4517V78.4683C245.471 78.922 245.642 79.2762 245.985 79.5308C246.328 79.7798 246.76 79.9043 247.28 79.9043C247.773 79.9043 248.21 79.8075 248.592 79.6138C248.974 79.4146 249.272 79.1462 249.488 78.8086C249.71 78.471 249.82 78.0892 249.82 77.6631V74.874C249.82 74.3206 249.652 73.9001 249.314 73.6123C248.982 73.319 248.481 73.1724 247.812 73.1724C247.275 73.1724 246.835 73.2692 246.492 73.4629C246.149 73.651 245.919 73.9194 245.803 74.2681L245.794 74.293H244.35L244.358 74.2432C244.436 73.7728 244.63 73.3633 244.939 73.0146C245.255 72.6605 245.662 72.3866 246.16 72.1929C246.658 71.9937 247.225 71.894 247.861 71.894C248.592 71.894 249.209 72.013 249.712 72.251C250.222 72.4889 250.606 72.832 250.866 73.2803C251.132 73.723 251.265 74.2542 251.265 74.874V81H249.82V79.6802H249.688C249.499 79.9956 249.27 80.264 248.999 80.4854C248.733 80.7067 248.431 80.8755 248.094 80.9917C247.756 81.1024 247.385 81.1577 246.981 81.1577ZM253.835 81V72.0518H255.279V73.3965H255.412C255.639 72.9206 255.965 72.5526 256.391 72.2925C256.817 72.0269 257.36 71.894 258.018 71.894C259.025 71.894 259.797 72.1818 260.334 72.7573C260.876 73.3273 261.148 74.1436 261.148 75.2061V81H259.703V75.5547C259.703 74.7467 259.532 74.1491 259.189 73.7617C258.851 73.3688 258.325 73.1724 257.611 73.1724C257.136 73.1724 256.723 73.2747 256.375 73.4795C256.026 73.6842 255.755 73.9748 255.561 74.3511C255.373 74.7274 255.279 75.1784 255.279 75.7041V81H253.835ZM266.996 81.1577C266.244 81.1577 265.585 80.9668 265.021 80.585C264.456 80.2031 264.019 79.6663 263.709 78.9746C263.399 78.2773 263.244 77.4639 263.244 76.5342V76.5176C263.244 75.5824 263.399 74.7689 263.709 74.0771C264.019 73.3854 264.454 72.8486 265.012 72.4668C265.577 72.085 266.238 71.894 266.996 71.894C267.406 71.894 267.79 71.9604 268.15 72.0933C268.515 72.2205 268.839 72.4004 269.121 72.6328C269.404 72.8652 269.625 73.1419 269.785 73.4629H269.918V68.499H271.363V81H269.918V79.5723H269.785C269.603 79.9043 269.373 80.1893 269.096 80.4272C268.82 80.6597 268.504 80.8395 268.15 80.9668C267.796 81.0941 267.411 81.1577 266.996 81.1577ZM267.328 79.8794C267.871 79.8794 268.338 79.7438 268.731 79.4727C269.124 79.2015 269.426 78.8169 269.636 78.3188C269.846 77.8153 269.951 77.2204 269.951 76.5342V76.5176C269.951 75.8258 269.846 75.231 269.636 74.7329C269.426 74.2349 269.124 73.8503 268.731 73.5791C268.338 73.3079 267.871 73.1724 267.328 73.1724C266.786 73.1724 266.318 73.3079 265.926 73.5791C265.538 73.8447 265.239 74.2266 265.029 74.7246C264.824 75.2227 264.722 75.8203 264.722 76.5176V76.5342C264.722 77.2259 264.824 77.8236 265.029 78.3271C265.239 78.8252 265.538 79.2098 265.926 79.481C266.318 79.7466 266.786 79.8794 267.328 79.8794ZM282.081 81.1577C281.328 81.1577 280.669 80.9668 280.105 80.585C279.541 80.2031 279.103 79.6663 278.793 78.9746C278.484 78.2773 278.329 77.4639 278.329 76.5342V76.5176C278.329 75.5824 278.484 74.7689 278.793 74.0771C279.103 73.3854 279.538 72.8486 280.097 72.4668C280.661 72.085 281.322 71.894 282.081 71.894C282.49 71.894 282.875 71.9604 283.234 72.0933C283.6 72.2205 283.923 72.4004 284.206 72.6328C284.488 72.8652 284.709 73.1419 284.87 73.4629H285.002V68.499H286.447V81H285.002V79.5723H284.87C284.687 79.9043 284.457 80.1893 284.181 80.4272C283.904 80.6597 283.589 80.8395 283.234 80.9668C282.88 81.0941 282.496 81.1577 282.081 81.1577ZM282.413 79.8794C282.955 79.8794 283.423 79.7438 283.815 79.4727C284.208 79.2015 284.51 78.8169 284.72 78.3188C284.931 77.8153 285.036 77.2204 285.036 76.5342V76.5176C285.036 75.8258 284.931 75.231 284.72 74.7329C284.51 74.2349 284.208 73.8503 283.815 73.5791C283.423 73.3079 282.955 73.1724 282.413 73.1724C281.87 73.1724 281.403 73.3079 281.01 73.5791C280.622 73.8447 280.324 74.2266 280.113 74.7246C279.909 75.2227 279.806 75.8203 279.806 76.5176V76.5342C279.806 77.2259 279.909 77.8236 280.113 78.3271C280.324 78.8252 280.622 79.2098 281.01 79.481C281.403 79.7466 281.87 79.8794 282.413 79.8794ZM289.15 81V72.0518H290.594V73.3799H290.727C290.898 72.9095 291.189 72.5443 291.598 72.2842C292.008 72.0241 292.514 71.894 293.117 71.894C293.256 71.894 293.391 71.9023 293.524 71.9189C293.662 71.93 293.768 71.9411 293.84 71.9521V73.355C293.69 73.3273 293.543 73.3079 293.4 73.2969C293.261 73.2803 293.112 73.272 292.951 73.272C292.492 73.272 292.085 73.3633 291.731 73.5459C291.377 73.7285 291.097 73.9831 290.893 74.3096C290.694 74.6361 290.594 75.0179 290.594 75.4551V81H289.15ZM298.983 81.1577C298.136 81.1577 297.403 80.9723 296.783 80.6016C296.169 80.2253 295.693 79.6912 295.355 78.9995C295.023 78.3078 294.857 77.486 294.857 76.5342V76.5176C294.857 75.5602 295.023 74.7357 295.355 74.0439C295.693 73.3522 296.169 72.821 296.783 72.4502C297.403 72.0794 298.136 71.894 298.983 71.894C299.835 71.894 300.568 72.0794 301.182 72.4502C301.797 72.821 302.27 73.3522 302.602 74.0439C302.939 74.7357 303.108 75.5602 303.108 76.5176V76.5342C303.108 77.486 302.939 78.3078 302.602 78.9995C302.27 79.6912 301.797 80.2253 301.182 80.6016C300.568 80.9723 299.835 81.1577 298.983 81.1577ZM298.983 79.8794C299.547 79.8794 300.026 79.7466 300.419 79.481C300.812 79.2153 301.11 78.8335 301.315 78.3354C301.526 77.8374 301.631 77.237 301.631 76.5342V76.5176C301.631 75.8092 301.526 75.2061 301.315 74.708C301.11 74.21 300.812 73.8309 300.419 73.5708C300.026 73.3052 299.547 73.1724 298.983 73.1724C298.418 73.1724 297.94 73.3052 297.547 73.5708C297.154 73.8309 296.852 74.21 296.642 74.708C296.437 75.2061 296.335 75.8092 296.335 76.5176V76.5342C296.335 77.237 296.437 77.8374 296.642 78.3354C296.852 78.8335 297.154 79.2153 297.547 79.481C297.94 79.7466 298.418 79.8794 298.983 79.8794ZM305.28 83.9883V72.0518H306.724V73.4795H306.857C307.039 73.1475 307.269 72.8652 307.546 72.6328C307.822 72.3949 308.138 72.2122 308.492 72.085C308.846 71.9577 309.231 71.894 309.646 71.894C310.404 71.894 311.063 72.0877 311.621 72.4751C312.186 72.8569 312.623 73.3937 312.933 74.0854C313.243 74.7772 313.398 75.5879 313.398 76.5176V76.5342C313.398 77.4694 313.243 78.2829 312.933 78.9746C312.623 79.6663 312.186 80.2031 311.621 80.585C311.063 80.9668 310.404 81.1577 309.646 81.1577C309.236 81.1577 308.849 81.0941 308.484 80.9668C308.124 80.834 307.803 80.6514 307.521 80.4189C307.244 80.1865 307.023 79.9098 306.857 79.5889H306.724V83.9883H305.28ZM309.314 79.8794C309.862 79.8794 310.329 79.7466 310.717 79.481C311.104 79.2098 311.4 78.8252 311.605 78.3271C311.815 77.8236 311.92 77.2259 311.92 76.5342V76.5176C311.92 75.8203 311.815 75.2227 311.605 74.7246C311.4 74.2266 311.104 73.8447 310.717 73.5791C310.329 73.3079 309.862 73.1724 309.314 73.1724C308.772 73.1724 308.304 73.3079 307.911 73.5791C307.518 73.8503 307.217 74.2349 307.006 74.7329C306.796 75.231 306.691 75.8258 306.691 76.5176V76.5342C306.691 77.2204 306.796 77.8153 307.006 78.3188C307.217 78.8169 307.518 79.2015 307.911 79.4727C308.304 79.7438 308.772 79.8794 309.314 79.8794Z"
        fill="#1C1C1C" fill-opacity="0.8" />
    <path
        d="M119.692 110.285C119.281 109.739 118.943 109.16 118.676 108.546C118.41 107.932 118.211 107.278 118.08 106.584C117.953 105.89 117.889 105.15 117.889 104.363C117.889 103.576 117.953 102.837 118.08 102.147C118.207 101.453 118.403 100.8 118.67 100.186C118.937 99.5682 119.277 98.9863 119.692 98.4404H120.619C120.39 98.7324 120.177 99.1006 119.978 99.5449C119.783 99.9893 119.614 100.48 119.47 101.018C119.326 101.551 119.214 102.105 119.133 102.681C119.053 103.252 119.013 103.813 119.013 104.363C119.013 104.917 119.053 105.482 119.133 106.058C119.214 106.629 119.326 107.183 119.47 107.721C119.614 108.254 119.783 108.741 119.978 109.181C120.177 109.625 120.39 109.993 120.619 110.285H119.692ZM122.576 108V98.8403H123.903L127.038 106.483H127.14L130.276 98.8403H131.602V108H130.536V101.005H129.977L131.26 99.0942L127.572 108H126.607L122.925 99.0942L124.201 101.005H123.642V108H122.576ZM135.768 108.121C135.337 108.121 134.948 108.038 134.601 107.873C134.258 107.708 133.985 107.473 133.782 107.168C133.583 106.864 133.483 106.504 133.483 106.089V106.077C133.483 105.67 133.581 105.323 133.775 105.036C133.97 104.744 134.254 104.515 134.626 104.35C134.998 104.185 135.449 104.088 135.978 104.058L138.492 103.906V104.788L136.111 104.94C135.591 104.97 135.21 105.078 134.969 105.264C134.732 105.45 134.613 105.713 134.613 106.051V106.064C134.613 106.411 134.744 106.682 135.007 106.876C135.269 107.067 135.599 107.162 135.997 107.162C136.374 107.162 136.708 107.088 137 106.94C137.292 106.788 137.52 106.582 137.685 106.324C137.855 106.066 137.939 105.774 137.939 105.448V103.315C137.939 102.892 137.81 102.571 137.552 102.351C137.298 102.126 136.915 102.014 136.403 102.014C135.993 102.014 135.656 102.088 135.394 102.236C135.132 102.38 134.956 102.585 134.867 102.852L134.861 102.871H133.756L133.763 102.833C133.822 102.473 133.97 102.16 134.207 101.894C134.448 101.623 134.759 101.413 135.14 101.265C135.521 101.113 135.955 101.037 136.441 101.037C137 101.037 137.472 101.128 137.857 101.31C138.246 101.492 138.54 101.754 138.739 102.097C138.942 102.435 139.044 102.841 139.044 103.315V108H137.939V106.991H137.838C137.694 107.232 137.518 107.437 137.311 107.606C137.108 107.776 136.877 107.905 136.619 107.994C136.361 108.078 136.077 108.121 135.768 108.121ZM140.608 108L142.95 104.579L140.582 101.157H141.883L143.508 103.703H143.61L145.216 101.157H146.454L144.13 104.534L146.485 108H145.191L143.572 105.417H143.47L141.845 108H140.608ZM148.963 108.063C148.739 108.063 148.544 107.983 148.379 107.822C148.218 107.657 148.138 107.463 148.138 107.238C148.138 107.01 148.218 106.815 148.379 106.654C148.544 106.493 148.739 106.413 148.963 106.413C149.192 106.413 149.386 106.493 149.547 106.654C149.708 106.815 149.788 107.01 149.788 107.238C149.788 107.463 149.708 107.657 149.547 107.822C149.386 107.983 149.192 108.063 148.963 108.063ZM155.899 108V98.8403H161.46V99.8687H157.042V103.017H161.098V104.033H157.042V108H155.899ZM163.315 108V101.157H164.42V108H163.315ZM163.874 99.8369C163.667 99.8369 163.487 99.7629 163.334 99.6147C163.186 99.4624 163.112 99.2826 163.112 99.0752C163.112 98.8636 163.186 98.6838 163.334 98.5356C163.487 98.3875 163.667 98.3135 163.874 98.3135C164.085 98.3135 164.265 98.3875 164.413 98.5356C164.562 98.6838 164.636 98.8636 164.636 99.0752C164.636 99.2826 164.562 99.4624 164.413 99.6147C164.265 99.7629 164.085 99.8369 163.874 99.8369ZM166.656 108V98.4404H167.761V108H166.656ZM172.765 108.121C172.113 108.121 171.552 107.977 171.083 107.689C170.617 107.401 170.258 106.995 170.004 106.47C169.754 105.941 169.629 105.319 169.629 104.604V104.598C169.629 103.891 169.754 103.271 170.004 102.738C170.258 102.205 170.615 101.788 171.076 101.487C171.538 101.187 172.077 101.037 172.695 101.037C173.317 101.037 173.85 101.181 174.295 101.468C174.743 101.756 175.086 102.158 175.323 102.674C175.564 103.186 175.685 103.783 175.685 104.464V104.896H170.2V104.014H175.12L174.574 104.82V104.382C174.574 103.844 174.494 103.402 174.333 103.055C174.172 102.708 173.95 102.45 173.666 102.281C173.383 102.107 173.057 102.021 172.689 102.021C172.321 102.021 171.99 102.111 171.698 102.293C171.411 102.471 171.182 102.736 171.013 103.087C170.844 103.438 170.759 103.87 170.759 104.382V104.82C170.759 105.306 170.842 105.723 171.007 106.07C171.172 106.413 171.406 106.678 171.711 106.864C172.016 107.046 172.376 107.137 172.79 107.137C173.099 107.137 173.368 107.094 173.596 107.01C173.825 106.925 174.013 106.817 174.161 106.686C174.309 106.555 174.413 106.422 174.472 106.286L174.498 106.229H175.602L175.59 106.28C175.53 106.513 175.425 106.739 175.272 106.959C175.124 107.175 174.932 107.372 174.695 107.549C174.458 107.723 174.176 107.862 173.85 107.968C173.529 108.07 173.167 108.121 172.765 108.121ZM183.586 108.121C183.078 108.121 182.629 108.044 182.24 107.892C181.851 107.736 181.537 107.518 181.3 107.238C181.068 106.959 180.93 106.631 180.888 106.254H182.018C182.111 106.538 182.293 106.766 182.564 106.94C182.834 107.113 183.188 107.2 183.624 107.2C183.933 107.2 184.203 107.156 184.436 107.067C184.673 106.974 184.859 106.849 184.995 106.692C185.13 106.532 185.198 106.347 185.198 106.14V106.127C185.198 105.895 185.105 105.698 184.919 105.537C184.732 105.372 184.428 105.239 184.004 105.137L182.944 104.883C182.517 104.782 182.166 104.651 181.891 104.49C181.616 104.325 181.413 104.124 181.281 103.887C181.15 103.646 181.085 103.362 181.085 103.036V103.03C181.085 102.649 181.195 102.308 181.415 102.008C181.639 101.707 181.944 101.47 182.329 101.297C182.714 101.123 183.148 101.037 183.63 101.037C184.108 101.037 184.531 101.113 184.9 101.265C185.272 101.413 185.57 101.625 185.795 101.9C186.023 102.175 186.163 102.499 186.213 102.871H185.128C185.056 102.6 184.891 102.38 184.633 102.211C184.375 102.042 184.038 101.957 183.624 101.957C183.353 101.957 183.112 102.001 182.9 102.09C182.688 102.175 182.521 102.293 182.399 102.446C182.276 102.598 182.214 102.776 182.214 102.979V102.992C182.214 103.144 182.255 103.279 182.335 103.398C182.415 103.516 182.54 103.62 182.71 103.709C182.879 103.798 183.097 103.876 183.363 103.944L184.417 104.198C185.06 104.354 185.539 104.579 185.852 104.871C186.169 105.163 186.328 105.554 186.328 106.045V106.058C186.328 106.464 186.207 106.824 185.966 107.137C185.725 107.446 185.397 107.687 184.982 107.86C184.572 108.034 184.106 108.121 183.586 108.121ZM188.158 108V101.157H189.262V108H188.158ZM188.717 99.8369C188.509 99.8369 188.329 99.7629 188.177 99.6147C188.029 99.4624 187.955 99.2826 187.955 99.0752C187.955 98.8636 188.029 98.6838 188.177 98.5356C188.329 98.3875 188.509 98.3135 188.717 98.3135C188.928 98.3135 189.108 98.3875 189.256 98.5356C189.404 98.6838 189.478 98.8636 189.478 99.0752C189.478 99.2826 189.404 99.4624 189.256 99.6147C189.108 99.7629 188.928 99.8369 188.717 99.8369ZM191.277 108V107.2L195.225 102.173V102.071H191.283V101.157H196.526V101.976L192.597 106.984V107.086H196.545V108H191.277ZM201.137 108.121C200.485 108.121 199.924 107.977 199.455 107.689C198.989 107.401 198.63 106.995 198.376 106.47C198.126 105.941 198.001 105.319 198.001 104.604V104.598C198.001 103.891 198.126 103.271 198.376 102.738C198.63 102.205 198.987 101.788 199.448 101.487C199.91 101.187 200.449 101.037 201.067 101.037C201.689 101.037 202.222 101.181 202.667 101.468C203.115 101.756 203.458 102.158 203.695 102.674C203.936 103.186 204.057 103.783 204.057 104.464V104.896H198.572V104.014H203.492L202.946 104.82V104.382C202.946 103.844 202.866 103.402 202.705 103.055C202.544 102.708 202.322 102.45 202.038 102.281C201.755 102.107 201.429 102.021 201.061 102.021C200.693 102.021 200.362 102.111 200.07 102.293C199.783 102.471 199.554 102.736 199.385 103.087C199.216 103.438 199.131 103.87 199.131 104.382V104.82C199.131 105.306 199.214 105.723 199.379 106.07C199.544 106.413 199.778 106.678 200.083 106.864C200.388 107.046 200.748 107.137 201.162 107.137C201.471 107.137 201.74 107.094 201.968 107.01C202.197 106.925 202.385 106.817 202.533 106.686C202.681 106.555 202.785 106.422 202.844 106.286L202.87 106.229H203.974L203.962 106.28C203.902 106.513 203.797 106.739 203.644 106.959C203.496 107.175 203.304 107.372 203.067 107.549C202.83 107.723 202.548 107.862 202.222 107.968C201.901 108.07 201.539 108.121 201.137 108.121ZM206.763 108.063C206.539 108.063 206.344 107.983 206.179 107.822C206.018 107.657 205.938 107.463 205.938 107.238C205.938 107.01 206.018 106.815 206.179 106.654C206.344 106.493 206.539 106.413 206.763 106.413C206.992 106.413 207.186 106.493 207.347 106.654C207.508 106.815 207.588 107.01 207.588 107.238C207.588 107.463 207.508 107.657 207.347 107.822C207.186 107.983 206.992 108.063 206.763 108.063ZM206.763 103.15C206.539 103.15 206.344 103.07 206.179 102.909C206.018 102.744 205.938 102.549 205.938 102.325C205.938 102.097 206.018 101.902 206.179 101.741C206.344 101.58 206.539 101.5 206.763 101.5C206.992 101.5 207.186 101.58 207.347 101.741C207.508 101.902 207.588 102.097 207.588 102.325C207.588 102.549 207.508 102.744 207.347 102.909C207.186 103.07 206.992 103.15 206.763 103.15ZM213.553 108V107.213L216.651 103.861C217.04 103.438 217.345 103.089 217.565 102.814C217.785 102.535 217.939 102.283 218.028 102.059C218.117 101.834 218.161 101.589 218.161 101.322V101.31C218.161 100.988 218.091 100.7 217.952 100.446C217.812 100.192 217.613 99.9914 217.355 99.8433C217.097 99.6951 216.788 99.6211 216.428 99.6211C216.064 99.6211 215.745 99.6973 215.47 99.8496C215.195 99.9977 214.981 100.207 214.829 100.478C214.676 100.745 214.6 101.058 214.6 101.417L214.594 101.43L213.502 101.424L213.489 101.417C213.494 100.876 213.625 100.396 213.883 99.9766C214.141 99.5534 214.497 99.2233 214.949 98.9863C215.402 98.7451 215.921 98.6245 216.505 98.6245C217.038 98.6245 217.518 98.7367 217.945 98.9609C218.373 99.181 218.709 99.4836 218.955 99.8687C219.204 100.254 219.329 100.694 219.329 101.189V101.202C219.329 101.549 219.268 101.883 219.145 102.205C219.027 102.526 218.815 102.884 218.51 103.277C218.206 103.667 217.776 104.147 217.222 104.718L214.854 107.162L215.14 106.635V107.162L214.861 106.972H219.482V108H213.553ZM224.498 108.216C223.931 108.216 223.426 108.104 222.981 107.879C222.537 107.655 222.179 107.35 221.909 106.965C221.642 106.576 221.485 106.138 221.439 105.651L221.432 105.582H222.531L222.537 105.632C222.575 105.924 222.681 106.191 222.854 106.432C223.032 106.669 223.263 106.857 223.546 106.997C223.834 107.137 224.156 107.207 224.511 107.207C224.917 107.207 225.275 107.118 225.584 106.94C225.893 106.758 226.134 106.508 226.307 106.191C226.481 105.874 226.568 105.51 226.568 105.099V105.086C226.568 104.68 226.479 104.32 226.301 104.007C226.128 103.69 225.889 103.442 225.584 103.265C225.279 103.087 224.928 102.998 224.53 102.998C224.225 102.998 223.944 103.045 223.686 103.138C223.432 103.231 223.206 103.37 223.007 103.557C222.926 103.633 222.85 103.715 222.778 103.804C222.71 103.893 222.647 103.993 222.588 104.103H221.598L222.08 98.8403H227.177V99.8623H222.981L222.67 102.96H222.772C222.907 102.753 223.074 102.579 223.273 102.439C223.472 102.3 223.694 102.194 223.94 102.122C224.189 102.046 224.452 102.008 224.727 102.008C225.302 102.008 225.812 102.141 226.257 102.408C226.701 102.67 227.05 103.032 227.304 103.493C227.558 103.95 227.685 104.475 227.685 105.067V105.08C227.685 105.694 227.547 106.237 227.272 106.711C227.002 107.181 226.627 107.549 226.149 107.816C225.671 108.083 225.12 108.216 224.498 108.216ZM233.51 108V98.8403H234.837L237.972 106.483H238.074L241.21 98.8403H242.536V108H241.47V101.005H240.911L242.194 99.0942L238.506 108H237.541L233.859 99.0942L235.135 101.005H234.576V108H233.51ZM245.535 108V106.991H248.366C249.055 106.991 249.578 106.853 249.934 106.578C250.289 106.303 250.467 105.903 250.467 105.378V105.366C250.467 105.014 250.384 104.72 250.219 104.483C250.054 104.246 249.807 104.069 249.477 103.95C249.151 103.832 248.744 103.772 248.258 103.772H245.535V102.789H247.934C248.628 102.789 249.149 102.666 249.496 102.42C249.847 102.175 250.022 101.811 250.022 101.329V101.316C250.022 100.85 249.864 100.491 249.546 100.237C249.233 99.9787 248.793 99.8496 248.226 99.8496H245.535V98.8403H248.467C249.03 98.8403 249.512 98.9334 249.914 99.1196C250.321 99.3058 250.632 99.5703 250.848 99.9131C251.068 100.252 251.178 100.654 251.178 101.119V101.132C251.178 101.449 251.106 101.748 250.962 102.027C250.822 102.306 250.634 102.541 250.397 102.731C250.16 102.922 249.893 103.045 249.597 103.1V103.201C250.016 103.252 250.378 103.377 250.683 103.576C250.987 103.775 251.222 104.033 251.387 104.35C251.556 104.663 251.641 105.021 251.641 105.423V105.436C251.641 105.969 251.516 106.428 251.267 106.813C251.021 107.194 250.668 107.488 250.206 107.695C249.745 107.898 249.189 108 248.537 108H245.535ZM244.963 108V98.8403H246.106V108H244.963ZM254.055 110.285H253.129C253.357 109.993 253.569 109.625 253.763 109.181C253.962 108.741 254.134 108.254 254.277 107.721C254.421 107.183 254.533 106.629 254.614 106.058C254.694 105.482 254.734 104.917 254.734 104.363C254.734 103.813 254.694 103.252 254.614 102.681C254.533 102.105 254.421 101.551 254.277 101.018C254.134 100.48 253.962 99.9893 253.763 99.5449C253.569 99.1006 253.357 98.7324 253.129 98.4404H254.055C254.47 98.9863 254.811 99.5682 255.077 100.186C255.344 100.8 255.541 101.453 255.668 102.147C255.795 102.837 255.858 103.576 255.858 104.363C255.858 105.15 255.792 105.89 255.661 106.584C255.534 107.278 255.338 107.932 255.071 108.546C254.809 109.16 254.47 109.739 254.055 110.285Z"
        fill="#1C1C1C" fill-opacity="0.6" />
</svg>
