<svg width="370" height="124" viewBox="0 0 370 124" fill="none" xmlns="http://www.w3.org/2000/svg">
    <rect x="0.5" y="0.5" width="369" height="123" fill="#1C1C1C" fill-opacity="0.06"/>
    <rect x="0.5" y="0.5" width="369" height="123" stroke="#6C63FF" stroke-dasharray="6 6"/>
    <path d="M197 33.9998V41.9998C197 42.265 196.895 42.5194 196.707 42.7069C196.52 42.8945 196.265 42.9998 196 42.9998H174C173.735 42.9998 173.48 42.8945 173.293 42.7069C173.105 42.5194 173 42.265 173 41.9998V33.9998C173 33.7346 173.105 33.4802 173.293 33.2927C173.48 33.1052 173.735 32.9998 174 32.9998C174.265 32.9998 174.52 33.1052 174.707 33.2927C174.895 33.4802 175 33.7346 175 33.9998V40.9998H195V33.9998C195 33.7346 195.105 33.4802 195.293 33.2927C195.48 33.1052 195.735 32.9998 196 32.9998C196.265 32.9998 196.52 33.1052 196.707 33.2927C196.895 33.4802 197 33.7346 197 33.9998ZM180.708 25.7073L184 22.4136V33.9998C184 34.265 184.105 34.5194 184.293 34.7069C184.48 34.8945 184.735 34.9998 185 34.9998C185.265 34.9998 185.52 34.8945 185.707 34.7069C185.895 34.5194 186 34.265 186 33.9998V22.4136L189.292 25.7073C189.48 25.895 189.735 26.0004 190 26.0004C190.265 26.0004 190.52 25.895 190.708 25.7073C190.895 25.5197 191.001 25.2652 191.001 24.9998C191.001 24.7344 190.895 24.48 190.708 24.2923L185.708 19.2923C185.615 19.1993 185.504 19.1256 185.383 19.0753C185.262 19.0249 185.131 18.999 185 18.999C184.869 18.999 184.738 19.0249 184.617 19.0753C184.496 19.1256 184.385 19.1993 184.292 19.2923L179.292 24.2923C179.105 24.48 178.999 24.7344 178.999 24.9998C178.999 25.2652 179.105 25.5197 179.292 25.7073C179.48 25.895 179.735 26.0004 180 26.0004C180.265 26.0004 180.52 25.895 180.708 25.7073Z" fill="#6C63FF"/>
    <path d="M139.229 81.2324C138.336 81.2324 137.564 81.0228 136.912 80.6035C136.26 80.1842 135.757 79.5895 135.401 78.8193C135.05 78.0492 134.875 77.1354 134.875 76.0781V76.0645C134.875 75.0026 135.05 74.0866 135.401 73.3164C135.757 72.5462 136.258 71.9515 136.905 71.5322C137.557 71.113 138.329 70.9033 139.223 70.9033C139.915 70.9033 140.544 71.04 141.109 71.3135C141.679 71.5824 142.148 71.9583 142.518 72.4414C142.887 72.9199 143.119 73.4736 143.215 74.1025L143.208 74.1162H141.971L141.964 74.1025C141.854 73.6787 141.67 73.3141 141.41 73.0088C141.15 72.6989 140.834 72.4596 140.46 72.291C140.091 72.1224 139.678 72.0381 139.223 72.0381C138.594 72.0381 138.047 72.2021 137.582 72.5303C137.122 72.8584 136.766 73.3232 136.516 73.9248C136.265 74.5264 136.14 75.2396 136.14 76.0645V76.0781C136.14 76.8984 136.265 77.6094 136.516 78.2109C136.766 78.8125 137.122 79.2773 137.582 79.6055C138.047 79.9336 138.596 80.0977 139.229 80.0977C139.69 80.0977 140.107 80.0247 140.48 79.8789C140.854 79.7285 141.169 79.5166 141.424 79.2432C141.679 78.9652 141.857 78.637 141.957 78.2588L141.971 78.2451H143.215V78.2588C143.105 78.8604 142.868 79.3844 142.504 79.8311C142.139 80.2731 141.677 80.6172 141.116 80.8633C140.56 81.1094 139.931 81.2324 139.229 81.2324ZM145.267 81V70.7051H146.457V81H145.267ZM148.837 81V73.6309H150.027V81H148.837ZM149.439 72.209C149.216 72.209 149.022 72.1292 148.858 71.9697C148.698 71.8057 148.619 71.612 148.619 71.3887C148.619 71.1608 148.698 70.9671 148.858 70.8076C149.022 70.6481 149.216 70.5684 149.439 70.5684C149.667 70.5684 149.86 70.6481 150.02 70.8076C150.179 70.9671 150.259 71.1608 150.259 71.3887C150.259 71.612 150.179 71.8057 150.02 71.9697C149.86 72.1292 149.667 72.209 149.439 72.209ZM155.354 81.1299C154.665 81.1299 154.068 80.9727 153.563 80.6582C153.057 80.3438 152.665 79.8994 152.387 79.3252C152.109 78.751 151.97 78.0742 151.97 77.2949V77.2812C151.97 76.5156 152.106 75.8503 152.38 75.2852C152.658 74.7201 153.05 74.2826 153.556 73.9727C154.062 73.6582 154.659 73.501 155.347 73.501C155.944 73.501 156.459 73.6058 156.892 73.8154C157.325 74.0251 157.671 74.3076 157.931 74.6631C158.19 75.014 158.357 75.4082 158.43 75.8457L158.437 75.8867H157.254L157.247 75.8662C157.156 75.5016 156.949 75.1917 156.625 74.9365C156.301 74.6813 155.875 74.5537 155.347 74.5537C154.905 74.5537 154.522 74.6654 154.198 74.8887C153.875 75.112 153.624 75.4287 153.446 75.8389C153.273 76.2445 153.187 76.7253 153.187 77.2812V77.2949C153.187 77.86 153.275 78.3522 153.453 78.7715C153.631 79.1862 153.882 79.5075 154.205 79.7354C154.529 79.9632 154.909 80.0771 155.347 80.0771C155.843 80.0771 156.249 79.9701 156.564 79.7559C156.878 79.5417 157.104 79.2295 157.24 78.8193L157.254 78.7783L158.43 78.7715L158.416 78.8467C158.316 79.2887 158.138 79.6829 157.883 80.0293C157.628 80.3711 157.29 80.64 156.871 80.8359C156.452 81.0319 155.946 81.1299 155.354 81.1299ZM160.311 81V70.7051H161.501V81H160.311ZM164.953 81L162.075 77.3906L162.95 76.6318L166.45 81H164.953ZM161.35 78.3477L161.296 76.8506H161.61L164.796 73.6309H166.238L162.738 77.0078L162.451 77.2881L161.35 78.3477ZM174.54 81.0547C173.784 81.0547 173.234 80.902 172.893 80.5967C172.555 80.2913 172.387 79.7878 172.387 79.0859V74.6152H171.225V73.6309H172.387V71.7236H173.617V73.6309H175.231V74.6152H173.617V78.7852C173.617 79.2181 173.699 79.5303 173.863 79.7217C174.027 79.9085 174.301 80.002 174.684 80.002C174.788 80.002 174.877 79.9997 174.95 79.9951C175.028 79.9906 175.121 79.9837 175.231 79.9746V80.9863C175.117 81.0046 175.003 81.0205 174.889 81.0342C174.775 81.0479 174.659 81.0547 174.54 81.0547ZM180.011 81.1299C179.313 81.1299 178.709 80.9772 178.199 80.6719C177.693 80.362 177.301 79.9222 177.023 79.3525C176.75 78.7829 176.613 78.1061 176.613 77.3223V77.3086C176.613 76.5202 176.75 75.8411 177.023 75.2715C177.301 74.7018 177.693 74.2643 178.199 73.959C178.709 73.6536 179.313 73.501 180.011 73.501C180.712 73.501 181.316 73.6536 181.822 73.959C182.328 74.2643 182.718 74.7018 182.991 75.2715C183.269 75.8411 183.408 76.5202 183.408 77.3086V77.3223C183.408 78.1061 183.269 78.7829 182.991 79.3525C182.718 79.9222 182.328 80.362 181.822 80.6719C181.316 80.9772 180.712 81.1299 180.011 81.1299ZM180.011 80.0771C180.475 80.0771 180.87 79.9678 181.193 79.749C181.517 79.5303 181.763 79.2158 181.931 78.8057C182.105 78.3955 182.191 77.901 182.191 77.3223V77.3086C182.191 76.7253 182.105 76.2285 181.931 75.8184C181.763 75.4082 181.517 75.096 181.193 74.8818C180.87 74.6631 180.475 74.5537 180.011 74.5537C179.546 74.5537 179.151 74.6631 178.828 74.8818C178.504 75.096 178.256 75.4082 178.083 75.8184C177.914 76.2285 177.83 76.7253 177.83 77.3086V77.3223C177.83 77.901 177.914 78.3955 178.083 78.8057C178.256 79.2158 178.504 79.5303 178.828 79.749C179.151 79.9678 179.546 80.0771 180.011 80.0771ZM193.392 81.2324C192.576 81.2324 191.874 81.0798 191.286 80.7744C190.703 80.4691 190.254 80.0452 189.94 79.5029C189.625 78.9561 189.468 78.3249 189.468 77.6094V71.1357H190.698V77.5273C190.698 78.0332 190.803 78.4798 191.013 78.8672C191.227 79.25 191.535 79.5508 191.936 79.7695C192.337 79.9883 192.822 80.0977 193.392 80.0977C193.961 80.0977 194.444 79.9883 194.841 79.7695C195.242 79.5508 195.547 79.25 195.757 78.8672C195.967 78.4798 196.071 78.0332 196.071 77.5273V71.1357H197.302V77.6094C197.302 78.3249 197.145 78.9561 196.83 79.5029C196.52 80.0452 196.074 80.4691 195.49 80.7744C194.907 81.0798 194.207 81.2324 193.392 81.2324ZM199.723 83.4609V73.6309H200.913V74.8066H201.022C201.173 74.5332 201.362 74.3008 201.59 74.1094C201.818 73.9134 202.077 73.763 202.369 73.6582C202.661 73.5534 202.977 73.501 203.319 73.501C203.943 73.501 204.486 73.6605 204.946 73.9795C205.411 74.2939 205.771 74.736 206.026 75.3057C206.281 75.8753 206.409 76.543 206.409 77.3086V77.3223C206.409 78.0924 206.281 78.7624 206.026 79.332C205.771 79.9017 205.411 80.3438 204.946 80.6582C204.486 80.9727 203.943 81.1299 203.319 81.1299C202.982 81.1299 202.663 81.0775 202.362 80.9727C202.066 80.8633 201.802 80.7129 201.569 80.5215C201.341 80.3301 201.159 80.1022 201.022 79.8379H200.913V83.4609H199.723ZM203.046 80.0771C203.497 80.0771 203.882 79.9678 204.201 79.749C204.52 79.5257 204.764 79.209 204.932 78.7988C205.106 78.3841 205.192 77.8919 205.192 77.3223V77.3086C205.192 76.7344 205.106 76.2422 204.932 75.832C204.764 75.4219 204.52 75.1074 204.201 74.8887C203.882 74.6654 203.497 74.5537 203.046 74.5537C202.599 74.5537 202.214 74.6654 201.89 74.8887C201.567 75.112 201.318 75.4287 201.145 75.8389C200.972 76.249 200.886 76.7389 200.886 77.3086V77.3223C200.886 77.8874 200.972 78.3773 201.145 78.792C201.318 79.2021 201.567 79.5189 201.89 79.7422C202.214 79.9655 202.599 80.0771 203.046 80.0771ZM208.407 81V70.7051H209.596V81H208.407ZM214.978 81.1299C214.28 81.1299 213.677 80.9772 213.166 80.6719C212.66 80.362 212.268 79.9222 211.99 79.3525C211.717 78.7829 211.58 78.1061 211.58 77.3223V77.3086C211.58 76.5202 211.717 75.8411 211.99 75.2715C212.268 74.7018 212.66 74.2643 213.166 73.959C213.677 73.6536 214.28 73.501 214.978 73.501C215.68 73.501 216.283 73.6536 216.789 73.959C217.295 74.2643 217.685 74.7018 217.958 75.2715C218.236 75.8411 218.375 76.5202 218.375 77.3086V77.3223C218.375 78.1061 218.236 78.7829 217.958 79.3525C217.685 79.9222 217.295 80.362 216.789 80.6719C216.283 80.9772 215.68 81.1299 214.978 81.1299ZM214.978 80.0771C215.443 80.0771 215.837 79.9678 216.16 79.749C216.484 79.5303 216.73 79.2158 216.899 78.8057C217.072 78.3955 217.158 77.901 217.158 77.3223V77.3086C217.158 76.7253 217.072 76.2285 216.899 75.8184C216.73 75.4082 216.484 75.096 216.16 74.8818C215.837 74.6631 215.443 74.5537 214.978 74.5537C214.513 74.5537 214.119 74.6631 213.795 74.8818C213.472 75.096 213.223 75.4082 213.05 75.8184C212.881 76.2285 212.797 76.7253 212.797 77.3086V77.3223C212.797 77.901 212.881 78.3955 213.05 78.8057C213.223 79.2158 213.472 79.5303 213.795 79.749C214.119 79.9678 214.513 80.0771 214.978 80.0771ZM222.314 81.1299C221.849 81.1299 221.43 81.041 221.056 80.8633C220.687 80.6855 220.393 80.4326 220.175 80.1045C219.96 79.7764 219.853 79.389 219.853 78.9424V78.9287C219.853 78.4912 219.958 78.1175 220.168 77.8076C220.377 77.4932 220.683 77.2471 221.084 77.0693C221.485 76.8916 221.97 76.7868 222.54 76.7549L225.247 76.5908V77.541L222.683 77.7051C222.123 77.737 221.713 77.8532 221.453 78.0537C221.198 78.2542 221.07 78.5368 221.07 78.9014V78.915C221.07 79.2887 221.211 79.5804 221.494 79.79C221.777 79.9951 222.132 80.0977 222.56 80.0977C222.966 80.0977 223.326 80.0179 223.64 79.8584C223.955 79.6943 224.201 79.4733 224.379 79.1953C224.561 78.9173 224.652 78.6029 224.652 78.252V75.9551C224.652 75.4993 224.513 75.153 224.235 74.916C223.962 74.6745 223.549 74.5537 222.998 74.5537C222.556 74.5537 222.194 74.6335 221.911 74.793C221.628 74.9479 221.439 75.1689 221.344 75.4561L221.337 75.4766H220.147L220.154 75.4355C220.218 75.0482 220.377 74.7109 220.633 74.4238C220.892 74.1322 221.227 73.9066 221.638 73.7471C222.048 73.583 222.515 73.501 223.039 73.501C223.64 73.501 224.149 73.599 224.563 73.7949C224.983 73.9909 225.299 74.2734 225.514 74.6426C225.732 75.0072 225.842 75.4447 225.842 75.9551V81H224.652V79.9131H224.543C224.388 80.1729 224.199 80.3939 223.975 80.5762C223.757 80.7585 223.508 80.8975 223.23 80.9932C222.952 81.0843 222.647 81.1299 222.314 81.1299ZM230.806 81.1299C230.186 81.1299 229.644 80.9727 229.179 80.6582C228.714 80.3438 228.354 79.9017 228.099 79.332C227.844 78.7578 227.716 78.0879 227.716 77.3223V77.3086C227.716 76.5384 227.844 75.8685 228.099 75.2988C228.354 74.7292 228.712 74.2871 229.172 73.9727C229.637 73.6582 230.182 73.501 230.806 73.501C231.143 73.501 231.46 73.5557 231.756 73.665C232.057 73.7699 232.324 73.918 232.556 74.1094C232.789 74.3008 232.971 74.5286 233.103 74.793H233.212V70.7051H234.402V81H233.212V79.8242H233.103C232.953 80.0977 232.764 80.3324 232.536 80.5283C232.308 80.7197 232.048 80.8678 231.756 80.9727C231.465 81.0775 231.148 81.1299 230.806 81.1299ZM231.08 80.0771C231.526 80.0771 231.911 79.9655 232.235 79.7422C232.558 79.5189 232.807 79.2021 232.98 78.792C233.153 78.3773 233.24 77.8874 233.24 77.3223V77.3086C233.24 76.7389 233.153 76.249 232.98 75.8389C232.807 75.4287 232.558 75.112 232.235 74.8887C231.911 74.6654 231.526 74.5537 231.08 74.5537C230.633 74.5537 230.248 74.6654 229.924 74.8887C229.605 75.1074 229.359 75.4219 229.186 75.832C229.017 76.2422 228.933 76.7344 228.933 77.3086V77.3223C228.933 77.8919 229.017 78.3841 229.186 78.7988C229.359 79.209 229.605 79.5257 229.924 79.749C230.248 79.9678 230.633 80.0771 231.08 80.0771Z" fill="#6C63FF"/>
    <path d="M124.968 108.109C124.589 107.605 124.276 107.07 124.03 106.504C123.784 105.938 123.6 105.334 123.479 104.693C123.362 104.053 123.304 103.369 123.304 102.643C123.304 101.916 123.362 101.234 123.479 100.598C123.597 99.957 123.778 99.3535 124.024 98.7871C124.27 98.2168 124.585 97.6797 124.968 97.1758H125.823C125.612 97.4453 125.415 97.7852 125.231 98.1953C125.052 98.6055 124.895 99.0586 124.763 99.5547C124.63 100.047 124.526 100.559 124.452 101.09C124.378 101.617 124.341 102.135 124.341 102.643C124.341 103.154 124.378 103.676 124.452 104.207C124.526 104.734 124.63 105.246 124.763 105.742C124.895 106.234 125.052 106.684 125.231 107.09C125.415 107.5 125.612 107.84 125.823 108.109H124.968ZM127.606 106V97.5449H128.83L131.725 104.6H131.819L134.713 97.5449H135.938V106H134.953V99.543H134.438L135.621 97.7793L132.217 106H131.326L127.928 97.7793L129.106 99.543H128.59V106H127.606ZM139.76 106.111C139.361 106.111 139.002 106.035 138.681 105.883C138.365 105.73 138.113 105.514 137.926 105.232C137.742 104.951 137.65 104.619 137.65 104.236V104.225C137.65 103.85 137.74 103.529 137.92 103.264C138.099 102.994 138.361 102.783 138.705 102.631C139.049 102.479 139.465 102.389 139.953 102.361L142.273 102.221V103.035L140.076 103.176C139.595 103.203 139.244 103.303 139.021 103.475C138.802 103.646 138.693 103.889 138.693 104.201V104.213C138.693 104.533 138.814 104.783 139.056 104.963C139.299 105.139 139.603 105.227 139.97 105.227C140.318 105.227 140.627 105.158 140.896 105.021C141.166 104.881 141.377 104.691 141.529 104.453C141.685 104.215 141.763 103.945 141.763 103.645V101.676C141.763 101.285 141.644 100.988 141.406 100.785C141.172 100.578 140.818 100.475 140.345 100.475C139.967 100.475 139.656 100.543 139.414 100.68C139.172 100.812 139.01 101.002 138.927 101.248L138.922 101.266H137.902L137.908 101.23C137.963 100.898 138.099 100.609 138.318 100.363C138.541 100.113 138.828 99.9199 139.179 99.7832C139.531 99.6426 139.931 99.5723 140.381 99.5723C140.896 99.5723 141.332 99.6562 141.687 99.8242C142.047 99.9922 142.318 100.234 142.502 100.551C142.689 100.863 142.783 101.238 142.783 101.676V106H141.763V105.068H141.67C141.537 105.291 141.375 105.48 141.183 105.637C140.996 105.793 140.783 105.912 140.545 105.994C140.306 106.072 140.045 106.111 139.76 106.111ZM144.202 106L146.364 102.842L144.179 99.6836H145.38L146.88 102.033H146.974L148.456 99.6836H149.599L147.454 102.801L149.628 106H148.433L146.939 103.615H146.845L145.345 106H144.202ZM151.891 106.059C151.684 106.059 151.505 105.984 151.352 105.836C151.204 105.684 151.13 105.504 151.13 105.297C151.13 105.086 151.204 104.906 151.352 104.758C151.505 104.609 151.684 104.535 151.891 104.535C152.102 104.535 152.282 104.609 152.43 104.758C152.579 104.906 152.653 105.086 152.653 105.297C152.653 105.504 152.579 105.684 152.43 105.836C152.282 105.984 152.102 106.059 151.891 106.059ZM158.246 106V97.5449H163.378V98.4941H159.3V101.4H163.044V102.338H159.3V106H158.246ZM165.067 106V99.6836H166.087V106H165.067ZM165.583 98.4648C165.392 98.4648 165.226 98.3965 165.085 98.2598C164.948 98.1191 164.88 97.9531 164.88 97.7617C164.88 97.5664 164.948 97.4004 165.085 97.2637C165.226 97.127 165.392 97.0586 165.583 97.0586C165.778 97.0586 165.944 97.127 166.081 97.2637C166.218 97.4004 166.286 97.5664 166.286 97.7617C166.286 97.9531 166.218 98.1191 166.081 98.2598C165.944 98.3965 165.778 98.4648 165.583 98.4648ZM168.127 106V97.1758H169.147V106H168.127ZM173.742 106.111C173.14 106.111 172.623 105.979 172.189 105.713C171.76 105.447 171.428 105.072 171.193 104.588C170.963 104.1 170.848 103.525 170.848 102.865V102.859C170.848 102.207 170.963 101.635 171.193 101.143C171.428 100.65 171.758 100.266 172.183 99.9883C172.609 99.7109 173.107 99.5723 173.678 99.5723C174.252 99.5723 174.744 99.7051 175.154 99.9707C175.568 100.236 175.885 100.607 176.103 101.084C176.326 101.557 176.437 102.107 176.437 102.736V103.135H171.375V102.32H175.916L175.412 103.064V102.66C175.412 102.164 175.338 101.756 175.189 101.436C175.041 101.115 174.836 100.877 174.574 100.721C174.312 100.561 174.012 100.48 173.672 100.48C173.332 100.48 173.027 100.564 172.758 100.732C172.492 100.896 172.281 101.141 172.125 101.465C171.969 101.789 171.89 102.188 171.89 102.66V103.064C171.89 103.514 171.967 103.898 172.119 104.219C172.271 104.535 172.488 104.779 172.769 104.951C173.051 105.119 173.383 105.203 173.765 105.203C174.051 105.203 174.299 105.164 174.51 105.086C174.721 105.008 174.894 104.908 175.031 104.787C175.168 104.666 175.264 104.543 175.318 104.418L175.342 104.365H176.361L176.349 104.412C176.295 104.627 176.197 104.836 176.056 105.039C175.92 105.238 175.742 105.42 175.523 105.584C175.305 105.744 175.045 105.873 174.744 105.971C174.447 106.064 174.113 106.111 173.742 106.111ZM183.682 106.111C183.214 106.111 182.8 106.041 182.44 105.9C182.081 105.756 181.792 105.555 181.573 105.297C181.358 105.039 181.231 104.736 181.192 104.389H182.235C182.321 104.65 182.489 104.861 182.739 105.021C182.989 105.182 183.315 105.262 183.717 105.262C184.003 105.262 184.253 105.221 184.467 105.139C184.686 105.053 184.858 104.938 184.983 104.793C185.108 104.645 185.171 104.475 185.171 104.283V104.271C185.171 104.057 185.085 103.875 184.913 103.727C184.741 103.574 184.46 103.451 184.069 103.357L183.091 103.123C182.696 103.029 182.372 102.908 182.118 102.76C181.864 102.607 181.676 102.422 181.555 102.203C181.434 101.98 181.374 101.719 181.374 101.418V101.412C181.374 101.061 181.475 100.746 181.678 100.469C181.885 100.191 182.167 99.9727 182.522 99.8125C182.878 99.6523 183.278 99.5723 183.723 99.5723C184.165 99.5723 184.555 99.6426 184.895 99.7832C185.239 99.9199 185.514 100.115 185.721 100.369C185.932 100.623 186.061 100.922 186.108 101.266H185.106C185.04 101.016 184.887 100.812 184.649 100.656C184.411 100.5 184.1 100.422 183.717 100.422C183.467 100.422 183.245 100.463 183.05 100.545C182.854 100.623 182.7 100.732 182.587 100.873C182.473 101.014 182.417 101.178 182.417 101.365V101.377C182.417 101.518 182.454 101.643 182.528 101.752C182.602 101.861 182.717 101.957 182.874 102.039C183.03 102.121 183.231 102.193 183.477 102.256L184.45 102.49C185.044 102.635 185.485 102.842 185.774 103.111C186.067 103.381 186.214 103.742 186.214 104.195V104.207C186.214 104.582 186.102 104.914 185.88 105.203C185.657 105.488 185.354 105.711 184.971 105.871C184.592 106.031 184.163 106.111 183.682 106.111ZM187.879 106V99.6836H188.899V106H187.879ZM188.395 98.4648C188.203 98.4648 188.037 98.3965 187.897 98.2598C187.76 98.1191 187.692 97.9531 187.692 97.7617C187.692 97.5664 187.76 97.4004 187.897 97.2637C188.037 97.127 188.203 97.0586 188.395 97.0586C188.59 97.0586 188.756 97.127 188.893 97.2637C189.029 97.4004 189.098 97.5664 189.098 97.7617C189.098 97.9531 189.029 98.1191 188.893 98.2598C188.756 98.3965 188.59 98.4648 188.395 98.4648ZM190.734 106V105.262L194.379 100.621V100.527H190.74V99.6836H195.58V100.439L191.953 105.062V105.156H195.597V106H190.734ZM199.812 106.111C199.21 106.111 198.692 105.979 198.259 105.713C197.829 105.447 197.497 105.072 197.263 104.588C197.032 104.1 196.917 103.525 196.917 102.865V102.859C196.917 102.207 197.032 101.635 197.263 101.143C197.497 100.65 197.827 100.266 198.253 99.9883C198.679 99.7109 199.177 99.5723 199.747 99.5723C200.321 99.5723 200.814 99.7051 201.224 99.9707C201.638 100.236 201.954 100.607 202.173 101.084C202.396 101.557 202.507 102.107 202.507 102.736V103.135H197.444V102.32H201.985L201.481 103.064V102.66C201.481 102.164 201.407 101.756 201.259 101.436C201.11 101.115 200.905 100.877 200.644 100.721C200.382 100.561 200.081 100.48 199.741 100.48C199.401 100.48 199.097 100.564 198.827 100.732C198.562 100.896 198.351 101.141 198.194 101.465C198.038 101.789 197.96 102.188 197.96 102.66V103.064C197.96 103.514 198.036 103.898 198.189 104.219C198.341 104.535 198.558 104.779 198.839 104.951C199.12 105.119 199.452 105.203 199.835 105.203C200.12 105.203 200.368 105.164 200.579 105.086C200.79 105.008 200.964 104.908 201.101 104.787C201.237 104.666 201.333 104.543 201.388 104.418L201.411 104.365H202.431L202.419 104.412C202.364 104.627 202.267 104.836 202.126 105.039C201.989 105.238 201.812 105.42 201.593 105.584C201.374 105.744 201.114 105.873 200.814 105.971C200.517 106.064 200.183 106.111 199.812 106.111ZM204.981 106.059C204.774 106.059 204.594 105.984 204.442 105.836C204.293 105.684 204.219 105.504 204.219 105.297C204.219 105.086 204.293 104.906 204.442 104.758C204.594 104.609 204.774 104.535 204.981 104.535C205.192 104.535 205.372 104.609 205.52 104.758C205.668 104.906 205.743 105.086 205.743 105.297C205.743 105.504 205.668 105.684 205.52 105.836C205.372 105.984 205.192 106.059 204.981 106.059ZM204.981 101.523C204.774 101.523 204.594 101.449 204.442 101.301C204.293 101.148 204.219 100.969 204.219 100.762C204.219 100.551 204.293 100.371 204.442 100.223C204.594 100.074 204.774 100 204.981 100C205.192 100 205.372 100.074 205.52 100.223C205.668 100.371 205.743 100.551 205.743 100.762C205.743 100.969 205.668 101.148 205.52 101.301C205.372 101.449 205.192 101.523 204.981 101.523ZM211.201 106V105.273L214.06 102.18C214.419 101.789 214.701 101.467 214.904 101.213C215.107 100.955 215.249 100.723 215.331 100.516C215.413 100.309 215.454 100.082 215.454 99.8359V99.8242C215.454 99.5273 215.39 99.2617 215.261 99.0273C215.132 98.793 214.949 98.6074 214.71 98.4707C214.472 98.334 214.187 98.2656 213.855 98.2656C213.519 98.2656 213.224 98.3359 212.97 98.4766C212.716 98.6133 212.519 98.8066 212.378 99.0566C212.238 99.3027 212.167 99.5918 212.167 99.9238L212.161 99.9355L211.154 99.9297L211.142 99.9238C211.146 99.4238 211.267 98.9805 211.505 98.5938C211.744 98.2031 212.072 97.8984 212.49 97.6797C212.908 97.457 213.386 97.3457 213.925 97.3457C214.417 97.3457 214.861 97.4492 215.255 97.6562C215.65 97.8594 215.96 98.1387 216.187 98.4941C216.417 98.8496 216.533 99.2559 216.533 99.7129V99.7246C216.533 100.045 216.476 100.354 216.363 100.65C216.253 100.947 216.058 101.277 215.777 101.641C215.495 102 215.099 102.443 214.587 102.971L212.402 105.227L212.665 104.74V105.227L212.408 105.051H216.673V106H211.201ZM221.28 106.199C220.757 106.199 220.29 106.096 219.88 105.889C219.47 105.682 219.139 105.4 218.889 105.045C218.643 104.686 218.499 104.281 218.456 103.832L218.45 103.768H219.464L219.47 103.814C219.505 104.084 219.602 104.33 219.762 104.553C219.927 104.771 220.139 104.945 220.401 105.074C220.667 105.203 220.964 105.268 221.292 105.268C221.667 105.268 221.997 105.186 222.282 105.021C222.567 104.854 222.79 104.623 222.95 104.33C223.11 104.037 223.19 103.701 223.19 103.322V103.311C223.19 102.936 223.108 102.604 222.944 102.314C222.784 102.021 222.563 101.793 222.282 101.629C222.001 101.465 221.677 101.383 221.309 101.383C221.028 101.383 220.768 101.426 220.53 101.512C220.296 101.598 220.087 101.727 219.903 101.898C219.829 101.969 219.759 102.045 219.692 102.127C219.63 102.209 219.571 102.301 219.516 102.402H218.602L219.048 97.5449H223.753V98.4883H219.88L219.593 101.348H219.686C219.811 101.156 219.966 100.996 220.149 100.867C220.333 100.738 220.538 100.641 220.764 100.574C220.995 100.504 221.237 100.469 221.491 100.469C222.022 100.469 222.493 100.592 222.903 100.838C223.313 101.08 223.636 101.414 223.87 101.84C224.104 102.262 224.221 102.746 224.221 103.293V103.305C224.221 103.871 224.095 104.373 223.841 104.811C223.591 105.244 223.245 105.584 222.804 105.83C222.362 106.076 221.854 106.199 221.28 106.199ZM229.55 106V97.5449H230.775L233.67 104.6H233.763L236.658 97.5449H237.883V106H236.898V99.543H236.383L237.566 97.7793L234.162 106H233.271L229.873 97.7793L231.05 99.543H230.535V106H229.55ZM240.626 106V105.068H243.239C243.876 105.068 244.359 104.941 244.687 104.688C245.015 104.434 245.179 104.064 245.179 103.58V103.568C245.179 103.244 245.103 102.973 244.95 102.754C244.798 102.535 244.569 102.371 244.265 102.262C243.964 102.152 243.589 102.098 243.14 102.098H240.626V101.189H242.841C243.482 101.189 243.962 101.076 244.282 100.85C244.607 100.623 244.769 100.287 244.769 99.8418V99.8301C244.769 99.4004 244.622 99.0684 244.329 98.834C244.04 98.5957 243.634 98.4766 243.11 98.4766H240.626V97.5449H243.333C243.853 97.5449 244.298 97.6309 244.669 97.8027C245.044 97.9746 245.331 98.2188 245.53 98.5352C245.734 98.8477 245.835 99.2188 245.835 99.6484V99.6602C245.835 99.9531 245.769 100.229 245.636 100.486C245.507 100.744 245.333 100.961 245.114 101.137C244.896 101.312 244.65 101.426 244.376 101.477V101.57C244.763 101.617 245.097 101.732 245.378 101.916C245.659 102.1 245.876 102.338 246.028 102.631C246.185 102.92 246.263 103.25 246.263 103.621V103.633C246.263 104.125 246.148 104.549 245.917 104.904C245.691 105.256 245.364 105.527 244.939 105.719C244.513 105.906 243.999 106 243.398 106H240.626ZM240.099 106V97.5449H241.153V106H240.099ZM248.467 108.109H247.612C247.823 107.84 248.018 107.5 248.198 107.09C248.381 106.684 248.54 106.234 248.672 105.742C248.805 105.246 248.909 104.734 248.983 104.207C249.057 103.676 249.094 103.154 249.094 102.643C249.094 102.135 249.057 101.617 248.983 101.09C248.909 100.559 248.805 100.047 248.672 99.5547C248.54 99.0586 248.381 98.6055 248.198 98.1953C248.018 97.7852 247.823 97.4453 247.612 97.1758H248.467C248.85 97.6797 249.165 98.2168 249.411 98.7871C249.657 99.3535 249.838 99.957 249.956 100.598C250.073 101.234 250.131 101.916 250.131 102.643C250.131 103.369 250.071 104.053 249.95 104.693C249.833 105.334 249.651 105.938 249.405 106.504C249.163 107.07 248.85 107.605 248.467 108.109Z" fill="#1C1C1C" fill-opacity="0.6"/>
</svg>
