<svg width="370" height="159" viewBox="0 0 370 159" fill="none" xmlns="http://www.w3.org/2000/svg">
    <rect x="0.5" y="0.5" width="369" height="158" stroke="#1C1C1C" stroke-opacity="0.06"/>
    <path d="M24.48 30H28.88V30.58C28.3733 30.8333 27.8667 31 27.36 31.08L23.58 38.04V42.94C24.1 43.0067 24.6067 43.1667 25.1 43.42V44H20.02V43.42C20.5 43.18 21.0467 43.02 21.66 42.94V38.06L17.62 31.08C17.3133 31.0267 17.0267 30.96 16.76 30.88C16.5067 30.7867 16.2533 30.6867 16 30.58V30H21.3V30.58C21.1 30.66 20.8733 30.7467 20.62 30.84C20.3667 30.92 20.08 31 19.76 31.08L23.04 36.96L26.12 31.08C25.8133 31.0133 25.52 30.94 25.24 30.86C24.9733 30.7667 24.72 30.6733 24.48 30.58V30ZM27.8747 39C27.8747 38.16 27.9814 37.42 28.1947 36.78C28.4214 36.1267 28.7414 35.58 29.1547 35.14C29.568 34.6867 30.0614 34.3467 30.6347 34.12C31.2214 33.88 31.868 33.76 32.5747 33.76C33.4014 33.76 34.1147 33.8867 34.7147 34.14C35.3147 34.3933 35.8014 34.7533 36.1747 35.22C36.5614 35.6733 36.8414 36.22 37.0147 36.86C37.2014 37.5 37.2947 38.2133 37.2947 39C37.2947 40.68 36.868 41.9733 36.0147 42.88C35.1614 43.7867 34.0147 44.24 32.5747 44.24C31.7747 44.24 31.0814 44.12 30.4947 43.88C29.908 43.6267 29.4214 43.2733 29.0347 42.82C28.648 42.3533 28.3547 41.8 28.1547 41.16C27.968 40.5067 27.8747 39.7867 27.8747 39ZM29.7947 39C29.7947 39.6 29.848 40.1667 29.9547 40.7C30.0747 41.2333 30.2547 41.7 30.4947 42.1C30.748 42.4867 31.0747 42.7933 31.4747 43.02C31.8747 43.2467 32.3547 43.36 32.9147 43.36C33.6347 43.36 34.2214 43.0067 34.6747 42.3C35.1414 41.5933 35.3747 40.4933 35.3747 39C35.3747 38.3867 35.3147 37.82 35.1947 37.3C35.088 36.7667 34.9147 36.3067 34.6747 35.92C34.4347 35.52 34.128 35.2067 33.7547 34.98C33.3814 34.7533 32.9347 34.64 32.4147 34.64C31.628 34.64 30.9947 34.9933 30.5147 35.7C30.0347 36.4067 29.7947 37.5067 29.7947 39ZM39.6494 40.04C39.6494 39.2 39.6694 38.38 39.7094 37.58C39.7494 36.7667 39.7694 35.96 39.7694 35.16L38.4494 35V34.48C38.876 34.32 39.3094 34.18 39.7494 34.06C40.2027 33.94 40.6427 33.84 41.0694 33.76H41.5694C41.5694 34.76 41.5494 35.7533 41.5094 36.74C41.4694 37.7267 41.4494 38.7067 41.4494 39.68C41.4494 40.2 41.476 40.6667 41.5294 41.08C41.596 41.4933 41.7027 41.84 41.8494 42.12C42.0094 42.4 42.2227 42.62 42.4894 42.78C42.756 42.9267 43.096 43 43.5094 43C44.1094 43 44.6094 42.7867 45.0094 42.36C45.4227 41.92 45.7427 41.3533 45.9694 40.66V35.16L44.6694 35V34.48C45.0827 34.32 45.5094 34.18 45.9494 34.06C46.4027 33.94 46.8427 33.84 47.2694 33.76H47.7694V42.86L49.0894 43.02V43.44C48.7027 43.6133 48.3094 43.7667 47.9094 43.9C47.5227 44.0333 47.116 44.1333 46.6894 44.2H46.1894L46.0494 41.82H45.9694C45.9027 42.1 45.7827 42.3867 45.6094 42.68C45.4494 42.96 45.236 43.22 44.9694 43.46C44.7027 43.6867 44.396 43.8733 44.0494 44.02C43.716 44.1667 43.3494 44.24 42.9494 44.24C42.416 44.24 41.9427 44.1733 41.5294 44.04C41.1294 43.92 40.7894 43.7 40.5094 43.38C40.2294 43.06 40.016 42.6333 39.8694 42.1C39.7227 41.5533 39.6494 40.8667 39.6494 40.04ZM54.4738 35.5C54.3271 35.58 54.1404 35.7467 53.9138 36C53.7004 36.24 53.5071 36.6 53.3338 37.08V43.02C53.6004 43.0467 53.8671 43.1 54.1338 43.18C54.4004 43.2467 54.6671 43.3533 54.9338 43.5V44H50.2138V43.5C50.4538 43.3667 50.6804 43.2667 50.8938 43.2C51.1071 43.1333 51.3204 43.0733 51.5338 43.02V35.16L50.2138 35V34.48C50.6404 34.2933 51.0804 34.1467 51.5338 34.04C51.9871 33.92 52.4204 33.8267 52.8338 33.76H53.3338V35.88H53.4138C53.5338 35.6133 53.7004 35.3467 53.9138 35.08C54.1404 34.8133 54.3938 34.5733 54.6738 34.36C54.9671 34.1467 55.2804 33.9867 55.6138 33.88C55.9604 33.76 56.3138 33.72 56.6738 33.76C56.7671 33.9333 56.8471 34.1267 56.9138 34.34C56.9938 34.54 57.0671 34.7533 57.1338 34.98V35.5H54.4738ZM67.3928 44H62.9528V43.5C63.3928 43.2867 63.8328 43.1267 64.2728 43.02V30.36L62.7528 30.2V29.68C63.0995 29.52 63.5328 29.38 64.0528 29.26C64.5728 29.14 65.0795 29.04 65.5728 28.96H66.0728V43.02C66.5128 43.1267 66.9528 43.2867 67.3928 43.5V44ZM68.9684 39C68.9684 38.16 69.0751 37.42 69.2884 36.78C69.5151 36.1267 69.8351 35.58 70.2484 35.14C70.6618 34.6867 71.1551 34.3467 71.7284 34.12C72.3151 33.88 72.9618 33.76 73.6684 33.76C74.4951 33.76 75.2084 33.8867 75.8084 34.14C76.4084 34.3933 76.8951 34.7533 77.2684 35.22C77.6551 35.6733 77.9351 36.22 78.1084 36.86C78.2951 37.5 78.3884 38.2133 78.3884 39C78.3884 40.68 77.9618 41.9733 77.1084 42.88C76.2551 43.7867 75.1084 44.24 73.6684 44.24C72.8684 44.24 72.1751 44.12 71.5884 43.88C71.0018 43.6267 70.5151 43.2733 70.1284 42.82C69.7418 42.3533 69.4484 41.8 69.2484 41.16C69.0618 40.5067 68.9684 39.7867 68.9684 39ZM70.8884 39C70.8884 39.6 70.9418 40.1667 71.0484 40.7C71.1684 41.2333 71.3484 41.7 71.5884 42.1C71.8418 42.4867 72.1684 42.7933 72.5684 43.02C72.9684 43.2467 73.4484 43.36 74.0084 43.36C74.7284 43.36 75.3151 43.0067 75.7684 42.3C76.2351 41.5933 76.4684 40.4933 76.4684 39C76.4684 38.3867 76.4084 37.82 76.2884 37.3C76.1818 36.7667 76.0084 36.3067 75.7684 35.92C75.5284 35.52 75.2218 35.2067 74.8484 34.98C74.4751 34.7533 74.0284 34.64 73.5084 34.64C72.7218 34.64 72.0884 34.9933 71.6084 35.7C71.1284 36.4067 70.8884 37.5067 70.8884 39ZM79.2883 34.48C79.7949 34.16 80.3283 33.9333 80.8883 33.8V32.1C81.0616 31.9533 81.2616 31.8267 81.4883 31.72C81.7283 31.6 81.9616 31.4867 82.1883 31.38H82.6883V34H85.6883V35H82.6883V40.8C82.6883 41.6 82.8149 42.1667 83.0683 42.5C83.3216 42.8333 83.7016 43 84.2083 43C84.4483 43 84.7483 42.9867 85.1083 42.96C85.4683 42.92 85.7749 42.8533 86.0283 42.76L86.1683 43.06C86.0616 43.18 85.9083 43.3067 85.7083 43.44C85.5216 43.5733 85.3016 43.7 85.0483 43.82C84.8083 43.94 84.5416 44.04 84.2483 44.12C83.9549 44.2 83.6549 44.24 83.3483 44.24C82.5483 44.24 81.9349 44.0133 81.5083 43.56C81.0949 43.1067 80.8883 42.3733 80.8883 41.36V35H79.2883V34.48ZM96.5334 44H92.0934V43.5C92.2934 43.3933 92.5001 43.3067 92.7134 43.24C92.9268 43.16 93.1601 43.0867 93.4134 43.02V35.16L92.0934 35V34.48C92.4801 34.32 92.9001 34.18 93.3534 34.06C93.8068 33.94 94.2601 33.84 94.7134 33.76H95.2134V43.02C95.4801 43.0867 95.7201 43.16 95.9334 43.24C96.1468 43.3067 96.3468 43.3933 96.5334 43.5V44ZM93.0334 30.6C93.0334 30.24 93.1468 29.9533 93.3734 29.74C93.6134 29.5267 93.9268 29.42 94.3134 29.42C94.7001 29.42 95.0068 29.5267 95.2334 29.74C95.4601 29.9533 95.5734 30.24 95.5734 30.6C95.5734 30.96 95.4601 31.2467 95.2334 31.46C95.0068 31.66 94.7001 31.76 94.3134 31.76C93.9268 31.76 93.6134 31.66 93.3734 31.46C93.1468 31.2467 93.0334 30.96 93.0334 30.6ZM103.189 41.72C103.189 41.3467 103.069 41.0333 102.829 40.78C102.602 40.5133 102.309 40.2667 101.949 40.04C101.589 39.8133 101.202 39.5933 100.789 39.38C100.389 39.1667 100.009 38.92 99.6491 38.64C99.2891 38.3467 98.9891 38.0133 98.7491 37.64C98.5224 37.2667 98.4091 36.8067 98.4091 36.26C98.4091 35.9 98.4891 35.5667 98.6491 35.26C98.8224 34.9533 99.0491 34.6933 99.3291 34.48C99.6091 34.2533 99.9357 34.08 100.309 33.96C100.682 33.8267 101.082 33.76 101.509 33.76C102.229 33.76 102.816 33.8 103.269 33.88C103.736 33.96 104.182 34.0733 104.609 34.22C104.556 34.6467 104.489 35.08 104.409 35.52C104.342 35.9467 104.242 36.3867 104.109 36.84H103.609L102.849 34.8C102.689 34.7333 102.509 34.6933 102.309 34.68C102.109 34.6533 101.902 34.64 101.689 34.64C101.449 34.64 101.236 34.6867 101.049 34.78C100.876 34.86 100.722 34.9667 100.589 35.1C100.469 35.2333 100.376 35.3867 100.309 35.56C100.242 35.7333 100.209 35.9067 100.209 36.08C100.209 36.44 100.322 36.7533 100.549 37.02C100.789 37.2733 101.089 37.5133 101.449 37.74C101.809 37.9533 102.189 38.1667 102.589 38.38C103.002 38.5933 103.389 38.8333 103.749 39.1C104.109 39.3667 104.402 39.68 104.629 40.04C104.869 40.3867 104.989 40.8067 104.989 41.3C104.989 41.7533 104.889 42.16 104.689 42.52C104.502 42.88 104.236 43.1867 103.889 43.44C103.556 43.6933 103.162 43.8867 102.709 44.02C102.269 44.1667 101.796 44.24 101.289 44.24C100.716 44.24 100.189 44.1867 99.7091 44.08C99.2291 43.9867 98.7291 43.8467 98.2091 43.66C98.2357 43.18 98.2957 42.72 98.3891 42.28C98.4824 41.8267 98.6024 41.3933 98.7491 40.98H99.2491L100.129 43.16C100.276 43.2667 100.449 43.3267 100.649 43.34C100.862 43.3533 101.056 43.36 101.229 43.36C101.816 43.36 102.289 43.2 102.649 42.88C103.009 42.56 103.189 42.1733 103.189 41.72ZM116.065 44H111.625V43.5C111.825 43.3933 112.031 43.3067 112.245 43.24C112.458 43.16 112.691 43.0867 112.945 43.02V35.16L111.625 35V34.48C112.011 34.32 112.431 34.18 112.885 34.06C113.338 33.94 113.791 33.84 114.245 33.76H114.745V43.02C115.011 43.0867 115.251 43.16 115.465 43.24C115.678 43.3067 115.878 43.3933 116.065 43.5V44ZM112.565 30.6C112.565 30.24 112.678 29.9533 112.905 29.74C113.145 29.5267 113.458 29.42 113.845 29.42C114.231 29.42 114.538 29.5267 114.765 29.74C114.991 29.9533 115.105 30.24 115.105 30.6C115.105 30.96 114.991 31.2467 114.765 31.46C114.538 31.66 114.231 31.76 113.845 31.76C113.458 31.76 113.145 31.66 112.905 31.46C112.678 31.2467 112.565 30.96 112.565 30.6ZM128.36 44H124.06V43.5C124.42 43.3133 124.814 43.1533 125.24 43.02V38.28C125.24 37.2667 125.094 36.4667 124.8 35.88C124.507 35.2933 123.974 35 123.2 35C122.867 35 122.554 35.06 122.26 35.18C121.98 35.3 121.727 35.4667 121.5 35.68C121.287 35.88 121.1 36.1133 120.94 36.38C120.78 36.6333 120.654 36.9 120.56 37.18V43.02C120.974 43.1 121.374 43.26 121.76 43.5V44H117.44V43.5C117.774 43.3267 118.214 43.1667 118.76 43.02V35.16L117.44 35V34.48C117.787 34.3333 118.187 34.2 118.64 34.08C119.094 33.96 119.567 33.8533 120.06 33.76H120.56V36H120.58C120.86 35.3867 121.26 34.86 121.78 34.42C122.314 33.98 122.954 33.76 123.7 33.76C124.234 33.76 124.707 33.8267 125.12 33.96C125.547 34.08 125.9 34.3 126.18 34.62C126.46 34.94 126.674 35.3733 126.82 35.92C126.967 36.4533 127.04 37.1333 127.04 37.96V43.02C127.574 43.1133 128.014 43.2733 128.36 43.5V44ZM135.099 40.04C135.099 39.2 135.119 38.38 135.159 37.58C135.199 36.7667 135.219 35.96 135.219 35.16L133.899 35V34.48C134.325 34.32 134.759 34.18 135.199 34.06C135.652 33.94 136.092 33.84 136.519 33.76H137.019C137.019 34.76 136.999 35.7533 136.959 36.74C136.919 37.7267 136.899 38.7067 136.899 39.68C136.899 40.2 136.925 40.6667 136.979 41.08C137.045 41.4933 137.152 41.84 137.299 42.12C137.459 42.4 137.672 42.62 137.939 42.78C138.205 42.9267 138.545 43 138.959 43C139.559 43 140.059 42.7867 140.459 42.36C140.872 41.92 141.192 41.3533 141.419 40.66V35.16L140.119 35V34.48C140.532 34.32 140.959 34.18 141.399 34.06C141.852 33.94 142.292 33.84 142.719 33.76H143.219V42.86L144.539 43.02V43.44C144.152 43.6133 143.759 43.7667 143.359 43.9C142.972 44.0333 142.565 44.1333 142.139 44.2H141.639L141.499 41.82H141.419C141.352 42.1 141.232 42.3867 141.059 42.68C140.899 42.96 140.685 43.22 140.419 43.46C140.152 43.6867 139.845 43.8733 139.499 44.02C139.165 44.1667 138.799 44.24 138.399 44.24C137.865 44.24 137.392 44.1733 136.979 44.04C136.579 43.92 136.239 43.7 135.959 43.38C135.679 43.06 135.465 42.6333 135.319 42.1C135.172 41.5533 135.099 40.8667 135.099 40.04ZM156.583 44H152.283V43.5C152.643 43.3133 153.036 43.1533 153.463 43.02V38.28C153.463 37.2667 153.316 36.4667 153.023 35.88C152.73 35.2933 152.196 35 151.423 35C151.09 35 150.776 35.06 150.483 35.18C150.203 35.3 149.95 35.4667 149.723 35.68C149.51 35.88 149.323 36.1133 149.163 36.38C149.003 36.6333 148.876 36.9 148.783 37.18V43.02C149.196 43.1 149.596 43.26 149.983 43.5V44H145.663V43.5C145.996 43.3267 146.436 43.1667 146.983 43.02V35.16L145.663 35V34.48C146.01 34.3333 146.41 34.2 146.863 34.08C147.316 33.96 147.79 33.8533 148.283 33.76H148.783V36H148.803C149.083 35.3867 149.483 34.86 150.003 34.42C150.536 33.98 151.176 33.76 151.923 33.76C152.456 33.76 152.93 33.8267 153.343 33.96C153.77 34.08 154.123 34.3 154.403 34.62C154.683 34.94 154.896 35.3733 155.043 35.92C155.19 36.4533 155.263 37.1333 155.263 37.96V43.02C155.796 43.1133 156.236 43.2733 156.583 43.5V44ZM164.378 42.02C164.311 42.3133 164.198 42.5933 164.038 42.86C163.878 43.1267 163.678 43.3667 163.438 43.58C163.211 43.78 162.945 43.94 162.638 44.06C162.345 44.18 162.025 44.24 161.678 44.24C160.358 44.24 159.371 43.82 158.718 42.98C158.065 42.14 157.738 40.8333 157.738 39.06C157.738 37.3533 158.151 36.0533 158.978 35.16C159.818 34.2667 160.945 33.82 162.358 33.82C162.851 33.82 163.238 33.8467 163.518 33.9C163.798 33.94 164.105 34.02 164.438 34.14V30.36L162.918 30.2V29.68C163.305 29.52 163.751 29.38 164.258 29.26C164.778 29.14 165.271 29.04 165.738 28.96H166.238V42.86L167.558 43.02V43.44C167.171 43.6267 166.771 43.7867 166.358 43.92C165.945 44.0533 165.538 44.1467 165.138 44.2H164.638L164.458 42.02H164.378ZM162.078 43C162.731 43 163.251 42.7933 163.638 42.38C164.025 41.9667 164.291 41.4067 164.438 40.7V35.06C164.211 34.9267 163.945 34.8333 163.638 34.78C163.331 34.7267 162.938 34.7 162.458 34.7C161.551 34.7 160.858 35.1 160.378 35.9C159.898 36.6867 159.658 37.74 159.658 39.06C159.658 39.6067 159.705 40.12 159.798 40.6C159.891 41.0667 160.038 41.48 160.238 41.84C160.438 42.2 160.685 42.4867 160.978 42.7C161.285 42.9 161.651 43 162.078 43ZM176.932 42.6C176.825 42.8267 176.658 43.04 176.432 43.24C176.205 43.44 175.945 43.6133 175.652 43.76C175.358 43.9067 175.038 44.02 174.692 44.1C174.345 44.1933 173.992 44.24 173.632 44.24C172.845 44.24 172.152 44.12 171.552 43.88C170.952 43.6267 170.452 43.2733 170.052 42.82C169.652 42.3533 169.345 41.8 169.132 41.16C168.932 40.52 168.832 39.8 168.832 39C168.832 37.2933 169.225 35.9933 170.012 35.1C170.798 34.2067 171.912 33.76 173.352 33.76C173.818 33.76 174.278 33.8267 174.732 33.96C175.185 34.08 175.585 34.2867 175.932 34.58C176.292 34.8733 176.578 35.2667 176.792 35.76C177.018 36.24 177.132 36.84 177.132 37.56C177.132 37.7867 177.118 38.02 177.092 38.26C177.078 38.4867 177.045 38.7333 176.992 39H170.752C170.752 39.56 170.818 40.0867 170.952 40.58C171.098 41.06 171.312 41.48 171.592 41.84C171.872 42.2 172.225 42.4867 172.652 42.7C173.078 42.9 173.578 43 174.152 43C174.618 43 175.092 42.9333 175.572 42.8C176.052 42.6667 176.412 42.4933 176.652 42.28L176.932 42.6ZM173.272 34.64C172.512 34.64 171.932 34.9 171.532 35.42C171.132 35.9267 170.892 36.8267 170.812 38.12H175.212C175.225 38 175.232 37.8867 175.232 37.78C175.245 37.66 175.252 37.5467 175.252 37.44C175.252 36.5867 175.092 35.9067 174.772 35.4C174.452 34.8933 173.952 34.64 173.272 34.64ZM182.95 35.5C182.804 35.58 182.617 35.7467 182.39 36C182.177 36.24 181.984 36.6 181.81 37.08V43.02C182.077 43.0467 182.344 43.1 182.61 43.18C182.877 43.2467 183.144 43.3533 183.41 43.5V44H178.69V43.5C178.93 43.3667 179.157 43.2667 179.37 43.2C179.584 43.1333 179.797 43.0733 180.01 43.02V35.16L178.69 35V34.48C179.117 34.2933 179.557 34.1467 180.01 34.04C180.464 33.92 180.897 33.8267 181.31 33.76H181.81V35.88H181.89C182.01 35.6133 182.177 35.3467 182.39 35.08C182.617 34.8133 182.87 34.5733 183.15 34.36C183.444 34.1467 183.757 33.9867 184.09 33.88C184.437 33.76 184.79 33.72 185.15 33.76C185.244 33.9333 185.324 34.1267 185.39 34.34C185.47 34.54 185.544 34.7533 185.61 34.98V35.5H182.95ZM195.489 35.5C195.343 35.58 195.156 35.7467 194.929 36C194.716 36.24 194.523 36.6 194.349 37.08V43.02C194.616 43.0467 194.883 43.1 195.149 43.18C195.416 43.2467 195.683 43.3533 195.949 43.5V44H191.229V43.5C191.469 43.3667 191.696 43.2667 191.909 43.2C192.123 43.1333 192.336 43.0733 192.549 43.02V35.16L191.229 35V34.48C191.656 34.2933 192.096 34.1467 192.549 34.04C193.003 33.92 193.436 33.8267 193.849 33.76H194.349V35.88H194.429C194.549 35.6133 194.716 35.3467 194.929 35.08C195.156 34.8133 195.409 34.5733 195.689 34.36C195.983 34.1467 196.296 33.9867 196.629 33.88C196.976 33.76 197.329 33.72 197.689 33.76C197.783 33.9333 197.863 34.1267 197.929 34.34C198.009 34.54 198.083 34.7533 198.149 34.98V35.5H195.489ZM207.205 42.6C207.098 42.8267 206.932 43.04 206.705 43.24C206.478 43.44 206.218 43.6133 205.925 43.76C205.632 43.9067 205.312 44.02 204.965 44.1C204.618 44.1933 204.265 44.24 203.905 44.24C203.118 44.24 202.425 44.12 201.825 43.88C201.225 43.6267 200.725 43.2733 200.325 42.82C199.925 42.3533 199.618 41.8 199.405 41.16C199.205 40.52 199.105 39.8 199.105 39C199.105 37.2933 199.498 35.9933 200.285 35.1C201.072 34.2067 202.185 33.76 203.625 33.76C204.092 33.76 204.552 33.8267 205.005 33.96C205.458 34.08 205.858 34.2867 206.205 34.58C206.565 34.8733 206.852 35.2667 207.065 35.76C207.292 36.24 207.405 36.84 207.405 37.56C207.405 37.7867 207.392 38.02 207.365 38.26C207.352 38.4867 207.318 38.7333 207.265 39H201.025C201.025 39.56 201.092 40.0867 201.225 40.58C201.372 41.06 201.585 41.48 201.865 41.84C202.145 42.2 202.498 42.4867 202.925 42.7C203.352 42.9 203.852 43 204.425 43C204.892 43 205.365 42.9333 205.845 42.8C206.325 42.6667 206.685 42.4933 206.925 42.28L207.205 42.6ZM203.545 34.64C202.785 34.64 202.205 34.9 201.805 35.42C201.405 35.9267 201.165 36.8267 201.085 38.12H205.485C205.498 38 205.505 37.8867 205.505 37.78C205.518 37.66 205.525 37.5467 205.525 37.44C205.525 36.5867 205.365 35.9067 205.045 35.4C204.725 34.8933 204.225 34.64 203.545 34.64ZM212.752 44.24L208.852 35C208.466 34.8667 208.112 34.7067 207.792 34.52V34H211.972V34.5C211.799 34.5933 211.619 34.6867 211.432 34.78C211.259 34.86 211.059 34.9333 210.832 35L213.152 41.02L213.552 42.26H213.592L213.892 41L216.032 35C215.819 34.9467 215.619 34.88 215.432 34.8C215.259 34.72 215.092 34.6267 214.932 34.52V34H218.332V34.52C218.199 34.6133 218.032 34.7 217.832 34.78C217.646 34.86 217.432 34.9333 217.192 35L213.652 44L212.752 44.24ZM223.389 44H218.949V43.5C219.149 43.3933 219.356 43.3067 219.569 43.24C219.782 43.16 220.016 43.0867 220.269 43.02V35.16L218.949 35V34.48C219.336 34.32 219.756 34.18 220.209 34.06C220.662 33.94 221.116 33.84 221.569 33.76H222.069V43.02C222.336 43.0867 222.576 43.16 222.789 43.24C223.002 43.3067 223.202 43.3933 223.389 43.5V44ZM219.889 30.6C219.889 30.24 220.002 29.9533 220.229 29.74C220.469 29.5267 220.782 29.42 221.169 29.42C221.556 29.42 221.862 29.5267 222.089 29.74C222.316 29.9533 222.429 30.24 222.429 30.6C222.429 30.96 222.316 31.2467 222.089 31.46C221.862 31.66 221.556 31.76 221.169 31.76C220.782 31.76 220.469 31.66 220.229 31.46C220.002 31.2467 219.889 30.96 219.889 30.6ZM233.065 42.6C232.958 42.8267 232.791 43.04 232.565 43.24C232.338 43.44 232.078 43.6133 231.785 43.76C231.491 43.9067 231.171 44.02 230.825 44.1C230.478 44.1933 230.125 44.24 229.765 44.24C228.978 44.24 228.285 44.12 227.685 43.88C227.085 43.6267 226.585 43.2733 226.185 42.82C225.785 42.3533 225.478 41.8 225.265 41.16C225.065 40.52 224.965 39.8 224.965 39C224.965 37.2933 225.358 35.9933 226.145 35.1C226.931 34.2067 228.045 33.76 229.485 33.76C229.951 33.76 230.411 33.8267 230.865 33.96C231.318 34.08 231.718 34.2867 232.065 34.58C232.425 34.8733 232.711 35.2667 232.925 35.76C233.151 36.24 233.265 36.84 233.265 37.56C233.265 37.7867 233.251 38.02 233.225 38.26C233.211 38.4867 233.178 38.7333 233.125 39H226.885C226.885 39.56 226.951 40.0867 227.085 40.58C227.231 41.06 227.445 41.48 227.725 41.84C228.005 42.2 228.358 42.4867 228.785 42.7C229.211 42.9 229.711 43 230.285 43C230.751 43 231.225 42.9333 231.705 42.8C232.185 42.6667 232.545 42.4933 232.785 42.28L233.065 42.6ZM229.405 34.64C228.645 34.64 228.065 34.9 227.665 35.42C227.265 35.9267 227.025 36.8267 226.945 38.12H231.345C231.358 38 231.365 37.8867 231.365 37.78C231.378 37.66 231.385 37.5467 231.385 37.44C231.385 36.5867 231.225 35.9067 230.905 35.4C230.585 34.8933 230.085 34.64 229.405 34.64ZM238.184 44.24L235.044 35C234.857 34.9333 234.67 34.8667 234.484 34.8C234.31 34.72 234.144 34.6267 233.984 34.52V34H238.144V34.5C237.957 34.6067 237.77 34.7067 237.584 34.8C237.397 34.88 237.204 34.9467 237.004 35L238.744 40.84L239.004 42.28H239.044L239.344 40.8L241.504 34.2L242.104 34L244.404 40.82L244.764 42.28H244.804L245.104 40.82L246.644 35C246.497 34.9733 246.324 34.92 246.124 34.84C245.937 34.76 245.744 34.6533 245.544 34.52V34H248.944V34.52C248.664 34.7067 248.284 34.8667 247.804 35L244.964 44L243.904 44.24L241.924 38.58L241.544 36.92H241.484L241.024 38.58L239.224 44L238.184 44.24Z" fill="#1C1C1C"/>
    <path d="M20.6401 78V67.3667H16.7803V66.022H25.9941V67.3667H22.1343V78H20.6401ZM28.1324 78V65.499H29.5768V70.3965H29.7096C29.9365 69.9206 30.263 69.5526 30.6891 69.2925C31.1152 69.0269 31.6575 68.894 32.316 68.894C32.9856 68.894 33.5529 69.0241 34.0177 69.2842C34.4825 69.5387 34.8367 69.9123 35.0802 70.4048C35.3237 70.8973 35.4454 71.4977 35.4454 72.2061V78H34.0011V72.5547C34.0011 71.7467 33.8296 71.1491 33.4865 70.7617C33.1489 70.3688 32.6232 70.1724 31.9093 70.1724C31.4334 70.1724 31.0211 70.2747 30.6725 70.4795C30.3239 70.6842 30.0527 70.9748 29.859 71.3511C29.6709 71.7274 29.5768 72.1784 29.5768 72.7041V78H28.1324ZM40.4475 78.1577C39.8831 78.1577 39.3739 78.0498 38.9202 77.834C38.4719 77.6182 38.115 77.311 37.8494 76.9126C37.5893 76.5142 37.4592 76.0438 37.4592 75.5015V75.4849C37.4592 74.9536 37.5865 74.4998 37.8411 74.1235C38.0956 73.7417 38.4664 73.4429 38.9534 73.2271C39.4404 73.0112 40.0297 72.884 40.7214 72.8452L44.0085 72.646V73.7998L40.8958 73.999C40.2151 74.0378 39.717 74.1789 39.4016 74.4224C39.0917 74.6659 38.9368 75.009 38.9368 75.4517V75.4683C38.9368 75.922 39.1083 76.2762 39.4514 76.5308C39.7945 76.7798 40.2262 76.9043 40.7463 76.9043C41.2389 76.9043 41.676 76.8075 42.0579 76.6138C42.4397 76.4146 42.7385 76.1462 42.9543 75.8086C43.1757 75.471 43.2864 75.0892 43.2864 74.6631V71.874C43.2864 71.3206 43.1176 70.9001 42.78 70.6123C42.448 70.319 41.9472 70.1724 41.2776 70.1724C40.7408 70.1724 40.3009 70.2692 39.9578 70.4629C39.6147 70.651 39.385 70.9194 39.2688 71.2681L39.2605 71.293H37.8162L37.8245 71.2432C37.9019 70.7728 38.0956 70.3633 38.4055 70.0146C38.721 69.6605 39.1277 69.3866 39.6257 69.1929C40.1238 68.9937 40.691 68.894 41.3274 68.894C42.0579 68.894 42.6749 69.013 43.1785 69.251C43.6876 69.4889 44.0722 69.832 44.3323 70.2803C44.5979 70.723 44.7307 71.2542 44.7307 71.874V78H43.2864V76.6802H43.1536C42.9654 76.9956 42.7358 77.264 42.4646 77.4854C42.199 77.7067 41.8974 77.8755 41.5598 77.9917C41.2223 78.1024 40.8515 78.1577 40.4475 78.1577ZM47.3007 78V69.0518H48.745V70.3965H48.8778C49.1047 69.9206 49.4312 69.5526 49.8573 69.2925C50.2834 69.0269 50.8257 68.894 51.4843 68.894C52.4914 68.894 53.2634 69.1818 53.8002 69.7573C54.3425 70.3273 54.6137 71.1436 54.6137 72.2061V78H53.1693V72.5547C53.1693 71.7467 52.9978 71.1491 52.6547 70.7617C52.3171 70.3688 51.7914 70.1724 51.0775 70.1724C50.6016 70.1724 50.1893 70.2747 49.8407 70.4795C49.4921 70.6842 49.2209 70.9748 49.0272 71.3511C48.8391 71.7274 48.745 72.1784 48.745 72.7041V78H47.3007ZM57.2417 78V65.499H58.686V78H57.2417ZM62.8779 78L59.3833 73.6172L60.4458 72.6958L64.6958 78H62.8779ZM58.5034 74.7793L58.437 72.9614H58.8189L62.687 69.0518H64.4385L60.1885 73.1523L59.8399 73.4927L58.5034 74.7793ZM71.7947 81.1377C71.7006 81.1377 71.5955 81.1322 71.4793 81.1211C71.363 81.1156 71.2551 81.1045 71.1555 81.0879V79.9009C71.2441 79.9175 71.3409 79.9285 71.4461 79.9341C71.5512 79.9396 71.6536 79.9424 71.7532 79.9424C72.1627 79.9424 72.4975 79.8372 72.7576 79.627C73.0232 79.4167 73.2363 79.0542 73.3967 78.5396L73.5628 78.0083L70.2507 69.0518H71.7947L74.5505 77.3193L73.9778 76.4146H74.6585L74.0857 77.3193L76.8333 69.0518H78.3523L74.8577 78.5479C74.6142 79.2174 74.3569 79.7404 74.0857 80.1167C73.8145 80.493 73.4963 80.7559 73.1311 80.9053C72.7714 81.0602 72.3259 81.1377 71.7947 81.1377ZM83.537 78.1577C82.6903 78.1577 81.9571 77.9723 81.3373 77.6016C80.723 77.2253 80.2471 76.6912 79.9096 75.9995C79.5775 75.3078 79.4115 74.486 79.4115 73.5342V73.5176C79.4115 72.5602 79.5775 71.7357 79.9096 71.0439C80.2471 70.3522 80.723 69.821 81.3373 69.4502C81.9571 69.0794 82.6903 68.894 83.537 68.894C84.3892 68.894 85.1225 69.0794 85.7367 69.4502C86.351 69.821 86.8241 70.3522 87.1561 71.0439C87.4937 71.7357 87.6625 72.5602 87.6625 73.5176V73.5342C87.6625 74.486 87.4937 75.3078 87.1561 75.9995C86.8241 76.6912 86.351 77.2253 85.7367 77.6016C85.1225 77.9723 84.3892 78.1577 83.537 78.1577ZM83.537 76.8794C84.1015 76.8794 84.5801 76.7466 84.973 76.481C85.3659 76.2153 85.6648 75.8335 85.8695 75.3354C86.0798 74.8374 86.185 74.237 86.185 73.5342V73.5176C86.185 72.8092 86.0798 72.2061 85.8695 71.708C85.6648 71.21 85.3659 70.8309 84.973 70.5708C84.5801 70.3052 84.1015 70.1724 83.537 70.1724C82.9725 70.1724 82.4939 70.3052 82.101 70.5708C81.7081 70.8309 81.4065 71.21 81.1962 71.708C80.9914 72.2061 80.8891 72.8092 80.8891 73.5176V73.5342C80.8891 74.237 80.9914 74.8374 81.1962 75.3354C81.4065 75.8335 81.7081 76.2153 82.101 76.481C82.4939 76.7466 82.9725 76.8794 83.537 76.8794ZM92.8306 78.1577C92.1555 78.1577 91.5882 78.0304 91.1289 77.7759C90.6696 77.5158 90.3237 77.1395 90.0913 76.647C89.8644 76.1489 89.751 75.5485 89.751 74.8457V69.0518H91.1953V74.4971C91.1953 75.2995 91.3503 75.8971 91.6602 76.29C91.9756 76.6829 92.4902 76.8794 93.2041 76.8794C93.597 76.8794 93.9429 76.8213 94.2417 76.7051C94.5461 76.5889 94.8006 76.4229 95.0054 76.207C95.2101 75.9857 95.3623 75.7201 95.4619 75.4102C95.5671 75.0947 95.6196 74.7406 95.6196 74.3477V69.0518H97.064V78H95.6196V76.6636H95.4868C95.343 76.979 95.1465 77.2502 94.8975 77.4771C94.6485 77.6984 94.3496 77.8672 94.001 77.9834C93.6579 78.0996 93.2678 78.1577 92.8306 78.1577ZM105.001 78V70.2471H103.515V69.0518H105.001V68.0557C105.001 67.458 105.098 66.9655 105.292 66.5781C105.491 66.1852 105.784 65.8947 106.172 65.7065C106.559 65.5129 107.035 65.416 107.599 65.416C107.776 65.416 107.942 65.4243 108.097 65.4409C108.258 65.452 108.413 65.4714 108.562 65.499V66.6528C108.474 66.6362 108.371 66.6252 108.255 66.6196C108.139 66.6141 108.017 66.6113 107.89 66.6113C107.375 66.6113 107.004 66.7358 106.778 66.9849C106.556 67.2339 106.446 67.6047 106.446 68.0972V69.0518H108.479V70.2471H106.446V78H105.001ZM113.805 78.1577C112.958 78.1577 112.225 77.9723 111.605 77.6016C110.991 77.2253 110.515 76.6912 110.178 75.9995C109.846 75.3078 109.68 74.486 109.68 73.5342V73.5176C109.68 72.5602 109.846 71.7357 110.178 71.0439C110.515 70.3522 110.991 69.821 111.605 69.4502C112.225 69.0794 112.958 68.894 113.805 68.894C114.657 68.894 115.391 69.0794 116.005 69.4502C116.619 69.821 117.092 70.3522 117.424 71.0439C117.762 71.7357 117.931 72.5602 117.931 73.5176V73.5342C117.931 74.486 117.762 75.3078 117.424 75.9995C117.092 76.6912 116.619 77.2253 116.005 77.6016C115.391 77.9723 114.657 78.1577 113.805 78.1577ZM113.805 76.8794C114.37 76.8794 114.848 76.7466 115.241 76.481C115.634 76.2153 115.933 75.8335 116.138 75.3354C116.348 74.8374 116.453 74.237 116.453 73.5342V73.5176C116.453 72.8092 116.348 72.2061 116.138 71.708C115.933 71.21 115.634 70.8309 115.241 70.5708C114.848 70.3052 114.37 70.1724 113.805 70.1724C113.241 70.1724 112.762 70.3052 112.369 70.5708C111.976 70.8309 111.675 71.21 111.464 71.708C111.26 72.2061 111.157 72.8092 111.157 73.5176V73.5342C111.157 74.237 111.26 74.8374 111.464 75.3354C111.675 75.8335 111.976 76.2153 112.369 76.481C112.762 76.7466 113.241 76.8794 113.805 76.8794ZM120.102 78V69.0518H121.546V70.3799H121.679C121.851 69.9095 122.141 69.5443 122.551 69.2842C122.96 69.0241 123.467 68.894 124.07 68.894C124.208 68.894 124.344 68.9023 124.477 68.9189C124.615 68.93 124.72 68.9411 124.792 68.9521V70.355C124.643 70.3273 124.496 70.3079 124.352 70.2969C124.214 70.2803 124.064 70.272 123.904 70.272C123.445 70.272 123.038 70.3633 122.684 70.5459C122.329 70.7285 122.05 70.9831 121.845 71.3096C121.646 71.6361 121.546 72.0179 121.546 72.4551V78H120.102ZM134.29 78.1577C133.626 78.1577 133.039 78.0581 132.53 77.8589C132.021 77.6541 131.611 77.3691 131.302 77.0039C130.997 76.6387 130.817 76.2098 130.762 75.7173H132.24C132.361 76.0881 132.599 76.3869 132.953 76.6138C133.308 76.8407 133.77 76.9541 134.34 76.9541C134.744 76.9541 135.098 76.896 135.402 76.7798C135.712 76.658 135.956 76.4948 136.133 76.29C136.31 76.0798 136.398 75.839 136.398 75.5679V75.5513C136.398 75.2469 136.276 74.9896 136.033 74.7793C135.789 74.5635 135.391 74.3892 134.838 74.2563L133.451 73.9243C132.893 73.7915 132.433 73.62 132.074 73.4097C131.714 73.1938 131.448 72.931 131.277 72.6211C131.105 72.3057 131.019 71.9349 131.019 71.5088V71.5005C131.019 71.0024 131.163 70.557 131.451 70.1641C131.744 69.7712 132.143 69.4613 132.646 69.2344C133.15 69.0075 133.717 68.894 134.348 68.894C134.973 68.894 135.527 68.9937 136.008 69.1929C136.495 69.3866 136.885 69.6632 137.178 70.0229C137.477 70.3826 137.66 70.806 137.726 71.293H136.307C136.213 70.9388 135.997 70.651 135.659 70.4297C135.322 70.2083 134.882 70.0977 134.34 70.0977C133.985 70.0977 133.67 70.1558 133.393 70.272C133.117 70.3826 132.898 70.5376 132.738 70.7368C132.577 70.936 132.497 71.1685 132.497 71.4341V71.4507C132.497 71.6499 132.549 71.827 132.655 71.9819C132.76 72.1369 132.923 72.2725 133.144 72.3887C133.366 72.5049 133.651 72.6073 133.999 72.6958L135.377 73.0278C136.218 73.2326 136.844 73.5259 137.253 73.9077C137.668 74.2896 137.876 74.8014 137.876 75.4434V75.46C137.876 75.9912 137.718 76.4616 137.403 76.8711C137.087 77.2751 136.658 77.5905 136.116 77.8174C135.579 78.0443 134.97 78.1577 134.29 78.1577ZM143.044 78.1577C142.369 78.1577 141.802 78.0304 141.342 77.7759C140.883 77.5158 140.537 77.1395 140.305 76.647C140.078 76.1489 139.964 75.5485 139.964 74.8457V69.0518H141.409V74.4971C141.409 75.2995 141.564 75.8971 141.873 76.29C142.189 76.6829 142.704 76.8794 143.417 76.8794C143.81 76.8794 144.156 76.8213 144.455 76.7051C144.759 76.5889 145.014 76.4229 145.219 76.207C145.423 75.9857 145.576 75.7201 145.675 75.4102C145.78 75.0947 145.833 74.7406 145.833 74.3477V69.0518H147.277V78H145.833V76.6636H145.7C145.556 76.979 145.36 77.2502 145.111 77.4771C144.862 77.6984 144.563 77.8672 144.214 77.9834C143.871 78.0996 143.481 78.1577 143.044 78.1577ZM154.355 78.1577C153.939 78.1577 153.555 78.0941 153.201 77.9668C152.847 77.8395 152.531 77.6597 152.254 77.4272C151.978 77.1893 151.748 76.9043 151.565 76.5723H151.433V78H149.988V65.499H151.433V70.4629H151.565C151.731 70.1419 151.953 69.8652 152.23 69.6328C152.512 69.4004 152.833 69.2205 153.192 69.0933C153.558 68.9604 153.945 68.894 154.355 68.894C155.113 68.894 155.771 69.085 156.33 69.4668C156.895 69.8486 157.332 70.3854 157.642 71.0771C157.952 71.7689 158.106 72.5824 158.106 73.5176V73.5342C158.106 74.4639 157.952 75.2773 157.642 75.9746C157.332 76.6663 156.895 77.2031 156.33 77.585C155.771 77.9668 155.113 78.1577 154.355 78.1577ZM154.022 76.8794C154.57 76.8794 155.038 76.7466 155.425 76.481C155.813 76.2098 156.109 75.8252 156.314 75.3271C156.524 74.8236 156.629 74.2259 156.629 73.5342V73.5176C156.629 72.8203 156.524 72.2227 156.314 71.7246C156.109 71.2266 155.813 70.8447 155.425 70.5791C155.038 70.3079 154.57 70.1724 154.022 70.1724C153.48 70.1724 153.013 70.3079 152.62 70.5791C152.227 70.8503 151.925 71.2349 151.715 71.7329C151.505 72.231 151.399 72.8258 151.399 73.5176V73.5342C151.399 74.2204 151.505 74.8153 151.715 75.3188C151.925 75.8169 152.227 76.2015 152.62 76.4727C153.013 76.7438 153.48 76.8794 154.022 76.8794ZM160.278 78V69.0518H161.722V70.4131H161.855C162.054 69.9316 162.359 69.5581 162.768 69.2925C163.183 69.0269 163.684 68.894 164.271 68.894C164.675 68.894 165.037 68.9604 165.358 69.0933C165.679 69.2261 165.956 69.4115 166.188 69.6494C166.421 69.8818 166.606 70.153 166.744 70.4629H166.877C167.038 70.1475 167.253 69.8735 167.525 69.6411C167.796 69.4032 168.108 69.2205 168.463 69.0933C168.822 68.9604 169.207 68.894 169.616 68.894C170.225 68.894 170.74 69.0075 171.16 69.2344C171.586 69.4613 171.91 69.7933 172.132 70.2305C172.353 70.6621 172.464 71.1906 172.464 71.8159V78H171.019V72.1479C171.019 71.7052 170.95 71.34 170.812 71.0522C170.679 70.759 170.474 70.5404 170.197 70.3965C169.921 70.2471 169.572 70.1724 169.152 70.1724C168.736 70.1724 168.374 70.2664 168.064 70.4546C167.754 70.6427 167.513 70.8945 167.342 71.21C167.17 71.5199 167.085 71.8657 167.085 72.2476V78H165.64V71.9238C165.64 71.5697 165.563 71.2625 165.408 71.0024C165.258 70.7368 165.043 70.5321 164.76 70.3882C164.484 70.2443 164.157 70.1724 163.781 70.1724C163.394 70.1724 163.042 70.2747 162.727 70.4795C162.417 70.6842 162.171 70.9609 161.988 71.3096C161.811 71.6527 161.722 72.0345 161.722 72.4551V78H160.278ZM175.033 78V69.0518H176.478V78H175.033ZM175.764 67.3252C175.493 67.3252 175.258 67.2284 175.058 67.0347C174.865 66.8354 174.768 66.6003 174.768 66.3291C174.768 66.0524 174.865 65.8172 175.058 65.6235C175.258 65.4299 175.493 65.333 175.764 65.333C176.041 65.333 176.276 65.4299 176.47 65.6235C176.663 65.8172 176.76 66.0524 176.76 66.3291C176.76 66.6003 176.663 66.8354 176.47 67.0347C176.276 67.2284 176.041 67.3252 175.764 67.3252ZM182.31 78.0664C181.391 78.0664 180.725 77.881 180.309 77.5103C179.9 77.1395 179.695 76.528 179.695 75.6758V70.2471H178.284V69.0518H179.695V66.7358H181.189V69.0518H183.148V70.2471H181.189V75.3105C181.189 75.8363 181.289 76.2153 181.488 76.4478C181.687 76.6746 182.019 76.7881 182.484 76.7881C182.612 76.7881 182.719 76.7853 182.808 76.7798C182.902 76.7743 183.016 76.766 183.148 76.7549V77.9834C183.01 78.0055 182.872 78.0249 182.733 78.0415C182.595 78.0581 182.454 78.0664 182.31 78.0664ZM188.416 78.0664C187.497 78.0664 186.831 77.881 186.416 77.5103C186.006 77.1395 185.801 76.528 185.801 75.6758V70.2471H184.39V69.0518H185.801V66.7358H187.295V69.0518H189.254V70.2471H187.295V75.3105C187.295 75.8363 187.395 76.2153 187.594 76.4478C187.794 76.6746 188.126 76.7881 188.59 76.7881C188.718 76.7881 188.826 76.7853 188.914 76.7798C189.008 76.7743 189.122 76.766 189.254 76.7549V77.9834C189.116 78.0055 188.978 78.0249 188.839 78.0415C188.701 78.0581 188.56 78.0664 188.416 78.0664ZM191.376 78V69.0518H192.82V78H191.376ZM192.107 67.3252C191.835 67.3252 191.6 67.2284 191.401 67.0347C191.207 66.8354 191.111 66.6003 191.111 66.3291C191.111 66.0524 191.207 65.8172 191.401 65.6235C191.6 65.4299 191.835 65.333 192.107 65.333C192.383 65.333 192.618 65.4299 192.812 65.6235C193.006 65.8172 193.103 66.0524 193.103 66.3291C193.103 66.6003 193.006 66.8354 192.812 67.0347C192.618 67.2284 192.383 67.3252 192.107 67.3252ZM195.473 78V69.0518H196.918V70.3965H197.051C197.277 69.9206 197.604 69.5526 198.03 69.2925C198.456 69.0269 198.998 68.894 199.657 68.894C200.664 68.894 201.436 69.1818 201.973 69.7573C202.515 70.3273 202.786 71.1436 202.786 72.2061V78H201.342V72.5547C201.342 71.7467 201.171 71.1491 200.827 70.7617C200.49 70.3688 199.964 70.1724 199.25 70.1724C198.774 70.1724 198.362 70.2747 198.013 70.4795C197.665 70.6842 197.394 70.9748 197.2 71.3511C197.012 71.7274 196.918 72.1784 196.918 72.7041V78H195.473ZM209.017 81.1543C208.298 81.1543 207.67 81.0519 207.133 80.8472C206.596 80.6479 206.167 80.363 205.846 79.9922C205.531 79.627 205.334 79.2008 205.257 78.7139L205.273 78.7056H206.768L206.776 78.7139C206.853 79.0514 207.086 79.3281 207.473 79.5439C207.86 79.7653 208.375 79.876 209.017 79.876C209.819 79.876 210.445 79.6934 210.893 79.3281C211.347 78.9684 211.574 78.4593 211.574 77.8008V75.9912H211.441C211.253 76.3177 211.018 76.5972 210.735 76.8296C210.453 77.062 210.135 77.2391 209.781 77.3608C209.427 77.4771 209.045 77.5352 208.635 77.5352C207.866 77.5352 207.199 77.3525 206.635 76.9873C206.076 76.6165 205.644 76.1074 205.34 75.46C205.035 74.8125 204.883 74.071 204.883 73.2354V73.2188C204.883 72.3831 205.035 71.6416 205.34 70.9941C205.65 70.3411 206.087 69.8293 206.651 69.4585C207.216 69.0822 207.888 68.894 208.668 68.894C209.089 68.894 209.476 68.9604 209.83 69.0933C210.185 69.2261 210.497 69.4142 210.768 69.6577C211.045 69.9012 211.275 70.1917 211.457 70.5293H211.557V69.0518H213.001V77.8755C213.001 78.5396 212.838 79.1178 212.512 79.6104C212.191 80.1029 211.731 80.4819 211.134 80.7476C210.536 81.0187 209.83 81.1543 209.017 81.1543ZM208.951 76.2568C209.504 76.2568 209.977 76.1296 210.37 75.875C210.768 75.6149 211.073 75.258 211.283 74.8042C211.499 74.3504 211.607 73.8275 211.607 73.2354V73.2188C211.607 72.6266 211.499 72.1009 211.283 71.6416C211.073 71.1823 210.768 70.8226 210.37 70.5625C209.977 70.3024 209.504 70.1724 208.951 70.1724C208.397 70.1724 207.927 70.3024 207.539 70.5625C207.158 70.8226 206.864 71.1823 206.66 71.6416C206.46 72.1009 206.361 72.6266 206.361 73.2188V73.2354C206.361 73.8275 206.46 74.3504 206.66 74.8042C206.864 75.258 207.158 75.6149 207.539 75.875C207.927 76.1296 208.397 76.2568 208.951 76.2568ZM221.096 81.1377C221.002 81.1377 220.897 81.1322 220.781 81.1211C220.665 81.1156 220.557 81.1045 220.457 81.0879V79.9009C220.546 79.9175 220.643 79.9285 220.748 79.9341C220.853 79.9396 220.955 79.9424 221.055 79.9424C221.464 79.9424 221.799 79.8372 222.059 79.627C222.325 79.4167 222.538 79.0542 222.698 78.5396L222.864 78.0083L219.552 69.0518H221.096L223.852 77.3193L223.279 76.4146H223.96L223.387 77.3193L226.135 69.0518H227.654L224.159 78.5479C223.916 79.2174 223.659 79.7404 223.387 80.1167C223.116 80.493 222.798 80.7559 222.433 80.9053C222.073 81.0602 221.628 81.1377 221.096 81.1377ZM232.839 78.1577C231.992 78.1577 231.259 77.9723 230.639 77.6016C230.025 77.2253 229.549 76.6912 229.211 75.9995C228.879 75.3078 228.713 74.486 228.713 73.5342V73.5176C228.713 72.5602 228.879 71.7357 229.211 71.0439C229.549 70.3522 230.025 69.821 230.639 69.4502C231.259 69.0794 231.992 68.894 232.839 68.894C233.691 68.894 234.424 69.0794 235.038 69.4502C235.653 69.821 236.126 70.3522 236.458 71.0439C236.795 71.7357 236.964 72.5602 236.964 73.5176V73.5342C236.964 74.486 236.795 75.3078 236.458 75.9995C236.126 76.6912 235.653 77.2253 235.038 77.6016C234.424 77.9723 233.691 78.1577 232.839 78.1577ZM232.839 76.8794C233.403 76.8794 233.882 76.7466 234.275 76.481C234.668 76.2153 234.966 75.8335 235.171 75.3354C235.381 74.8374 235.487 74.237 235.487 73.5342V73.5176C235.487 72.8092 235.381 72.2061 235.171 71.708C234.966 71.21 234.668 70.8309 234.275 70.5708C233.882 70.3052 233.403 70.1724 232.839 70.1724C232.274 70.1724 231.796 70.3052 231.403 70.5708C231.01 70.8309 230.708 71.21 230.498 71.708C230.293 72.2061 230.191 72.8092 230.191 73.5176V73.5342C230.191 74.237 230.293 74.8374 230.498 75.3354C230.708 75.8335 231.01 76.2153 231.403 76.481C231.796 76.7466 232.274 76.8794 232.839 76.8794ZM242.132 78.1577C241.457 78.1577 240.89 78.0304 240.431 77.7759C239.971 77.5158 239.625 77.1395 239.393 76.647C239.166 76.1489 239.053 75.5485 239.053 74.8457V69.0518H240.497V74.4971C240.497 75.2995 240.652 75.8971 240.962 76.29C241.277 76.6829 241.792 76.8794 242.506 76.8794C242.899 76.8794 243.245 76.8213 243.543 76.7051C243.848 76.5889 244.102 76.4229 244.307 76.207C244.512 75.9857 244.664 75.7201 244.764 75.4102C244.869 75.0947 244.921 74.7406 244.921 74.3477V69.0518H246.366V78H244.921V76.6636H244.789C244.645 76.979 244.448 77.2502 244.199 77.4771C243.95 77.6984 243.651 77.8672 243.303 77.9834C242.96 78.0996 242.569 78.1577 242.132 78.1577ZM248.994 78V69.0518H250.438V70.3799H250.571C250.742 69.9095 251.033 69.5443 251.442 69.2842C251.852 69.0241 252.358 68.894 252.961 68.894C253.1 68.894 253.235 68.9023 253.368 68.9189C253.507 68.93 253.612 68.9411 253.684 68.9521V70.355C253.534 70.3273 253.388 70.3079 253.244 70.2969C253.105 70.2803 252.956 70.272 252.795 70.272C252.336 70.272 251.929 70.3633 251.575 70.5459C251.221 70.7285 250.942 70.9831 250.737 71.3096C250.538 71.6361 250.438 72.0179 250.438 72.4551V78H248.994ZM260.193 78V65.499H261.638V78H260.193ZM268.018 78.1577C267.171 78.1577 266.438 77.9723 265.818 77.6016C265.204 77.2253 264.728 76.6912 264.39 75.9995C264.058 75.3078 263.892 74.486 263.892 73.5342V73.5176C263.892 72.5602 264.058 71.7357 264.39 71.0439C264.728 70.3522 265.204 69.821 265.818 69.4502C266.438 69.0794 267.171 68.894 268.018 68.894C268.87 68.894 269.603 69.0794 270.217 69.4502C270.831 69.821 271.305 70.3522 271.637 71.0439C271.974 71.7357 272.143 72.5602 272.143 73.5176V73.5342C272.143 74.486 271.974 75.3078 271.637 75.9995C271.305 76.6912 270.831 77.2253 270.217 77.6016C269.603 77.9723 268.87 78.1577 268.018 78.1577ZM268.018 76.8794C268.582 76.8794 269.061 76.7466 269.454 76.481C269.846 76.2153 270.145 75.8335 270.35 75.3354C270.56 74.8374 270.665 74.237 270.665 73.5342V73.5176C270.665 72.8092 270.56 72.2061 270.35 71.708C270.145 71.21 269.846 70.8309 269.454 70.5708C269.061 70.3052 268.582 70.1724 268.018 70.1724C267.453 70.1724 266.974 70.3052 266.581 70.5708C266.189 70.8309 265.887 71.21 265.677 71.708C265.472 72.2061 265.37 72.8092 265.37 73.5176V73.5342C265.37 74.237 265.472 74.8374 265.677 75.3354C265.887 75.8335 266.189 76.2153 266.581 76.481C266.974 76.7466 267.453 76.8794 268.018 76.8794ZM277.494 78.0664C276.575 78.0664 275.908 77.881 275.493 77.5103C275.084 77.1395 274.879 76.528 274.879 75.6758V70.2471H273.468V69.0518H274.879V66.7358H276.373V69.0518H278.332V70.2471H276.373V75.3105C276.373 75.8363 276.473 76.2153 276.672 76.4478C276.871 76.6746 277.203 76.7881 277.668 76.7881C277.795 76.7881 277.903 76.7853 277.992 76.7798C278.086 76.7743 278.199 76.766 278.332 76.7549V77.9834C278.194 78.0055 278.055 78.0249 277.917 78.0415C277.779 78.0581 277.638 78.0664 277.494 78.0664ZM281.599 78.083C281.306 78.083 281.051 77.9779 280.836 77.7676C280.625 77.5518 280.52 77.2972 280.52 77.0039C280.52 76.7051 280.625 76.4505 280.836 76.2402C281.051 76.0299 281.306 75.9248 281.599 75.9248C281.898 75.9248 282.153 76.0299 282.363 76.2402C282.573 76.4505 282.678 76.7051 282.678 77.0039C282.678 77.2972 282.573 77.5518 282.363 77.7676C282.153 77.9779 281.898 78.083 281.599 78.083ZM293.587 78V72.8452L289.337 66.022H291.039L294.268 71.3428H294.401L297.63 66.022H299.331L295.081 72.8452V78H293.587ZM303.445 78.1577C302.599 78.1577 301.865 77.9723 301.246 77.6016C300.631 77.2253 300.156 76.6912 299.818 75.9995C299.486 75.3078 299.32 74.486 299.32 73.5342V73.5176C299.32 72.5602 299.486 71.7357 299.818 71.0439C300.156 70.3522 300.631 69.821 301.246 69.4502C301.865 69.0794 302.599 68.894 303.445 68.894C304.298 68.894 305.031 69.0794 305.645 69.4502C306.259 69.821 306.733 70.3522 307.065 71.0439C307.402 71.7357 307.571 72.5602 307.571 73.5176V73.5342C307.571 74.486 307.402 75.3078 307.065 75.9995C306.733 76.6912 306.259 77.2253 305.645 77.6016C305.031 77.9723 304.298 78.1577 303.445 78.1577ZM303.445 76.8794C304.01 76.8794 304.489 76.7466 304.881 76.481C305.274 76.2153 305.573 75.8335 305.778 75.3354C305.988 74.8374 306.093 74.237 306.093 73.5342V73.5176C306.093 72.8092 305.988 72.2061 305.778 71.708C305.573 71.21 305.274 70.8309 304.881 70.5708C304.489 70.3052 304.01 70.1724 303.445 70.1724C302.881 70.1724 302.402 70.3052 302.009 70.5708C301.616 70.8309 301.315 71.21 301.105 71.708C300.9 72.2061 300.797 72.8092 300.797 73.5176V73.5342C300.797 74.237 300.9 74.8374 301.105 75.3354C301.315 75.8335 301.616 76.2153 302.009 76.481C302.402 76.7466 302.881 76.8794 303.445 76.8794ZM312.739 78.1577C312.064 78.1577 311.497 78.0304 311.037 77.7759C310.578 77.5158 310.232 77.1395 310 76.647C309.773 76.1489 309.659 75.5485 309.659 74.8457V69.0518H311.104V74.4971C311.104 75.2995 311.259 75.8971 311.569 76.29C311.884 76.6829 312.399 76.8794 313.113 76.8794C313.505 76.8794 313.851 76.8213 314.15 76.7051C314.454 76.5889 314.709 76.4229 314.914 76.207C315.119 75.9857 315.271 75.7201 315.37 75.4102C315.475 75.0947 315.528 74.7406 315.528 74.3477V69.0518H316.972V78H315.528V76.6636H315.395C315.251 76.979 315.055 77.2502 314.806 77.4771C314.557 77.6984 314.258 77.8672 313.909 77.9834C313.566 78.0996 313.176 78.1577 312.739 78.1577ZM320.181 70.7451L320.007 66.022H321.551L321.377 70.7451H320.181ZM324.661 78V65.499H326.105V78H324.661ZM328.891 78V65.499H330.335V78H328.891ZM21.0303 103.154C20.3109 103.154 19.6828 103.052 19.146 102.847C18.6092 102.648 18.1803 102.363 17.8594 101.992C17.5439 101.627 17.3475 101.201 17.27 100.714L17.2866 100.706H18.7808L18.7891 100.714C18.8665 101.051 19.099 101.328 19.4863 101.544C19.8737 101.765 20.3883 101.876 21.0303 101.876C21.8327 101.876 22.458 101.693 22.9062 101.328C23.36 100.968 23.5869 100.459 23.5869 99.8008V97.9912H23.4541C23.266 98.3177 23.0308 98.5972 22.7485 98.8296C22.4663 99.062 22.1481 99.2391 21.7939 99.3608C21.4398 99.4771 21.0579 99.5352 20.6484 99.5352C19.8792 99.5352 19.2124 99.3525 18.6479 98.9873C18.089 98.6165 17.6574 98.1074 17.353 97.46C17.0487 96.8125 16.8965 96.071 16.8965 95.2354V95.2188C16.8965 94.3831 17.0487 93.6416 17.353 92.9941C17.6629 92.3411 18.1001 91.8293 18.6646 91.4585C19.229 91.0822 19.9014 90.894 20.6816 90.894C21.1022 90.894 21.4896 90.9604 21.8438 91.0933C22.1979 91.2261 22.5106 91.4142 22.7817 91.6577C23.0584 91.9012 23.2881 92.1917 23.4707 92.5293H23.5703V91.0518H25.0146V99.8755C25.0146 100.54 24.8514 101.118 24.5249 101.61C24.2039 102.103 23.7446 102.482 23.147 102.748C22.5493 103.019 21.8438 103.154 21.0303 103.154ZM20.9639 98.2568C21.5173 98.2568 21.9904 98.1296 22.3833 97.875C22.7817 97.6149 23.0861 97.258 23.2964 96.8042C23.5122 96.3504 23.6201 95.8275 23.6201 95.2354V95.2188C23.6201 94.6266 23.5122 94.1009 23.2964 93.6416C23.0861 93.1823 22.7817 92.8226 22.3833 92.5625C21.9904 92.3024 21.5173 92.1724 20.9639 92.1724C20.4105 92.1724 19.9401 92.3024 19.5527 92.5625C19.1709 92.8226 18.8776 93.1823 18.6729 93.6416C18.4736 94.1009 18.374 94.6266 18.374 95.2188V95.2354C18.374 95.8275 18.4736 96.3504 18.6729 96.8042C18.8776 97.258 19.1709 97.6149 19.5527 97.875C19.9401 98.1296 20.4105 98.2568 20.9639 98.2568ZM31.2867 100.158C30.4345 100.158 29.7013 99.9696 29.087 99.5933C28.4783 99.217 28.0079 98.6857 27.6759 97.9995C27.3494 97.3078 27.1862 96.4943 27.1862 95.5591V95.5508C27.1862 94.6266 27.3494 93.8159 27.6759 93.1187C28.0079 92.4214 28.4755 91.8763 29.0787 91.4834C29.6819 91.0905 30.3875 90.894 31.1954 90.894C32.0089 90.894 32.7062 91.0822 33.2872 91.4585C33.8738 91.8348 34.3221 92.3605 34.632 93.0356C34.9474 93.7052 35.1051 94.4855 35.1051 95.3765V95.9409H27.9332V94.7871H34.3663L33.6525 95.8413V95.2686C33.6525 94.5658 33.5473 93.9875 33.337 93.5337C33.1268 93.0799 32.8362 92.7424 32.4655 92.521C32.0947 92.2941 31.6686 92.1807 31.1871 92.1807C30.7057 92.1807 30.274 92.2996 29.8922 92.5376C29.5159 92.77 29.2171 93.1159 28.9957 93.5752C28.7744 94.0345 28.6637 94.599 28.6637 95.2686V95.8413C28.6637 96.4777 28.7716 97.0228 28.9874 97.4766C29.2032 97.9248 29.5104 98.2707 29.9088 98.5142C30.3073 98.7521 30.7776 98.8711 31.3199 98.8711C31.7239 98.8711 32.0753 98.8158 32.3741 98.7051C32.673 98.5944 32.9192 98.4533 33.1129 98.2817C33.3066 98.1102 33.4422 97.9359 33.5197 97.7588L33.5529 97.6841H34.9972L34.9806 97.7505C34.9031 98.0549 34.7648 98.3509 34.5656 98.6387C34.3719 98.9209 34.1201 99.1782 33.8102 99.4106C33.5003 99.6375 33.1323 99.8201 32.7062 99.9585C32.2856 100.091 31.8125 100.158 31.2867 100.158ZM40.4558 100.066C39.5372 100.066 38.8704 99.881 38.4553 99.5103C38.0458 99.1395 37.8411 98.528 37.8411 97.6758V92.2471H36.4299V91.0518H37.8411V88.7358H39.3352V91.0518H41.2942V92.2471H39.3352V97.3105C39.3352 97.8363 39.4348 98.2153 39.634 98.4478C39.8333 98.6746 40.1653 98.7881 40.6301 98.7881C40.7574 98.7881 40.8653 98.7853 40.9539 98.7798C41.0479 98.7743 41.1614 98.766 41.2942 98.7549V99.9834C41.1558 100.006 41.0175 100.025 40.8792 100.042C40.7408 100.058 40.5997 100.066 40.4558 100.066ZM50.5513 100.158C49.9868 100.158 49.4777 100.05 49.0239 99.834C48.5757 99.6182 48.2188 99.311 47.9531 98.9126C47.693 98.5142 47.563 98.0438 47.563 97.5015V97.4849C47.563 96.9536 47.6903 96.4998 47.9448 96.1235C48.1994 95.7417 48.5702 95.4429 49.0571 95.2271C49.5441 95.0112 50.1335 94.884 50.8252 94.8452L54.1123 94.646V95.7998L50.9995 95.999C50.3189 96.0378 49.8208 96.1789 49.5054 96.4224C49.1955 96.6659 49.0405 97.009 49.0405 97.4517V97.4683C49.0405 97.922 49.2121 98.2762 49.5552 98.5308C49.8983 98.7798 50.3299 98.9043 50.8501 98.9043C51.3426 98.9043 51.7798 98.8075 52.1616 98.6138C52.5435 98.4146 52.8423 98.1462 53.0581 97.8086C53.2795 97.471 53.3901 97.0892 53.3901 96.6631V93.874C53.3901 93.3206 53.2214 92.9001 52.8838 92.6123C52.5518 92.319 52.051 92.1724 51.3814 92.1724C50.8446 92.1724 50.4046 92.2692 50.0615 92.4629C49.7184 92.651 49.4888 92.9194 49.3726 93.2681L49.3643 93.293H47.9199L47.9282 93.2432C48.0057 92.7728 48.1994 92.3633 48.5093 92.0146C48.8247 91.6605 49.2315 91.3866 49.7295 91.1929C50.2275 90.9937 50.7948 90.894 51.4312 90.894C52.1616 90.894 52.7787 91.013 53.2822 91.251C53.7913 91.4889 54.176 91.832 54.436 92.2803C54.7017 92.723 54.8345 93.2542 54.8345 93.874V100H53.3901V98.6802H53.2573C53.0692 98.9956 52.8395 99.264 52.5684 99.4854C52.3027 99.7067 52.0011 99.8755 51.6636 99.9917C51.326 100.102 50.9552 100.158 50.5513 100.158ZM57.4044 100V91.0518H58.8488V92.3965H58.9816C59.2085 91.9206 59.535 91.5526 59.9611 91.2925C60.3872 91.0269 60.9295 90.894 61.588 90.894C62.5952 90.894 63.3672 91.1818 63.9039 91.7573C64.4463 92.3273 64.7174 93.1436 64.7174 94.2061V100H63.2731V94.5547C63.2731 93.7467 63.1015 93.1491 62.7584 92.7617C62.4209 92.3688 61.8952 92.1724 61.1813 92.1724C60.7054 92.1724 60.2931 92.2747 59.9445 92.4795C59.5958 92.6842 59.3247 92.9748 59.131 93.3511C58.9428 93.7274 58.8488 94.1784 58.8488 94.7041V100H57.4044ZM75.6264 100.158C74.7741 100.158 74.0409 99.9696 73.4267 99.5933C72.8179 99.217 72.3475 98.6857 72.0155 97.9995C71.689 97.3078 71.5258 96.4943 71.5258 95.5591V95.5508C71.5258 94.6266 71.689 93.8159 72.0155 93.1187C72.3475 92.4214 72.8152 91.8763 73.4184 91.4834C74.0215 91.0905 74.7271 90.894 75.535 90.894C76.3485 90.894 77.0458 91.0822 77.6268 91.4585C78.2134 91.8348 78.6617 92.3605 78.9716 93.0356C79.287 93.7052 79.4447 94.4855 79.4447 95.3765V95.9409H72.2728V94.7871H78.7059L77.9921 95.8413V95.2686C77.9921 94.5658 77.8869 93.9875 77.6767 93.5337C77.4664 93.0799 77.1758 92.7424 76.8051 92.521C76.4343 92.2941 76.0082 92.1807 75.5267 92.1807C75.0453 92.1807 74.6137 92.2996 74.2318 92.5376C73.8555 92.77 73.5567 93.1159 73.3353 93.5752C73.114 94.0345 73.0033 94.599 73.0033 95.2686V95.8413C73.0033 96.4777 73.1112 97.0228 73.327 97.4766C73.5429 97.9248 73.85 98.2707 74.2484 98.5142C74.6469 98.7521 75.1172 98.8711 75.6596 98.8711C76.0635 98.8711 76.4149 98.8158 76.7138 98.7051C77.0126 98.5944 77.2588 98.4533 77.4525 98.2817C77.6462 98.1102 77.7818 97.9359 77.8593 97.7588L77.8925 97.6841H79.3368L79.3202 97.7505C79.2427 98.0549 79.1044 98.3509 78.9052 98.6387C78.7115 98.9209 78.4597 99.1782 78.1498 99.4106C77.8399 99.6375 77.4719 99.8201 77.0458 99.9585C76.6252 100.091 76.1521 100.158 75.6264 100.158ZM81.6162 100V91.0518H83.0606V92.4131H83.1934C83.3926 91.9316 83.697 91.5581 84.1065 91.2925C84.5215 91.0269 85.0223 90.894 85.6089 90.894C86.0129 90.894 86.3753 90.9604 86.6963 91.0933C87.0173 91.2261 87.294 91.4115 87.5264 91.6494C87.7588 91.8818 87.9442 92.153 88.0825 92.4629H88.2153C88.3758 92.1475 88.5916 91.8735 88.8628 91.6411C89.134 91.4032 89.4466 91.2205 89.8008 91.0933C90.1605 90.9604 90.5451 90.894 90.9546 90.894C91.5633 90.894 92.078 91.0075 92.4986 91.2344C92.9247 91.4613 93.2484 91.7933 93.4697 92.2305C93.6911 92.6621 93.8018 93.1906 93.8018 93.8159V100H92.3574V94.1479C92.3574 93.7052 92.2883 93.34 92.1499 93.0522C92.0171 92.759 91.8124 92.5404 91.5357 92.3965C91.259 92.2471 90.9103 92.1724 90.4898 92.1724C90.0747 92.1724 89.7123 92.2664 89.4024 92.4546C89.0925 92.6427 88.8517 92.8945 88.6802 93.21C88.5086 93.5199 88.4229 93.8657 88.4229 94.2476V100H86.9785V93.9238C86.9785 93.5697 86.9011 93.2625 86.7461 93.0024C86.5967 92.7368 86.3809 92.5321 86.0986 92.3882C85.822 92.2443 85.4955 92.1724 85.1192 92.1724C84.7318 92.1724 84.3804 92.2747 84.065 92.4795C83.7551 92.6842 83.5088 92.9609 83.3262 93.3096C83.1491 93.6527 83.0606 94.0345 83.0606 94.4551V100H81.6162ZM98.7956 100.158C98.2311 100.158 97.722 100.05 97.2682 99.834C96.82 99.6182 96.463 99.311 96.1974 98.9126C95.9373 98.5142 95.8073 98.0438 95.8073 97.5015V97.4849C95.8073 96.9536 95.9346 96.4998 96.1891 96.1235C96.4437 95.7417 96.8144 95.4429 97.3014 95.2271C97.7884 95.0112 98.3777 94.884 99.0695 94.8452L102.357 94.646V95.7998L99.2438 95.999C98.5631 96.0378 98.0651 96.1789 97.7497 96.4224C97.4398 96.6659 97.2848 97.009 97.2848 97.4517V97.4683C97.2848 97.922 97.4564 98.2762 97.7995 98.5308C98.1426 98.7798 98.5742 98.9043 99.0944 98.9043C99.5869 98.9043 100.024 98.8075 100.406 98.6138C100.788 98.4146 101.087 98.1462 101.302 97.8086C101.524 97.471 101.634 97.0892 101.634 96.6631V93.874C101.634 93.3206 101.466 92.9001 101.128 92.6123C100.796 92.319 100.295 92.1724 99.6256 92.1724C99.0888 92.1724 98.6489 92.2692 98.3058 92.4629C97.9627 92.651 97.7331 92.9194 97.6168 93.2681L97.6085 93.293H96.1642L96.1725 93.2432C96.25 92.7728 96.4437 92.3633 96.7536 92.0146C97.069 91.6605 97.4757 91.3866 97.9738 91.1929C98.4718 90.9937 99.039 90.894 99.6754 90.894C100.406 90.894 101.023 91.013 101.527 91.251C102.036 91.4889 102.42 91.832 102.68 92.2803C102.946 92.723 103.079 93.2542 103.079 93.874V100H101.634V98.6802H101.502C101.313 98.9956 101.084 99.264 100.813 99.4854C100.547 99.7067 100.245 99.8755 99.9079 99.9917C99.5703 100.102 99.1995 100.158 98.7956 100.158ZM105.682 100V91.0518H107.126V100H105.682ZM106.412 89.3252C106.141 89.3252 105.906 89.2284 105.707 89.0347C105.513 88.8354 105.416 88.6003 105.416 88.3291C105.416 88.0524 105.513 87.8172 105.707 87.6235C105.906 87.4299 106.141 87.333 106.412 87.333C106.689 87.333 106.924 87.4299 107.118 87.6235C107.312 87.8172 107.408 88.0524 107.408 88.3291C107.408 88.6003 107.312 88.8354 107.118 89.0347C106.924 89.2284 106.689 89.3252 106.412 89.3252ZM109.862 100V87.499H111.307V100H109.862ZM122.398 100.158C121.551 100.158 120.818 99.9723 120.198 99.6016C119.584 99.2253 119.108 98.6912 118.771 97.9995C118.439 97.3078 118.273 96.486 118.273 95.5342V95.5176C118.273 94.5602 118.439 93.7357 118.771 93.0439C119.108 92.3522 119.584 91.821 120.198 91.4502C120.818 91.0794 121.551 90.894 122.398 90.894C123.25 90.894 123.984 91.0794 124.598 91.4502C125.212 91.821 125.685 92.3522 126.017 93.0439C126.355 93.7357 126.524 94.5602 126.524 95.5176V95.5342C126.524 96.486 126.355 97.3078 126.017 97.9995C125.685 98.6912 125.212 99.2253 124.598 99.6016C123.984 99.9723 123.25 100.158 122.398 100.158ZM122.398 98.8794C122.963 98.8794 123.441 98.7466 123.834 98.481C124.227 98.2153 124.526 97.8335 124.731 97.3354C124.941 96.8374 125.046 96.237 125.046 95.5342V95.5176C125.046 94.8092 124.941 94.2061 124.731 93.708C124.526 93.21 124.227 92.8309 123.834 92.5708C123.441 92.3052 122.963 92.1724 122.398 92.1724C121.834 92.1724 121.355 92.3052 120.962 92.5708C120.569 92.8309 120.268 93.21 120.057 93.708C119.853 94.2061 119.75 94.8092 119.75 95.5176V95.5342C119.75 96.237 119.853 96.8374 120.057 97.3354C120.268 97.8335 120.569 98.2153 120.962 98.481C121.355 98.7466 121.834 98.8794 122.398 98.8794ZM128.695 100V91.0518H130.139V92.3965H130.272C130.499 91.9206 130.826 91.5526 131.252 91.2925C131.678 91.0269 132.22 90.894 132.879 90.894C133.886 90.894 134.658 91.1818 135.195 91.7573C135.737 92.3273 136.008 93.1436 136.008 94.2061V100H134.564V94.5547C134.564 93.7467 134.392 93.1491 134.049 92.7617C133.712 92.3688 133.186 92.1724 132.472 92.1724C131.996 92.1724 131.584 92.2747 131.235 92.4795C130.887 92.6842 130.615 92.9748 130.422 93.3511C130.234 93.7274 130.139 94.1784 130.139 94.7041V100H128.695ZM142.214 100.158C141.378 100.158 140.653 99.9668 140.039 99.585C139.425 99.2031 138.949 98.6636 138.611 97.9663C138.274 97.269 138.105 96.4473 138.105 95.501V95.4844C138.105 94.5547 138.271 93.7467 138.603 93.0605C138.941 92.3743 139.416 91.8431 140.031 91.4668C140.645 91.085 141.37 90.894 142.205 90.894C142.93 90.894 143.556 91.0213 144.081 91.2759C144.607 91.5304 145.028 91.8735 145.343 92.3052C145.659 92.7313 145.861 93.21 145.949 93.7412L145.957 93.791H144.521L144.513 93.7661C144.402 93.3234 144.151 92.9471 143.758 92.6372C143.365 92.3273 142.847 92.1724 142.205 92.1724C141.669 92.1724 141.204 92.3079 140.811 92.5791C140.418 92.8503 140.114 93.2349 139.898 93.7329C139.688 94.2254 139.582 94.8092 139.582 95.4844V95.501C139.582 96.1872 139.69 96.7848 139.906 97.2939C140.122 97.7975 140.426 98.1877 140.819 98.4644C141.212 98.741 141.674 98.8794 142.205 98.8794C142.809 98.8794 143.301 98.7493 143.683 98.4893C144.065 98.2292 144.339 97.8501 144.505 97.3521L144.521 97.3022L145.949 97.2939L145.933 97.3853C145.811 97.922 145.595 98.4007 145.285 98.8213C144.975 99.2363 144.566 99.5628 144.057 99.8008C143.547 100.039 142.933 100.158 142.214 100.158ZM151.648 100.158C150.796 100.158 150.063 99.9696 149.449 99.5933C148.84 99.217 148.37 98.6857 148.038 97.9995C147.711 97.3078 147.548 96.4943 147.548 95.5591V95.5508C147.548 94.6266 147.711 93.8159 148.038 93.1187C148.37 92.4214 148.837 91.8763 149.44 91.4834C150.044 91.0905 150.749 90.894 151.557 90.894C152.371 90.894 153.068 91.0822 153.649 91.4585C154.236 91.8348 154.684 92.3605 154.994 93.0356C155.309 93.7052 155.467 94.4855 155.467 95.3765V95.9409H148.295V94.7871H154.728L154.014 95.8413V95.2686C154.014 94.5658 153.909 93.9875 153.699 93.5337C153.488 93.0799 153.198 92.7424 152.827 92.521C152.456 92.2941 152.03 92.1807 151.549 92.1807C151.067 92.1807 150.636 92.2996 150.254 92.5376C149.878 92.77 149.579 93.1159 149.357 93.5752C149.136 94.0345 149.025 94.599 149.025 95.2686V95.8413C149.025 96.4777 149.133 97.0228 149.349 97.4766C149.565 97.9248 149.872 98.2707 150.271 98.5142C150.669 98.7521 151.139 98.8711 151.682 98.8711C152.086 98.8711 152.437 98.8158 152.736 98.7051C153.035 98.5944 153.281 98.4533 153.475 98.2817C153.668 98.1102 153.804 97.9359 153.881 97.7588L153.915 97.6841H155.359L155.342 97.7505C155.265 98.0549 155.126 98.3509 154.927 98.6387C154.734 98.9209 154.482 99.1782 154.172 99.4106C153.862 99.6375 153.494 99.8201 153.068 99.9585C152.647 100.091 152.174 100.158 151.648 100.158ZM164.076 100L161.57 91.0518H163.014L164.774 98.207H164.907L166.907 91.0518H168.277L170.277 98.207H170.41L172.17 91.0518H173.606L171.099 100H169.646L167.646 93.0771H167.513L165.521 100H164.076ZM178.766 100.158C177.913 100.158 177.18 99.9696 176.566 99.5933C175.957 99.217 175.487 98.6857 175.155 97.9995C174.828 97.3078 174.665 96.4943 174.665 95.5591V95.5508C174.665 94.6266 174.828 93.8159 175.155 93.1187C175.487 92.4214 175.954 91.8763 176.558 91.4834C177.161 91.0905 177.866 90.894 178.674 90.894C179.488 90.894 180.185 91.0822 180.766 91.4585C181.353 91.8348 181.801 92.3605 182.111 93.0356C182.426 93.7052 182.584 94.4855 182.584 95.3765V95.9409H175.412V94.7871H181.845L181.131 95.8413V95.2686C181.131 94.5658 181.026 93.9875 180.816 93.5337C180.606 93.0799 180.315 92.7424 179.944 92.521C179.573 92.2941 179.147 92.1807 178.666 92.1807C178.184 92.1807 177.753 92.2996 177.371 92.5376C176.995 92.77 176.696 93.1159 176.475 93.5752C176.253 94.0345 176.143 94.599 176.143 95.2686V95.8413C176.143 96.4777 176.25 97.0228 176.466 97.4766C176.682 97.9248 176.989 98.2707 177.388 98.5142C177.786 98.7521 178.256 98.8711 178.799 98.8711C179.203 98.8711 179.554 98.8158 179.853 98.7051C180.152 98.5944 180.398 98.4533 180.592 98.2817C180.785 98.1102 180.921 97.9359 180.998 97.7588L181.032 97.6841H182.476L182.459 97.7505C182.382 98.0549 182.244 98.3509 182.044 98.6387C181.851 98.9209 181.599 99.1782 181.289 99.4106C180.979 99.6375 180.611 99.8201 180.185 99.9585C179.764 100.091 179.291 100.158 178.766 100.158ZM185.336 92.7451L185.162 88.022H186.706L186.532 92.7451H185.336ZM189.733 100V91.0518H191.177V92.3799H191.31C191.481 91.9095 191.772 91.5443 192.181 91.2842C192.591 91.0241 193.097 90.894 193.7 90.894C193.839 90.894 193.974 90.9023 194.107 90.9189C194.245 90.93 194.351 90.9411 194.423 90.9521V92.355C194.273 92.3273 194.126 92.3079 193.983 92.2969C193.844 92.2803 193.695 92.272 193.534 92.272C193.075 92.272 192.668 92.3633 192.314 92.5459C191.96 92.7285 191.681 92.9831 191.476 93.3096C191.277 93.6361 191.177 94.0179 191.177 94.4551V100H189.733ZM199.541 100.158C198.689 100.158 197.955 99.9696 197.341 99.5933C196.732 99.217 196.262 98.6857 195.93 97.9995C195.603 97.3078 195.44 96.4943 195.44 95.5591V95.5508C195.44 94.6266 195.603 93.8159 195.93 93.1187C196.262 92.4214 196.73 91.8763 197.333 91.4834C197.936 91.0905 198.642 90.894 199.45 90.894C200.263 90.894 200.96 91.0822 201.541 91.4585C202.128 91.8348 202.576 92.3605 202.886 93.0356C203.201 93.7052 203.359 94.4855 203.359 95.3765V95.9409H196.187V94.7871H202.62L201.907 95.8413V95.2686C201.907 94.5658 201.801 93.9875 201.591 93.5337C201.381 93.0799 201.09 92.7424 200.72 92.521C200.349 92.2941 199.923 92.1807 199.441 92.1807C198.96 92.1807 198.528 92.2996 198.146 92.5376C197.77 92.77 197.471 93.1159 197.25 93.5752C197.028 94.0345 196.918 94.599 196.918 95.2686V95.8413C196.918 96.4777 197.026 97.0228 197.242 97.4766C197.457 97.9248 197.764 98.2707 198.163 98.5142C198.561 98.7521 199.032 98.8711 199.574 98.8711C199.978 98.8711 200.329 98.8158 200.628 98.7051C200.927 98.5944 201.173 98.4533 201.367 98.2817C201.561 98.1102 201.696 97.9359 201.774 97.7588L201.807 97.6841H203.251L203.235 97.7505C203.157 98.0549 203.019 98.3509 202.82 98.6387C202.626 98.9209 202.374 99.1782 202.064 99.4106C201.754 99.6375 201.386 99.8201 200.96 99.9585C200.54 100.091 200.067 100.158 199.541 100.158ZM213.546 100.158C212.793 100.158 212.135 99.9668 211.57 99.585C211.006 99.2031 210.569 98.6663 210.259 97.9746C209.949 97.2773 209.794 96.4639 209.794 95.5342V95.5176C209.794 94.5824 209.949 93.7689 210.259 93.0771C210.569 92.3854 211.003 91.8486 211.562 91.4668C212.127 91.085 212.788 90.894 213.546 90.894C213.955 90.894 214.34 90.9604 214.7 91.0933C215.065 91.2205 215.389 91.4004 215.671 91.6328C215.953 91.8652 216.175 92.1419 216.335 92.4629H216.468V87.499H217.912V100H216.468V98.5723H216.335C216.152 98.9043 215.923 99.1893 215.646 99.4272C215.369 99.6597 215.054 99.8395 214.7 99.9668C214.346 100.094 213.961 100.158 213.546 100.158ZM213.878 98.8794C214.42 98.8794 214.888 98.7438 215.281 98.4727C215.674 98.2015 215.975 97.8169 216.186 97.3188C216.396 96.8153 216.501 96.2204 216.501 95.5342V95.5176C216.501 94.8258 216.396 94.231 216.186 93.7329C215.975 93.2349 215.674 92.8503 215.281 92.5791C214.888 92.3079 214.42 92.1724 213.878 92.1724C213.336 92.1724 212.868 92.3079 212.475 92.5791C212.088 92.8447 211.789 93.2266 211.579 93.7246C211.374 94.2227 211.272 94.8203 211.272 95.5176V95.5342C211.272 96.2259 211.374 96.8236 211.579 97.3271C211.789 97.8252 212.088 98.2098 212.475 98.481C212.868 98.7466 213.336 98.8794 213.878 98.8794ZM224.292 100.158C223.445 100.158 222.712 99.9723 222.092 99.6016C221.478 99.2253 221.002 98.6912 220.665 97.9995C220.333 97.3078 220.167 96.486 220.167 95.5342V95.5176C220.167 94.5602 220.333 93.7357 220.665 93.0439C221.002 92.3522 221.478 91.821 222.092 91.4502C222.712 91.0794 223.445 90.894 224.292 90.894C225.144 90.894 225.878 91.0794 226.492 91.4502C227.106 91.821 227.579 92.3522 227.911 93.0439C228.249 93.7357 228.418 94.5602 228.418 95.5176V95.5342C228.418 96.486 228.249 97.3078 227.911 97.9995C227.579 98.6912 227.106 99.2253 226.492 99.6016C225.878 99.9723 225.144 100.158 224.292 100.158ZM224.292 98.8794C224.857 98.8794 225.335 98.7466 225.728 98.481C226.121 98.2153 226.42 97.8335 226.625 97.3354C226.835 96.8374 226.94 96.237 226.94 95.5342V95.5176C226.94 94.8092 226.835 94.2061 226.625 93.708C226.42 93.21 226.121 92.8309 225.728 92.5708C225.335 92.3052 224.857 92.1724 224.292 92.1724C223.728 92.1724 223.249 92.3052 222.856 92.5708C222.463 92.8309 222.162 93.21 221.951 93.708C221.747 94.2061 221.644 94.8092 221.644 95.5176V95.5342C221.644 96.237 221.747 96.8374 221.951 97.3354C222.162 97.8335 222.463 98.2153 222.856 98.481C223.249 98.7466 223.728 98.8794 224.292 98.8794ZM230.589 100V91.0518H232.034V92.3965H232.166C232.393 91.9206 232.72 91.5526 233.146 91.2925C233.572 91.0269 234.114 90.894 234.773 90.894C235.78 90.894 236.552 91.1818 237.089 91.7573C237.631 92.3273 237.902 93.1436 237.902 94.2061V100H236.458V94.5547C236.458 93.7467 236.286 93.1491 235.943 92.7617C235.606 92.3688 235.08 92.1724 234.366 92.1724C233.89 92.1724 233.478 92.2747 233.129 92.4795C232.781 92.6842 232.509 92.9748 232.316 93.3511C232.128 93.7274 232.034 94.1784 232.034 94.7041V100H230.589ZM244.1 100.158C243.247 100.158 242.514 99.9696 241.9 99.5933C241.291 99.217 240.821 98.6857 240.489 97.9995C240.162 97.3078 239.999 96.4943 239.999 95.5591V95.5508C239.999 94.6266 240.162 93.8159 240.489 93.1187C240.821 92.4214 241.288 91.8763 241.892 91.4834C242.495 91.0905 243.2 90.894 244.008 90.894C244.822 90.894 245.519 91.0822 246.1 91.4585C246.687 91.8348 247.135 92.3605 247.445 93.0356C247.76 93.7052 247.918 94.4855 247.918 95.3765V95.9409H240.746V94.7871H247.179L246.465 95.8413V95.2686C246.465 94.5658 246.36 93.9875 246.15 93.5337C245.94 93.0799 245.649 92.7424 245.278 92.521C244.907 92.2941 244.481 92.1807 244 92.1807C243.518 92.1807 243.087 92.2996 242.705 92.5376C242.329 92.77 242.03 93.1159 241.809 93.5752C241.587 94.0345 241.477 94.599 241.477 95.2686V95.8413C241.477 96.4777 241.584 97.0228 241.8 97.4766C242.016 97.9248 242.323 98.2707 242.722 98.5142C243.12 98.7521 243.59 98.8711 244.133 98.8711C244.537 98.8711 244.888 98.8158 245.187 98.7051C245.486 98.5944 245.732 98.4533 245.926 98.2817C246.119 98.1102 246.255 97.9359 246.332 97.7588L246.366 97.6841H247.81L247.793 97.7505C247.716 98.0549 247.578 98.3509 247.378 98.6387C247.185 98.9209 246.933 99.1782 246.623 99.4106C246.313 99.6375 245.945 99.8201 245.519 99.9585C245.098 100.091 244.625 100.158 244.1 100.158ZM254.801 100V91.0518H256.245V92.3799H256.378C256.55 91.9095 256.84 91.5443 257.25 91.2842C257.659 91.0241 258.166 90.894 258.769 90.894C258.907 90.894 259.043 90.9023 259.175 90.9189C259.314 90.93 259.419 90.9411 259.491 90.9521V92.355C259.341 92.3273 259.195 92.3079 259.051 92.2969C258.913 92.2803 258.763 92.272 258.603 92.272C258.143 92.272 257.737 92.3633 257.383 92.5459C257.028 92.7285 256.749 92.9831 256.544 93.3096C256.345 93.6361 256.245 94.0179 256.245 94.4551V100H254.801ZM264.609 100.158C263.757 100.158 263.024 99.9696 262.409 99.5933C261.801 99.217 261.33 98.6857 260.998 97.9995C260.672 97.3078 260.509 96.4943 260.509 95.5591V95.5508C260.509 94.6266 260.672 93.8159 260.998 93.1187C261.33 92.4214 261.798 91.8763 262.401 91.4834C263.004 91.0905 263.71 90.894 264.518 90.894C265.331 90.894 266.029 91.0822 266.61 91.4585C267.196 91.8348 267.645 92.3605 267.954 93.0356C268.27 93.7052 268.428 94.4855 268.428 95.3765V95.9409H261.256V94.7871H267.689L266.975 95.8413V95.2686C266.975 94.5658 266.87 93.9875 266.659 93.5337C266.449 93.0799 266.159 92.7424 265.788 92.521C265.417 92.2941 264.991 92.1807 264.51 92.1807C264.028 92.1807 263.596 92.2996 263.215 92.5376C262.838 92.77 262.54 93.1159 262.318 93.5752C262.097 94.0345 261.986 94.599 261.986 95.2686V95.8413C261.986 96.4777 262.094 97.0228 262.31 97.4766C262.526 97.9248 262.833 98.2707 263.231 98.5142C263.63 98.7521 264.1 98.8711 264.642 98.8711C265.046 98.8711 265.398 98.8158 265.697 98.7051C265.995 98.5944 266.242 98.4533 266.435 98.2817C266.629 98.1102 266.765 97.9359 266.842 97.7588L266.875 97.6841H268.32L268.303 97.7505C268.226 98.0549 268.087 98.3509 267.888 98.6387C267.694 98.9209 267.443 99.1782 267.133 99.4106C266.823 99.6375 266.455 99.8201 266.029 99.9585C265.608 100.091 265.135 100.158 264.609 100.158ZM272.965 100L269.653 91.0518H271.18L273.629 98.4229H273.762L276.21 91.0518H277.738L274.426 100H272.965ZM279.61 100V91.0518H281.055V100H279.61ZM280.341 89.3252C280.07 89.3252 279.835 89.2284 279.635 89.0347C279.442 88.8354 279.345 88.6003 279.345 88.3291C279.345 88.0524 279.442 87.8172 279.635 87.6235C279.835 87.4299 280.07 87.333 280.341 87.333C280.618 87.333 280.853 87.4299 281.046 87.6235C281.24 87.8172 281.337 88.0524 281.337 88.3291C281.337 88.6003 281.24 88.8354 281.046 89.0347C280.853 89.2284 280.618 89.3252 280.341 89.3252ZM287.36 100.158C286.508 100.158 285.775 99.9696 285.16 99.5933C284.552 99.217 284.081 98.6857 283.749 97.9995C283.423 97.3078 283.259 96.4943 283.259 95.5591V95.5508C283.259 94.6266 283.423 93.8159 283.749 93.1187C284.081 92.4214 284.549 91.8763 285.152 91.4834C285.755 91.0905 286.461 90.894 287.269 90.894C288.082 90.894 288.779 91.0822 289.361 91.4585C289.947 91.8348 290.395 92.3605 290.705 93.0356C291.021 93.7052 291.178 94.4855 291.178 95.3765V95.9409H284.007V94.7871H290.44L289.726 95.8413V95.2686C289.726 94.5658 289.621 93.9875 289.41 93.5337C289.2 93.0799 288.91 92.7424 288.539 92.521C288.168 92.2941 287.742 92.1807 287.26 92.1807C286.779 92.1807 286.347 92.2996 285.966 92.5376C285.589 92.77 285.29 93.1159 285.069 93.5752C284.848 94.0345 284.737 94.599 284.737 95.2686V95.8413C284.737 96.4777 284.845 97.0228 285.061 97.4766C285.277 97.9248 285.584 98.2707 285.982 98.5142C286.381 98.7521 286.851 98.8711 287.393 98.8711C287.797 98.8711 288.149 98.8158 288.447 98.7051C288.746 98.5944 288.993 98.4533 289.186 98.2817C289.38 98.1102 289.515 97.9359 289.593 97.7588L289.626 97.6841H291.07L291.054 97.7505C290.976 98.0549 290.838 98.3509 290.639 98.6387C290.445 98.9209 290.193 99.1782 289.883 99.4106C289.574 99.6375 289.206 99.8201 288.779 99.9585C288.359 100.091 287.886 100.158 287.36 100.158ZM295.076 100L292.57 91.0518H294.014L295.774 98.207H295.907L297.907 91.0518H299.277L301.277 98.207H301.41L303.17 91.0518H304.606L302.099 100H300.646L298.646 93.0771H298.513L296.521 100H295.076ZM306.478 100V91.0518H307.923V100H306.478ZM307.209 89.3252C306.938 89.3252 306.703 89.2284 306.503 89.0347C306.31 88.8354 306.213 88.6003 306.213 88.3291C306.213 88.0524 306.31 87.8172 306.503 87.6235C306.703 87.4299 306.938 87.333 307.209 87.333C307.486 87.333 307.721 87.4299 307.914 87.6235C308.108 87.8172 308.205 88.0524 308.205 88.3291C308.205 88.6003 308.108 88.8354 307.914 89.0347C307.721 89.2284 307.486 89.3252 307.209 89.3252ZM310.576 100V91.0518H312.02V92.3965H312.153C312.38 91.9206 312.706 91.5526 313.132 91.2925C313.559 91.0269 314.101 90.894 314.759 90.894C315.767 90.894 316.539 91.1818 317.075 91.7573C317.618 92.3273 317.889 93.1436 317.889 94.2061V100H316.444V94.5547C316.444 93.7467 316.273 93.1491 315.93 92.7617C315.592 92.3688 315.066 92.1724 314.353 92.1724C313.877 92.1724 313.464 92.2747 313.116 92.4795C312.767 92.6842 312.496 92.9748 312.302 93.3511C312.114 93.7274 312.02 94.1784 312.02 94.7041V100H310.576ZM324.119 103.154C323.4 103.154 322.772 103.052 322.235 102.847C321.698 102.648 321.269 102.363 320.948 101.992C320.633 101.627 320.437 101.201 320.359 100.714L320.376 100.706H321.87L321.878 100.714C321.956 101.051 322.188 101.328 322.575 101.544C322.963 101.765 323.477 101.876 324.119 101.876C324.922 101.876 325.547 101.693 325.995 101.328C326.449 100.968 326.676 100.459 326.676 99.8008V97.9912H326.543C326.355 98.3177 326.12 98.5972 325.838 98.8296C325.555 99.062 325.237 99.2391 324.883 99.3608C324.529 99.4771 324.147 99.5352 323.738 99.5352C322.968 99.5352 322.301 99.3525 321.737 98.9873C321.178 98.6165 320.746 98.1074 320.442 97.46C320.138 96.8125 319.986 96.071 319.986 95.2354V95.2188C319.986 94.3831 320.138 93.6416 320.442 92.9941C320.752 92.3411 321.189 91.8293 321.754 91.4585C322.318 91.0822 322.99 90.894 323.771 90.894C324.191 90.894 324.579 90.9604 324.933 91.0933C325.287 91.2261 325.6 91.4142 325.871 91.6577C326.148 91.9012 326.377 92.1917 326.56 92.5293H326.659V91.0518H328.104V99.8755C328.104 100.54 327.94 101.118 327.614 101.61C327.293 102.103 326.834 102.482 326.236 102.748C325.638 103.019 324.933 103.154 324.119 103.154ZM324.053 98.2568C324.606 98.2568 325.079 98.1296 325.472 97.875C325.871 97.6149 326.175 97.258 326.385 96.8042C326.601 96.3504 326.709 95.8275 326.709 95.2354V95.2188C326.709 94.6266 326.601 94.1009 326.385 93.6416C326.175 93.1823 325.871 92.8226 325.472 92.5625C325.079 92.3024 324.606 92.1724 324.053 92.1724C323.5 92.1724 323.029 92.3024 322.642 92.5625C322.26 92.8226 321.967 93.1823 321.762 93.6416C321.563 94.1009 321.463 94.6266 321.463 95.2188V95.2354C321.463 95.8275 321.563 96.3504 321.762 96.8042C321.967 97.258 322.26 97.6149 322.642 97.875C323.029 98.1296 323.5 98.2568 324.053 98.2568ZM331.902 100.083C331.609 100.083 331.354 99.9779 331.139 99.7676C330.928 99.5518 330.823 99.2972 330.823 99.0039C330.823 98.7051 330.928 98.4505 331.139 98.2402C331.354 98.0299 331.609 97.9248 331.902 97.9248C332.201 97.9248 332.456 98.0299 332.666 98.2402C332.876 98.4505 332.981 98.7051 332.981 99.0039C332.981 99.2972 332.876 99.5518 332.666 99.7676C332.456 99.9779 332.201 100.083 331.902 100.083Z" fill="#1C1C1C" fill-opacity="0.8"/>
    <path d="M17.168 131V121.84H20.6655C21.2537 121.84 21.7658 121.955 22.2017 122.183C22.6418 122.407 22.9824 122.723 23.2236 123.129C23.4648 123.535 23.5854 124.013 23.5854 124.563V124.576C23.5854 125.211 23.4225 125.761 23.0967 126.227C22.7708 126.692 22.3201 127.016 21.7446 127.198L23.8647 131H22.5254L20.564 127.375C20.5555 127.375 20.5449 127.375 20.5322 127.375C20.5195 127.375 20.509 127.375 20.5005 127.375H18.3105V131H17.168ZM18.3105 126.36H20.564C21.1522 126.36 21.605 126.21 21.9224 125.909C22.244 125.604 22.4048 125.173 22.4048 124.614V124.602C22.4048 124.056 22.2376 123.628 21.9033 123.319C21.569 123.01 21.1056 122.856 20.5132 122.856H18.3105V126.36ZM28.215 131.121C27.5633 131.121 27.0026 130.977 26.5329 130.689C26.0674 130.401 25.7077 129.995 25.4538 129.47C25.2041 128.941 25.0793 128.319 25.0793 127.604V127.598C25.0793 126.891 25.2041 126.271 25.4538 125.738C25.7077 125.205 26.0653 124.788 26.5265 124.487C26.9878 124.187 27.5274 124.037 28.1452 124.037C28.7673 124.037 29.3005 124.181 29.7448 124.468C30.1934 124.756 30.5361 125.158 30.7731 125.674C31.0143 126.186 31.1349 126.783 31.1349 127.464V127.896H25.6506V127.014H30.57L30.0241 127.82V127.382C30.0241 126.844 29.9437 126.402 29.7829 126.055C29.6221 125.708 29.3999 125.45 29.1164 125.281C28.8329 125.107 28.507 125.021 28.1389 125.021C27.7707 125.021 27.4406 125.111 27.1486 125.293C26.8609 125.471 26.6323 125.736 26.4631 126.087C26.2938 126.438 26.2092 126.87 26.2092 127.382V127.82C26.2092 128.306 26.2917 128.723 26.4567 129.07C26.6218 129.413 26.8566 129.678 27.1613 129.864C27.466 130.046 27.8257 130.137 28.2404 130.137C28.5493 130.137 28.8181 130.094 29.0466 130.01C29.2751 129.925 29.4634 129.817 29.6115 129.686C29.7596 129.555 29.8633 129.422 29.9225 129.286L29.9479 129.229H31.0524L31.0397 129.28C30.9805 129.513 30.8747 129.739 30.7223 129.959C30.5742 130.175 30.3817 130.372 30.1447 130.549C29.9077 130.723 29.6263 130.862 29.3005 130.968C28.9789 131.07 28.617 131.121 28.215 131.121ZM34.7489 131L32.2162 124.157H33.3841L35.2567 129.794H35.3583L37.2308 124.157H38.3988L35.8661 131H34.7489ZM39.9751 131V124.157H41.0796V131H39.9751ZM40.5337 122.837C40.3264 122.837 40.1465 122.763 39.9942 122.615C39.8461 122.462 39.772 122.283 39.772 122.075C39.772 121.864 39.8461 121.684 39.9942 121.536C40.1465 121.388 40.3264 121.313 40.5337 121.313C40.7453 121.313 40.9252 121.388 41.0733 121.536C41.2214 121.684 41.2955 121.864 41.2955 122.075C41.2955 122.283 41.2214 122.462 41.0733 122.615C40.9252 122.763 40.7453 122.837 40.5337 122.837ZM46.0456 131.121C45.3939 131.121 44.8332 130.977 44.3635 130.689C43.898 130.401 43.5383 129.995 43.2844 129.47C43.0347 128.941 42.9099 128.319 42.9099 127.604V127.598C42.9099 126.891 43.0347 126.271 43.2844 125.738C43.5383 125.205 43.8959 124.788 44.3572 124.487C44.8184 124.187 45.358 124.037 45.9758 124.037C46.5979 124.037 47.1311 124.181 47.5754 124.468C48.024 124.756 48.3668 125.158 48.6037 125.674C48.845 126.186 48.9656 126.783 48.9656 127.464V127.896H43.4812V127.014H48.4006L47.8547 127.82V127.382C47.8547 126.844 47.7743 126.402 47.6135 126.055C47.4527 125.708 47.2305 125.45 46.947 125.281C46.6635 125.107 46.3376 125.021 45.9695 125.021C45.6013 125.021 45.2712 125.111 44.9792 125.293C44.6915 125.471 44.463 125.736 44.2937 126.087C44.1244 126.438 44.0398 126.87 44.0398 127.382V127.82C44.0398 128.306 44.1223 128.723 44.2873 129.07C44.4524 129.413 44.6872 129.678 44.9919 129.864C45.2966 130.046 45.6563 130.137 46.071 130.137C46.38 130.137 46.6487 130.094 46.8772 130.01C47.1057 129.925 47.294 129.817 47.4421 129.686C47.5902 129.555 47.6939 129.422 47.7532 129.286L47.7786 129.229H48.883L48.8703 129.28C48.8111 129.513 48.7053 129.739 48.553 129.959C48.4049 130.175 48.2123 130.372 47.9753 130.549C47.7383 130.723 47.4569 130.862 47.1311 130.968C46.8095 131.07 46.4477 131.121 46.0456 131.121ZM52.0907 131L50.1738 124.157H51.2782L52.6239 129.629H52.7255L54.2553 124.157H55.3027L56.8324 129.629H56.934L58.2797 124.157H59.3779L57.4609 131H56.35L54.8202 125.706H54.7187L53.1952 131H52.0907ZM67.1072 131.051C66.4047 131.051 65.8948 130.909 65.5774 130.625C65.2643 130.342 65.1077 129.874 65.1077 129.223V125.071H64.0286V124.157H65.1077V122.386H66.2503V124.157H67.7483V125.071H66.2503V128.943C66.2503 129.345 66.3265 129.635 66.4788 129.813C66.6311 129.986 66.885 130.073 67.2405 130.073C67.3378 130.073 67.4204 130.071 67.4881 130.067C67.56 130.063 67.6468 130.056 67.7483 130.048V130.987C67.6425 131.004 67.5367 131.019 67.4309 131.032C67.3252 131.044 67.2172 131.051 67.1072 131.051ZM69.5151 131V124.157H70.6196V131H69.5151ZM70.0737 122.837C69.8663 122.837 69.6865 122.763 69.5342 122.615C69.386 122.462 69.312 122.283 69.312 122.075C69.312 121.864 69.386 121.684 69.5342 121.536C69.6865 121.388 69.8663 121.313 70.0737 121.313C70.2853 121.313 70.4651 121.388 70.6133 121.536C70.7614 121.684 70.8354 121.864 70.8354 122.075C70.8354 122.283 70.7614 122.462 70.6133 122.615C70.4651 122.763 70.2853 122.837 70.0737 122.837ZM72.7926 131V124.157H73.8971V125.198H73.9987C74.151 124.83 74.3838 124.544 74.6969 124.341C75.0143 124.138 75.3973 124.037 75.8459 124.037C76.1548 124.037 76.432 124.087 76.6774 124.189C76.9228 124.291 77.1344 124.432 77.3122 124.614C77.4899 124.792 77.6317 124.999 77.7375 125.236H77.839C77.9617 124.995 78.1268 124.786 78.3341 124.608C78.5415 124.426 78.7806 124.286 79.0514 124.189C79.3265 124.087 79.6206 124.037 79.9337 124.037C80.3992 124.037 80.7928 124.123 81.1144 124.297C81.4403 124.47 81.6878 124.724 81.8571 125.059C82.0264 125.389 82.111 125.793 82.111 126.271V131H81.0065V126.525C81.0065 126.186 80.9536 125.907 80.8478 125.687C80.7462 125.463 80.5897 125.296 80.3781 125.186C80.1665 125.071 79.8999 125.014 79.5783 125.014C79.2609 125.014 78.9837 125.086 78.7467 125.23C78.5098 125.374 78.3257 125.566 78.1945 125.808C78.0633 126.045 77.9977 126.309 77.9977 126.601V131H76.8932V126.354C76.8932 126.083 76.834 125.848 76.7155 125.649C76.6012 125.446 76.4362 125.289 76.2204 125.179C76.0088 125.069 75.7591 125.014 75.4713 125.014C75.1751 125.014 74.9064 125.092 74.6652 125.249C74.4282 125.406 74.2399 125.617 74.1003 125.884C73.9648 126.146 73.8971 126.438 73.8971 126.76V131H72.7926ZM86.9881 131.121C86.3364 131.121 85.7757 130.977 85.306 130.689C84.8405 130.401 84.4808 129.995 84.2269 129.47C83.9772 128.941 83.8524 128.319 83.8524 127.604V127.598C83.8524 126.891 83.9772 126.271 84.2269 125.738C84.4808 125.205 84.8384 124.788 85.2997 124.487C85.7609 124.187 86.3005 124.037 86.9183 124.037C87.5404 124.037 88.0736 124.181 88.5179 124.468C88.9665 124.756 89.3093 125.158 89.5462 125.674C89.7874 126.186 89.9081 126.783 89.9081 127.464V127.896H84.4237V127.014H89.3431L88.7972 127.82V127.382C88.7972 126.844 88.7168 126.402 88.556 126.055C88.3952 125.708 88.173 125.45 87.8895 125.281C87.606 125.107 87.2801 125.021 86.912 125.021C86.5438 125.021 86.2137 125.111 85.9217 125.293C85.634 125.471 85.4054 125.736 85.2362 126.087C85.0669 126.438 84.9823 126.87 84.9823 127.382V127.82C84.9823 128.306 85.0648 128.723 85.2298 129.07C85.3949 129.413 85.6297 129.678 85.9344 129.864C86.2391 130.046 86.5988 130.137 87.0135 130.137C87.3224 130.137 87.5912 130.094 87.8197 130.01C88.0482 129.925 88.2365 129.817 88.3846 129.686C88.5327 129.555 88.6364 129.422 88.6956 129.286L88.721 129.229H89.8255L89.8128 129.28C89.7536 129.513 89.6478 129.739 89.4955 129.959C89.3473 130.175 89.1548 130.372 88.9178 130.549C88.6808 130.723 88.3994 130.862 88.0736 130.968C87.752 131.07 87.3901 131.121 86.9881 131.121ZM92.6143 131.063C92.39 131.063 92.1953 130.983 92.0303 130.822C91.8695 130.657 91.7891 130.463 91.7891 130.238C91.7891 130.01 91.8695 129.815 92.0303 129.654C92.1953 129.493 92.39 129.413 92.6143 129.413C92.8428 129.413 93.0375 129.493 93.1983 129.654C93.3591 129.815 93.4395 130.01 93.4395 130.238C93.4395 130.463 93.3591 130.657 93.1983 130.822C93.0375 130.983 92.8428 131.063 92.6143 131.063ZM92.6143 126.15C92.39 126.15 92.1953 126.07 92.0303 125.909C91.8695 125.744 91.7891 125.549 91.7891 125.325C91.7891 125.097 91.8695 124.902 92.0303 124.741C92.1953 124.58 92.39 124.5 92.6143 124.5C92.8428 124.5 93.0375 124.58 93.1983 124.741C93.3591 124.902 93.4395 125.097 93.4395 125.325C93.4395 125.549 93.3591 125.744 93.1983 125.909C93.0375 126.07 92.8428 126.15 92.6143 126.15ZM103.587 131V129.102H99.1249V128.061C99.3746 127.646 99.6285 127.227 99.8866 126.804C100.145 126.377 100.405 125.951 100.667 125.528C100.934 125.101 101.201 124.678 101.467 124.259C101.734 123.84 101.998 123.427 102.261 123.021C102.527 122.615 102.79 122.221 103.048 121.84H104.704V128.08H106.006V129.102H104.704V131H103.587ZM100.293 128.086H103.594V122.9H103.517C103.31 123.209 103.099 123.531 102.883 123.865C102.667 124.195 102.447 124.534 102.223 124.881C102.002 125.228 101.782 125.577 101.562 125.928C101.342 126.279 101.124 126.631 100.909 126.982C100.697 127.329 100.492 127.672 100.293 128.01V128.086ZM110.991 131.152C110.343 131.152 109.77 131.04 109.271 130.816C108.771 130.592 108.378 130.283 108.09 129.889C107.806 129.491 107.665 129.036 107.665 128.524V128.512C107.665 128.135 107.747 127.786 107.912 127.464C108.077 127.143 108.308 126.87 108.604 126.646C108.9 126.417 109.243 126.258 109.632 126.169V126.144C109.133 125.987 108.735 125.729 108.439 125.37C108.143 125.01 107.995 124.589 107.995 124.106V124.094C107.995 123.632 108.124 123.222 108.382 122.862C108.64 122.498 108.996 122.213 109.448 122.005C109.901 121.794 110.415 121.688 110.991 121.688C111.571 121.688 112.085 121.794 112.533 122.005C112.986 122.213 113.342 122.498 113.6 122.862C113.858 123.222 113.987 123.632 113.987 124.094V124.106C113.987 124.589 113.839 125.01 113.543 125.37C113.251 125.729 112.853 125.987 112.349 126.144V126.169C112.743 126.258 113.086 126.417 113.378 126.646C113.674 126.87 113.904 127.143 114.069 127.464C114.234 127.786 114.317 128.135 114.317 128.512V128.524C114.317 129.036 114.175 129.491 113.892 129.889C113.608 130.283 113.215 130.592 112.711 130.816C112.212 131.04 111.638 131.152 110.991 131.152ZM110.991 130.156C111.414 130.156 111.786 130.084 112.108 129.94C112.434 129.792 112.69 129.591 112.876 129.337C113.062 129.079 113.155 128.785 113.155 128.455V128.442C113.155 128.108 113.062 127.811 112.876 127.553C112.694 127.295 112.44 127.092 112.114 126.944C111.788 126.796 111.414 126.722 110.991 126.722C110.568 126.722 110.193 126.796 109.867 126.944C109.541 127.092 109.285 127.295 109.099 127.553C108.917 127.811 108.826 128.108 108.826 128.442V128.455C108.826 128.785 108.919 129.079 109.106 129.337C109.292 129.591 109.548 129.792 109.874 129.94C110.199 130.084 110.572 130.156 110.991 130.156ZM110.991 125.719C111.359 125.719 111.683 125.655 111.962 125.528C112.241 125.397 112.459 125.217 112.616 124.989C112.772 124.76 112.851 124.498 112.851 124.202V124.189C112.851 123.893 112.772 123.63 112.616 123.402C112.459 123.173 112.241 122.996 111.962 122.869C111.683 122.737 111.359 122.672 110.991 122.672C110.623 122.672 110.299 122.737 110.02 122.869C109.74 122.996 109.522 123.173 109.366 123.402C109.209 123.63 109.131 123.893 109.131 124.189V124.202C109.131 124.498 109.209 124.76 109.366 124.989C109.522 125.217 109.74 125.397 110.02 125.528C110.299 125.655 110.623 125.719 110.991 125.719ZM120.072 131V121.44H121.177V125.186H121.278C121.452 124.822 121.701 124.54 122.027 124.341C122.353 124.138 122.768 124.037 123.271 124.037C123.783 124.037 124.217 124.136 124.573 124.335C124.928 124.53 125.199 124.815 125.385 125.192C125.571 125.569 125.664 126.028 125.664 126.569V131H124.56V126.836C124.56 126.218 124.429 125.761 124.166 125.465C123.908 125.164 123.506 125.014 122.96 125.014C122.596 125.014 122.281 125.092 122.015 125.249C121.748 125.406 121.541 125.628 121.393 125.916C121.249 126.203 121.177 126.548 121.177 126.95V131H120.072ZM130.567 131.121C129.92 131.121 129.359 130.979 128.885 130.695C128.415 130.408 128.051 129.999 127.793 129.47C127.539 128.941 127.412 128.313 127.412 127.585V127.572C127.412 126.84 127.539 126.21 127.793 125.681C128.051 125.152 128.415 124.745 128.885 124.462C129.359 124.178 129.92 124.037 130.567 124.037C131.219 124.037 131.779 124.178 132.249 124.462C132.719 124.745 133.081 125.152 133.335 125.681C133.593 126.21 133.722 126.84 133.722 127.572V127.585C133.722 128.313 133.593 128.941 133.335 129.47C133.081 129.999 132.719 130.408 132.249 130.695C131.779 130.979 131.219 131.121 130.567 131.121ZM130.567 130.143C130.999 130.143 131.365 130.042 131.665 129.838C131.966 129.635 132.194 129.343 132.351 128.962C132.512 128.582 132.592 128.122 132.592 127.585V127.572C132.592 127.031 132.512 126.569 132.351 126.188C132.194 125.808 131.966 125.518 131.665 125.319C131.365 125.116 130.999 125.014 130.567 125.014C130.135 125.014 129.769 125.116 129.469 125.319C129.168 125.518 128.938 125.808 128.777 126.188C128.62 126.569 128.542 127.031 128.542 127.572V127.585C128.542 128.122 128.62 128.582 128.777 128.962C128.938 129.343 129.168 129.635 129.469 129.838C129.769 130.042 130.135 130.143 130.567 130.143ZM137.818 131.121C137.302 131.121 136.868 131.023 136.517 130.829C136.166 130.63 135.901 130.342 135.723 129.965C135.55 129.584 135.463 129.125 135.463 128.588V124.157H136.568V128.321C136.568 128.935 136.686 129.392 136.923 129.692C137.164 129.993 137.558 130.143 138.104 130.143C138.404 130.143 138.669 130.099 138.897 130.01C139.13 129.921 139.325 129.794 139.481 129.629C139.638 129.46 139.754 129.257 139.83 129.02C139.911 128.778 139.951 128.507 139.951 128.207V124.157H141.055V131H139.951V129.978H139.849C139.739 130.219 139.589 130.427 139.399 130.6C139.208 130.769 138.98 130.898 138.713 130.987C138.451 131.076 138.152 131.121 137.818 131.121ZM143.209 131V124.157H144.314V125.173H144.416C144.547 124.813 144.769 124.534 145.082 124.335C145.395 124.136 145.782 124.037 146.244 124.037C146.349 124.037 146.453 124.043 146.555 124.056C146.66 124.064 146.741 124.073 146.796 124.081V125.154C146.682 125.133 146.569 125.118 146.459 125.109C146.354 125.097 146.239 125.09 146.117 125.09C145.765 125.09 145.454 125.16 145.184 125.3C144.913 125.439 144.699 125.634 144.542 125.884C144.39 126.133 144.314 126.425 144.314 126.76V131H143.209ZM150.473 131.121C149.966 131.121 149.517 131.044 149.128 130.892C148.738 130.736 148.425 130.518 148.188 130.238C147.955 129.959 147.818 129.631 147.776 129.254H148.905C148.999 129.538 149.181 129.766 149.451 129.94C149.722 130.113 150.076 130.2 150.511 130.2C150.82 130.2 151.091 130.156 151.324 130.067C151.561 129.974 151.747 129.849 151.883 129.692C152.018 129.532 152.086 129.347 152.086 129.14V129.127C152.086 128.895 151.993 128.698 151.806 128.537C151.62 128.372 151.315 128.239 150.892 128.137L149.832 127.883C149.405 127.782 149.054 127.651 148.779 127.49C148.503 127.325 148.3 127.124 148.169 126.887C148.038 126.646 147.972 126.362 147.972 126.036V126.03C147.972 125.649 148.082 125.308 148.302 125.008C148.527 124.707 148.831 124.47 149.216 124.297C149.602 124.123 150.035 124.037 150.518 124.037C150.996 124.037 151.419 124.113 151.787 124.265C152.16 124.413 152.458 124.625 152.682 124.9C152.911 125.175 153.05 125.499 153.101 125.871H152.016C151.944 125.6 151.779 125.38 151.521 125.211C151.263 125.042 150.926 124.957 150.511 124.957C150.241 124.957 149.999 125.001 149.788 125.09C149.576 125.175 149.409 125.293 149.286 125.446C149.164 125.598 149.102 125.776 149.102 125.979V125.992C149.102 126.144 149.142 126.279 149.223 126.398C149.303 126.516 149.428 126.62 149.597 126.709C149.767 126.798 149.985 126.876 150.251 126.944L151.305 127.198C151.948 127.354 152.426 127.579 152.739 127.871C153.057 128.163 153.216 128.554 153.216 129.045V129.058C153.216 129.464 153.095 129.824 152.854 130.137C152.612 130.446 152.285 130.687 151.87 130.86C151.459 131.034 150.994 131.121 150.473 131.121Z" fill="#6C63FF"/>
</svg>
