<svg width="370" height="178" viewBox="0 0 370 178" fill="none" xmlns="http://www.w3.org/2000/svg">
    <path d="M100.339 47.3354H91.1476C90.8474 47.3351 90.5597 47.2158 90.3475 47.0036C90.1353 46.7913 90.0159 46.5036 90.0156 46.2035V35.3566C90.0159 35.0564 90.1353 34.7687 90.3475 34.5565C90.5597 34.3443 90.8474 34.2249 91.1476 34.2246H100.339C100.639 34.225 100.927 34.3444 101.139 34.5566C101.351 34.7688 101.471 35.0565 101.471 35.3566V46.2035C101.471 46.5036 101.352 46.7913 101.139 47.0036C100.927 47.2158 100.639 47.3351 100.339 47.3354Z" fill="#CCCCCC"/>
    <path d="M104.586 16.7262C109.205 16.7262 112.949 12.9819 112.949 8.36311C112.949 3.74429 109.205 0 104.586 0C99.9669 0 96.2227 3.74429 96.2227 8.36311C96.2227 12.9819 99.9669 16.7262 104.586 16.7262Z" fill="#CCCCCC"/>
    <path d="M103.754 11.5527C103.566 11.553 103.383 11.4922 103.232 11.3794L103.223 11.3725L101.258 9.8676C101.079 9.72494 100.964 9.51799 100.936 9.29116C100.908 9.06433 100.971 8.83568 101.11 8.65427C101.249 8.47286 101.453 8.35314 101.679 8.3208C101.906 8.28846 102.136 8.34607 102.32 8.48127L103.593 9.45752L106.601 5.53418C106.742 5.35045 106.95 5.2302 107.18 5.1999C107.409 5.16959 107.641 5.23171 107.825 5.37258L107.807 5.398L107.826 5.37313C108.009 5.51422 108.129 5.72233 108.159 5.95182C108.19 6.18131 108.128 6.41343 107.987 6.59727L104.449 11.2122C104.367 11.3186 104.262 11.4047 104.141 11.4638C104.021 11.5229 103.888 11.5535 103.754 11.5531L103.754 11.5527Z" fill="white"/>
    <path d="M128.086 27.972C127.913 27.5598 127.622 27.2075 127.25 26.9587C126.879 26.71 126.442 26.5756 125.995 26.5723H84.2362C83.6359 26.5726 83.0604 26.8111 82.636 27.2356C82.2115 27.66 81.973 28.2355 81.9727 28.8358V81.662C81.973 82.2622 82.2115 82.8377 82.636 83.2622C83.0604 83.6866 83.6359 83.9252 84.2362 83.9255H125.995C126.595 83.9246 127.17 83.6859 127.594 83.2616C128.019 82.8373 128.257 82.262 128.258 81.662V28.8358C128.259 28.5393 128.201 28.2456 128.086 27.972ZM127.756 81.6623C127.755 82.1288 127.569 82.5758 127.239 82.9056C126.909 83.2354 126.462 83.4211 125.996 83.422H84.2362C83.7695 83.422 83.3219 83.2366 82.9919 82.9066C82.6619 82.5766 82.4765 82.129 82.4765 81.6623V28.8358C82.4774 28.3693 82.6631 27.9223 82.9929 27.5925C83.3227 27.2627 83.7697 27.077 84.2362 27.0761H125.995C126.347 27.0775 126.69 27.1838 126.981 27.3814C127.272 27.579 127.498 27.859 127.629 28.1854C127.655 28.2504 127.677 28.3167 127.695 28.384C127.736 28.5321 127.756 28.6849 127.756 28.8384L127.756 81.6623Z" fill="#CCCCCC"/>
    <path d="M119.369 39.0448H106.791C106.525 39.0448 106.269 38.9388 106.08 38.75C105.891 38.5613 105.785 38.3054 105.785 38.0385C105.785 37.7716 105.891 37.5157 106.08 37.327C106.269 37.1382 106.525 37.0322 106.791 37.0322H119.369C119.636 37.0322 119.892 37.1382 120.081 37.327C120.269 37.5157 120.375 37.7716 120.375 38.0385C120.375 38.3054 120.269 38.5613 120.081 38.75C119.892 38.9388 119.636 39.0448 119.369 39.0448Z" fill="#CCCCCC"/>
    <path d="M119.369 44.328H106.791C106.525 44.328 106.269 44.222 106.08 44.0332C105.891 43.8445 105.785 43.5886 105.785 43.3217C105.785 43.0548 105.891 42.7989 106.08 42.6102C106.269 42.4214 106.525 42.3154 106.791 42.3154H119.369C119.636 42.3154 119.892 42.4214 120.081 42.6102C120.269 42.7989 120.375 43.0548 120.375 43.3217C120.375 43.5886 120.269 43.8445 120.081 44.0332C119.892 44.222 119.636 44.328 119.369 44.328Z" fill="#CCCCCC"/>
    <path d="M119.283 55.1444H90.8578C90.591 55.1444 90.335 55.0384 90.1463 54.8497C89.9576 54.6609 89.8516 54.405 89.8516 54.1381C89.8516 53.8712 89.9576 53.6153 90.1463 53.4266C90.335 53.2379 90.591 53.1318 90.8578 53.1318H119.283C119.55 53.1318 119.806 53.2379 119.995 53.4266C120.184 53.6153 120.29 53.8712 120.29 54.1381C120.29 54.405 120.184 54.6609 119.995 54.8497C119.806 55.0384 119.55 55.1444 119.283 55.1444Z" fill="#CCCCCC"/>
    <path d="M119.283 60.4295H90.8578C90.591 60.4295 90.335 60.3235 90.1463 60.1348C89.9576 59.9461 89.8516 59.6901 89.8516 59.4233C89.8516 59.1564 89.9576 58.9004 90.1463 58.7117C90.335 58.523 90.591 58.417 90.8578 58.417H119.283C119.55 58.417 119.806 58.523 119.995 58.7117C120.184 58.9004 120.29 59.1564 120.29 59.4233C120.29 59.6901 120.184 59.9461 119.995 60.1348C119.806 60.3235 119.55 60.4295 119.283 60.4295Z" fill="#CCCCCC"/>
    <path d="M119.283 65.7098H90.8578C90.591 65.7098 90.335 65.6038 90.1463 65.4151C89.9576 65.2264 89.8516 64.9704 89.8516 64.7035C89.8516 64.4367 89.9576 64.1807 90.1463 63.992C90.335 63.8033 90.591 63.6973 90.8578 63.6973H119.283C119.55 63.6973 119.806 63.8033 119.995 63.992C120.184 64.1807 120.29 64.4367 120.29 64.7035C120.29 64.9704 120.184 65.2264 119.995 65.4151C119.806 65.6038 119.55 65.7098 119.283 65.7098Z" fill="#CCCCCC"/>
    <path d="M119.283 70.994H90.8578C90.591 70.994 90.335 70.888 90.1463 70.6993C89.9576 70.5105 89.8516 70.2546 89.8516 69.9877C89.8516 69.7208 89.9576 69.4649 90.1463 69.2762C90.335 69.0875 90.591 68.9814 90.8578 68.9814H119.283C119.55 68.9814 119.806 69.0875 119.995 69.2762C120.184 69.4649 120.29 69.7208 120.29 69.9877C120.29 70.2546 120.184 70.5105 119.995 70.6993C119.806 70.888 119.55 70.994 119.283 70.994Z" fill="#CCCCCC"/>
    <path d="M119.283 76.2752H90.8578C90.591 76.2752 90.335 76.1692 90.1463 75.9805C89.9576 75.7918 89.8516 75.5358 89.8516 75.269C89.8516 75.0021 89.9576 74.7461 90.1463 74.5574C90.335 74.3687 90.591 74.2627 90.8578 74.2627H119.283C119.55 74.2627 119.806 74.3687 119.995 74.5574C120.184 74.7461 120.29 75.0021 120.29 75.269C120.29 75.5358 120.184 75.7918 119.995 75.9805C119.806 76.1692 119.55 76.2752 119.283 76.2752Z" fill="#CCCCCC"/>
    <path d="M75.3184 84.1461H134.013C134.093 84.1461 134.17 84.1144 134.226 84.0579C134.283 84.0014 134.314 83.9249 134.314 83.845C134.314 83.7652 134.283 83.6886 134.226 83.6321C134.17 83.5757 134.093 83.544 134.013 83.544H75.3184C75.2789 83.5437 75.2397 83.5513 75.2031 83.5662C75.1664 83.5811 75.1331 83.6031 75.105 83.6309C75.0769 83.6587 75.0545 83.6918 75.0392 83.7282C75.0239 83.7647 75.0159 83.8038 75.0156 83.8433C75.0154 83.8828 75.023 83.922 75.0379 83.9586C75.0528 83.9953 75.0748 84.0286 75.1026 84.0567C75.1304 84.0848 75.1635 84.1072 75.1999 84.1225C75.2363 84.1378 75.2754 84.1458 75.315 84.1461H75.3184Z" fill="#CCCCCC"/>
    <path d="M265.25 16.7262C269.869 16.7262 273.613 12.9819 273.613 8.36311C273.613 3.74429 269.869 0 265.25 0C260.631 0 256.887 3.74429 256.887 8.36311C256.887 12.9819 260.631 16.7262 265.25 16.7262Z" fill="#CCCCCC"/>
    <path d="M264.422 11.5527C264.234 11.553 264.051 11.4922 263.9 11.3794L263.891 11.3725L261.926 9.8676C261.747 9.72494 261.632 9.51799 261.604 9.29116C261.576 9.06433 261.639 8.83568 261.778 8.65427C261.917 8.47286 262.121 8.35314 262.347 8.3208C262.574 8.28846 262.803 8.34607 262.988 8.48127L264.261 9.45752L267.269 5.53418C267.41 5.35045 267.618 5.2302 267.848 5.1999C268.077 5.16959 268.309 5.23171 268.493 5.37258L268.475 5.398L268.494 5.37313C268.677 5.51422 268.797 5.72233 268.827 5.95182C268.858 6.18131 268.796 6.41343 268.655 6.59727L265.117 11.2122C265.035 11.3186 264.929 11.4047 264.809 11.4638C264.689 11.5229 264.556 11.5535 264.422 11.5531L264.422 11.5527Z" fill="white"/>
    <path d="M288.754 27.972C288.581 27.5598 288.29 27.2075 287.918 26.9587C287.546 26.71 287.11 26.5756 286.663 26.5723H244.904C244.304 26.5726 243.728 26.8111 243.304 27.2356C242.88 27.66 242.641 28.2355 242.641 28.8358V81.662C242.641 82.2622 242.88 82.8377 243.304 83.2622C243.728 83.6866 244.304 83.9252 244.904 83.9255H286.663C287.263 83.9246 287.838 83.6859 288.262 83.2616C288.687 82.8373 288.925 82.262 288.926 81.662V28.8358C288.927 28.5393 288.869 28.2456 288.754 27.972ZM288.424 81.6623C288.423 82.1288 288.237 82.5758 287.907 82.9056C287.577 83.2354 287.13 83.4211 286.664 83.422H244.904C244.673 83.422 244.444 83.3765 244.231 83.2881C244.017 83.1996 243.823 83.07 243.66 82.9066C243.496 82.7432 243.367 82.5492 243.278 82.3357C243.19 82.1222 243.144 81.8934 243.144 81.6623V28.8358C243.145 28.3693 243.331 27.9223 243.661 27.5925C243.991 27.2627 244.438 27.077 244.904 27.0761H286.663C287.015 27.0775 287.358 27.1838 287.649 27.3814C287.94 27.579 288.166 27.859 288.297 28.1854C288.323 28.2504 288.345 28.3167 288.363 28.384C288.404 28.5321 288.424 28.6849 288.424 28.8384L288.424 81.6623Z" fill="#CCCCCC"/>
    <path d="M280.037 39.0448H267.459C267.193 39.0448 266.937 38.9388 266.748 38.75C266.559 38.5613 266.453 38.3054 266.453 38.0385C266.453 37.7716 266.559 37.5157 266.748 37.327C266.937 37.1382 267.193 37.0322 267.459 37.0322H280.037C280.304 37.0322 280.56 37.1382 280.748 37.327C280.937 37.5157 281.043 37.7716 281.043 38.0385C281.043 38.3054 280.937 38.5613 280.748 38.75C280.56 38.9388 280.304 39.0448 280.037 39.0448H280.037Z" fill="#CCCCCC"/>
    <path d="M280.037 44.328H267.459C267.193 44.328 266.937 44.222 266.748 44.0332C266.559 43.8445 266.453 43.5886 266.453 43.3217C266.453 43.0548 266.559 42.7989 266.748 42.6102C266.937 42.4214 267.193 42.3154 267.459 42.3154H280.037C280.304 42.3154 280.56 42.4214 280.748 42.6102C280.937 42.7989 281.043 43.0548 281.043 43.3217C281.043 43.5886 280.937 43.8445 280.748 44.0332C280.56 44.222 280.304 44.328 280.037 44.328H280.037Z" fill="#CCCCCC"/>
    <path d="M261.007 47.3354H251.816C251.515 47.3351 251.228 47.2158 251.015 47.0036C250.803 46.7913 250.684 46.5036 250.684 46.2035V35.3566C250.684 35.0564 250.803 34.7687 251.015 34.5565C251.228 34.3443 251.515 34.2249 251.816 34.2246H261.007C261.307 34.225 261.595 34.3444 261.807 34.5566C262.019 34.7688 262.139 35.0565 262.139 35.3566V46.2035C262.139 46.5036 262.019 46.7913 261.807 47.0036C261.595 47.2158 261.307 47.3351 261.007 47.3354Z" fill="#CCCCCC"/>
    <path d="M279.951 55.1444H251.526C251.259 55.1444 251.003 55.0384 250.814 54.8497C250.626 54.6609 250.52 54.405 250.52 54.1381C250.52 53.8712 250.626 53.6153 250.814 53.4266C251.003 53.2379 251.259 53.1318 251.526 53.1318H279.951C280.218 53.1318 280.474 53.2379 280.663 53.4266C280.852 53.6153 280.958 53.8712 280.958 54.1381C280.958 54.405 280.852 54.6609 280.663 54.8497C280.474 55.0384 280.218 55.1444 279.951 55.1444Z" fill="#CCCCCC"/>
    <path d="M279.951 60.4295H251.526C251.259 60.4295 251.003 60.3235 250.814 60.1348C250.626 59.9461 250.52 59.6901 250.52 59.4233C250.52 59.1564 250.626 58.9004 250.814 58.7117C251.003 58.523 251.259 58.417 251.526 58.417H279.951C280.218 58.417 280.474 58.523 280.663 58.7117C280.852 58.9004 280.958 59.1564 280.958 59.4233C280.958 59.6901 280.852 59.9461 280.663 60.1348C280.474 60.3235 280.218 60.4295 279.951 60.4295Z" fill="#CCCCCC"/>
    <path d="M279.951 65.7098H251.526C251.259 65.7098 251.003 65.6038 250.814 65.4151C250.626 65.2264 250.52 64.9704 250.52 64.7035C250.52 64.4367 250.626 64.1807 250.814 63.992C251.003 63.8033 251.259 63.6973 251.526 63.6973H279.951C280.218 63.6973 280.474 63.8033 280.663 63.992C280.852 64.1807 280.958 64.4367 280.958 64.7035C280.958 64.9704 280.852 65.2264 280.663 65.4151C280.474 65.6038 280.218 65.7098 279.951 65.7098Z" fill="#CCCCCC"/>
    <path d="M279.951 70.994H251.526C251.259 70.994 251.003 70.888 250.814 70.6993C250.626 70.5105 250.52 70.2546 250.52 69.9877C250.52 69.7208 250.626 69.4649 250.814 69.2762C251.003 69.0875 251.259 68.9814 251.526 68.9814H279.951C280.218 68.9814 280.474 69.0875 280.663 69.2762C280.852 69.4649 280.958 69.7208 280.958 69.9877C280.958 70.2546 280.852 70.5105 280.663 70.6993C280.474 70.888 280.218 70.994 279.951 70.994Z" fill="#CCCCCC"/>
    <path d="M279.951 76.2752H251.526C251.259 76.2752 251.003 76.1692 250.814 75.9805C250.626 75.7918 250.52 75.5358 250.52 75.269C250.52 75.0021 250.626 74.7461 250.814 74.5574C251.003 74.3687 251.259 74.2627 251.526 74.2627H279.951C280.218 74.2627 280.474 74.3687 280.663 74.5574C280.852 74.7461 280.958 75.0021 280.958 75.269C280.958 75.5358 280.852 75.7918 280.663 75.9805C280.474 76.1692 280.218 76.2752 279.951 76.2752Z" fill="#CCCCCC"/>
    <path d="M235.986 84.1461H294.681C294.761 84.1461 294.838 84.1144 294.894 84.0579C294.95 84.0014 294.982 83.9249 294.982 83.845C294.982 83.7652 294.95 83.6886 294.894 83.6321C294.838 83.5757 294.761 83.544 294.681 83.544H235.986C235.947 83.5437 235.908 83.5513 235.871 83.5662C235.834 83.5811 235.801 83.6031 235.773 83.6309C235.745 83.6587 235.722 83.6918 235.707 83.7282C235.692 83.7647 235.684 83.8038 235.684 83.8433C235.683 83.8828 235.691 83.922 235.706 83.9586C235.721 83.9953 235.743 84.0286 235.771 84.0567C235.798 84.0848 235.831 84.1072 235.868 84.1225C235.904 84.1378 235.943 84.1458 235.983 84.1461H235.986Z" fill="#CCCCCC"/>
    <path d="M214.127 52.6606C213.906 52.1367 213.537 51.6889 213.064 51.3727C212.592 51.0565 212.037 50.8859 211.468 50.8818H158.4C157.637 50.8822 156.906 51.1855 156.366 51.7249C155.827 52.2643 155.524 52.9957 155.523 53.7585V120.894C155.524 121.657 155.827 122.389 156.366 122.928C156.906 123.468 157.637 123.771 158.4 123.771H211.47C212.233 123.77 212.964 123.467 213.503 122.927C214.042 122.388 214.346 121.657 214.347 120.894V53.7585C214.348 53.3817 214.274 53.0084 214.129 52.6606H214.127ZM213.706 120.894C213.705 121.488 213.469 122.057 213.05 122.476C212.63 122.896 212.061 123.132 211.468 123.132H158.4C157.807 123.132 157.238 122.896 156.818 122.477C156.398 122.057 156.162 121.488 156.162 120.895V53.7589C156.163 53.1657 156.399 52.5969 156.819 52.1774C157.238 51.7579 157.807 51.5219 158.4 51.5211H211.47C211.917 51.5228 212.353 51.6576 212.723 51.9083C213.093 52.159 213.38 52.5143 213.547 52.9288C213.58 53.0114 213.608 53.0957 213.631 53.1813C213.682 53.3696 213.708 53.5639 213.708 53.7589L213.706 120.894Z" fill="#1C1C1C"/>
    <path d="M203.053 66.7315H187.068C186.729 66.7315 186.403 66.5968 186.164 66.3569C185.924 66.1171 185.789 65.7918 185.789 65.4527C185.789 65.1135 185.924 64.7882 186.164 64.5484C186.403 64.3086 186.729 64.1738 187.068 64.1738H203.053C203.392 64.1738 203.717 64.3086 203.957 64.5484C204.197 64.7882 204.332 65.1135 204.332 65.4527C204.332 65.7918 204.197 66.1171 203.957 66.3569C203.717 66.5968 203.392 66.7315 203.053 66.7315Z" fill="#1C1C1C"/>
    <path d="M203.053 73.4454H187.068C186.729 73.4454 186.403 73.3106 186.164 73.0708C185.924 72.831 185.789 72.5057 185.789 72.1665C185.789 71.8274 185.924 71.5021 186.164 71.2623C186.403 71.0224 186.729 70.8877 187.068 70.8877H203.053C203.392 70.8877 203.717 71.0224 203.957 71.2623C204.197 71.5021 204.332 71.8274 204.332 72.1665C204.332 72.5057 204.197 72.831 203.957 73.0708C203.717 73.3106 203.392 73.4454 203.053 73.4454Z" fill="#1C1C1C"/>
    <path d="M178.866 77.2682H167.185C166.803 77.2678 166.438 77.1161 166.168 76.8463C165.898 76.5766 165.746 76.2109 165.746 75.8294V62.0442C165.746 61.6627 165.898 61.297 166.168 61.0273C166.438 60.7576 166.803 60.6059 167.185 60.6055H178.866C179.248 60.6059 179.614 60.7576 179.883 61.0273C180.153 61.297 180.305 61.6627 180.305 62.0442V75.8294C180.305 76.2109 180.153 76.5766 179.883 76.8463C179.614 77.1161 179.248 77.2678 178.866 77.2682Z" fill="#4CAF50"/>
    <path d="M202.944 87.1924H166.818C166.479 87.1924 166.153 87.0577 165.914 86.8179C165.674 86.578 165.539 86.2528 165.539 85.9136C165.539 85.5744 165.674 85.2492 165.914 85.0093C166.153 84.7695 166.479 84.6348 166.818 84.6348H202.944C203.111 84.6348 203.278 84.6678 203.433 84.7321C203.588 84.7964 203.729 84.8906 203.848 85.0093C203.967 85.1281 204.061 85.2691 204.125 85.4242C204.189 85.5794 204.222 85.7457 204.222 85.9136C204.222 86.0815 204.189 86.2478 204.125 86.403C204.061 86.5581 203.967 86.6991 203.848 86.8179C203.729 86.9366 203.588 87.0308 203.433 87.0951C203.278 87.1594 203.111 87.1924 202.944 87.1924Z" fill="#CCCCCC"/>
    <path d="M202.944 93.9063H166.818C166.479 93.9063 166.153 93.7716 165.914 93.5317C165.674 93.2919 165.539 92.9666 165.539 92.6275C165.539 92.2883 165.674 91.963 165.914 91.7232C166.153 91.4834 166.479 91.3486 166.818 91.3486H202.944C203.283 91.3486 203.608 91.4834 203.848 91.7232C204.088 91.963 204.222 92.2883 204.222 92.6275C204.222 92.9666 204.088 93.2919 203.848 93.5317C203.608 93.7716 203.283 93.9063 202.944 93.9063Z" fill="#CCCCCC"/>
    <path d="M202.944 100.619H166.818C166.479 100.619 166.153 100.484 165.914 100.245C165.674 100.005 165.539 99.6795 165.539 99.3404C165.539 99.0012 165.674 98.6759 165.914 98.4361C166.153 98.1963 166.479 98.0615 166.818 98.0615H202.944C203.283 98.0615 203.608 98.1963 203.848 98.4361C204.088 98.6759 204.222 99.0012 204.222 99.3404C204.222 99.6795 204.088 100.005 203.848 100.245C203.608 100.484 203.283 100.619 202.944 100.619Z" fill="#CCCCCC"/>
    <path d="M202.944 107.333H166.818C166.479 107.333 166.153 107.198 165.914 106.958C165.674 106.719 165.539 106.393 165.539 106.054C165.539 105.715 165.674 105.39 165.914 105.15C166.153 104.91 166.479 104.775 166.818 104.775H202.944C203.283 104.775 203.608 104.91 203.848 105.15C204.088 105.39 204.222 105.715 204.222 106.054C204.222 106.393 204.088 106.719 203.848 106.958C203.608 107.198 203.283 107.333 202.944 107.333Z" fill="#CCCCCC"/>
    <path d="M202.944 114.047H166.818C166.479 114.047 166.153 113.912 165.914 113.672C165.674 113.433 165.539 113.107 165.539 112.768C165.539 112.429 165.674 112.104 165.914 111.864C166.153 111.624 166.479 111.489 166.818 111.489H202.944C203.283 111.489 203.608 111.624 203.848 111.864C204.088 112.104 204.222 112.429 204.222 112.768C204.222 113.107 204.088 113.433 203.848 113.672C203.608 113.912 203.283 114.047 202.944 114.047Z" fill="#CCCCCC"/>
    <path d="M185.834 34.7065C192.65 34.7065 198.175 29.181 198.175 22.365C198.175 15.5489 192.65 10.0234 185.834 10.0234C179.018 10.0234 173.492 15.5489 173.492 22.365C173.492 29.181 179.018 34.7065 185.834 34.7065Z" fill="#4CAF50"/>
    <path d="M184.612 27.0719C184.334 27.0724 184.064 26.9825 183.842 26.816L183.828 26.8056L180.928 24.5869C180.793 24.484 180.68 24.3556 180.595 24.209C180.51 24.0624 180.455 23.9005 180.433 23.7326C180.411 23.5647 180.422 23.3941 180.466 23.2304C180.509 23.0668 180.585 22.9134 180.688 22.7789C180.791 22.6445 180.919 22.5317 181.066 22.447C181.213 22.3623 181.375 22.3073 181.543 22.2852C181.711 22.2631 181.881 22.2744 182.045 22.3183C182.208 22.3622 182.362 22.4379 182.496 22.5411L184.375 23.9817L188.814 18.19C189.022 17.9189 189.329 17.7414 189.668 17.6966C190.007 17.6519 190.349 17.7436 190.621 17.9514L190.621 17.9517L190.593 17.99L190.622 17.9517C190.893 18.1599 191.07 18.4671 191.114 18.8058C191.159 19.1445 191.068 19.4872 190.86 19.7585L185.638 26.5677C185.517 26.7246 185.362 26.8515 185.184 26.9387C185.007 27.0259 184.811 27.0709 184.613 27.0704L184.612 27.0719Z" fill="white"/>
    <path d="M147.316 124H221.912C222.013 124 222.11 123.96 222.182 123.888C222.254 123.817 222.294 123.719 222.294 123.618C222.294 123.516 222.254 123.419 222.182 123.347C222.11 123.276 222.013 123.235 221.912 123.235H147.316C147.215 123.235 147.117 123.276 147.046 123.347C146.974 123.419 146.934 123.516 146.934 123.618C146.934 123.719 146.974 123.817 147.046 123.888C147.117 123.96 147.215 124 147.316 124Z" fill="#1C1C1C"/>
    <path d="M138.459 173V168.094L134.242 161.022H136.317L139.331 166.243H139.463L142.477 161.022H144.552L140.327 168.094V173H138.459ZM148.682 173.174C147.802 173.174 147.042 172.986 146.4 172.61C145.763 172.234 145.273 171.697 144.93 171C144.587 170.297 144.416 169.464 144.416 168.501V168.484C144.416 167.516 144.587 166.683 144.93 165.986C145.279 165.289 145.771 164.752 146.408 164.375C147.05 163.999 147.808 163.811 148.682 163.811C149.562 163.811 150.32 163.999 150.957 164.375C151.593 164.746 152.083 165.283 152.426 165.986C152.775 166.683 152.949 167.516 152.949 168.484V168.501C152.949 169.464 152.775 170.297 152.426 171C152.083 171.697 151.593 172.234 150.957 172.61C150.326 172.986 149.568 173.174 148.682 173.174ZM148.682 171.664C149.197 171.664 149.634 171.539 149.994 171.29C150.354 171.035 150.627 170.673 150.816 170.203C151.004 169.732 151.098 169.165 151.098 168.501V168.484C151.098 167.815 151.004 167.245 150.816 166.774C150.627 166.304 150.354 165.944 149.994 165.695C149.634 165.441 149.197 165.313 148.682 165.313C148.168 165.313 147.73 165.441 147.371 165.695C147.011 165.944 146.734 166.304 146.541 166.774C146.353 167.245 146.258 167.815 146.258 168.484V168.501C146.258 169.165 146.353 169.732 146.541 170.203C146.734 170.673 147.011 171.035 147.371 171.29C147.73 171.539 148.168 171.664 148.682 171.664ZM158.026 173.174C157.351 173.174 156.781 173.044 156.316 172.784C155.856 172.519 155.511 172.137 155.278 171.639C155.051 171.135 154.938 170.529 154.938 169.821V163.985H156.739V169.397C156.739 170.139 156.886 170.695 157.179 171.066C157.472 171.437 157.951 171.622 158.615 171.622C158.969 171.622 159.285 171.569 159.561 171.464C159.838 171.354 160.07 171.196 160.259 170.991C160.447 170.786 160.585 170.54 160.674 170.252C160.768 169.965 160.815 169.638 160.815 169.273V163.985H162.624V173H160.815V171.639H160.682C160.538 171.96 160.342 172.236 160.093 172.469C159.844 172.696 159.545 172.87 159.196 172.992C158.853 173.113 158.463 173.174 158.026 173.174ZM165.203 165.903L165.933 161.022H167.859L166.473 165.903H165.203ZM170.437 173V163.985H172.238V165.347H172.379C172.54 164.865 172.822 164.492 173.226 164.226C173.636 163.96 174.139 163.828 174.737 163.828C174.886 163.828 175.033 163.836 175.177 163.853C175.321 163.869 175.437 163.889 175.525 163.911V165.571C175.365 165.538 175.204 165.513 175.044 165.496C174.889 165.479 174.726 165.471 174.554 165.471C174.095 165.471 173.691 165.56 173.342 165.737C172.999 165.914 172.728 166.163 172.529 166.484C172.335 166.799 172.238 167.176 172.238 167.613V173H170.437ZM180.743 173.174C179.863 173.174 179.108 172.986 178.477 172.61C177.846 172.228 177.359 171.688 177.016 170.991C176.679 170.294 176.51 169.469 176.51 168.518V168.509C176.51 167.569 176.679 166.747 177.016 166.044C177.359 165.341 177.841 164.793 178.461 164.4C179.086 164.007 179.816 163.811 180.652 163.811C181.493 163.811 182.215 163.999 182.819 164.375C183.427 164.752 183.895 165.28 184.221 165.961C184.548 166.636 184.711 167.427 184.711 168.335V168.966H177.423V167.679H183.815L182.951 168.875V168.152C182.951 167.51 182.852 166.979 182.653 166.559C182.459 166.132 182.19 165.814 181.847 165.604C181.504 165.394 181.109 165.289 180.66 165.289C180.212 165.289 179.811 165.399 179.457 165.621C179.108 165.836 178.831 166.157 178.627 166.583C178.427 167.01 178.328 167.533 178.328 168.152V168.875C178.328 169.467 178.427 169.973 178.627 170.394C178.826 170.814 179.108 171.135 179.473 171.356C179.844 171.578 180.281 171.688 180.785 171.688C181.172 171.688 181.504 171.636 181.781 171.531C182.063 171.42 182.293 171.285 182.47 171.124C182.653 170.964 182.777 170.806 182.843 170.651L182.877 170.584H184.62L184.603 170.659C184.526 170.958 184.39 171.257 184.196 171.556C184.003 171.849 183.745 172.117 183.424 172.361C183.109 172.604 182.727 172.801 182.279 172.95C181.836 173.1 181.324 173.174 180.743 173.174ZM194.632 173.149C193.88 173.149 193.221 172.961 192.657 172.585C192.098 172.203 191.663 171.664 191.353 170.966C191.049 170.269 190.897 169.447 190.897 168.501V168.484C190.897 167.533 191.049 166.708 191.353 166.011C191.658 165.313 192.089 164.777 192.648 164.4C193.207 164.019 193.869 163.828 194.632 163.828C195.047 163.828 195.435 163.894 195.794 164.027C196.154 164.154 196.472 164.337 196.749 164.575C197.026 164.807 197.244 165.087 197.405 165.413H197.538V160.449H199.347V173H197.538V171.581H197.405C197.228 171.907 197.004 172.189 196.732 172.427C196.461 172.66 196.149 172.84 195.794 172.967C195.44 173.089 195.053 173.149 194.632 173.149ZM195.147 171.605C195.645 171.605 196.077 171.481 196.442 171.232C196.807 170.983 197.087 170.626 197.28 170.161C197.474 169.691 197.571 169.137 197.571 168.501V168.484C197.571 167.842 197.471 167.289 197.272 166.824C197.078 166.359 196.799 166.002 196.434 165.753C196.074 165.499 195.645 165.372 195.147 165.372C194.649 165.372 194.217 165.499 193.852 165.753C193.492 166.002 193.216 166.359 193.022 166.824C192.834 167.284 192.74 167.837 192.74 168.484V168.501C192.74 169.143 192.834 169.696 193.022 170.161C193.216 170.626 193.492 170.983 193.852 171.232C194.217 171.481 194.649 171.605 195.147 171.605ZM205.769 173.174C204.889 173.174 204.128 172.986 203.486 172.61C202.85 172.234 202.36 171.697 202.017 171C201.674 170.297 201.502 169.464 201.502 168.501V168.484C201.502 167.516 201.674 166.683 202.017 165.986C202.365 165.289 202.858 164.752 203.494 164.375C204.136 163.999 204.894 163.811 205.769 163.811C206.648 163.811 207.407 163.999 208.043 164.375C208.679 164.746 209.169 165.283 209.512 165.986C209.861 166.683 210.035 167.516 210.035 168.484V168.501C210.035 169.464 209.861 170.297 209.512 171C209.169 171.697 208.679 172.234 208.043 172.61C207.412 172.986 206.654 173.174 205.769 173.174ZM205.769 171.664C206.283 171.664 206.72 171.539 207.08 171.29C207.44 171.035 207.714 170.673 207.902 170.203C208.09 169.732 208.184 169.165 208.184 168.501V168.484C208.184 167.815 208.09 167.245 207.902 166.774C207.714 166.304 207.44 165.944 207.08 165.695C206.72 165.441 206.283 165.313 205.769 165.313C205.254 165.313 204.817 165.441 204.457 165.695C204.097 165.944 203.821 166.304 203.627 166.774C203.439 167.245 203.345 167.815 203.345 168.484V168.501C203.345 169.165 203.439 169.732 203.627 170.203C203.821 170.673 204.097 171.035 204.457 171.29C204.817 171.539 205.254 171.664 205.769 171.664ZM212.107 173V163.985H213.908V165.347H214.049C214.271 164.865 214.597 164.489 215.029 164.218C215.461 163.947 216.006 163.811 216.664 163.811C217.677 163.811 218.452 164.102 218.988 164.683C219.525 165.264 219.794 166.091 219.794 167.165V173H217.984V167.588C217.984 166.835 217.826 166.276 217.511 165.911C217.201 165.54 216.714 165.355 216.05 165.355C215.613 165.355 215.234 165.452 214.913 165.646C214.592 165.834 214.343 166.105 214.166 166.459C213.994 166.808 213.908 167.225 213.908 167.712V173H212.107ZM226.016 173.174C225.136 173.174 224.381 172.986 223.75 172.61C223.119 172.228 222.632 171.688 222.289 170.991C221.951 170.294 221.783 169.469 221.783 168.518V168.509C221.783 167.569 221.951 166.747 222.289 166.044C222.632 165.341 223.113 164.793 223.733 164.4C224.359 164.007 225.089 163.811 225.925 163.811C226.766 163.811 227.488 163.999 228.091 164.375C228.7 164.752 229.167 165.28 229.494 165.961C229.82 166.636 229.984 167.427 229.984 168.335V168.966H222.696V167.679H229.087L228.224 168.875V168.152C228.224 167.51 228.124 166.979 227.925 166.559C227.731 166.132 227.463 165.814 227.12 165.604C226.777 165.394 226.381 165.289 225.933 165.289C225.485 165.289 225.083 165.399 224.729 165.621C224.381 165.836 224.104 166.157 223.899 166.583C223.7 167.01 223.6 167.533 223.6 168.152V168.875C223.6 169.467 223.7 169.973 223.899 170.394C224.098 170.814 224.381 171.135 224.746 171.356C225.117 171.578 225.554 171.688 226.057 171.688C226.445 171.688 226.777 171.636 227.054 171.531C227.336 171.42 227.565 171.285 227.742 171.124C227.925 170.964 228.05 170.806 228.116 170.651L228.149 170.584H229.892L229.876 170.659C229.798 170.958 229.663 171.257 229.469 171.556C229.275 171.849 229.018 172.117 228.697 172.361C228.382 172.604 228 172.801 227.552 172.95C227.109 173.1 226.597 173.174 226.016 173.174ZM232.703 169.032L232.529 161.014H234.554L234.388 169.032H232.703ZM233.55 173.183C233.162 173.183 232.85 173.069 232.612 172.842C232.379 172.615 232.263 172.317 232.263 171.946C232.263 171.569 232.379 171.268 232.612 171.041C232.85 170.809 233.162 170.692 233.55 170.692C233.932 170.692 234.239 170.809 234.471 171.041C234.709 171.268 234.828 171.569 234.828 171.946C234.828 172.317 234.709 172.615 234.471 172.842C234.239 173.069 233.932 173.183 233.55 173.183Z" fill="#1C1C1C"/>
</svg>
