<svg width="30" height="31" viewBox="0 0 30 31" fill="none" xmlns="http://www.w3.org/2000/svg">
    <path
        d="M22.5 7H7.5C7.10218 7 6.72064 7.15804 6.43934 7.43934C6.15804 7.72064 6 8.10218 6 8.5V23.5C6 23.8978 6.15804 24.2794 6.43934 24.5607C6.72064 24.842 7.10218 25 7.5 25H22.5C22.8978 25 23.2794 24.842 23.5607 24.5607C23.842 24.2794 24 23.8978 24 23.5V8.5C24 8.10218 23.842 7.72064 23.5607 7.43934C23.2794 7.15804 22.8978 7 22.5 7ZM22.5 23.5H7.5V8.5H22.5V23.5ZM19.5 16C19.5 16.1989 19.421 16.3897 19.2803 16.5303C19.1397 16.671 18.9489 16.75 18.75 16.75H15.75V19.75C15.75 19.9489 15.671 20.1397 15.5303 20.2803C15.3897 20.421 15.1989 20.5 15 20.5C14.8011 20.5 14.6103 20.421 14.4697 20.2803C14.329 20.1397 14.25 19.9489 14.25 19.75V16.75H11.25C11.0511 16.75 10.8603 16.671 10.7197 16.5303C10.579 16.3897 10.5 16.1989 10.5 16C10.5 15.8011 10.579 15.6103 10.7197 15.4697C10.8603 15.329 11.0511 15.25 11.25 15.25H14.25V12.25C14.25 12.0511 14.329 11.8603 14.4697 11.7197C14.6103 11.579 14.8011 11.5 15 11.5C15.1989 11.5 15.3897 11.579 15.5303 11.7197C15.671 11.8603 15.75 12.0511 15.75 12.25V15.25H18.75C18.9489 15.25 19.1397 15.329 19.2803 15.4697C19.421 15.6103 19.5 15.8011 19.5 16Z"
        fill="#6C63FF" />
</svg>
