<svg width="40" height="40" viewBox="0 0 40 40" fill="none" xmlns="http://www.w3.org/2000/svg">
    <rect width="40" height="40" rx="20" fill="white" />
    <path
        d="M26.25 14.375H24.0844L23.0195 12.7781C22.9625 12.6926 22.8852 12.6225 22.7946 12.574C22.704 12.5255 22.6028 12.5001 22.5 12.5H17.5C17.3972 12.5001 17.296 12.5255 17.2054 12.574C17.1148 12.6225 17.0375 12.6926 16.9805 12.7781L15.9148 14.375H13.75C13.2527 14.375 12.7758 14.5725 12.4242 14.9242C12.0725 15.2758 11.875 15.7527 11.875 16.25V25C11.875 25.4973 12.0725 25.9742 12.4242 26.3258C12.7758 26.6775 13.2527 26.875 13.75 26.875H26.25C26.7473 26.875 27.2242 26.6775 27.5758 26.3258C27.9275 25.9742 28.125 25.4973 28.125 25V16.25C28.125 15.7527 27.9275 15.2758 27.5758 14.9242C27.2242 14.5725 26.7473 14.375 26.25 14.375ZM26.875 25C26.875 25.1658 26.8092 25.3247 26.6919 25.4419C26.5747 25.5592 26.4158 25.625 26.25 25.625H13.75C13.5842 25.625 13.4253 25.5592 13.3081 25.4419C13.1908 25.3247 13.125 25.1658 13.125 25V16.25C13.125 16.0842 13.1908 15.9253 13.3081 15.8081C13.4253 15.6908 13.5842 15.625 13.75 15.625H16.25C16.3529 15.6251 16.4543 15.5997 16.545 15.5512C16.6358 15.5027 16.7132 15.4325 16.7703 15.3469L17.8344 13.75H22.1648L23.2297 15.3469C23.2868 15.4325 23.3642 15.5027 23.455 15.5512C23.5457 15.5997 23.6471 15.6251 23.75 15.625H26.25C26.4158 15.625 26.5747 15.6908 26.6919 15.8081C26.8092 15.9253 26.875 16.0842 26.875 16.25V25ZM20 16.875C19.3201 16.875 18.6555 17.0766 18.0902 17.4543C17.5249 17.832 17.0843 18.3689 16.8242 18.997C16.564 19.6251 16.4959 20.3163 16.6286 20.9831C16.7612 21.6499 17.0886 22.2624 17.5693 22.7432C18.0501 23.2239 18.6626 23.5513 19.3294 23.6839C19.9962 23.8166 20.6874 23.7485 21.3155 23.4883C21.9436 23.2282 22.4805 22.7876 22.8582 22.2223C23.2359 21.657 23.4375 20.9924 23.4375 20.3125C23.4365 19.4011 23.074 18.5274 22.4295 17.883C21.7851 17.2385 20.9114 16.876 20 16.875ZM20 22.5C19.5674 22.5 19.1444 22.3717 18.7847 22.1313C18.425 21.891 18.1446 21.5493 17.979 21.1496C17.8134 20.7499 17.7701 20.3101 17.8545 19.8857C17.9389 19.4614 18.1473 19.0716 18.4532 18.7657C18.7591 18.4598 19.1489 18.2514 19.5732 18.167C19.9976 18.0826 20.4374 18.1259 20.8371 18.2915C21.2368 18.4571 21.5785 18.7375 21.8188 19.0972C22.0592 19.4569 22.1875 19.8799 22.1875 20.3125C22.1875 20.8927 21.957 21.4491 21.5468 21.8593C21.1366 22.2695 20.5802 22.5 20 22.5Z"
        fill="#1C1C1C" />
</svg>
