<svg width="354" height="48" viewBox="0 0 354 48" fill="none" xmlns="http://www.w3.org/2000/svg">
    <rect x="1.2" y="0.7" width="351.6" height="46.6" rx="3.3" stroke="#1C1C1C"
        stroke-width="1.4" />
    <g clip-path="url(#clip0_278_4517)">
        <mask id="mask0_278_4517" style="mask-type:luminance" maskUnits="userSpaceOnUse" x="73"
            y="14" width="20" height="20">
            <path
                d="M92.8079 22.1448H83.213V25.9894H88.7263C88.6377 26.5336 88.4387 27.0688 88.1472 27.5569C87.8133 28.1161 87.4005 28.5418 86.9775 28.866C85.7101 29.8372 84.2325 30.0358 83.2063 30.0358C80.6141 30.0358 78.3992 28.3604 77.5418 26.0838C77.5072 26.0012 77.4842 25.9159 77.4562 25.8315C77.2667 25.2521 77.1632 24.6384 77.1632 24.0006C77.1632 23.3369 77.2753 22.7014 77.4797 22.1013C78.286 19.7345 80.5508 17.9667 83.2082 17.9667C83.7427 17.9667 84.2574 18.0303 84.7455 18.1572C85.861 18.4473 86.6501 19.0184 87.1336 19.4702L90.0511 16.6131C88.2764 14.986 85.9629 14 83.2033 14C80.9972 14 78.9604 14.6873 77.2913 15.849C75.9378 16.7911 74.8276 18.0524 74.0784 19.5173C73.3816 20.8756 73 22.3808 73 23.9991C73 25.6176 73.3822 27.1384 74.079 28.4841V28.4932C74.8151 29.9218 75.8915 31.1519 77.1997 32.0897C78.3425 32.9089 80.3918 34 83.2033 34C84.8202 34 86.2531 33.7085 87.5169 33.1622C88.4285 32.7681 89.2363 32.2541 89.9676 31.5935C90.9339 30.7206 91.6906 29.6409 92.2072 28.3987C92.7237 27.1565 93 25.7518 93 24.2289C93 23.5196 92.9288 22.7993 92.8079 22.1447V22.1448Z"
                fill="white" />
        </mask>
        <g mask="url(#mask0_278_4517)">
            <g filter="url(#filter0_f_278_4517)">
                <path
                    d="M72.8555 24.0674C72.8661 25.6603 73.32 27.3038 74.007 28.6305V28.6397C74.5034 29.6032 75.1819 30.3643 75.9547 31.1184L80.622 29.4154C79.7389 28.9668 79.6042 28.692 78.9712 28.1904C78.3244 27.5382 77.8423 26.7894 77.542 25.9114H77.5299L77.542 25.9022C77.3445 25.3224 77.325 24.707 77.3177 24.0674H72.8555Z"
                    fill="url(#paint0_radial_278_4517)" />
            </g>
            <g filter="url(#filter1_f_278_4517)">
                <path
                    d="M83.2133 13.9272C82.752 15.5479 82.9284 17.1232 83.2133 18.0398C83.746 18.0402 84.2592 18.1037 84.7458 18.2302C85.8613 18.5203 86.6503 19.0915 87.1338 19.5433L90.1259 16.6132C88.3534 14.9879 86.2203 13.9298 83.2133 13.9272Z"
                    fill="url(#paint1_radial_278_4517)" />
            </g>
            <g filter="url(#filter2_f_278_4517)">
                <path
                    d="M83.2035 13.9146C80.9408 13.9145 78.8517 14.6195 77.1398 15.811C76.5041 16.2534 75.9208 16.7645 75.4014 17.3328C75.2653 18.6093 76.42 20.1783 78.7066 20.1653C79.8161 18.8748 81.4569 18.0398 83.2832 18.0398C83.2848 18.0398 83.2865 18.04 83.2881 18.04L83.2135 13.9148C83.2102 13.9148 83.2069 13.9146 83.2035 13.9146Z"
                    fill="url(#paint2_radial_278_4517)" />
            </g>
            <g filter="url(#filter3_f_278_4517)">
                <path
                    d="M90.6704 24.5291L88.6507 25.9165C88.5621 26.4607 88.3629 26.9959 88.0715 27.484C87.7376 28.0432 87.3248 28.4689 86.9017 28.7931C85.637 29.7623 84.1633 29.9618 83.1374 29.9627C82.077 31.7687 81.8911 32.6733 83.212 34.1309C84.8464 34.1297 86.2954 33.8346 87.5735 33.2821C88.4974 32.8828 89.3159 32.3618 90.057 31.6924C91.0363 30.8078 91.8033 29.7136 92.3268 28.4547C92.8502 27.1959 93.1301 25.7724 93.1301 24.229L90.6704 24.5291Z"
                    fill="url(#paint3_radial_278_4517)" />
            </g>
            <g filter="url(#filter4_f_278_4517)">
                <path
                    d="M83.0664 21.999V26.1359H92.7835C92.869 25.5693 93.1516 24.8362 93.1516 24.2292C93.1516 23.52 93.0805 22.6537 92.9596 21.999H83.0664Z"
                    fill="#3086FF" />
            </g>
            <g filter="url(#filter5_f_278_4517)">
                <path
                    d="M75.4481 17.1865C74.8484 17.8426 74.3362 18.577 73.93 19.3712C73.2331 20.7294 72.8516 22.3807 72.8516 23.9991C72.8516 24.0219 72.8535 24.0442 72.8536 24.067C73.1622 24.6587 77.1165 24.5454 77.3159 24.067C77.3156 24.0446 77.3131 24.0229 77.3131 24.0005C77.3131 23.3367 77.4252 22.8475 77.6296 22.2473C77.8818 21.5071 78.2766 20.8255 78.7815 20.2382C78.896 20.092 79.2012 19.7779 79.2903 19.5895C79.3242 19.5177 79.2287 19.4775 79.2234 19.4522C79.2174 19.4239 79.0893 19.4467 79.0606 19.4256C78.9695 19.3588 78.7891 19.3239 78.6796 19.2929C78.4454 19.2266 78.0574 19.0804 77.8419 18.9288C77.1606 18.4498 76.0974 17.8775 75.4481 17.1865Z"
                    fill="url(#paint4_radial_278_4517)" />
            </g>
            <g filter="url(#filter6_f_278_4517)">
                <path
                    d="M77.8558 19.4551C79.4357 20.4121 79.89 18.9721 80.9404 18.5215L79.1132 14.7324C78.4411 15.0149 77.806 15.3659 77.2168 15.776C76.3369 16.3884 75.5599 17.1357 74.918 17.9862L77.8558 19.4551Z"
                    fill="url(#paint5_radial_278_4517)" />
            </g>
            <g filter="url(#filter7_f_278_4517)">
                <path
                    d="M78.4995 29.1225C76.3788 29.8881 76.0468 29.9156 75.8516 31.2299C76.2246 31.5939 76.6254 31.9306 77.0513 32.2359C78.1942 33.0552 80.3926 34.1463 83.2041 34.1463C83.2074 34.1463 83.2106 34.146 83.2139 34.146V29.8898C83.2117 29.8898 83.2093 29.8899 83.2072 29.8899C82.1543 29.8899 81.313 29.6134 80.4504 29.1325C80.2378 29.0139 79.8519 29.3323 79.6557 29.19C79.3852 28.9937 78.7342 29.3591 78.4995 29.1225Z"
                    fill="url(#paint6_radial_278_4517)" />
            </g>
            <g opacity="0.5" filter="url(#filter8_f_278_4517)">
                <path
                    d="M81.9727 29.7554V34.0719C82.366 34.118 82.7754 34.1459 83.2049 34.1459C83.6354 34.1459 84.0519 34.1238 84.4567 34.0832V29.7845C84.0031 29.862 83.5759 29.8896 83.208 29.8896C82.7842 29.8896 82.372 29.8402 81.9727 29.7554Z"
                    fill="url(#paint7_linear_278_4517)" />
            </g>
        </g>
    </g>
    <path
        d="M105.417 30.2905C104.31 30.2905 103.35 30.036 102.536 29.5269C101.728 29.0177 101.106 28.2956 100.668 27.3604C100.231 26.4251 100.013 25.3128 100.013 24.0234V24.0068C100.013 22.7119 100.231 21.5968 100.668 20.6616C101.106 19.7264 101.728 19.0042 102.536 18.4951C103.344 17.986 104.304 17.7314 105.417 17.7314C106.296 17.7314 107.09 17.9058 107.799 18.2544C108.513 18.5975 109.097 19.0734 109.55 19.6821C110.01 20.2909 110.289 20.9909 110.389 21.7822V21.832H108.538L108.529 21.7988C108.419 21.3063 108.217 20.8802 107.923 20.5205C107.63 20.1608 107.27 19.8813 106.844 19.6821C106.418 19.4829 105.942 19.3833 105.417 19.3833C104.703 19.3833 104.083 19.5715 103.557 19.9478C103.037 20.3241 102.633 20.8581 102.345 21.5498C102.063 22.236 101.922 23.055 101.922 24.0068V24.0234C101.922 24.9642 102.063 25.7804 102.345 26.4722C102.633 27.1639 103.037 27.6979 103.557 28.0742C104.083 28.4505 104.705 28.6387 105.425 28.6387C105.951 28.6387 106.426 28.5501 106.853 28.373C107.284 28.196 107.644 27.9442 107.932 27.6177C108.219 27.2856 108.416 26.8955 108.521 26.4473L108.538 26.4141H110.397L110.389 26.4556C110.272 27.2248 109.99 27.8971 109.542 28.4727C109.094 29.0482 108.518 29.4964 107.815 29.8174C107.113 30.1328 106.313 30.2905 105.417 30.2905ZM116.703 30.1743C115.823 30.1743 115.062 29.9862 114.421 29.6099C113.784 29.2336 113.294 28.6968 112.951 27.9995C112.608 27.2967 112.437 26.4639 112.437 25.501V25.4844C112.437 24.516 112.608 23.6831 112.951 22.9858C113.3 22.2886 113.792 21.7518 114.429 21.3755C115.071 20.9992 115.829 20.811 116.703 20.811C117.583 20.811 118.341 20.9992 118.978 21.3755C119.614 21.7463 120.104 22.283 120.447 22.9858C120.796 23.6831 120.97 24.516 120.97 25.4844V25.501C120.97 26.4639 120.796 27.2967 120.447 27.9995C120.104 28.6968 119.614 29.2336 118.978 29.6099C118.347 29.9862 117.589 30.1743 116.703 30.1743ZM116.703 28.6636C117.218 28.6636 117.655 28.5391 118.015 28.29C118.374 28.0355 118.648 27.673 118.837 27.2026C119.025 26.7323 119.119 26.165 119.119 25.501V25.4844C119.119 24.8148 119.025 24.2448 118.837 23.7744C118.648 23.304 118.374 22.9443 118.015 22.6953C117.655 22.4408 117.218 22.3135 116.703 22.3135C116.189 22.3135 115.751 22.4408 115.392 22.6953C115.032 22.9443 114.755 23.304 114.562 23.7744C114.373 24.2448 114.279 24.8148 114.279 25.4844V25.501C114.279 26.165 114.373 26.7323 114.562 27.2026C114.755 27.673 115.032 28.0355 115.392 28.29C115.751 28.5391 116.189 28.6636 116.703 28.6636ZM123.366 30V20.9854H125.168V22.3467H125.309C125.53 21.8652 125.857 21.4889 126.288 21.2178C126.72 20.9466 127.265 20.811 127.924 20.811C128.936 20.811 129.711 21.1016 130.248 21.6826C130.785 22.2637 131.053 23.091 131.053 24.1646V30H129.243V24.5879C129.243 23.8353 129.086 23.2764 128.77 22.9111C128.46 22.5404 127.973 22.355 127.309 22.355C126.872 22.355 126.493 22.4518 126.172 22.6455C125.851 22.8337 125.602 23.1048 125.425 23.459C125.253 23.8076 125.168 24.2254 125.168 24.7124V30H123.366ZM137.218 30.0581C136.233 30.0581 135.519 29.87 135.077 29.4937C134.639 29.1118 134.421 28.4893 134.421 27.626V22.4048H133.01V20.9854H134.421V18.7109H136.264V20.9854H138.198V22.4048H136.264V27.186C136.264 27.673 136.36 28.0244 136.554 28.2402C136.748 28.4505 137.069 28.5557 137.517 28.5557C137.65 28.5557 137.763 28.5529 137.857 28.5474C137.957 28.5418 138.07 28.5335 138.198 28.5225V29.9668C138.054 29.9889 137.899 30.0083 137.733 30.0249C137.567 30.047 137.395 30.0581 137.218 30.0581ZM140.586 30V20.9854H142.395V30H140.586ZM141.499 19.375C141.189 19.375 140.923 19.2643 140.702 19.043C140.481 18.8216 140.37 18.556 140.37 18.2461C140.37 17.9362 140.481 17.6733 140.702 17.4575C140.923 17.2362 141.189 17.1255 141.499 17.1255C141.809 17.1255 142.075 17.2362 142.296 17.4575C142.517 17.6733 142.628 17.9362 142.628 18.2461C142.628 18.556 142.517 18.8216 142.296 19.043C142.075 19.2643 141.809 19.375 141.499 19.375ZM145.265 30V20.9854H147.067V22.3467H147.208C147.429 21.8652 147.755 21.4889 148.187 21.2178C148.619 20.9466 149.164 20.811 149.822 20.811C150.835 20.811 151.61 21.1016 152.147 21.6826C152.683 22.2637 152.952 23.091 152.952 24.1646V30H151.142V24.5879C151.142 23.8353 150.984 23.2764 150.669 22.9111C150.359 22.5404 149.872 22.355 149.208 22.355C148.771 22.355 148.392 22.4518 148.071 22.6455C147.75 22.8337 147.501 23.1048 147.324 23.459C147.152 23.8076 147.067 24.2254 147.067 24.7124V30H145.265ZM158.718 30.1743C158.043 30.1743 157.473 30.0443 157.009 29.7842C156.549 29.5186 156.203 29.1367 155.971 28.6387C155.744 28.1351 155.631 27.5291 155.631 26.8208V20.9854H157.432V26.3975C157.432 27.139 157.579 27.6951 157.872 28.0659C158.165 28.4367 158.644 28.6221 159.308 28.6221C159.662 28.6221 159.977 28.5695 160.254 28.4644C160.531 28.3537 160.763 28.196 160.951 27.9912C161.14 27.7865 161.278 27.5402 161.366 27.2524C161.461 26.9647 161.508 26.6382 161.508 26.2729V20.9854H163.317V30H161.508V28.6387H161.375C161.231 28.9596 161.034 29.2363 160.785 29.4688C160.536 29.6956 160.238 29.87 159.889 29.9917C159.546 30.1134 159.156 30.1743 158.718 30.1743ZM169.947 30.1743C169.067 30.1743 168.312 29.9862 167.681 29.6099C167.05 29.228 166.563 28.6885 166.22 27.9912C165.882 27.2939 165.714 26.4694 165.714 25.5176V25.5093C165.714 24.5685 165.882 23.7467 166.22 23.0439C166.563 22.3411 167.045 21.7933 167.664 21.4004C168.29 21.0075 169.02 20.811 169.856 20.811C170.697 20.811 171.419 20.9992 172.022 21.3755C172.631 21.7518 173.099 22.2803 173.425 22.9609C173.752 23.6361 173.915 24.4274 173.915 25.335V25.9658H166.627V24.6792H173.018L172.155 25.8745V25.1523C172.155 24.5104 172.056 23.9792 171.856 23.5586C171.663 23.1325 171.394 22.8143 171.051 22.604C170.708 22.3937 170.312 22.2886 169.864 22.2886C169.416 22.2886 169.015 22.3993 168.66 22.6206C168.312 22.8364 168.035 23.1574 167.83 23.5835C167.631 24.0096 167.532 24.5326 167.532 25.1523V25.8745C167.532 26.4666 167.631 26.973 167.83 27.3936C168.03 27.8141 168.312 28.1351 168.677 28.3564C169.048 28.5778 169.485 28.6885 169.989 28.6885C170.376 28.6885 170.708 28.6359 170.985 28.5308C171.267 28.4201 171.497 28.2845 171.674 28.124C171.856 27.9635 171.981 27.8058 172.047 27.6509L172.08 27.5845H173.824L173.807 27.6592C173.73 27.958 173.594 28.2568 173.4 28.5557C173.207 28.849 172.949 29.1174 172.628 29.3608C172.313 29.6043 171.931 29.8008 171.483 29.9502C171.04 30.0996 170.528 30.1743 169.947 30.1743ZM182.925 30L180.443 20.9854H182.261L183.871 27.9414H184.012L185.863 20.9854H187.582L189.441 27.9414H189.574L191.192 20.9854H192.977L190.503 30H188.636L186.768 23.2764H186.627L184.776 30H182.925ZM195.108 30V20.9854H196.918V30H195.108ZM196.021 19.375C195.711 19.375 195.446 19.2643 195.224 19.043C195.003 18.8216 194.892 18.556 194.892 18.2461C194.892 17.9362 195.003 17.6733 195.224 17.4575C195.446 17.2362 195.711 17.1255 196.021 17.1255C196.331 17.1255 196.597 17.2362 196.818 17.4575C197.039 17.6733 197.15 17.9362 197.15 18.2461C197.15 18.556 197.039 18.8216 196.818 19.043C196.597 19.2643 196.331 19.375 196.021 19.375ZM203.191 30.0581C202.206 30.0581 201.492 29.87 201.049 29.4937C200.612 29.1118 200.393 28.4893 200.393 27.626V22.4048H198.982V20.9854H200.393V18.7109H202.236V20.9854H204.17V22.4048H202.236V27.186C202.236 27.673 202.333 28.0244 202.527 28.2402C202.72 28.4505 203.041 28.5557 203.49 28.5557C203.622 28.5557 203.736 28.5529 203.83 28.5474C203.93 28.5418 204.043 28.5335 204.17 28.5225V29.9668C204.026 29.9889 203.871 30.0083 203.705 30.0249C203.539 30.047 203.368 30.0581 203.191 30.0581ZM206.617 30V17.4492H208.418V22.3467H208.559C208.78 21.8652 209.107 21.4889 209.539 21.2178C209.97 20.9466 210.515 20.811 211.174 20.811C211.843 20.811 212.411 20.9411 212.875 21.2012C213.34 21.4613 213.694 21.8431 213.938 22.3467C214.181 22.8447 214.303 23.4507 214.303 24.1646V30H212.494V24.5879C212.494 23.8353 212.336 23.2764 212.02 22.9111C211.711 22.5404 211.224 22.355 210.56 22.355C210.122 22.355 209.743 22.4518 209.422 22.6455C209.101 22.8337 208.852 23.1048 208.675 23.459C208.504 23.8076 208.418 24.2254 208.418 24.7124V30H206.617ZM227.215 30.2905C226.357 30.2905 225.588 30.1466 224.907 29.8589C224.226 29.5656 223.645 29.145 223.164 28.5972C222.682 28.0493 222.312 27.3908 222.051 26.6216C221.797 25.8468 221.67 24.978 221.67 24.0151V23.9985C221.67 22.7257 221.896 21.6217 222.35 20.6865C222.804 19.7458 223.446 19.0181 224.276 18.5034C225.106 17.9888 226.077 17.7314 227.19 17.7314C228.097 17.7314 228.908 17.8919 229.622 18.2129C230.336 18.5339 230.922 18.9849 231.382 19.5659C231.841 20.1414 232.142 20.8166 232.286 21.5913L232.295 21.6743H230.427L230.402 21.5913C230.192 20.883 229.807 20.3379 229.248 19.9561C228.695 19.5742 228.009 19.3833 227.19 19.3833C226.454 19.3833 225.814 19.5715 225.272 19.9478C224.73 20.3241 224.309 20.8581 224.01 21.5498C223.717 22.236 223.57 23.0495 223.57 23.9902V24.0068C223.57 24.7207 223.653 25.3626 223.82 25.9326C223.991 26.5026 224.237 26.9896 224.558 27.3936C224.879 27.792 225.264 28.0991 225.712 28.3149C226.16 28.5308 226.667 28.6387 227.231 28.6387C227.884 28.6387 228.457 28.5114 228.949 28.2568C229.447 27.9967 229.835 27.637 230.112 27.1777C230.388 26.7184 230.529 26.1816 230.535 25.5674L230.543 25.3018H227.464V23.7993H232.386V25.2852C232.386 26.0433 232.264 26.7295 232.021 27.3438C231.777 27.958 231.429 28.4865 230.975 28.9292C230.521 29.3664 229.976 29.7039 229.34 29.9419C228.703 30.1743 227.995 30.2905 227.215 30.2905ZM238.808 30.1743C237.929 30.1743 237.168 29.9862 236.526 29.6099C235.889 29.2336 235.4 28.6968 235.056 27.9995C234.713 27.2967 234.542 26.4639 234.542 25.501V25.4844C234.542 24.516 234.713 23.6831 235.056 22.9858C235.405 22.2886 235.898 21.7518 236.534 21.3755C237.176 20.9992 237.934 20.811 238.808 20.811C239.688 20.811 240.446 20.9992 241.083 21.3755C241.719 21.7463 242.209 22.283 242.552 22.9858C242.901 23.6831 243.075 24.516 243.075 25.4844V25.501C243.075 26.4639 242.901 27.2967 242.552 27.9995C242.209 28.6968 241.719 29.2336 241.083 29.6099C240.452 29.9862 239.694 30.1743 238.808 30.1743ZM238.808 28.6636C239.323 28.6636 239.76 28.5391 240.12 28.29C240.48 28.0355 240.754 27.673 240.942 27.2026C241.13 26.7323 241.224 26.165 241.224 25.501V25.4844C241.224 24.8148 241.13 24.2448 240.942 23.7744C240.754 23.304 240.48 22.9443 240.12 22.6953C239.76 22.4408 239.323 22.3135 238.808 22.3135C238.294 22.3135 237.857 22.4408 237.497 22.6953C237.137 22.9443 236.86 23.304 236.667 23.7744C236.479 24.2448 236.385 24.8148 236.385 25.4844V25.501C236.385 26.165 236.479 26.7323 236.667 27.2026C236.86 27.673 237.137 28.0355 237.497 28.29C237.857 28.5391 238.294 28.6636 238.808 28.6636ZM249.29 30.1743C248.41 30.1743 247.649 29.9862 247.007 29.6099C246.371 29.2336 245.881 28.6968 245.538 27.9995C245.195 27.2967 245.023 26.4639 245.023 25.501V25.4844C245.023 24.516 245.195 23.6831 245.538 22.9858C245.887 22.2886 246.379 21.7518 247.016 21.3755C247.657 20.9992 248.416 20.811 249.29 20.811C250.17 20.811 250.928 20.9992 251.564 21.3755C252.201 21.7463 252.691 22.283 253.034 22.9858C253.382 23.6831 253.557 24.516 253.557 25.4844V25.501C253.557 26.4639 253.382 27.2967 253.034 27.9995C252.691 28.6968 252.201 29.2336 251.564 29.6099C250.934 29.9862 250.175 30.1743 249.29 30.1743ZM249.29 28.6636C249.805 28.6636 250.242 28.5391 250.601 28.29C250.961 28.0355 251.235 27.673 251.423 27.2026C251.611 26.7323 251.705 26.165 251.705 25.501V25.4844C251.705 24.8148 251.611 24.2448 251.423 23.7744C251.235 23.304 250.961 22.9443 250.601 22.6953C250.242 22.4408 249.805 22.3135 249.29 22.3135C248.775 22.3135 248.338 22.4408 247.978 22.6953C247.619 22.9443 247.342 23.304 247.148 23.7744C246.96 24.2448 246.866 24.8148 246.866 25.4844V25.501C246.866 26.165 246.96 26.7323 247.148 27.2026C247.342 27.673 247.619 28.0355 247.978 28.29C248.338 28.5391 248.775 28.6636 249.29 28.6636ZM259.763 33.1792C259 33.1792 258.335 33.0741 257.771 32.8638C257.212 32.6535 256.769 32.3602 256.443 31.9839C256.116 31.6076 255.917 31.1704 255.845 30.6724L255.854 30.6558H257.68L257.688 30.6724C257.766 30.9823 257.984 31.2368 258.344 31.436C258.703 31.6353 259.185 31.7349 259.788 31.7349C260.53 31.7349 261.108 31.5661 261.523 31.2285C261.944 30.891 262.154 30.4178 262.154 29.8091V28.041H262.013C261.836 28.362 261.609 28.6387 261.332 28.8711C261.055 29.098 260.74 29.2695 260.386 29.3857C260.032 29.502 259.647 29.5601 259.232 29.5601C258.468 29.5601 257.804 29.3774 257.24 29.0122C256.681 28.6414 256.249 28.1323 255.945 27.4849C255.646 26.8319 255.497 26.082 255.497 25.2354V25.2188C255.497 24.361 255.649 23.6029 255.953 22.9443C256.258 22.2803 256.692 21.7629 257.256 21.3921C257.821 21.0158 258.493 20.8276 259.273 20.8276C259.694 20.8276 260.079 20.894 260.427 21.0269C260.781 21.1597 261.094 21.3478 261.365 21.5913C261.636 21.8348 261.861 22.1253 262.038 22.4629H262.146V20.9854H263.947V29.8174C263.947 30.498 263.775 31.0902 263.432 31.5938C263.095 32.0973 262.613 32.4875 261.988 32.7642C261.363 33.0409 260.621 33.1792 259.763 33.1792ZM259.738 28.0659C260.247 28.0659 260.685 27.9469 261.05 27.709C261.415 27.4655 261.695 27.1307 261.888 26.7046C262.087 26.2785 262.187 25.786 262.187 25.2271V25.2104C262.187 24.6571 262.087 24.1646 261.888 23.7329C261.695 23.3013 261.415 22.9637 261.05 22.7202C260.685 22.4767 260.247 22.355 259.738 22.355C259.229 22.355 258.795 22.4767 258.435 22.7202C258.081 22.9637 257.81 23.3013 257.622 23.7329C257.433 24.159 257.339 24.6515 257.339 25.2104V25.2271C257.339 25.786 257.433 26.2785 257.622 26.7046C257.81 27.1307 258.081 27.4655 258.435 27.709C258.795 27.9469 259.229 28.0659 259.738 28.0659ZM266.883 30V17.4492H268.684V30H266.883ZM275.406 30.1743C274.526 30.1743 273.77 29.9862 273.139 29.6099C272.509 29.228 272.022 28.6885 271.678 27.9912C271.341 27.2939 271.172 26.4694 271.172 25.5176V25.5093C271.172 24.5685 271.341 23.7467 271.678 23.0439C272.022 22.3411 272.503 21.7933 273.123 21.4004C273.748 21.0075 274.479 20.811 275.314 20.811C276.155 20.811 276.878 20.9992 277.481 21.3755C278.089 21.7518 278.557 22.2803 278.884 22.9609C279.21 23.6361 279.373 24.4274 279.373 25.335V25.9658H272.085V24.6792H278.477L277.614 25.8745V25.1523C277.614 24.5104 277.514 23.9792 277.315 23.5586C277.121 23.1325 276.853 22.8143 276.51 22.604C276.166 22.3937 275.771 22.2886 275.323 22.2886C274.874 22.2886 274.473 22.3993 274.119 22.6206C273.77 22.8364 273.494 23.1574 273.289 23.5835C273.09 24.0096 272.99 24.5326 272.99 25.1523V25.8745C272.99 26.4666 273.09 26.973 273.289 27.3936C273.488 27.8141 273.77 28.1351 274.136 28.3564C274.506 28.5778 274.943 28.6885 275.447 28.6885C275.834 28.6885 276.166 28.6359 276.443 28.5308C276.725 28.4201 276.955 28.2845 277.132 28.124C277.315 27.9635 277.439 27.8058 277.506 27.6509L277.539 27.5845H279.282L279.265 27.6592C279.188 27.958 279.052 28.2568 278.859 28.5557C278.665 28.849 278.408 29.1174 278.087 29.3608C277.771 29.6043 277.389 29.8008 276.941 29.9502C276.498 30.0996 275.987 30.1743 275.406 30.1743Z"
        fill="#1C1C1C" />
    <defs>
        <filter id="filter0_f_278_4517" x="72.3854" y="23.5973" width="8.70578" height="7.99094"
            filterUnits="userSpaceOnUse" color-interpolation-filters="sRGB">
            <feFlood flood-opacity="0" result="BackgroundImageFix" />
            <feBlend mode="normal" in="SourceGraphic" in2="BackgroundImageFix" result="shape" />
            <feGaussianBlur stdDeviation="0.23504" result="effect1_foregroundBlur_278_4517" />
        </filter>
        <filter id="filter1_f_278_4517" x="82.4596" y="13.4572" width="8.13547" height="6.55637"
            filterUnits="userSpaceOnUse" color-interpolation-filters="sRGB">
            <feFlood flood-opacity="0" result="BackgroundImageFix" />
            <feBlend mode="normal" in="SourceGraphic" in2="BackgroundImageFix" result="shape" />
            <feGaussianBlur stdDeviation="0.23504" result="effect1_foregroundBlur_278_4517" />
        </filter>
        <filter id="filter2_f_278_4517" x="74.9205" y="13.4445" width="8.8386" height="7.19114"
            filterUnits="userSpaceOnUse" color-interpolation-filters="sRGB">
            <feFlood flood-opacity="0" result="BackgroundImageFix" />
            <feBlend mode="normal" in="SourceGraphic" in2="BackgroundImageFix" result="shape" />
            <feGaussianBlur stdDeviation="0.23504" result="effect1_foregroundBlur_278_4517" />
        </filter>
        <filter id="filter3_f_278_4517" x="81.8112" y="23.7589" width="11.7878" height="10.842"
            filterUnits="userSpaceOnUse" color-interpolation-filters="sRGB">
            <feFlood flood-opacity="0" result="BackgroundImageFix" />
            <feBlend mode="normal" in="SourceGraphic" in2="BackgroundImageFix" result="shape" />
            <feGaussianBlur stdDeviation="0.23504" result="effect1_foregroundBlur_278_4517" />
        </filter>
        <filter id="filter4_f_278_4517" x="82.5963" y="21.5289" width="11.0261" height="5.07688"
            filterUnits="userSpaceOnUse" color-interpolation-filters="sRGB">
            <feFlood flood-opacity="0" result="BackgroundImageFix" />
            <feBlend mode="normal" in="SourceGraphic" in2="BackgroundImageFix" result="shape" />
            <feGaussianBlur stdDeviation="0.23504" result="effect1_foregroundBlur_278_4517" />
        </filter>
        <filter id="filter5_f_278_4517" x="72.3815" y="16.7164" width="7.38547" height="8.22287"
            filterUnits="userSpaceOnUse" color-interpolation-filters="sRGB">
            <feFlood flood-opacity="0" result="BackgroundImageFix" />
            <feBlend mode="normal" in="SourceGraphic" in2="BackgroundImageFix" result="shape" />
            <feGaussianBlur stdDeviation="0.23504" result="effect1_foregroundBlur_278_4517" />
        </filter>
        <filter id="filter6_f_278_4517" x="71.6131" y="11.4276" width="12.6331" height="11.6541"
            filterUnits="userSpaceOnUse" color-interpolation-filters="sRGB">
            <feFlood flood-opacity="0" result="BackgroundImageFix" />
            <feBlend mode="normal" in="SourceGraphic" in2="BackgroundImageFix" result="shape" />
            <feGaussianBlur stdDeviation="1.65243" result="effect1_foregroundBlur_278_4517" />
        </filter>
        <filter id="filter7_f_278_4517" x="75.3815" y="28.6354" width="8.30344" height="5.98117"
            filterUnits="userSpaceOnUse" color-interpolation-filters="sRGB">
            <feFlood flood-opacity="0" result="BackgroundImageFix" />
            <feBlend mode="normal" in="SourceGraphic" in2="BackgroundImageFix" result="shape" />
            <feGaussianBlur stdDeviation="0.23504" result="effect1_foregroundBlur_278_4517" />
        </filter>
        <filter id="filter8_f_278_4517" x="81.5026" y="29.2853" width="3.42453" height="5.33078"
            filterUnits="userSpaceOnUse" color-interpolation-filters="sRGB">
            <feFlood flood-opacity="0" result="BackgroundImageFix" />
            <feBlend mode="normal" in="SourceGraphic" in2="BackgroundImageFix" result="shape" />
            <feGaussianBlur stdDeviation="0.23504" result="effect1_foregroundBlur_278_4517" />
        </filter>
        <radialGradient id="paint0_radial_278_4517" cx="0" cy="0" r="1"
            gradientTransform="matrix(-0.415601 -9.95993 14.9426 -0.597686 80.5285 30.9683)"
            gradientUnits="userSpaceOnUse">
            <stop offset="0.141612" stop-color="#1ABD4D" />
            <stop offset="0.247515" stop-color="#6EC30D" />
            <stop offset="0.311547" stop-color="#8AC502" />
            <stop offset="0.366013" stop-color="#A2C600" />
            <stop offset="0.445673" stop-color="#C8C903" />
            <stop offset="0.540305" stop-color="#EBCB03" />
            <stop offset="0.615636" stop-color="#F7CD07" />
            <stop offset="0.699345" stop-color="#FDCD04" />
            <stop offset="0.771242" stop-color="#FDCE05" />
            <stop offset="0.860566" stop-color="#FFCE0A" />
        </radialGradient>
        <radialGradient id="paint1_radial_278_4517" cx="0" cy="0" r="1"
            gradientTransform="matrix(7.05806 -1.69631e-05 -9.92038e-06 8.92439 89.846 19.3312)"
            gradientUnits="userSpaceOnUse">
            <stop offset="0.408458" stop-color="#FB4E5A" />
            <stop offset="1" stop-color="#FF4540" />
        </radialGradient>
        <radialGradient id="paint2_radial_278_4517" cx="0" cy="0" r="1"
            gradientTransform="matrix(-9.88885 5.36243 7.4323 13.1383 85.9918 12.6227)"
            gradientUnits="userSpaceOnUse">
            <stop offset="0.231273" stop-color="#FF4541" />
            <stop offset="0.311547" stop-color="#FF4540" />
            <stop offset="0.457516" stop-color="#FF4640" />
            <stop offset="0.540305" stop-color="#FF473F" />
            <stop offset="0.699346" stop-color="#FF5138" />
            <stop offset="0.771242" stop-color="#FF5B33" />
            <stop offset="0.860566" stop-color="#FF6C29" />
            <stop offset="1" stop-color="#FF8C18" />
        </radialGradient>
        <radialGradient id="paint3_radial_278_4517" cx="0" cy="0" r="1"
            gradientTransform="matrix(-17.9337 -22.9206 -8.64137 6.48127 83.359 32.8364)"
            gradientUnits="userSpaceOnUse">
            <stop offset="0.131546" stop-color="#0CBA65" />
            <stop offset="0.209784" stop-color="#0BB86D" />
            <stop offset="0.297297" stop-color="#09B479" />
            <stop offset="0.396257" stop-color="#08AD93" />
            <stop offset="0.477124" stop-color="#0AA6A9" />
            <stop offset="0.568425" stop-color="#0D9CC6" />
            <stop offset="0.667385" stop-color="#1893DD" />
            <stop offset="0.768727" stop-color="#258BF1" />
            <stop offset="0.858506" stop-color="#3086FF" />
        </radialGradient>
        <radialGradient id="paint4_radial_278_4517" cx="0" cy="0" r="1"
            gradientTransform="matrix(-1.26913 10.7101 15.1251 1.71807 82.3375 15.8033)"
            gradientUnits="userSpaceOnUse">
            <stop offset="0.366013" stop-color="#FF4E3A" />
            <stop offset="0.457516" stop-color="#FF8A1B" />
            <stop offset="0.540305" stop-color="#FFA312" />
            <stop offset="0.615636" stop-color="#FFB60C" />
            <stop offset="0.771242" stop-color="#FFCD0A" />
            <stop offset="0.860566" stop-color="#FECF0A" />
            <stop offset="0.915033" stop-color="#FECF08" />
            <stop offset="1" stop-color="#FDCD01" />
        </radialGradient>
        <radialGradient id="paint5_radial_278_4517" cx="0" cy="0" r="1"
            gradientTransform="matrix(-3.66844 3.97231 -11.4435 -10.1305 80.5521 15.6923)"
            gradientUnits="userSpaceOnUse">
            <stop offset="0.315904" stop-color="#FF4C3C" />
            <stop offset="0.603818" stop-color="#FF692C" />
            <stop offset="0.726837" stop-color="#FF7825" />
            <stop offset="0.884534" stop-color="#FF8D1B" />
            <stop offset="1" stop-color="#FF9F13" />
        </radialGradient>
        <radialGradient id="paint6_radial_278_4517" cx="0" cy="0" r="1"
            gradientTransform="matrix(-9.88885 -5.36243 7.4323 -13.1383 85.9921 35.3773)"
            gradientUnits="userSpaceOnUse">
            <stop offset="0.231273" stop-color="#0FBC5F" />
            <stop offset="0.311547" stop-color="#0FBC5F" />
            <stop offset="0.366013" stop-color="#0FBC5E" />
            <stop offset="0.457516" stop-color="#0FBC5D" />
            <stop offset="0.540305" stop-color="#12BC58" />
            <stop offset="0.699346" stop-color="#28BF3C" />
            <stop offset="0.771242" stop-color="#38C02B" />
            <stop offset="0.860566" stop-color="#52C218" />
            <stop offset="0.915033" stop-color="#67C30F" />
            <stop offset="1" stop-color="#86C504" />
        </radialGradient>
        <linearGradient id="paint7_linear_278_4517" x1="81.9727" y1="31.9507" x2="84.4567"
            y2="31.9507" gradientUnits="userSpaceOnUse">
            <stop stop-color="#0FBC5C" />
            <stop offset="1" stop-color="#0CBA65" />
        </linearGradient>
        <clipPath id="clip0_278_4517">
            <rect width="20" height="20" fill="white" transform="translate(73 14)" />
        </clipPath>
    </defs>
</svg>
