<svg width="25" height="24" viewBox="0 0 25 24" fill="none" xmlns="http://www.w3.org/2000/svg">
    <path d="M21.5062 5.34352C20.4873 4.32714 19.1074 3.75557 17.6682 3.75381C16.229 3.75206 14.8477 4.32025 13.8262 5.33415L12.6 6.47321L11.3728 5.3304C10.3516 4.31209 8.96778 3.74115 7.52566 3.74317C6.08353 3.74519 4.70127 4.32001 3.68297 5.34118C2.66466 6.36235 2.09372 7.74621 2.09574 9.18833C2.09776 10.6305 2.67258 12.0127 3.69375 13.031L12.0703 21.5304C12.1401 21.6013 12.2233 21.6575 12.315 21.6959C12.4068 21.7344 12.5052 21.7541 12.6047 21.7541C12.7041 21.7541 12.8026 21.7344 12.8943 21.6959C12.9861 21.6575 13.0693 21.6013 13.1391 21.5304L21.5062 13.031C22.5253 12.0114 23.0977 10.6288 23.0977 9.18727C23.0977 7.74572 22.5253 6.36316 21.5062 5.34352ZM20.4422 11.9773L12.6 19.931L4.75312 11.9698C4.01466 11.2313 3.5998 10.2297 3.5998 9.1854C3.5998 8.14105 4.01466 7.13948 4.75312 6.40102C5.49159 5.66256 6.49316 5.2477 7.5375 5.2477C8.58184 5.2477 9.58341 5.66256 10.3219 6.40102L10.3406 6.41977L12.0891 8.04634C12.2279 8.17549 12.4104 8.2473 12.6 8.2473C12.7896 8.2473 12.9721 8.17549 13.1109 8.04634L14.8594 6.41977L14.8781 6.40102C15.6171 5.66306 16.6189 5.24887 17.6633 5.24957C18.7076 5.25027 19.7089 5.66581 20.4469 6.40477C21.1848 7.14373 21.599 8.14558 21.5983 9.18992C21.5976 10.2343 21.1821 11.2356 20.4431 11.9735L20.4422 11.9773Z" fill="#1C1C1C"/>
</svg>
