<svg width="25" height="24" viewBox="0 0 25 24" fill="none" xmlns="http://www.w3.org/2000/svg">
    <path
        d="M23.1 9.18705C23.1016 9.90128 22.9615 10.6087 22.688 11.2685C22.4144 11.9283 22.0127 12.5273 21.5062 13.0308L13.1343 21.5264C13.0646 21.5973 12.9814 21.6536 12.8896 21.692C12.7979 21.7304 12.6994 21.7502 12.6 21.7502C12.5005 21.7502 12.402 21.7304 12.3103 21.692C12.2186 21.6536 12.1354 21.5973 12.0656 21.5264L3.69372 13.0308C2.67305 12.0114 2.09915 10.6282 2.09827 9.18568C2.09739 7.74311 2.6696 6.35928 3.68903 5.33861C4.70845 4.31794 6.09159 3.74404 7.53415 3.74317C8.97672 3.74229 10.3605 4.3145 11.3812 5.33393L12.6 6.47299L13.8272 5.33018C14.5888 4.57229 15.558 4.05705 16.6122 3.84952C17.6665 3.64198 18.7586 3.75144 19.7507 4.16409C20.7428 4.57673 21.5904 5.27406 22.1865 6.16804C22.7826 7.06201 23.1004 8.11256 23.1 9.18705Z"
        fill="#343330" />
</svg>
