<svg width="25" height="24" viewBox="0 0 25 24" fill="none" xmlns="http://www.w3.org/2000/svg">
    <path
        d="M13.5006 14.7823C14.6763 14.0501 15.5815 12.9548 16.0793 11.6622C16.5771 10.3697 16.6404 8.95013 16.2596 7.61839C15.8788 6.28666 15.0746 5.11518 13.9687 4.2812C12.8628 3.44721 11.5154 2.99609 10.1303 2.99609C8.74516 2.99609 7.39773 3.44721 6.29183 4.2812C5.18594 5.11518 4.38175 6.28666 4.00094 7.61839C3.62013 8.95013 3.68341 10.3697 4.18121 11.6622C4.67901 12.9548 5.58424 14.0501 6.75995 14.7823C4.82402 15.4161 3.08214 16.6002 1.68152 18.267C1.61589 18.3421 1.56589 18.4295 1.53443 18.524C1.50296 18.6186 1.49067 18.7186 1.49828 18.818C1.50588 18.9174 1.53323 19.0142 1.57872 19.103C1.6242 19.1917 1.68692 19.2704 1.76319 19.3346C1.83947 19.3988 1.92778 19.4471 2.02296 19.4768C2.11813 19.5064 2.21827 19.5168 2.3175 19.5073C2.41674 19.4978 2.51309 19.4687 2.60092 19.4215C2.68875 19.3743 2.76629 19.3101 2.82902 19.2327C4.71152 16.9864 7.30464 15.7498 10.1256 15.7498C12.9465 15.7498 15.5396 16.9864 17.4259 19.2327C17.5539 19.3851 17.7373 19.4804 17.9356 19.4976C18.1339 19.5148 18.331 19.4526 18.4834 19.3245C18.6358 19.1965 18.7311 19.0131 18.7483 18.8148C18.7656 18.6165 18.7033 18.4194 18.5753 18.267C17.1737 16.6002 15.4318 15.4161 13.5006 14.7823ZM5.25058 9.37484C5.25058 8.41066 5.53649 7.46813 6.07217 6.66644C6.60784 5.86475 7.36921 5.23991 8.26 4.87093C9.15079 4.50195 10.131 4.40541 11.0766 4.59351C12.0223 4.78162 12.8909 5.24592 13.5727 5.9277C14.2545 6.60948 14.7188 7.47812 14.9069 8.42378C15.095 9.36944 14.9985 10.3496 14.6295 11.2404C14.2605 12.1312 13.6357 12.8926 12.834 13.4283C12.0323 13.9639 11.0898 14.2498 10.1256 14.2498C8.83311 14.2484 7.594 13.7343 6.68008 12.8203C5.76616 11.9064 5.25207 10.6673 5.25058 9.37484ZM23.649 13.4127L23.2121 13.1605C23.2634 12.8891 23.2634 12.6106 23.2121 12.3392L23.649 12.087C23.7343 12.0378 23.8091 11.9722 23.8691 11.8941C23.9291 11.8159 23.9731 11.7267 23.9986 11.6316C24.0241 11.5364 24.0306 11.4372 24.0178 11.3395C24.0049 11.2418 23.9729 11.1477 23.9237 11.0623C23.8745 10.977 23.8089 10.9022 23.7307 10.8423C23.6526 10.7823 23.5634 10.7383 23.4683 10.7128C23.3731 10.6873 23.2739 10.6808 23.1762 10.6936C23.0785 10.7065 22.9843 10.7384 22.899 10.7877L22.4612 11.0408C22.2517 10.861 22.0108 10.7215 21.7506 10.6292V10.1248C21.7506 9.92593 21.6716 9.73517 21.5309 9.59451C21.3903 9.45386 21.1995 9.37484 21.0006 9.37484C20.8017 9.37484 20.6109 9.45386 20.4702 9.59451C20.3296 9.73517 20.2506 9.92593 20.2506 10.1248V10.6292C19.9904 10.7215 19.7495 10.861 19.54 11.0408L19.1021 10.7877C19.0168 10.7384 18.9226 10.7065 18.825 10.6936C18.7273 10.6808 18.6281 10.6873 18.5329 10.7128C18.4378 10.7383 18.3486 10.7823 18.2704 10.8423C18.1923 10.9022 18.1267 10.977 18.0775 11.0623C18.0282 11.1477 17.9963 11.2418 17.9834 11.3395C17.9706 11.4372 17.9771 11.5364 18.0026 11.6316C18.0281 11.7267 18.0721 11.8159 18.1321 11.8941C18.192 11.9722 18.2668 12.0378 18.3521 12.087L18.789 12.3392C18.7378 12.6106 18.7378 12.8891 18.789 13.1605L18.3521 13.4127C18.2668 13.4619 18.192 13.5275 18.1321 13.6056C18.0721 13.6838 18.0281 13.773 18.0026 13.8681C17.9771 13.9633 17.9706 14.0625 17.9834 14.1602C17.9963 14.2578 18.0282 14.352 18.0775 14.4373C18.1267 14.5227 18.1923 14.5974 18.2704 14.6574C18.3486 14.7174 18.4378 14.7614 18.5329 14.7869C18.6281 14.8124 18.7273 14.8189 18.825 14.8061C18.9226 14.7932 19.0168 14.7613 19.1021 14.712L19.54 14.4589C19.7495 14.6387 19.9904 14.7782 20.2506 14.8705V15.3748C20.2506 15.5738 20.3296 15.7645 20.4702 15.9052C20.6109 16.0458 20.8017 16.1248 21.0006 16.1248C21.1995 16.1248 21.3903 16.0458 21.5309 15.9052C21.6716 15.7645 21.7506 15.5738 21.7506 15.3748V14.8705C22.0108 14.7782 22.2517 14.6387 22.4612 14.4589L22.899 14.712C23.0129 14.7781 23.1423 14.8128 23.274 14.8123C23.4392 14.8124 23.5997 14.758 23.7308 14.6574C23.8618 14.5569 23.956 14.416 23.9988 14.2564C24.0415 14.0969 24.0304 13.9277 23.9671 13.7752C23.9039 13.6226 23.7921 13.4952 23.649 13.4127ZM20.2506 12.7498C20.2506 12.6015 20.2946 12.4565 20.377 12.3332C20.4594 12.2098 20.5765 12.1137 20.7136 12.0569C20.8506 12.0002 21.0014 11.9853 21.1469 12.0143C21.2924 12.0432 21.426 12.1146 21.5309 12.2195C21.6358 12.3244 21.7072 12.458 21.7362 12.6035C21.7651 12.749 21.7503 12.8998 21.6935 13.0369C21.6367 13.1739 21.5406 13.291 21.4173 13.3734C21.2939 13.4559 21.1489 13.4998 21.0006 13.4998C20.8017 13.4998 20.6109 13.4208 20.4702 13.2802C20.3296 13.1395 20.2506 12.9488 20.2506 12.7498Z"
        fill="#1C1C1C" fill-opacity="0.6" />
</svg>
