<svg width="237" height="148" viewBox="0 0 237 148" fill="none" xmlns="http://www.w3.org/2000/svg">
    <path
        d="M0.0579224 147.557C0.0579224 147.785 0.241036 147.968 0.469062 147.968H236.531C236.759 147.968 236.942 147.785 236.942 147.557C236.942 147.329 236.759 147.146 236.531 147.146H0.469062C0.241036 147.146 0.0579224 147.329 0.0579224 147.557Z"
        fill="#3F3D56" />
    <path
        d="M110.783 147.865H36.9953C34.0486 147.865 31.6513 145.467 31.6513 142.521V5.34395C31.6513 2.39726 34.0486 0 36.9953 0H110.783C113.729 0 116.127 2.39726 116.127 5.34395V142.521C116.127 145.467 113.729 147.865 110.783 147.865ZM36.9953 0.690957C34.4297 0.690957 32.3423 2.77833 32.3423 5.34395V142.521C32.3423 145.086 34.4297 147.174 36.9953 147.174H110.783C113.348 147.174 115.436 145.086 115.436 142.521V5.34395C115.436 2.77833 113.348 0.690957 110.783 0.690957H36.9953Z"
        fill="#3F3D56" />
    <path d="M116.332 60.9788H31.4456V83.0273H116.332V60.9788Z" fill="#6C63FF" />
    <path d="M85.4644 0.345459H63.4159V147.519H85.4644V0.345459Z" fill="#6C63FF" />
    <path opacity="0.2"
        d="M86.2793 81.3674C86.4354 80.7601 86.5285 80.1289 86.5511 79.4784L114.127 54.3643L90.4252 42.7888L79.979 70.6454C79.265 70.4589 78.5198 70.3495 77.7474 70.3495C77.3372 70.3495 76.9369 70.3872 76.5416 70.4414L66.1719 42.7888L42.4698 54.3643L68.9622 78.4913C68.9451 78.7157 68.928 78.9401 68.928 79.1688C68.928 79.9294 69.0344 80.6634 69.2154 81.3674C52.9763 86.4425 46.3282 101.769 46.3282 101.769L66.7231 118.305C65.5067 106.141 72.935 93.688 76.9509 87.9481C77.2136 87.9716 77.4785 87.9883 77.7474 87.9883C78.0163 87.9883 78.2811 87.9716 78.5439 87.9481C82.5597 93.688 89.988 106.141 88.7716 118.305L109.166 101.769C109.166 101.769 102.518 86.4425 86.2793 81.3674Z"
        fill="#1C1C1C" />
    <path
        d="M89.2738 112.346C89.036 112.346 88.7962 112.294 88.5699 112.189C87.9973 111.921 87.6357 111.364 87.6257 110.735C87.4585 100.071 81.3779 89.6046 77.7681 84.3151C77.527 83.9619 77.1107 83.751 76.6542 83.751H76.6522C76.179 83.751 75.7627 83.9619 75.5217 84.3151C71.912 89.6046 65.8314 100.071 65.6641 110.735C65.6541 111.364 65.2924 111.921 64.7199 112.189C64.1416 112.459 63.4746 112.377 62.9795 111.976L46.0278 98.2314C45.4227 97.7405 45.2451 96.8809 45.6056 96.1869C47.3191 92.887 53.9161 81.7649 66.8629 77.1913C67.4407 76.9872 67.7916 76.412 67.716 75.7922C67.674 75.4461 67.6527 75.0986 67.6527 74.7592C67.6536 74.3543 67.4989 73.9865 67.2283 73.7403L42.8576 51.5453C42.4534 51.1772 42.2584 50.6344 42.3357 50.0932C42.4131 49.5521 42.7527 49.0855 43.2439 48.8456L63.5348 38.9364C63.951 38.7329 64.4367 38.7149 64.8677 38.8859C65.2983 39.0573 65.6386 39.4046 65.8014 39.8385L75.2096 64.9272C75.4037 65.4451 75.9017 65.7831 76.467 65.769C76.8933 65.7592 77.3256 65.7838 77.7566 65.8398C78.3649 65.9211 78.939 65.578 79.1519 65.0092L88.591 39.8385C88.7537 39.4046 89.094 39.0573 89.5247 38.8859C89.9553 38.715 90.4415 38.7331 90.8575 38.9364L111.148 48.8456C111.639 49.0855 111.979 49.5521 112.056 50.0936C112.134 50.6344 111.939 51.1772 111.535 51.5453L86.0019 74.7986C85.7639 75.0152 85.6158 75.3111 85.5847 75.6313C85.578 75.7005 85.5707 75.7696 85.5625 75.8384C85.4924 76.4208 85.8543 76.9892 86.4228 77.19C99.3725 81.7625 105.97 92.8866 107.684 96.1869C108.045 96.8809 107.867 97.7405 107.262 98.2314L90.3102 111.976C90.009 112.221 89.6437 112.346 89.2738 112.346Z"
        fill="#6C63FF" />
    <path
        d="M204.074 148H132.884C129.937 148 127.539 145.603 127.539 142.656V106.434C127.539 103.487 129.937 101.09 132.884 101.09H204.074C207.021 101.09 209.418 103.487 209.418 106.434V142.656C209.418 145.603 207.021 148 204.074 148ZM132.884 101.781C130.318 101.781 128.23 103.868 128.23 106.434V142.656C128.23 145.222 130.318 147.309 132.884 147.309H204.074C206.639 147.309 208.727 145.222 208.727 142.656V106.434C208.727 103.868 206.639 101.781 204.074 101.781H132.884Z"
        fill="#3F3D56" />
    <path d="M175.624 101.131H163.461V147.959H175.624V101.131Z" fill="#6C63FF" />
    <path d="M209.072 118.768H127.885V130.93H209.072V118.768Z" fill="#6C63FF" />
    <path opacity="0.2"
        d="M166.105 132.417C166.44 132.503 166.788 132.554 167.147 132.566L181.001 147.779L187.386 134.704L172.019 128.941C172.122 128.547 172.183 128.136 172.183 127.71C172.183 127.484 172.162 127.263 172.132 127.045L187.386 121.324L181.001 108.249L167.691 122.864C167.567 122.854 167.444 122.845 167.317 122.845C166.898 122.845 166.493 122.903 166.105 123.003C163.305 114.045 154.85 110.378 154.85 110.378L145.728 121.628C152.438 120.957 159.308 125.055 162.474 127.271C162.461 127.415 162.452 127.562 162.452 127.71C162.452 127.858 162.461 128.004 162.474 128.149C159.308 130.365 152.438 134.462 145.728 133.791L154.85 145.042C154.85 145.042 163.305 141.375 166.105 132.417Z"
        fill="#1C1C1C" />
    <path
        d="M181.5 145.687C181.225 145.687 180.96 145.572 180.771 145.365L167.943 131.279C167.837 131.163 167.683 131.089 167.51 131.072L167.454 131.066C167.141 131.031 166.855 131.201 166.757 131.479C164.225 138.658 158.06 142.311 156.231 143.26C155.819 143.474 155.307 143.367 155.014 143.004L147.431 133.651C147.191 133.355 147.142 132.956 147.304 132.609C147.464 132.267 147.796 132.051 148.171 132.046C154.034 131.955 159.794 128.609 162.705 126.623C162.881 126.503 162.985 126.296 162.985 126.07C162.985 125.834 162.881 125.628 162.705 125.508C159.794 123.522 154.035 120.176 148.171 120.085C147.796 120.079 147.464 119.864 147.304 119.522C147.142 119.175 147.191 118.775 147.431 118.479L155.014 109.127C155.308 108.765 155.82 108.657 156.231 108.87C158.06 109.819 164.223 113.473 166.756 120.649C166.854 120.927 167.134 121.1 167.416 121.066C167.724 121.027 168.03 121.019 168.325 121.041L180.771 107.374C180.992 107.132 181.317 107.015 181.64 107.062C181.964 107.108 182.243 107.312 182.387 107.605L187.854 118.8C187.976 119.049 187.986 119.34 187.884 119.598C187.781 119.855 187.573 120.059 187.314 120.156L173.473 125.346C173.219 125.441 173.052 125.69 173.059 125.965L173.06 126.065C173.06 126.281 173.045 126.499 173.016 126.716C172.978 126.995 173.152 127.272 173.429 127.376L187.314 132.583C187.574 132.681 187.781 132.884 187.884 133.142C187.986 133.4 187.975 133.69 187.854 133.939L182.387 145.134C182.243 145.428 181.964 145.631 181.64 145.677C181.594 145.684 181.547 145.687 181.5 145.687Z"
        fill="#6C63FF" />
</svg>
