<svg width="20" height="20" viewBox="0 0 20 20" fill="none" xmlns="http://www.w3.org/2000/svg">
    <path
        d="M18.7514 7.6562C18.7527 8.25139 18.6361 8.84094 18.4081 9.39075C18.1801 9.94056 17.8454 10.4397 17.4233 10.8593L10.4467 17.939C10.3886 17.9981 10.3193 18.045 10.2428 18.077C10.1664 18.109 10.0843 18.1255 10.0014 18.1255C9.91853 18.1255 9.83648 18.109 9.76003 18.077C9.68358 18.045 9.61426 17.9981 9.5561 17.939L2.57954 10.8593C1.72898 10.0098 1.25073 8.85719 1.25 7.65506C1.24927 6.45292 1.72611 5.29973 2.57563 4.44917C3.42516 3.59861 4.57777 3.12036 5.7799 3.11963C6.98204 3.1189 8.13523 3.59574 8.98579 4.44526L10.0014 5.39448L11.0241 4.44214C11.6588 3.81057 12.4664 3.3812 13.345 3.20826C14.2235 3.03531 15.1336 3.12653 15.9603 3.4704C16.7871 3.81427 17.4934 4.39538 17.9902 5.14036C18.4869 5.88534 18.7518 6.76079 18.7514 7.6562Z"
        fill="#F44336" />
</svg>
