<svg width="20" height="20" viewBox="0 0 20 20" fill="none" xmlns="http://www.w3.org/2000/svg">
    <path
        d="M17.4215 4.45326C16.5724 3.60627 15.4225 3.12997 14.2231 3.1285C13.0238 3.12704 11.8727 3.60054 11.0215 4.44545L9.99965 5.39467L8.97699 4.44232C8.12602 3.59373 6.9728 3.11795 5.77103 3.11963C4.56926 3.12132 3.41738 3.60034 2.56879 4.45131C1.7202 5.30228 1.24441 6.4555 1.2461 7.65727C1.24778 8.85904 1.7268 10.0109 2.57777 10.8595L9.55824 17.9423C9.6164 18.0014 9.68572 18.0483 9.76217 18.0803C9.83862 18.1123 9.92067 18.1288 10.0036 18.1288C10.0864 18.1288 10.1685 18.1123 10.2449 18.0803C10.3214 18.0483 10.3907 18.0014 10.4489 17.9423L17.4215 10.8595C18.2707 10.0098 18.7477 8.85768 18.7477 7.65639C18.7477 6.45509 18.2707 5.30296 17.4215 4.45326ZM16.5348 9.98139L9.99965 16.6095L3.46059 9.97514C2.8452 9.35975 2.49948 8.52511 2.49948 7.65482C2.49948 6.78454 2.8452 5.9499 3.46059 5.33451C4.07597 4.71913 4.91061 4.37341 5.7809 4.37341C6.65118 4.37341 7.48582 4.71913 8.10121 5.33451L8.11684 5.35014L9.57387 6.70561C9.68952 6.81324 9.84165 6.87307 9.99965 6.87307C10.1576 6.87307 10.3098 6.81324 10.4254 6.70561L11.8825 5.35014L11.8981 5.33451C12.5139 4.71954 13.3488 4.37438 14.219 4.37497C15.0893 4.37555 15.9237 4.72184 16.5387 5.33764C17.1537 5.95344 17.4988 6.78831 17.4983 7.6586C17.4977 8.52888 17.1514 9.36329 16.5356 9.97826L16.5348 9.98139Z"
        fill="#1C1C1C" />
</svg>
