<svg width="19" height="19" viewBox="0 0 19 19" fill="none" xmlns="http://www.w3.org/2000/svg">
    <path
        d="M18.2 9.24979V18.2498C18.2 18.4487 18.121 18.6395 17.9803 18.7801C17.8397 18.9208 17.6489 18.9998 17.45 18.9998H12.2C12.0011 18.9998 11.8103 18.9208 11.6697 18.7801C11.529 18.6395 11.45 18.4487 11.45 18.2498V13.3748C11.45 13.2753 11.4105 13.18 11.3402 13.1096C11.2699 13.0393 11.1745 12.9998 11.075 12.9998H7.32501C7.22556 12.9998 7.13017 13.0393 7.05985 13.1096C6.98952 13.18 6.95001 13.2753 6.95001 13.3748V18.2498C6.95001 18.4487 6.87099 18.6395 6.73034 18.7801C6.58969 18.9208 6.39892 18.9998 6.20001 18.9998H0.950012C0.7511 18.9998 0.560335 18.9208 0.419682 18.7801C0.27903 18.6395 0.200012 18.4487 0.200012 18.2498V9.24979C0.200197 8.85204 0.358353 8.47064 0.6397 8.18948L8.1397 0.689481C8.42098 0.408389 8.80236 0.250488 9.20001 0.250488C9.59767 0.250488 9.97905 0.408389 10.2603 0.689481L17.7603 8.18948C18.0417 8.47064 18.1998 8.85204 18.2 9.24979Z"
        fill="#1C1C1C" />
</svg>
