<svg width="25" height="24" viewBox="0 0 25 24" fill="none" xmlns="http://www.w3.org/2000/svg">
    <path
        d="M20.7603 10.189L13.2603 2.68899C12.9791 2.4079 12.5977 2.25 12.2 2.25C11.8024 2.25 11.421 2.4079 11.1397 2.68899L3.63971 10.189C3.49974 10.3279 3.3888 10.4933 3.31331 10.6755C3.23783 10.8577 3.19932 11.053 3.20002 11.2502V20.2502C3.20002 20.4492 3.27904 20.6399 3.41969 20.7806C3.56034 20.9212 3.75111 21.0002 3.95002 21.0002H9.95002C10.1489 21.0002 10.3397 20.9212 10.4804 20.7806C10.621 20.6399 10.7 20.4492 10.7 20.2502V15.0002H13.7V20.2502C13.7 20.4492 13.779 20.6399 13.9197 20.7806C14.0603 20.9212 14.2511 21.0002 14.45 21.0002H20.45C20.6489 21.0002 20.8397 20.9212 20.9804 20.7806C21.121 20.6399 21.2 20.4492 21.2 20.2502V11.2502C21.2007 11.053 21.1622 10.8577 21.0867 10.6755C21.0112 10.4933 20.9003 10.3279 20.7603 10.189ZM19.7 19.5002H15.2V14.2502C15.2 14.0513 15.121 13.8606 14.9804 13.7199C14.8397 13.5793 14.6489 13.5002 14.45 13.5002H9.95002C9.75111 13.5002 9.56034 13.5793 9.41969 13.7199C9.27904 13.8606 9.20002 14.0513 9.20002 14.2502V19.5002H4.70002V11.2502L12.2 3.75024L19.7 11.2502V19.5002Z"
        fill="#1C1C1C" />
</svg>
