<svg width="169" height="48" viewBox="0 0 169 48" fill="none" xmlns="http://www.w3.org/2000/svg">
    <rect x="0.7" y="0.7" width="167.1" height="46.6" rx="3.3" stroke="#1C1C1C"
        stroke-width="1.4" />
    <path
        d="M60.2524 30V18.022H62.1118V28.3896H67.7314V30H60.2524ZM73.5314 30.1743C72.6515 30.1743 71.8906 29.9862 71.2487 29.6099C70.6123 29.2336 70.1225 28.6968 69.7794 27.9995C69.4363 27.2967 69.2648 26.4639 69.2648 25.501V25.4844C69.2648 24.516 69.4363 23.6831 69.7794 22.9858C70.128 22.2886 70.6206 21.7518 71.257 21.3755C71.8989 20.9992 72.657 20.811 73.5314 20.811C74.4113 20.811 75.1694 20.9992 75.8058 21.3755C76.4422 21.7463 76.9319 22.283 77.275 22.9858C77.6237 23.6831 77.798 24.516 77.798 25.4844V25.501C77.798 26.4639 77.6237 27.2967 77.275 27.9995C76.9319 28.6968 76.4422 29.2336 75.8058 29.6099C75.1749 29.9862 74.4168 30.1743 73.5314 30.1743ZM73.5314 28.6636C74.046 28.6636 74.4832 28.5391 74.8429 28.29C75.2026 28.0355 75.4765 27.673 75.6647 27.2026C75.8528 26.7323 75.9469 26.165 75.9469 25.501V25.4844C75.9469 24.8148 75.8528 24.2448 75.6647 23.7744C75.4765 23.304 75.2026 22.9443 74.8429 22.6953C74.4832 22.4408 74.046 22.3135 73.5314 22.3135C73.0167 22.3135 72.5795 22.4408 72.2198 22.6953C71.8601 22.9443 71.5835 23.304 71.3898 23.7744C71.2016 24.2448 71.1075 24.8148 71.1075 25.4844V25.501C71.1075 26.165 71.2016 26.7323 71.3898 27.2026C71.5835 27.673 71.8601 28.0355 72.2198 28.29C72.5795 28.5391 73.0167 28.6636 73.5314 28.6636ZM84.0046 33.1792C83.241 33.1792 82.5769 33.0741 82.0124 32.8638C81.4535 32.6535 81.0108 32.3602 80.6843 31.9839C80.3578 31.6076 80.1586 31.1704 80.0867 30.6724L80.095 30.6558H81.9211L81.9294 30.6724C82.0069 30.9823 82.2255 31.2368 82.5852 31.436C82.9449 31.6353 83.4263 31.7349 84.0295 31.7349C84.7711 31.7349 85.3494 31.5661 85.7644 31.2285C86.185 30.891 86.3953 30.4178 86.3953 29.8091V28.041H86.2541C86.0771 28.362 85.8502 28.6387 85.5735 28.8711C85.2968 29.098 84.9814 29.2695 84.6272 29.3857C84.273 29.502 83.8884 29.5601 83.4734 29.5601C82.7097 29.5601 82.0456 29.3774 81.4812 29.0122C80.9223 28.6414 80.4906 28.1323 80.1863 27.4849C79.8874 26.8319 79.738 26.082 79.738 25.2354V25.2188C79.738 24.361 79.8902 23.6029 80.1946 22.9443C80.4989 22.2803 80.9333 21.7629 81.4978 21.3921C82.0622 21.0158 82.7346 20.8276 83.5149 20.8276C83.9355 20.8276 84.3201 20.894 84.6687 21.0269C85.0229 21.1597 85.3355 21.3478 85.6067 21.5913C85.8778 21.8348 86.102 22.1253 86.279 22.4629H86.387V20.9854H88.1882V29.8174C88.1882 30.498 88.0167 31.0902 87.6736 31.5938C87.336 32.0973 86.8546 32.4875 86.2292 32.7642C85.6039 33.0409 84.8624 33.1792 84.0046 33.1792ZM83.9797 28.0659C84.4888 28.0659 84.926 27.9469 85.2913 27.709C85.6565 27.4655 85.9359 27.1307 86.1296 26.7046C86.3288 26.2785 86.4285 25.786 86.4285 25.2271V25.2104C86.4285 24.6571 86.3288 24.1646 86.1296 23.7329C85.9359 23.3013 85.6565 22.9637 85.2913 22.7202C84.926 22.4767 84.4888 22.355 83.9797 22.355C83.4706 22.355 83.0362 22.4767 82.6765 22.7202C82.3223 22.9637 82.0512 23.3013 81.863 23.7329C81.6749 24.159 81.5808 24.6515 81.5808 25.2104V25.2271C81.5808 25.786 81.6749 26.2785 81.863 26.7046C82.0512 27.1307 82.3223 27.4655 82.6765 27.709C83.0362 27.9469 83.4706 28.0659 83.9797 28.0659ZM95.9531 30V20.9854H97.7627V30H95.9531ZM96.8662 19.375C96.5563 19.375 96.2907 19.2643 96.0693 19.043C95.848 18.8216 95.7373 18.556 95.7373 18.2461C95.7373 17.9362 95.848 17.6733 96.0693 17.4575C96.2907 17.2362 96.5563 17.1255 96.8662 17.1255C97.1761 17.1255 97.4417 17.2362 97.6631 17.4575C97.8844 17.6733 97.9951 17.9362 97.9951 18.2461C97.9951 18.556 97.8844 18.8216 97.6631 19.043C97.4417 19.2643 97.1761 19.375 96.8662 19.375ZM100.632 30V20.9854H102.434V22.3467H102.575C102.796 21.8652 103.123 21.4889 103.554 21.2178C103.986 20.9466 104.531 20.811 105.19 20.811C106.202 20.811 106.977 21.1016 107.514 21.6826C108.051 22.2637 108.319 23.091 108.319 24.1646V30H106.509V24.5879C106.509 23.8353 106.352 23.2764 106.036 22.9111C105.726 22.5404 105.239 22.355 104.575 22.355C104.138 22.355 103.759 22.4518 103.438 22.6455C103.117 22.8337 102.868 23.1048 102.691 23.459C102.519 23.8076 102.434 24.2254 102.434 24.7124V30H100.632Z"
        fill="#1C1C1C" />
</svg>
