<svg width="30" height="31" viewBox="0 0 30 31" fill="none" xmlns="http://www.w3.org/2000/svg">
    <path
        d="M14.25 24.25C14.25 24.4489 14.171 24.6397 14.0303 24.7803C13.8897 24.921 13.6989 25 13.5 25H7.5C7.30109 25 7.11032 24.921 6.96967 24.7803C6.82902 24.6397 6.75 24.4489 6.75 24.25V7.75C6.75 7.55109 6.82902 7.36032 6.96967 7.21967C7.11032 7.07902 7.30109 7 7.5 7H13.5C13.6989 7 13.8897 7.07902 14.0303 7.21967C14.171 7.36032 14.25 7.55109 14.25 7.75C14.25 7.94891 14.171 8.13968 14.0303 8.28033C13.8897 8.42098 13.6989 8.5 13.5 8.5H8.25V23.5H13.5C13.6989 23.5 13.8897 23.579 14.0303 23.7197C14.171 23.8603 14.25 24.0511 14.25 24.25ZM24.5306 15.4694L20.7806 11.7194C20.6399 11.5786 20.449 11.4996 20.25 11.4996C20.051 11.4996 19.8601 11.5786 19.7194 11.7194C19.5786 11.8601 19.4996 12.051 19.4996 12.25C19.4996 12.449 19.5786 12.6399 19.7194 12.7806L22.1897 15.25H13.5C13.3011 15.25 13.1103 15.329 12.9697 15.4697C12.829 15.6103 12.75 15.8011 12.75 16C12.75 16.1989 12.829 16.3897 12.9697 16.5303C13.1103 16.671 13.3011 16.75 13.5 16.75H22.1897L19.7194 19.2194C19.5786 19.3601 19.4996 19.551 19.4996 19.75C19.4996 19.949 19.5786 20.1399 19.7194 20.2806C19.8601 20.4214 20.051 20.5004 20.25 20.5004C20.449 20.5004 20.6399 20.4214 20.7806 20.2806L24.5306 16.5306C24.6004 16.461 24.6557 16.3783 24.6934 16.2872C24.7312 16.1962 24.7506 16.0986 24.7506 16C24.7506 15.9014 24.7312 15.8038 24.6934 15.7128C24.6557 15.6217 24.6004 15.539 24.5306 15.4694Z"
        fill="#F44336" />
</svg>
