<svg width="16" height="16" viewBox="0 0 16 16" fill="none" xmlns="http://www.w3.org/2000/svg">
    <path
        d="M11.3538 6.64651C11.4002 6.69295 11.4371 6.74809 11.4623 6.80879C11.4874 6.86949 11.5004 6.93456 11.5004 7.00026C11.5004 7.06597 11.4874 7.13103 11.4623 7.19173C11.4371 7.25243 11.4002 7.30758 11.3538 7.35401L9.35375 9.35401C9.30731 9.4005 9.25217 9.43738 9.19147 9.46254C9.13077 9.48771 9.06571 9.50066 9 9.50066C8.93429 9.50066 8.86923 9.48771 8.80853 9.46254C8.74783 9.43738 8.69269 9.4005 8.64625 9.35401L7 7.70714L5.35375 9.35401C5.25993 9.44783 5.13268 9.50054 5 9.50054C4.86732 9.50054 4.74007 9.44783 4.64625 9.35401C4.55243 9.26019 4.49972 9.13295 4.49972 9.00026C4.49972 8.86758 4.55243 8.74033 4.64625 8.64651L6.64625 6.64651C6.69269 6.60003 6.74783 6.56315 6.80853 6.53798C6.86923 6.51282 6.93429 6.49987 7 6.49987C7.06571 6.49987 7.13077 6.51282 7.19147 6.53798C7.25217 6.56315 7.30731 6.60003 7.35375 6.64651L9 8.29339L10.6462 6.64651C10.6927 6.60003 10.7478 6.56315 10.8085 6.53798C10.8692 6.51282 10.9343 6.49987 11 6.49987C11.0657 6.49987 11.1308 6.51282 11.1915 6.53798C11.2522 6.56315 11.3073 6.60003 11.3538 6.64651ZM14.5 8.00026C14.5002 9.12247 14.2099 10.2256 13.6574 11.2024C13.1048 12.1791 12.3087 12.9961 11.3467 13.5739C10.3847 14.1517 9.28942 14.4706 8.16759 14.4995C7.04575 14.5285 5.93554 14.2665 4.945 13.739L2.81687 14.4484C2.64068 14.5071 2.4516 14.5157 2.27083 14.473C2.09006 14.4304 1.92474 14.3382 1.79341 14.2069C1.66207 14.0755 1.56991 13.9102 1.52725 13.7294C1.48459 13.5487 1.49312 13.3596 1.55187 13.1834L2.26125 11.0553C1.79759 10.1835 1.53862 9.21763 1.504 8.23087C1.46937 7.24411 1.66 6.26243 2.06142 5.36035C2.46283 4.45826 3.06448 3.65948 3.8207 3.02463C4.57691 2.38979 5.46782 1.93556 6.42579 1.69644C7.38376 1.45731 8.38362 1.43957 9.34948 1.64456C10.3153 1.84955 11.2218 2.27188 12.0001 2.8795C12.7783 3.48711 13.4079 4.26405 13.8411 5.15132C14.2743 6.0386 14.4996 7.0129 14.5 8.00026ZM13.5 8.00026C13.4998 7.15659 13.3054 6.32428 12.9321 5.56773C12.5587 4.81118 12.0163 4.15066 11.3468 3.63728C10.6773 3.12391 9.89863 2.77143 9.07111 2.60713C8.24359 2.44283 7.38936 2.4711 6.57452 2.68976C5.75968 2.90842 5.00606 3.31161 4.37197 3.86813C3.73788 4.42466 3.24032 5.11959 2.91779 5.89918C2.59525 6.67876 2.45639 7.5221 2.51193 8.36394C2.56748 9.20579 2.81595 10.0236 3.23812 10.754C3.27356 10.8153 3.29556 10.8835 3.30267 10.954C3.30978 11.0244 3.30184 11.0956 3.27937 11.1628L2.5 13.5003L4.8375 12.7203C4.90471 12.6979 4.97591 12.6901 5.04638 12.6973C5.11684 12.7045 5.18497 12.7266 5.24625 12.7621C6.08236 13.2457 7.03108 13.5006 7.99698 13.5012C8.96287 13.5017 9.91187 13.2478 10.7485 12.7652C11.5852 12.2825 12.2799 11.588 12.7629 10.7515C13.2459 9.91506 13.5002 8.96616 13.5 8.00026Z"
        fill="#6C63FF" />
</svg>
