<svg width="24" height="24" viewBox="0 0 24 24" fill="none" xmlns="http://www.w3.org/2000/svg">
    <path
        d="M20.9995 6.66601C20.823 6.75744 20.6174 6.77502 20.4278 6.7149C20.2383 6.65478 20.0805 6.52187 19.9889 6.34539C19.273 4.93116 18.1894 3.73586 16.852 2.88508C16.7687 2.83251 16.6965 2.76403 16.6396 2.68357C16.5827 2.60311 16.5423 2.51223 16.5205 2.41612C16.4987 2.32001 16.4961 2.22055 16.5128 2.12343C16.5294 2.02631 16.5651 1.93342 16.6177 1.85008C16.6702 1.76673 16.7387 1.69455 16.8192 1.63766C16.8996 1.58078 16.9905 1.5403 17.0866 1.51853C17.1827 1.49677 17.2822 1.49415 17.3793 1.51082C17.4764 1.52749 17.5693 1.56313 17.6527 1.6157C19.2113 2.6137 20.477 4.00779 21.3202 5.65539C21.4116 5.83194 21.4292 6.03756 21.369 6.22707C21.3089 6.41658 21.176 6.57446 20.9995 6.66601ZM3.34734 6.75039C3.48474 6.75033 3.61949 6.71253 3.73687 6.64111C3.85426 6.56969 3.94976 6.46739 4.01297 6.34539C4.72884 4.93116 5.81242 3.73586 7.14984 2.88508C7.31817 2.77891 7.43743 2.61022 7.48139 2.41612C7.52534 2.22202 7.49039 2.01841 7.38422 1.85008C7.27805 1.68175 7.10936 1.56249 6.91526 1.51853C6.72116 1.47458 6.51755 1.50953 6.34922 1.6157C4.79053 2.6137 3.52489 4.00779 2.68172 5.65539C2.6225 5.76969 2.5937 5.8973 2.59809 6.02596C2.60248 6.15461 2.63991 6.27997 2.70677 6.38997C2.77364 6.49996 2.86769 6.5909 2.97988 6.65402C3.09207 6.71715 3.21861 6.75033 3.34734 6.75039ZM20.7942 16.4948C20.9271 16.7226 20.9975 16.9815 20.9984 17.2452C20.9993 17.509 20.9307 17.7683 20.7994 17.9971C20.6681 18.2259 20.4788 18.4159 20.2506 18.5482C20.0223 18.6805 19.7633 18.7502 19.4995 18.7504H15.6745C15.5024 19.5981 15.0425 20.3602 14.3727 20.9077C13.703 21.4551 12.8645 21.7541 11.9995 21.7541C11.1345 21.7541 10.2961 21.4551 9.62634 20.9077C8.95658 20.3602 8.49667 19.5981 8.32453 18.7504H4.49953C4.23592 18.7499 3.97711 18.6799 3.74916 18.5475C3.52121 18.4151 3.33217 18.225 3.20109 17.9963C3.07001 17.7676 3.00151 17.5084 3.0025 17.2448C3.00349 16.9812 3.07393 16.7225 3.20672 16.4948C4.0514 15.037 4.49953 12.9641 4.49953 10.5004C4.49953 8.51126 5.28971 6.60361 6.69623 5.19709C8.10275 3.79056 10.0104 3.00039 11.9995 3.00039C13.9887 3.00039 15.8963 3.79056 17.3028 5.19709C18.7094 6.60361 19.4995 8.51126 19.4995 10.5004C19.4995 12.9632 19.9477 15.036 20.7942 16.4948ZM14.1202 18.7504H9.8789C10.0343 19.1886 10.3216 19.5679 10.7013 19.8361C11.0811 20.1044 11.5346 20.2484 11.9995 20.2484C12.4645 20.2484 12.918 20.1044 13.2977 19.8361C13.6775 19.5679 13.9648 19.1886 14.1202 18.7504ZM19.4995 17.2504C18.502 15.5376 17.9995 13.267 17.9995 10.5004C17.9995 8.90909 17.3674 7.38297 16.2422 6.25775C15.117 5.13253 13.5908 4.50039 11.9995 4.50039C10.4082 4.50039 8.88211 5.13253 7.75689 6.25775C6.63167 7.38297 5.99953 8.90909 5.99953 10.5004C5.99953 13.2679 5.49515 15.5385 4.49953 17.2504H19.4995Z"
        fill="#1C1C1C" fill-opacity="0.6" />
</svg>
