<svg width="25" height="24" viewBox="0 0 25 24" fill="none" xmlns="http://www.w3.org/2000/svg">
    <path
        d="M21.1938 16.4944C20.6735 15.5981 19.9 13.0622 19.9 9.75C19.9 7.76088 19.1099 5.85322 17.7033 4.4467C16.2968 3.04018 14.3892 2.25 12.4 2.25C10.4109 2.25 8.50326 3.04018 7.09674 4.4467C5.69021 5.85322 4.90004 7.76088 4.90004 9.75C4.90004 13.0631 4.12566 15.5981 3.60535 16.4944C3.47248 16.7222 3.40204 16.9811 3.40113 17.2449C3.40023 17.5086 3.46889 17.768 3.60019 17.9967C3.7315 18.2255 3.9208 18.4156 4.14901 18.5478C4.37722 18.6801 4.63627 18.7498 4.90004 18.75H8.72597C8.89901 19.5967 9.35918 20.3577 10.0287 20.9042C10.6981 21.4507 11.5358 21.7492 12.4 21.7492C13.2642 21.7492 14.1019 21.4507 14.7714 20.9042C15.4409 20.3577 15.9011 19.5967 16.0741 18.75H19.9C20.1637 18.7496 20.4227 18.6798 20.6507 18.5475C20.8788 18.4151 21.068 18.225 21.1992 17.9963C21.3304 17.7676 21.3989 17.5083 21.398 17.2446C21.3971 16.9809 21.3266 16.7222 21.1938 16.4944ZM12.4 20.25C11.9349 20.2499 11.4812 20.1055 11.1014 19.8369C10.7216 19.5683 10.4345 19.1886 10.2794 18.75H14.5207C14.3656 19.1886 14.0784 19.5683 13.6987 19.8369C13.3189 20.1055 12.8652 20.2499 12.4 20.25ZM4.90004 17.25C5.62191 16.0087 6.40004 13.1325 6.40004 9.75C6.40004 8.1587 7.03218 6.63258 8.1574 5.50736C9.28261 4.38214 10.8087 3.75 12.4 3.75C13.9913 3.75 15.5175 4.38214 16.6427 5.50736C17.7679 6.63258 18.4 8.1587 18.4 9.75C18.4 13.1297 19.1763 16.0059 19.9 17.25H4.90004Z"
        fill="#1C1C1C" />
</svg>
