<svg width="25" height="24" viewBox="0 0 25 24" fill="none" xmlns="http://www.w3.org/2000/svg">
    <path
        d="M22.4488 19.8751C21.021 17.4067 18.8207 15.6367 16.2529 14.7976C17.523 14.0415 18.5098 12.8893 19.0618 11.518C19.6138 10.1468 19.7003 8.63224 19.3082 7.20701C18.9161 5.78178 18.067 4.52467 16.8913 3.62873C15.7155 2.73279 14.2782 2.24756 12.8 2.24756C11.3219 2.24756 9.88454 2.73279 8.70882 3.62873C7.53309 4.52467 6.68398 5.78178 6.29186 7.20701C5.89975 8.63224 5.98632 10.1468 6.53828 11.518C7.09024 12.8893 8.07708 14.0415 9.34723 14.7976C6.77942 15.6357 4.57911 17.4057 3.15129 19.8751C3.09893 19.9605 3.0642 20.0555 3.04915 20.1545C3.0341 20.2535 3.03903 20.3545 3.06366 20.4516C3.08829 20.5487 3.13211 20.6399 3.19254 20.7197C3.25296 20.7996 3.32878 20.8666 3.4155 20.9167C3.50223 20.9667 3.59811 20.999 3.69749 21.0114C3.79687 21.0238 3.89773 21.0163 3.99413 20.9891C4.09052 20.9619 4.1805 20.9157 4.25875 20.8532C4.337 20.7907 4.40194 20.7131 4.44973 20.6251C6.21598 17.5726 9.33786 15.7501 12.8 15.7501C16.2622 15.7501 19.3841 17.5726 21.1504 20.6251C21.1981 20.7131 21.2631 20.7907 21.3413 20.8532C21.4196 20.9157 21.5096 20.9619 21.606 20.9891C21.7024 21.0163 21.8032 21.0238 21.9026 21.0114C22.002 20.999 22.0979 20.9667 22.1846 20.9167C22.2713 20.8666 22.3471 20.7996 22.4076 20.7197C22.468 20.6399 22.5118 20.5487 22.5364 20.4516C22.5611 20.3545 22.566 20.2535 22.5509 20.1545C22.5359 20.0555 22.5012 19.9605 22.4488 19.8751ZM7.55004 9.00011C7.55004 7.96176 7.85795 6.94672 8.43483 6.08337C9.0117 5.22001 9.83164 4.5471 10.791 4.14974C11.7503 3.75238 12.8059 3.64841 13.8243 3.85099C14.8427 4.05356 15.7781 4.55357 16.5124 5.2878C17.2466 6.02202 17.7466 6.95748 17.9492 7.97589C18.1517 8.99429 18.0478 10.0499 17.6504 11.0092C17.2531 11.9685 16.5801 12.7884 15.7168 13.3653C14.8534 13.9422 13.8384 14.2501 12.8 14.2501C11.4081 14.2486 10.0736 13.695 9.08938 12.7108C8.10513 11.7265 7.55153 10.392 7.55004 9.00011Z"
        fill="#1C1C1C" />
</svg>
