<svg width="169" height="48" viewBox="0 0 169 48" fill="none" xmlns="http://www.w3.org/2000/svg">
    <rect x="0.5" width="168.5" height="48" rx="4" fill="#1C1C1C"/>
    <path d="M50.7524 30V18.022H55.4756C56.2946 18.022 57.0029 18.1742 57.6006 18.4785C58.1982 18.7773 58.6576 19.2007 58.9785 19.7485C59.305 20.2909 59.4683 20.9328 59.4683 21.6743V21.6909C59.4683 22.4989 59.2635 23.21 58.854 23.8242C58.4445 24.4329 57.8745 24.8618 57.144 25.1108L59.8252 30H57.6753L55.2349 25.3931C55.2183 25.3931 55.2017 25.3931 55.1851 25.3931C55.1685 25.3931 55.1519 25.3931 55.1353 25.3931H52.6118V30H50.7524ZM52.6118 23.8823H55.293C56.0068 23.8823 56.5602 23.6969 56.9531 23.3262C57.346 22.9499 57.5425 22.4214 57.5425 21.7407V21.7241C57.5425 21.0601 57.3377 20.5371 56.9282 20.1553C56.5243 19.7734 55.9598 19.5825 55.2349 19.5825H52.6118V23.8823ZM65.6915 30.1743C64.8116 30.1743 64.0563 29.9862 63.4254 29.6099C62.7946 29.228 62.3076 28.6885 61.9645 27.9912C61.6269 27.2939 61.4581 26.4694 61.4581 25.5176V25.5093C61.4581 24.5685 61.6269 23.7467 61.9645 23.0439C62.3076 22.3411 62.789 21.7933 63.4088 21.4004C64.0341 21.0075 64.7646 20.811 65.6002 20.811C66.4414 20.811 67.1635 20.9992 67.7667 21.3755C68.3754 21.7518 68.8431 22.2803 69.1696 22.9609C69.496 23.6361 69.6593 24.4274 69.6593 25.335V25.9658H62.3712V24.6792H68.7628L67.8995 25.8745V25.1523C67.8995 24.5104 67.7999 23.9792 67.6007 23.5586C67.407 23.1325 67.1386 22.8143 66.7955 22.604C66.4524 22.3937 66.0568 22.2886 65.6085 22.2886C65.1603 22.2886 64.7591 22.3993 64.4049 22.6206C64.0563 22.8364 63.7796 23.1574 63.5748 23.5835C63.3756 24.0096 63.276 24.5326 63.276 25.1523V25.8745C63.276 26.4666 63.3756 26.973 63.5748 27.3936C63.774 27.8141 64.0563 28.1351 64.4215 28.3564C64.7923 28.5778 65.2294 28.6885 65.733 28.6885C66.1204 28.6885 66.4524 28.6359 66.7291 28.5308C67.0113 28.4201 67.241 28.2845 67.4181 28.124C67.6007 27.9635 67.7252 27.8058 67.7916 27.6509L67.8248 27.5845H69.568L69.5514 27.6592C69.4739 27.958 69.3383 28.2568 69.1446 28.5557C68.951 28.849 68.6936 29.1174 68.3727 29.3608C68.0572 29.6043 67.6754 29.8008 67.2272 29.9502C66.7845 30.0996 66.2726 30.1743 65.6915 30.1743ZM75.866 33.1792C75.1023 33.1792 74.4382 33.0741 73.8738 32.8638C73.3149 32.6535 72.8721 32.3602 72.5456 31.9839C72.2191 31.6076 72.0199 31.1704 71.948 30.6724L71.9563 30.6558H73.7825L73.7908 30.6724C73.8682 30.9823 74.0868 31.2368 74.4465 31.436C74.8062 31.6353 75.2877 31.7349 75.8909 31.7349C76.6324 31.7349 77.2107 31.5661 77.6257 31.2285C78.0463 30.891 78.2566 30.4178 78.2566 29.8091V28.041H78.1155C77.9384 28.362 77.7115 28.6387 77.4348 28.8711C77.1581 29.098 76.8427 29.2695 76.4885 29.3857C76.1343 29.502 75.7497 29.5601 75.3347 29.5601C74.571 29.5601 73.907 29.3774 73.3425 29.0122C72.7836 28.6414 72.352 28.1323 72.0476 27.4849C71.7488 26.8319 71.5994 26.082 71.5994 25.2354V25.2188C71.5994 24.361 71.7515 23.6029 72.0559 22.9443C72.3603 22.2803 72.7947 21.7629 73.3591 21.3921C73.9236 21.0158 74.5959 20.8276 75.3762 20.8276C75.7968 20.8276 76.1814 20.894 76.53 21.0269C76.8842 21.1597 77.1968 21.3478 77.468 21.5913C77.7392 21.8348 77.9633 22.1253 78.1404 22.4629H78.2483V20.9854H80.0496V29.8174C80.0496 30.498 79.878 31.0902 79.5349 31.5938C79.1973 32.0973 78.7159 32.4875 78.0906 32.7642C77.4652 33.0409 76.7237 33.1792 75.866 33.1792ZM75.8411 28.0659C76.3502 28.0659 76.7873 27.9469 77.1526 27.709C77.5178 27.4655 77.7973 27.1307 77.991 26.7046C78.1902 26.2785 78.2898 25.786 78.2898 25.2271V25.2104C78.2898 24.6571 78.1902 24.1646 77.991 23.7329C77.7973 23.3013 77.5178 22.9637 77.1526 22.7202C76.7873 22.4767 76.3502 22.355 75.8411 22.355C75.3319 22.355 74.8975 22.4767 74.5378 22.7202C74.1837 22.9637 73.9125 23.3013 73.7244 23.7329C73.5362 24.159 73.4421 24.6515 73.4421 25.2104V25.2271C73.4421 25.786 73.5362 26.2785 73.7244 26.7046C73.9125 27.1307 74.1837 27.4655 74.5378 27.709C74.8975 27.9469 75.3319 28.0659 75.8411 28.0659ZM82.9276 30V20.9854H84.7372V30H82.9276ZM83.8407 19.375C83.5308 19.375 83.2652 19.2643 83.0438 19.043C82.8225 18.8216 82.7118 18.556 82.7118 18.2461C82.7118 17.9362 82.8225 17.6733 83.0438 17.4575C83.2652 17.2362 83.5308 17.1255 83.8407 17.1255C84.1506 17.1255 84.4162 17.2362 84.6376 17.4575C84.8589 17.6733 84.9696 17.9362 84.9696 18.2461C84.9696 18.556 84.8589 18.8216 84.6376 19.043C84.4162 19.2643 84.1506 19.375 83.8407 19.375ZM90.8857 30.1743C90.1608 30.1743 89.5299 30.0692 88.9931 29.8589C88.4564 29.6431 88.0303 29.347 87.7148 28.9707C87.3994 28.5889 87.214 28.1462 87.1587 27.6426V27.626H88.9682V27.6426C89.0845 27.9801 89.3058 28.2541 89.6323 28.4644C89.9588 28.6746 90.3904 28.7798 90.9272 28.7798C91.298 28.7798 91.6217 28.7272 91.8984 28.6221C92.1806 28.5169 92.402 28.3703 92.5625 28.1821C92.723 27.994 92.8032 27.7782 92.8032 27.5347V27.5181C92.8032 27.2358 92.6898 26.9979 92.4629 26.8042C92.236 26.6105 91.8624 26.4528 91.3423 26.3311L89.8979 25.999C89.3335 25.8717 88.8659 25.6974 88.4951 25.4761C88.1243 25.2547 87.8504 24.9836 87.6733 24.6626C87.4962 24.3361 87.4077 23.9543 87.4077 23.5171V23.5088C87.4077 22.9831 87.5571 22.5182 87.8559 22.1143C88.1548 21.7048 88.567 21.3866 89.0928 21.1597C89.624 20.9272 90.23 20.811 90.9106 20.811C91.5968 20.811 92.1945 20.9189 92.7036 21.1348C93.2182 21.3451 93.625 21.6383 93.9238 22.0146C94.2226 22.3854 94.3997 22.8171 94.4551 23.3096V23.3179H92.7285V23.3013C92.6455 22.9858 92.4463 22.723 92.1308 22.5127C91.8209 22.3024 91.4114 22.1973 90.9023 22.1973C90.5758 22.1973 90.2853 22.2498 90.0307 22.355C89.7762 22.4546 89.5742 22.5957 89.4248 22.7783C89.2809 22.9554 89.209 23.1657 89.209 23.4092V23.4258C89.209 23.6139 89.256 23.7799 89.3501 23.9238C89.4497 24.0622 89.6046 24.1867 89.8149 24.2974C90.0252 24.4025 90.2964 24.4966 90.6284 24.5796L92.0644 24.9033C92.9277 25.1081 93.5696 25.4041 93.9902 25.7915C94.4163 26.1789 94.6294 26.6991 94.6294 27.3521V27.3687C94.6294 27.922 94.4661 28.4118 94.1396 28.8379C93.8131 29.2585 93.3677 29.5877 92.8032 29.8257C92.2443 30.0581 91.6051 30.1743 90.8857 30.1743ZM100.363 30.0581C99.3779 30.0581 98.664 29.87 98.2213 29.4937C97.7841 29.1118 97.5655 28.4893 97.5655 27.626V22.4048H96.1544V20.9854H97.5655V18.7109H99.4083V20.9854H101.342V22.4048H99.4083V27.186C99.4083 27.673 99.5051 28.0244 99.6988 28.2402C99.8925 28.4505 100.213 28.5557 100.662 28.5557C100.795 28.5557 100.908 28.5529 101.002 28.5474C101.102 28.5418 101.215 28.5335 101.342 28.5225V29.9668C101.199 29.9889 101.044 30.0083 100.878 30.0249C100.712 30.047 100.54 30.0581 100.363 30.0581ZM107.391 30.1743C106.511 30.1743 105.756 29.9862 105.125 29.6099C104.494 29.228 104.007 28.6885 103.664 27.9912C103.327 27.2939 103.158 26.4694 103.158 25.5176V25.5093C103.158 24.5685 103.327 23.7467 103.664 23.0439C104.007 22.3411 104.489 21.7933 105.109 21.4004C105.734 21.0075 106.464 20.811 107.3 20.811C108.141 20.811 108.863 20.9992 109.467 21.3755C110.075 21.7518 110.543 22.2803 110.869 22.9609C111.196 23.6361 111.359 24.4274 111.359 25.335V25.9658H104.071V24.6792H110.463L109.599 25.8745V25.1523C109.599 24.5104 109.5 23.9792 109.301 23.5586C109.107 23.1325 108.838 22.8143 108.495 22.604C108.152 22.3937 107.757 22.2886 107.308 22.2886C106.86 22.2886 106.459 22.3993 106.105 22.6206C105.756 22.8364 105.479 23.1574 105.275 23.5835C105.075 24.0096 104.976 24.5326 104.976 25.1523V25.8745C104.976 26.4666 105.075 26.973 105.275 27.3936C105.474 27.8141 105.756 28.1351 106.121 28.3564C106.492 28.5778 106.929 28.6885 107.433 28.6885C107.82 28.6885 108.152 28.6359 108.429 28.5308C108.711 28.4201 108.941 28.2845 109.118 28.124C109.301 27.9635 109.425 27.8058 109.491 27.6509L109.525 27.5845H111.268L111.251 27.6592C111.174 27.958 111.038 28.2568 110.844 28.5557C110.651 28.849 110.393 29.1174 110.072 29.3608C109.757 29.6043 109.375 29.8008 108.927 29.9502C108.484 30.0996 107.972 30.1743 107.391 30.1743ZM113.756 30V20.9854H115.557V22.3467H115.698C115.859 21.8652 116.141 21.4917 116.545 21.2261C116.954 20.9604 117.458 20.8276 118.056 20.8276C118.205 20.8276 118.352 20.8359 118.495 20.8525C118.639 20.8691 118.756 20.8885 118.844 20.9106V22.5708C118.684 22.5376 118.523 22.5127 118.363 22.4961C118.208 22.4795 118.044 22.4712 117.873 22.4712C117.414 22.4712 117.01 22.5597 116.661 22.7368C116.318 22.9139 116.047 23.1629 115.847 23.4839C115.654 23.7993 115.557 24.1756 115.557 24.6128V30H113.756Z" fill="white"/>
</svg>
