<svg width="30" height="31" viewBox="0 0 30 31" fill="none" xmlns="http://www.w3.org/2000/svg">
    <path
        d="M24.75 15.25H23.2153C23.131 14.3125 22.8855 13.3965 22.4897 12.5425L23.8191 11.7747C23.9914 11.6752 24.1171 11.5114 24.1686 11.3192C24.2201 11.1271 24.1932 10.9223 24.0938 10.75C23.9943 10.5777 23.8305 10.452 23.6383 10.4004C23.4461 10.3489 23.2414 10.3759 23.0691 10.4753L21.7378 11.2441C21.194 10.4762 20.5238 9.80603 19.7559 9.26219L20.5247 7.93094C20.6241 7.75863 20.6511 7.55387 20.5996 7.3617C20.548 7.16954 20.4223 7.00571 20.25 6.90625C20.0777 6.80679 19.8729 6.77986 19.6808 6.83137C19.4886 6.88289 19.3248 7.00863 19.2253 7.18094L18.4575 8.51031C17.6035 8.11449 16.6875 7.86901 15.75 7.78469V6.25C15.75 6.05109 15.671 5.86032 15.5303 5.71967C15.3897 5.57902 15.1989 5.5 15 5.5C14.8011 5.5 14.6103 5.57902 14.4697 5.71967C14.329 5.86032 14.25 6.05109 14.25 6.25V7.78469C13.3125 7.86901 12.3965 8.11449 11.5425 8.51031L10.7747 7.18094C10.7254 7.09562 10.6599 7.02084 10.5817 6.96086C10.5036 6.90088 10.4144 6.85688 10.3192 6.83137C10.2241 6.80587 10.1248 6.79935 10.0272 6.8122C9.9295 6.82505 9.83532 6.857 9.75 6.90625C9.57769 7.00571 9.45195 7.16954 9.40044 7.3617C9.34892 7.55387 9.37586 7.75863 9.47531 7.93094L10.2441 9.26219C9.47616 9.80603 8.80603 10.4762 8.26219 11.2441L6.93094 10.4753C6.75863 10.3759 6.55387 10.3489 6.3617 10.4004C6.16954 10.452 6.00571 10.5777 5.90625 10.75C5.80679 10.9223 5.77986 11.1271 5.83137 11.3192C5.88289 11.5114 6.00863 11.6752 6.18094 11.7747L7.51031 12.5425C7.11449 13.3965 6.86901 14.3125 6.78469 15.25H5.25C5.05109 15.25 4.86032 15.329 4.71967 15.4697C4.57902 15.6103 4.5 15.8011 4.5 16C4.5 16.1989 4.57902 16.3897 4.71967 16.5303C4.86032 16.671 5.05109 16.75 5.25 16.75H6.78469C6.86901 17.6875 7.11449 18.6035 7.51031 19.4575L6.18094 20.2253C6.03787 20.3078 5.92604 20.4353 5.8628 20.5878C5.79957 20.7404 5.78846 20.9096 5.8312 21.0691C5.87394 21.2286 5.96814 21.3696 6.09918 21.4701C6.23023 21.5706 6.39078 21.6251 6.55594 21.625C6.68762 21.6254 6.81704 21.5908 6.93094 21.5247L8.26219 20.7559C8.80603 21.5238 9.47616 22.194 10.2441 22.7378L9.47531 24.0691C9.37586 24.2414 9.34892 24.4461 9.40044 24.6383C9.45195 24.8305 9.57769 24.9943 9.75 25.0938C9.92231 25.1932 10.1271 25.2201 10.3192 25.1686C10.5114 25.1171 10.6752 24.9914 10.7747 24.8191L11.5425 23.4897C12.3965 23.8855 13.3125 24.131 14.25 24.2153V25.75C14.25 25.9489 14.329 26.1397 14.4697 26.2803C14.6103 26.421 14.8011 26.5 15 26.5C15.1989 26.5 15.3897 26.421 15.5303 26.2803C15.671 26.1397 15.75 25.9489 15.75 25.75V24.2153C16.6875 24.131 17.6035 23.8855 18.4575 23.4897L19.2253 24.8191C19.3248 24.9914 19.4886 25.1171 19.6808 25.1686C19.8729 25.2201 20.0777 25.1932 20.25 25.0938C20.4223 24.9943 20.548 24.8305 20.5996 24.6383C20.6511 24.4461 20.6241 24.2414 20.5247 24.0691L19.7559 22.7378C20.5238 22.194 21.194 21.5238 21.7378 20.7559L23.0691 21.5247C23.1544 21.574 23.2486 21.6059 23.3462 21.6188C23.4439 21.6316 23.5432 21.6251 23.6383 21.5996C23.7335 21.5741 23.8227 21.5301 23.9008 21.4701C23.979 21.4101 24.0445 21.3353 24.0938 21.25C24.1933 21.0778 24.2204 20.8731 24.1691 20.681C24.1177 20.4888 23.9922 20.3249 23.82 20.2253L22.4906 19.4575C22.8861 18.6034 23.1313 17.6875 23.2153 16.75H24.75C24.9489 16.75 25.1397 16.671 25.2803 16.5303C25.421 16.3897 25.5 16.1989 25.5 16C25.5 15.8011 25.421 15.6103 25.2803 15.4697C25.1397 15.329 24.9489 15.25 24.75 15.25ZM15 9.25C16.6597 9.25197 18.2605 9.86464 19.4975 10.9712C20.7344 12.0778 21.5208 13.6008 21.7069 15.25H15.4331L12.2963 9.81719C13.1484 9.44265 14.0692 9.2495 15 9.25ZM8.25 16C8.25057 14.9426 8.49953 13.9002 8.97682 12.9567C9.45411 12.0132 10.1464 11.195 10.9978 10.5681L14.1337 16L10.9978 21.4319C10.1464 20.805 9.45411 19.9868 8.97682 19.0433C8.49953 18.0998 8.25057 17.0574 8.25 16ZM15 22.75C14.0695 22.752 13.1488 22.5604 12.2963 22.1875L15.4331 16.75H21.7069C21.5208 18.3992 20.7344 19.9222 19.4975 21.0288C18.2605 22.1354 16.6597 22.748 15 22.75Z"
        fill="#6C63FF" />
</svg>
