<svg width="140" height="148" viewBox="0 0 140 148" fill="none" xmlns="http://www.w3.org/2000/svg">
    <path
        d="M70.2134 147.999C67.9203 147.992 65.6371 147.697 63.4174 147.121L62.9785 147L62.5726 146.797C47.9005 139.44 35.522 129.723 25.7817 117.916C17.7187 108.084 11.4323 96.9219 7.20529 84.9301C2.15053 70.573 -0.281318 55.4239 0.0258573 40.2061C0.0318919 39.8868 0.0373756 39.64 0.0373756 39.4699C0.0373756 32.0727 4.14359 25.5817 10.4985 22.9337C15.3623 20.9072 59.5213 2.76903 62.7119 1.45844C68.7206 -1.55224 75.131 0.960867 76.1568 1.40029C78.4576 2.34113 119.28 19.0381 128.102 23.2387C137.194 27.5682 139.619 35.3456 139.619 39.2576C139.619 56.9727 136.551 73.5293 130.5 88.4663C125.613 100.557 118.687 111.72 110.023 121.467C93.3075 140.278 76.5869 146.947 76.4256 147.006C74.4273 147.693 72.3248 148.029 70.2117 147.998L70.2134 147.999ZM66.2811 138.259C67.7304 138.584 71.0681 139.072 73.2432 138.279C76.0065 137.271 90.0011 130.014 103.079 115.297C121.148 94.9612 130.314 69.4017 130.329 39.3234C130.297 38.7139 129.864 34.368 124.109 31.6272C115.458 27.5078 73.0266 10.1575 72.5992 9.98303L72.4818 9.9331C71.5925 9.56061 68.7629 8.77558 66.8121 9.7976L66.4215 9.97974C65.9486 10.1739 19.073 29.4268 14.0737 31.5098C10.5764 32.9669 9.33054 36.5766 9.33054 39.4693C9.33054 39.6806 9.32505 39.9883 9.31737 40.3855C8.91745 60.9665 13.6798 111.609 66.2811 138.259V138.259Z"
        fill="#3F3D56" />
    <path
        d="M64.5431 5.55587C64.5431 5.55587 17.2418 24.9837 12.1733 27.0958C7.10489 29.2079 4.57149 34.2752 4.57149 39.3437C4.57149 44.4121 0.770292 110.543 64.5431 142.517C64.5431 142.517 70.3313 144.118 74.7223 142.517C79.1132 140.916 134.862 113.883 134.862 39.1319C134.862 39.1319 134.862 31.5301 125.993 27.3065C117.124 23.0829 74.2433 5.55641 74.2433 5.55641C74.2433 5.55641 68.9779 3.23203 64.5431 5.55587Z"
        fill="#6C63FF" />
    <path opacity="0.1"
        d="M69.7245 20.8862V124.523C69.7245 124.523 22.0008 101.551 22.4232 41.1567L69.7245 20.8862Z"
        fill="#1C1C1C" />
    <path
        d="M63.5727 98.8978C62.0954 98.9004 60.6573 98.4227 59.4752 97.5367L59.4017 97.4818L43.9703 85.6673C43.2322 85.1285 42.6093 84.4475 42.1381 83.6645C41.6669 82.8815 41.357 82.0121 41.2265 81.1076C41.0961 80.2031 41.1478 79.2816 41.3785 78.3973C41.6093 77.5131 42.0144 76.6839 42.5702 75.9584C43.126 75.233 43.8212 74.6259 44.6149 74.173C45.4087 73.72 46.2849 73.4303 47.1922 73.3208C48.0995 73.2113 49.0195 73.2843 49.8982 73.5354C50.7769 73.7866 51.5965 74.2108 52.3089 74.7832L62.3043 82.4476L85.9245 51.6436C87.0312 50.2011 88.6653 49.2572 90.4678 49.0192C92.2702 48.7813 94.0934 49.2688 95.5364 50.3747L95.3894 50.5744L95.5402 50.378C96.9813 51.4856 97.9243 53.1196 98.1622 54.9216C98.4 56.7235 97.9135 58.5463 96.8092 59.9899L69.0262 96.2228C68.3837 97.0578 67.5575 97.7335 66.6116 98.1975C65.6657 98.6615 64.6256 98.9013 63.5721 98.8983L63.5727 98.8978Z"
        fill="white" />
</svg>
