<svg width="30" height="31" viewBox="0 0 30 31" fill="none" xmlns="http://www.w3.org/2000/svg">
    <path
        d="M21.9272 9.12437C21.03 8.21817 19.9629 7.49783 18.7869 7.0046C17.611 6.51137 16.3493 6.25494 15.0741 6.25H15C12.4141 6.25 9.93419 7.27723 8.10571 9.10571C6.27723 10.9342 5.25 13.4141 5.25 16V21.25C5.25 21.8467 5.48705 22.419 5.90901 22.841C6.33097 23.2629 6.90326 23.5 7.5 23.5H9C9.59674 23.5 10.169 23.2629 10.591 22.841C11.0129 22.419 11.25 21.8467 11.25 21.25V17.5C11.25 16.9033 11.0129 16.331 10.591 15.909C10.169 15.4871 9.59674 15.25 9 15.25H6.78375C6.92839 13.6862 7.51578 12.196 8.47709 10.9541C9.43839 9.71219 10.7338 8.77003 12.2114 8.23803C13.689 7.70603 15.2877 7.60624 16.82 7.95035C18.3524 8.29446 19.7548 9.06822 20.8631 10.1809C22.2177 11.5425 23.0509 13.3366 23.2172 15.25H21C20.4033 15.25 19.831 15.4871 19.409 15.909C18.9871 16.331 18.75 16.9033 18.75 17.5V21.25C18.75 21.8467 18.9871 22.419 19.409 22.841C19.831 23.2629 20.4033 23.5 21 23.5H23.25C23.25 24.0967 23.0129 24.669 22.591 25.091C22.169 25.5129 21.5967 25.75 21 25.75H15.75C15.5511 25.75 15.3603 25.829 15.2197 25.9697C15.079 26.1103 15 26.3011 15 26.5C15 26.6989 15.079 26.8897 15.2197 27.0303C15.3603 27.171 15.5511 27.25 15.75 27.25H21C21.9946 27.25 22.9484 26.8549 23.6517 26.1516C24.3549 25.4484 24.75 24.4946 24.75 23.5V16C24.7549 14.7246 24.5081 13.4608 24.0237 12.2809C23.5393 11.1011 22.8268 10.0284 21.9272 9.12437ZM9 16.75C9.19891 16.75 9.38968 16.829 9.53033 16.9697C9.67098 17.1103 9.75 17.3011 9.75 17.5V21.25C9.75 21.4489 9.67098 21.6397 9.53033 21.7803C9.38968 21.921 9.19891 22 9 22H7.5C7.30109 22 7.11032 21.921 6.96967 21.7803C6.82902 21.6397 6.75 21.4489 6.75 21.25V16.75H9ZM21 22C20.8011 22 20.6103 21.921 20.4697 21.7803C20.329 21.6397 20.25 21.4489 20.25 21.25V17.5C20.25 17.3011 20.329 17.1103 20.4697 16.9697C20.6103 16.829 20.8011 16.75 21 16.75H23.25V22H21Z"
        fill="#33A737" />
</svg>
