<svg width="24" height="24" viewBox="0 0 24 24" fill="none" xmlns="http://www.w3.org/2000/svg">
    <path
        d="M23.781 12.531L21.531 14.781C21.4614 14.8507 21.3787 14.906 21.2876 14.9438C21.1966 14.9815 21.099 15.001 21.0004 15.001C20.9019 15.001 20.8043 14.9815 20.7132 14.9438C20.6222 14.906 20.5394 14.8507 20.4698 14.781L18.2198 12.531C18.0791 12.3903 18 12.1994 18 12.0004C18 11.8013 18.0791 11.6105 18.2198 11.4697C18.3605 11.329 18.5514 11.25 18.7504 11.25C18.9494 11.25 19.1403 11.329 19.281 11.4697L20.2504 12.4401V12.0004C20.2513 10.2535 19.6976 8.55137 18.6691 7.13929C17.6407 5.72721 16.1905 4.67804 14.5276 4.14291C12.8647 3.60778 11.0748 3.61433 9.41586 4.1616C7.75689 4.70887 6.31446 5.76862 5.29635 7.18818C5.18024 7.3498 5.00468 7.45867 4.80829 7.49084C4.61191 7.52301 4.41078 7.47586 4.24917 7.35974C4.08755 7.24363 3.97868 7.06807 3.94651 6.87168C3.91433 6.67529 3.96149 6.47417 4.0776 6.31255C5.28087 4.63492 6.98562 3.38253 8.94625 2.73582C10.9069 2.08911 13.0222 2.08145 14.9875 2.71395C16.9527 3.34645 18.6665 4.58646 19.8819 6.25534C21.0973 7.92422 21.7515 9.93583 21.7504 12.0004V12.4401L22.7198 11.4697C22.8605 11.329 23.0514 11.25 23.2504 11.25C23.4494 11.25 23.6403 11.329 23.781 11.4697C23.9218 11.6105 24.0008 11.8013 24.0008 12.0004C24.0008 12.1994 23.9218 12.3903 23.781 12.531ZM19.9204 17.6872C18.7168 19.3636 17.0123 20.6148 15.0523 21.2608C13.0923 21.9068 10.9779 21.9142 9.01338 21.2819C7.04891 20.6497 5.3357 19.4104 4.12039 17.7425C2.90507 16.0746 2.25033 14.0641 2.25042 12.0004V11.5607L1.28104 12.531C1.14031 12.6717 0.94944 12.7508 0.750417 12.7508C0.551394 12.7508 0.360523 12.6717 0.219792 12.531C0.0790616 12.3903 0 12.1994 0 12.0004C0 11.8013 0.0790616 11.6105 0.219792 11.4697L2.46979 9.21974C2.53945 9.15001 2.62216 9.09469 2.71321 9.05695C2.80426 9.0192 2.90186 8.99978 3.00042 8.99978C3.09898 8.99978 3.19657 9.0192 3.28762 9.05695C3.37867 9.09469 3.46139 9.15001 3.53104 9.21974L5.78104 11.4697C5.92177 11.6105 6.00083 11.8013 6.00083 12.0004C6.00083 12.1994 5.92177 12.3903 5.78104 12.531C5.64031 12.6717 5.44944 12.7508 5.25042 12.7508C5.05139 12.7508 4.86052 12.6717 4.71979 12.531L3.75042 11.5607V12.0004C3.74864 14.0199 4.4909 15.9694 5.83542 17.4763C6.67188 16.2642 7.84806 15.3264 9.21604 14.781C8.48122 14.2022 7.94501 13.4089 7.68198 12.5112C7.41896 11.6136 7.4422 10.6563 7.74847 9.77244C8.05473 8.88862 8.62881 8.1222 9.39085 7.57976C10.1529 7.03733 11.065 6.74585 12.0004 6.74585C12.9358 6.74585 13.8479 7.03733 14.61 7.57976C15.372 8.1222 15.9461 8.88862 16.2524 9.77244C16.5586 10.6563 16.5819 11.6136 16.3188 12.5112C16.0558 13.4089 15.5196 14.2022 14.7848 14.781C16.154 15.3265 17.331 16.2654 18.1673 17.4791C18.3569 17.2662 18.5356 17.0437 18.7026 16.8126C18.8187 16.6509 18.9943 16.5421 19.1907 16.5099C19.3871 16.4777 19.5882 16.5249 19.7498 16.641C19.9114 16.7571 20.0203 16.9327 20.0525 17.1291C20.0846 17.3254 20.0375 17.5266 19.9214 17.6882L19.9204 17.6872ZM12.0004 14.2504C12.5938 14.2504 13.1738 14.0744 13.6671 13.7448C14.1605 13.4151 14.545 12.9466 14.7721 12.3984C14.9991 11.8502 15.0585 11.247 14.9428 10.6651C14.827 10.0832 14.5413 9.5486 14.1217 9.12905C13.7022 8.70949 13.1676 8.42377 12.5857 8.30801C12.0037 8.19226 11.4005 8.25167 10.8524 8.47873C10.3042 8.70579 9.83565 9.09031 9.50601 9.58366C9.17636 10.077 9.00042 10.657 9.00042 11.2504C9.00042 12.046 9.31649 12.8091 9.8791 13.3717C10.4417 13.9343 11.2048 14.2504 12.0004 14.2504ZM12.0004 20.2504C13.8308 20.248 15.6087 19.6383 17.0554 18.5169C16.5129 17.6684 15.7654 16.9701 14.882 16.4864C13.9986 16.0026 13.0076 15.7491 12.0004 15.7491C10.9932 15.7491 10.0023 16.0026 9.11884 16.4864C8.23542 16.9701 7.48798 17.6684 6.94542 18.5169C8.38994 19.6423 10.1693 20.2525 12.0004 20.2504Z"
        fill="#6C63FF" />
</svg>
