<svg width="99" height="26" viewBox="0 0 99 26" fill="none" xmlns="http://www.w3.org/2000/svg">
    <rect x="0.5" y="0.5" width="98" height="25" rx="12.5" stroke="#1C1C1C" stroke-opacity="0.6" />
    <path
        d="M11.5483 18V9.86865H8.59668V8.84033H15.6426V9.86865H12.6909V18H11.5483ZM18.9011 18.1206C18.2536 18.1206 17.6929 17.9788 17.2189 17.6953C16.7492 17.4076 16.3853 16.9992 16.1271 16.4702C15.8732 15.9412 15.7463 15.3128 15.7463 14.585V14.5723C15.7463 13.8402 15.8732 13.2096 16.1271 12.6807C16.3853 12.1517 16.7492 11.7454 17.2189 11.4619C17.6929 11.1784 18.2536 11.0366 18.9011 11.0366C19.5528 11.0366 20.1135 11.1784 20.5832 11.4619C21.0529 11.7454 21.4147 12.1517 21.6686 12.6807C21.9268 13.2096 22.0558 13.8402 22.0558 14.5723V14.585C22.0558 15.3128 21.9268 15.9412 21.6686 16.4702C21.4147 16.9992 21.0529 17.4076 20.5832 17.6953C20.1135 17.9788 19.5528 18.1206 18.9011 18.1206ZM18.9011 17.1431C19.3327 17.1431 19.6987 17.0415 19.9992 16.8384C20.2997 16.6353 20.5282 16.3433 20.6848 15.9624C20.8456 15.5815 20.926 15.1224 20.926 14.585V14.5723C20.926 14.0306 20.8456 13.5693 20.6848 13.1885C20.5282 12.8076 20.2997 12.5177 19.9992 12.3188C19.6987 12.1157 19.3327 12.0142 18.9011 12.0142C18.4694 12.0142 18.1034 12.1157 17.8029 12.3188C17.5025 12.5177 17.2718 12.8076 17.111 13.1885C16.9544 13.5693 16.8762 14.0306 16.8762 14.5723V14.585C16.8762 15.1224 16.9544 15.5815 17.111 15.9624C17.2718 16.3433 17.5025 16.6353 17.8029 16.8384C18.1034 17.0415 18.4694 17.1431 18.9011 17.1431ZM23.8607 20.2852V11.1572H24.9652V12.249H25.0668C25.2064 11.9951 25.382 11.7793 25.5936 11.6016C25.8052 11.4196 26.0464 11.2799 26.3173 11.1826C26.5881 11.0853 26.8822 11.0366 27.1996 11.0366C27.7793 11.0366 28.2829 11.1847 28.7103 11.481C29.142 11.7729 29.4763 12.1834 29.7133 12.7124C29.9502 13.2414 30.0687 13.8613 30.0687 14.5723V14.585C30.0687 15.3001 29.9502 15.9222 29.7133 16.4512C29.4763 16.9801 29.142 17.3906 28.7103 17.6826C28.2829 17.9746 27.7793 18.1206 27.1996 18.1206C26.8864 18.1206 26.5902 18.0719 26.3109 17.9746C26.0358 17.873 25.7904 17.7334 25.5746 17.5557C25.363 17.3779 25.1937 17.1663 25.0668 16.9209H24.9652V20.2852H23.8607ZM26.9457 17.1431C27.3646 17.1431 27.7222 17.0415 28.0184 16.8384C28.3146 16.631 28.541 16.3369 28.6976 15.9561C28.8584 15.571 28.9388 15.1139 28.9388 14.585V14.5723C28.9388 14.0391 28.8584 13.582 28.6976 13.2012C28.541 12.8203 28.3146 12.5283 28.0184 12.3252C27.7222 12.1178 27.3646 12.0142 26.9457 12.0142C26.531 12.0142 26.1734 12.1178 25.8729 12.3252C25.5725 12.5326 25.3418 12.8267 25.181 13.2075C25.0202 13.5884 24.9398 14.0433 24.9398 14.5723V14.585C24.9398 15.1097 25.0202 15.5646 25.181 15.9497C25.3418 16.3306 25.5725 16.6247 25.8729 16.832C26.1734 17.0394 26.531 17.1431 26.9457 17.1431ZM37.9822 18.1206C37.4744 18.1206 37.0258 18.0444 36.6365 17.8921C36.2471 17.7355 35.934 17.5176 35.697 17.2383C35.4643 16.959 35.3267 16.631 35.2844 16.2544H36.4143C36.5074 16.5379 36.6894 16.7664 36.9602 16.9399C37.231 17.1134 37.5844 17.2002 38.0203 17.2002C38.3292 17.2002 38.6 17.1558 38.8328 17.0669C39.0697 16.9738 39.2559 16.849 39.3913 16.6924C39.5268 16.5316 39.5945 16.3475 39.5945 16.1401V16.1274C39.5945 15.8947 39.5014 15.6979 39.3152 15.5371C39.129 15.3721 38.8243 15.2388 38.4011 15.1372L37.3411 14.8833C36.9136 14.7817 36.5624 14.6506 36.2873 14.4897C36.0123 14.3247 35.8092 14.1237 35.678 13.8867C35.5468 13.6455 35.4812 13.362 35.4812 13.0361V13.0298C35.4812 12.6489 35.5912 12.3083 35.8113 12.0078C36.0355 11.7074 36.3402 11.4704 36.7253 11.2969C37.1104 11.1234 37.5442 11.0366 38.0266 11.0366C38.5048 11.0366 38.928 11.1128 39.2961 11.2651C39.6685 11.4132 39.9669 11.6248 40.1911 11.8999C40.4197 12.175 40.5593 12.4987 40.6101 12.8711H39.5246C39.4527 12.6003 39.2877 12.3802 39.0295 12.2109C38.7714 12.0417 38.435 11.957 38.0203 11.957C37.7494 11.957 37.5082 12.0015 37.2966 12.0903C37.085 12.175 36.9179 12.2935 36.7952 12.4458C36.6724 12.5981 36.6111 12.7759 36.6111 12.979V12.9917C36.6111 13.144 36.6513 13.2795 36.7317 13.3979C36.8121 13.5164 36.9369 13.6201 37.1062 13.709C37.2755 13.7979 37.4934 13.8761 37.76 13.9438L38.8137 14.1978C39.4569 14.3543 39.9351 14.5786 40.2483 14.8706C40.5657 15.1626 40.7244 15.554 40.7244 16.0449V16.0576C40.7244 16.4639 40.6037 16.8236 40.3625 17.1367C40.1213 17.4456 39.7934 17.6868 39.3786 17.8604C38.9682 18.0339 38.5027 18.1206 37.9822 18.1206ZM45.3222 18.1206C44.6705 18.1206 44.1098 17.9767 43.6401 17.689C43.1746 17.4012 42.8149 16.995 42.561 16.4702C42.3113 15.9412 42.1864 15.3192 42.1864 14.604V14.5977C42.1864 13.891 42.3113 13.271 42.561 12.7378C42.8149 12.2046 43.1724 11.7878 43.6337 11.4873C44.095 11.1868 44.6345 11.0366 45.2524 11.0366C45.8744 11.0366 46.4076 11.1805 46.852 11.4683C47.3005 11.756 47.6433 12.158 47.8803 12.6743C48.1215 13.1864 48.2421 13.783 48.2421 14.4644V14.896H42.7577V14.0137H47.6772L47.1313 14.8198V14.3818C47.1313 13.8444 47.0509 13.4022 46.8901 13.0552C46.7293 12.7082 46.5071 12.45 46.2236 12.2808C45.94 12.1073 45.6142 12.0205 45.246 12.0205C44.8779 12.0205 44.5478 12.1115 44.2558 12.2935C43.968 12.4712 43.7395 12.7357 43.5702 13.0869C43.401 13.4382 43.3163 13.8698 43.3163 14.3818V14.8198C43.3163 15.3065 43.3988 15.7233 43.5639 16.0703C43.7289 16.4131 43.9638 16.6776 44.2685 16.8638C44.5732 17.0457 44.9329 17.1367 45.3476 17.1367C45.6565 17.1367 45.9252 17.0944 46.1537 17.0098C46.3822 16.9251 46.5706 16.8172 46.7187 16.686C46.8668 16.5549 46.9705 16.4215 47.0297 16.2861L47.0551 16.229H48.1596L48.1469 16.2798C48.0877 16.5125 47.9819 16.7389 47.8295 16.959C47.6814 17.1748 47.4889 17.3716 47.2519 17.5493C47.0149 17.7228 46.7335 17.8625 46.4076 17.9683C46.086 18.0698 45.7242 18.1206 45.3222 18.1206ZM50.1105 18V8.44043H51.2149V18H50.1105ZM53.4895 18V8.44043H54.594V18H53.4895ZM59.5981 18.1206C58.9464 18.1206 58.3857 17.9767 57.916 17.689C57.4505 17.4012 57.0908 16.995 56.8369 16.4702C56.5872 15.9412 56.4624 15.3192 56.4624 14.604V14.5977C56.4624 13.891 56.5872 13.271 56.8369 12.7378C57.0908 12.2046 57.4484 11.7878 57.9096 11.4873C58.3709 11.1868 58.9105 11.0366 59.5283 11.0366C60.1504 11.0366 60.6836 11.1805 61.1279 11.4683C61.5765 11.756 61.9192 12.158 62.1562 12.6743C62.3974 13.1864 62.518 13.783 62.518 14.4644V14.896H57.0337V14.0137H61.9531L61.4072 14.8198V14.3818C61.4072 13.8444 61.3268 13.4022 61.166 13.0552C61.0052 12.7082 60.783 12.45 60.4995 12.2808C60.216 12.1073 59.8901 12.0205 59.5219 12.0205C59.1538 12.0205 58.8237 12.1115 58.5317 12.2935C58.244 12.4712 58.0154 12.7357 57.8462 13.0869C57.6769 13.4382 57.5923 13.8698 57.5923 14.3818V14.8198C57.5923 15.3065 57.6748 15.7233 57.8398 16.0703C58.0049 16.4131 58.2397 16.6776 58.5444 16.8638C58.8491 17.0457 59.2088 17.1367 59.6235 17.1367C59.9324 17.1367 60.2011 17.0944 60.4297 17.0098C60.6582 16.9251 60.8465 16.8172 60.9946 16.686C61.1427 16.5549 61.2464 16.4215 61.3056 16.2861L61.331 16.229H62.4355L62.4228 16.2798C62.3636 16.5125 62.2578 16.7389 62.1054 16.959C61.9573 17.1748 61.7648 17.3716 61.5278 17.5493C61.2908 17.7228 61.0094 17.8625 60.6836 17.9683C60.362 18.0698 60.0001 18.1206 59.5981 18.1206ZM64.3229 18V11.1572H65.4274V12.1729H65.529C65.6601 11.8132 65.8823 11.5339 66.1955 11.335C66.5086 11.1361 66.8958 11.0366 67.3571 11.0366C67.4629 11.0366 67.5666 11.043 67.6681 11.0557C67.7739 11.0641 67.8543 11.0726 67.9093 11.0811V12.1538C67.7951 12.1326 67.6829 12.1178 67.5729 12.1094C67.4671 12.0967 67.3529 12.0903 67.2301 12.0903C66.8789 12.0903 66.5679 12.1602 66.297 12.2998C66.0262 12.4395 65.8125 12.6341 65.6559 12.8838C65.5036 13.1335 65.4274 13.4255 65.4274 13.7598V18H64.3229Z"
        fill="black" />
    <path
        d="M89.4315 9.5997C89.236 9.50385 89.0143 9.47511 88.8008 9.51793C88.5872 9.56075 88.3938 9.67274 88.2503 9.83657L86.1459 12.1047L83.9084 7.08657C83.9083 7.08449 83.9083 7.08241 83.9084 7.08032C83.8284 6.90679 83.7003 6.75981 83.5394 6.65679C83.3785 6.55377 83.1914 6.49902 83.0003 6.49902C82.8092 6.49902 82.6221 6.55377 82.4612 6.65679C82.3002 6.75981 82.1722 6.90679 82.0922 7.08032C82.0923 7.08241 82.0923 7.08449 82.0922 7.08657L79.8547 12.1047L77.7503 9.83657C77.6059 9.67271 77.4118 9.56062 77.1977 9.51744C76.9836 9.47426 76.7613 9.50236 76.5646 9.59744C76.368 9.69253 76.2079 9.84938 76.1088 10.044C76.0097 10.2387 75.9771 10.4604 76.0159 10.6753C76.0159 10.6822 76.0159 10.6884 76.0203 10.6953L77.4378 17.1872C77.4814 17.4158 77.6034 17.622 77.7828 17.7703C77.9621 17.9186 78.1876 17.9998 78.4203 17.9997H87.5809C87.8135 17.9996 88.0388 17.9184 88.218 17.7701C88.3973 17.6218 88.5192 17.4157 88.5628 17.1872L89.9803 10.6953C89.9803 10.6884 89.9803 10.6822 89.9847 10.6753C90.0242 10.4601 89.9914 10.2379 89.8913 10.0433C89.7912 9.84871 89.6296 9.69273 89.4315 9.5997ZM87.5847 16.9797L87.5809 16.9997H78.4197L78.4159 16.9797L77.0003 10.4997L77.009 10.5097L79.634 13.3372C79.6902 13.3979 79.7606 13.4438 79.8389 13.4706C79.9172 13.4974 80.0009 13.5044 80.0826 13.4909C80.1642 13.4774 80.2413 13.4438 80.3067 13.3932C80.3722 13.3426 80.4241 13.2766 80.4578 13.2009L83.0003 7.4997L85.5434 13.2028C85.5771 13.2784 85.629 13.3445 85.6944 13.3951C85.7599 13.4457 85.8369 13.4793 85.9186 13.4928C86.0002 13.5063 86.084 13.4993 86.1622 13.4725C86.2405 13.4457 86.3109 13.3998 86.3672 13.3391L88.9922 10.5116L89.0003 10.4997L87.5847 16.9797Z"
        fill="#EDB100" />
</svg>
