<svg width="86" height="26" viewBox="0 0 86 26" fill="none" xmlns="http://www.w3.org/2000/svg">
    <rect x="0.5" y="0.5" width="85" height="25" rx="12.5" stroke="#1C1C1C" stroke-opacity="0.6" />
    <path
        d="M11.8149 18L8.43799 8.84033H9.6377L12.3291 16.521H12.4307L15.1221 8.84033H16.3218L12.9448 18H11.8149ZM20.0373 18.1206C19.3856 18.1206 18.8249 17.9767 18.3552 17.689C17.8897 17.4012 17.53 16.995 17.2761 16.4702C17.0264 15.9412 16.9015 15.3192 16.9015 14.604V14.5977C16.9015 13.891 17.0264 13.271 17.2761 12.7378C17.53 12.2046 17.8875 11.7878 18.3488 11.4873C18.8101 11.1868 19.3496 11.0366 19.9675 11.0366C20.5895 11.0366 21.1227 11.1805 21.5671 11.4683C22.0156 11.756 22.3584 12.158 22.5954 12.6743C22.8366 13.1864 22.9572 13.783 22.9572 14.4644V14.896H17.4728V14.0137H22.3923L21.8464 14.8198V14.3818C21.8464 13.8444 21.766 13.4022 21.6052 13.0552C21.4444 12.7082 21.2222 12.45 20.9387 12.2808C20.6551 12.1073 20.3293 12.0205 19.9611 12.0205C19.593 12.0205 19.2629 12.1115 18.9709 12.2935C18.6831 12.4712 18.4546 12.7357 18.2853 13.0869C18.1161 13.4382 18.0314 13.8698 18.0314 14.3818V14.8198C18.0314 15.3065 18.1139 15.7233 18.279 16.0703C18.444 16.4131 18.6789 16.6776 18.9836 16.8638C19.2883 17.0457 19.648 17.1367 20.0627 17.1367C20.3716 17.1367 20.6403 17.0944 20.8688 17.0098C21.0973 16.9251 21.2857 16.8172 21.4338 16.686C21.5819 16.5549 21.6856 16.4215 21.7448 16.2861L21.7702 16.229H22.8747L22.862 16.2798C22.8028 16.5125 22.697 16.7389 22.5446 16.959C22.3965 17.1748 22.204 17.3716 21.967 17.5493C21.73 17.7228 21.4486 17.8625 21.1227 17.9683C20.8011 18.0698 20.4393 18.1206 20.0373 18.1206ZM24.7621 18V11.1572H25.8666V12.1729H25.9681C26.0993 11.8132 26.3215 11.5339 26.6346 11.335C26.9478 11.1361 27.335 11.0366 27.7963 11.0366C27.9021 11.0366 28.0057 11.043 28.1073 11.0557C28.2131 11.0641 28.2935 11.0726 28.3485 11.0811V12.1538C28.2342 12.1326 28.1221 12.1178 28.0121 12.1094C27.9063 12.0967 27.792 12.0903 27.6693 12.0903C27.3181 12.0903 27.007 12.1602 26.7362 12.2998C26.4654 12.4395 26.2517 12.6341 26.0951 12.8838C25.9427 13.1335 25.8666 13.4255 25.8666 13.7598V18H24.7621ZM29.8296 18V11.1572H30.9341V18H29.8296ZM30.3882 9.83691C30.1809 9.83691 30.001 9.76286 29.8487 9.61475C29.7006 9.4624 29.6265 9.28255 29.6265 9.0752C29.6265 8.86361 29.7006 8.68376 29.8487 8.53564C30.001 8.38753 30.1809 8.31348 30.3882 8.31348C30.5998 8.31348 30.7797 8.38753 30.9278 8.53564C31.0759 8.68376 31.15 8.86361 31.15 9.0752C31.15 9.28255 31.0759 9.4624 30.9278 9.61475C30.7797 9.76286 30.5998 9.83691 30.3882 9.83691ZM33.5642 18V12.0713H32.428V11.1572H33.5642V10.3955C33.5642 9.93848 33.6383 9.56185 33.7864 9.26562C33.9387 8.96517 34.163 8.743 34.4592 8.59912C34.7554 8.45101 35.1194 8.37695 35.551 8.37695C35.6864 8.37695 35.8134 8.3833 35.9319 8.396C36.0546 8.40446 36.1731 8.41927 36.2873 8.44043V9.32275C36.2196 9.31006 36.1413 9.3016 36.0525 9.29736C35.9636 9.29313 35.8705 9.29102 35.7732 9.29102C35.3796 9.29102 35.0961 9.38623 34.9226 9.57666C34.7533 9.76709 34.6687 10.0506 34.6687 10.4272V11.1572H36.2239V12.0713H34.6687V18H33.5642ZM37.9335 18V11.1572H39.038V18H37.9335ZM38.4921 9.83691C38.2848 9.83691 38.1049 9.76286 37.9526 9.61475C37.8044 9.4624 37.7304 9.28255 37.7304 9.0752C37.7304 8.86361 37.8044 8.68376 37.9526 8.53564C38.1049 8.38753 38.2848 8.31348 38.4921 8.31348C38.7037 8.31348 38.8835 8.38753 39.0317 8.53564C39.1798 8.68376 39.2538 8.86361 39.2538 9.0752C39.2538 9.28255 39.1798 9.4624 39.0317 9.61475C38.8835 9.76286 38.7037 9.83691 38.4921 9.83691ZM44.004 18.1206C43.3523 18.1206 42.7916 17.9767 42.3219 17.689C41.8564 17.4012 41.4967 16.995 41.2428 16.4702C40.9931 15.9412 40.8683 15.3192 40.8683 14.604V14.5977C40.8683 13.891 40.9931 13.271 41.2428 12.7378C41.4967 12.2046 41.8543 11.7878 42.3155 11.4873C42.7768 11.1868 43.3163 11.0366 43.9342 11.0366C44.5563 11.0366 45.0895 11.1805 45.5338 11.4683C45.9824 11.756 46.3251 12.158 46.5621 12.6743C46.8033 13.1864 46.9239 13.783 46.9239 14.4644V14.896H41.4396V14.0137H46.359L45.8131 14.8198V14.3818C45.8131 13.8444 45.7327 13.4022 45.5719 13.0552C45.4111 12.7082 45.1889 12.45 44.9054 12.2808C44.6218 12.1073 44.296 12.0205 43.9278 12.0205C43.5597 12.0205 43.2296 12.1115 42.9376 12.2935C42.6498 12.4712 42.4213 12.7357 42.2521 13.0869C42.0828 13.4382 41.9981 13.8698 41.9981 14.3818V14.8198C41.9981 15.3065 42.0807 15.7233 42.2457 16.0703C42.4107 16.4131 42.6456 16.6776 42.9503 16.8638C43.255 17.0457 43.6147 17.1367 44.0294 17.1367C44.3383 17.1367 44.607 17.0944 44.8356 17.0098C45.0641 16.9251 45.2524 16.8172 45.4005 16.686C45.5486 16.5549 45.6523 16.4215 45.7115 16.2861L45.7369 16.229H46.8414L46.8287 16.2798C46.7695 16.5125 46.6637 16.7389 46.5113 16.959C46.3632 17.1748 46.1707 17.3716 45.9337 17.5493C45.6967 17.7228 45.4153 17.8625 45.0895 17.9683C44.7678 18.0698 44.406 18.1206 44.004 18.1206ZM51.2552 18.1206C50.6796 18.1206 50.1761 17.9746 49.7444 17.6826C49.3128 17.3906 48.9785 16.9801 48.7415 16.4512C48.5045 15.918 48.386 15.2959 48.386 14.585V14.5723C48.386 13.8571 48.5045 13.235 48.7415 12.7061C48.9785 12.1771 49.3107 11.7666 49.7381 11.4746C50.1697 11.1826 50.6754 11.0366 51.2552 11.0366C51.5683 11.0366 51.8624 11.0874 52.1375 11.189C52.4168 11.2863 52.6643 11.4238 52.8802 11.6016C53.096 11.7793 53.2653 11.9909 53.388 12.2363H53.4895V8.44043H54.594V18H53.4895V16.9082H53.388C53.2483 17.1621 53.0727 17.38 52.8611 17.562C52.6495 17.7397 52.4083 17.8773 52.1375 17.9746C51.8667 18.0719 51.5725 18.1206 51.2552 18.1206ZM51.5091 17.1431C51.9238 17.1431 52.2814 17.0394 52.5818 16.832C52.8823 16.6247 53.1129 16.3306 53.2737 15.9497C53.4345 15.5646 53.5149 15.1097 53.5149 14.585V14.5723C53.5149 14.0433 53.4345 13.5884 53.2737 13.2075C53.1129 12.8267 52.8823 12.5326 52.5818 12.3252C52.2814 12.1178 51.9238 12.0142 51.5091 12.0142C51.0944 12.0142 50.7368 12.1178 50.4363 12.3252C50.1401 12.5283 49.9116 12.8203 49.7508 13.2012C49.5942 13.582 49.5159 14.0391 49.5159 14.5723V14.585C49.5159 15.1139 49.5942 15.571 49.7508 15.9561C49.9116 16.3369 50.1401 16.631 50.4363 16.8384C50.7368 17.0415 51.0944 17.1431 51.5091 17.1431Z"
        fill="black" />
    <path
        d="M76.1163 11.4262C75.8806 11.18 75.6369 10.9262 75.545 10.7031C75.46 10.4988 75.455 10.16 75.45 9.83187C75.4406 9.22187 75.4306 8.53062 74.95 8.05C74.4694 7.56937 73.7781 7.55937 73.1681 7.55C72.84 7.545 72.5013 7.54 72.2969 7.455C72.0744 7.36312 71.82 7.11937 71.5737 6.88375C71.1425 6.46937 70.6525 6 70 6C69.3475 6 68.8581 6.46937 68.4262 6.88375C68.18 7.11937 67.9262 7.36312 67.7031 7.455C67.5 7.54 67.16 7.545 66.8319 7.55C66.2219 7.55937 65.5306 7.56937 65.05 8.05C64.5694 8.53062 64.5625 9.22187 64.55 9.83187C64.545 10.16 64.54 10.4988 64.455 10.7031C64.3631 10.9256 64.1194 11.18 63.8837 11.4262C63.4694 11.8575 63 12.3475 63 13C63 13.6525 63.4694 14.1419 63.8837 14.5737C64.1194 14.82 64.3631 15.0737 64.455 15.2969C64.54 15.5013 64.545 15.84 64.55 16.1681C64.5594 16.7781 64.5694 17.4694 65.05 17.95C65.5306 18.4306 66.2219 18.4406 66.8319 18.45C67.16 18.455 67.4988 18.46 67.7031 18.545C67.9256 18.6369 68.18 18.8806 68.4262 19.1163C68.8575 19.5306 69.3475 20 70 20C70.6525 20 71.1419 19.5306 71.5737 19.1163C71.82 18.8806 72.0737 18.6369 72.2969 18.545C72.5013 18.46 72.84 18.455 73.1681 18.45C73.7781 18.4406 74.4694 18.4306 74.95 17.95C75.4306 17.4694 75.4406 16.7781 75.45 16.1681C75.455 15.84 75.46 15.5013 75.545 15.2969C75.6369 15.0744 75.8806 14.82 76.1163 14.5737C76.5306 14.1425 77 13.6525 77 13C77 12.3475 76.5306 11.8581 76.1163 11.4262ZM75.3944 13.8819C75.095 14.1944 74.785 14.5175 74.6206 14.9144C74.4631 15.2956 74.4563 15.7312 74.45 16.1531C74.4437 16.5906 74.4369 17.0487 74.2425 17.2425C74.0481 17.4363 73.5931 17.4437 73.1531 17.45C72.7312 17.4563 72.2956 17.4631 71.9144 17.6206C71.5175 17.785 71.1944 18.095 70.8819 18.3944C70.5694 18.6937 70.25 19 70 19C69.75 19 69.4281 18.6925 69.1181 18.3944C68.8081 18.0962 68.4825 17.785 68.0856 17.6206C67.7044 17.4631 67.2688 17.4563 66.8469 17.45C66.4094 17.4437 65.9512 17.4369 65.7575 17.2425C65.5638 17.0481 65.5562 16.5931 65.55 16.1531C65.5438 15.7312 65.5369 15.2956 65.3794 14.9144C65.215 14.5175 64.905 14.1944 64.6056 13.8819C64.3062 13.5694 64 13.25 64 13C64 12.75 64.3075 12.4281 64.6056 12.1181C64.9037 11.8081 65.215 11.4825 65.3794 11.0856C65.5369 10.7044 65.5438 10.2688 65.55 9.84688C65.5562 9.40938 65.5631 8.95125 65.7575 8.7575C65.9519 8.56375 66.4069 8.55625 66.8469 8.55C67.2688 8.54375 67.7044 8.53688 68.0856 8.37937C68.4825 8.215 68.8056 7.905 69.1181 7.60562C69.4306 7.30625 69.75 7 70 7C70.25 7 70.5719 7.3075 70.8819 7.60562C71.1919 7.90375 71.5175 8.215 71.9144 8.37937C72.2956 8.53688 72.7312 8.54375 73.1531 8.55C73.5906 8.55625 74.0487 8.56312 74.2425 8.7575C74.4363 8.95187 74.4437 9.40688 74.45 9.84688C74.4563 10.2688 74.4631 10.7044 74.6206 11.0856C74.785 11.4825 75.095 11.8056 75.3944 12.1181C75.6937 12.4306 76 12.75 76 13C76 13.25 75.6925 13.5719 75.3944 13.8819ZM72.8538 11.1462C72.9002 11.1927 72.9371 11.2478 72.9623 11.3085C72.9874 11.3692 73.0004 11.4343 73.0004 11.5C73.0004 11.5657 72.9874 11.6308 72.9623 11.6915C72.9371 11.7522 72.9002 11.8073 72.8538 11.8538L69.3538 15.3538C69.3073 15.4002 69.2522 15.4371 69.1915 15.4623C69.1308 15.4874 69.0657 15.5004 69 15.5004C68.9343 15.5004 68.8692 15.4874 68.8085 15.4623C68.7478 15.4371 68.6927 15.4002 68.6462 15.3538L67.1462 13.8538C67.0524 13.7599 66.9997 13.6327 66.9997 13.5C66.9997 13.3673 67.0524 13.2401 67.1462 13.1462C67.2401 13.0524 67.3673 12.9997 67.5 12.9997C67.6327 12.9997 67.7599 13.0524 67.8538 13.1462L69 14.2931L72.1462 11.1462C72.1927 11.0998 72.2478 11.0629 72.3085 11.0377C72.3692 11.0126 72.4343 10.9996 72.5 10.9996C72.5657 10.9996 72.6308 11.0126 72.6915 11.0377C72.7522 11.0629 72.8073 11.0998 72.8538 11.1462Z"
        fill="#159DFF" />
</svg>
