<svg width="24" height="24" viewBox="0 0 24 24" fill="none" xmlns="http://www.w3.org/2000/svg">
    <path
        d="M14.2493 7.5C14.8427 7.5 15.4227 7.32405 15.916 6.99441C16.4094 6.66477 16.7939 6.19623 17.021 5.64805C17.248 5.09987 17.3074 4.49667 17.1917 3.91473C17.0759 3.33279 16.7902 2.79824 16.3706 2.37868C15.9511 1.95912 15.4165 1.6734 14.8346 1.55765C14.2526 1.44189 13.6494 1.5013 13.1013 1.72836C12.5531 1.95543 12.0846 2.33994 11.7549 2.83329C11.4253 3.32664 11.2493 3.90666 11.2493 4.5C11.2493 5.29565 11.5654 6.05871 12.128 6.62132C12.6906 7.18393 13.4537 7.5 14.2493 7.5ZM14.2493 3C14.546 3 14.836 3.08797 15.0827 3.2528C15.3293 3.41762 15.5216 3.65189 15.6351 3.92598C15.7487 4.20007 15.7784 4.50167 15.7205 4.79264C15.6626 5.08361 15.5198 5.35088 15.31 5.56066C15.1002 5.77044 14.8329 5.9133 14.542 5.97118C14.251 6.02906 13.9494 5.99935 13.6753 5.88582C13.4012 5.77229 13.1669 5.58003 13.0021 5.33336C12.8373 5.08668 12.7493 4.79667 12.7493 4.5C12.7493 4.10218 12.9074 3.72065 13.1887 3.43934C13.47 3.15804 13.8515 3 14.2493 3ZM20.2493 13.5C20.2493 13.6989 20.1703 13.8897 20.0296 14.0303C19.889 14.171 19.6982 14.25 19.4993 14.25C16.189 14.25 14.5353 12.5803 13.2068 11.2388C12.9499 10.9791 12.7043 10.7325 12.4568 10.5038L11.1978 13.3988L14.6853 15.8897C14.7824 15.9591 14.8616 16.0507 14.9162 16.1568C14.9708 16.263 14.9993 16.3806 14.9993 16.5V21.75C14.9993 21.9489 14.9203 22.1397 14.7796 22.2803C14.639 22.421 14.4482 22.5 14.2493 22.5C14.0504 22.5 13.8596 22.421 13.719 22.2803C13.5783 22.1397 13.4993 21.9489 13.4993 21.75V16.8863L10.5865 14.805L7.43744 22.0491C7.37916 22.1831 7.28298 22.2972 7.16073 22.3773C7.03848 22.4574 6.89548 22.5001 6.74932 22.5C6.64633 22.5002 6.54444 22.4788 6.45025 22.4372C6.26793 22.3579 6.12454 22.2095 6.05158 22.0246C5.97863 21.8397 5.98209 21.6333 6.06119 21.4509L11.1312 9.79125C10.2584 9.63657 9.16994 9.90375 7.87807 10.5956C6.84775 11.1639 5.88613 11.8487 5.01213 12.6366C4.86624 12.7672 4.67503 12.8357 4.47936 12.8272C4.28368 12.8188 4.09908 12.7341 3.96501 12.5913C3.83093 12.4486 3.75802 12.259 3.76186 12.0632C3.76571 11.8674 3.84599 11.6808 3.98557 11.5434C4.21994 11.3231 9.769 6.17813 13.2406 9.19219C13.5996 9.50344 13.9418 9.84844 14.2718 10.1831C15.5796 11.5031 16.8143 12.75 19.4993 12.75C19.6982 12.75 19.889 12.829 20.0296 12.9697C20.1703 13.1103 20.2493 13.3011 20.2493 13.5Z"
        fill="#1C1C1C" />
</svg>
